<svg width="110" height="110" viewBox="0 0 110 110" fill="none" xmlns="http://www.w3.org/2000/svg">
<g opacity="0.8">
<path opacity="0.4" d="M66.5806 64.5755C66.5806 64.7289 66.4219 64.6629 66.2792 64.7193C66.1884 64.7552 66.1549 64.7494 66.1425 64.7018C66.1221 64.6232 66.1663 64.5391 66.2402 64.5055C66.3259 64.4664 66.4532 64.4481 66.5806 64.5755C66.5806 64.3528 66.5806 64.5755 66.5806 64.5755ZM66.8033 64.5755C66.8033 64.3528 66.5806 64.1301 66.3579 64.1301C66.1353 64.1301 65.9126 64.3528 65.9126 64.5755C65.9126 64.7981 66.1353 65.0208 66.3579 65.0208C66.5806 65.0208 66.8033 64.7981 66.8033 64.5755ZM66.0069 44.6302C65.9551 44.5774 65.885 44.5625 65.8327 44.6149C65.7772 44.6703 65.9561 44.5863 66.0063 44.6466C68.4016 47.5211 69.9206 51.0438 69.9206 55.0006C69.9206 58.4951 68.6353 61.7754 66.6949 64.2112C66.6496 64.2681 66.69 64.3528 66.7628 64.3528C66.7884 64.3528 66.8128 64.3414 66.8292 64.3216C69.0403 61.6565 70.366 58.5486 70.366 54.7779C70.1459 51.0372 68.6213 47.2966 66.0069 44.6302ZM65.9126 44.535C65.9126 44.535 65.7079 44.6365 65.661 44.6576C65.4672 44.7446 65.4673 44.7037 65.4673 44.535C65.4673 44.3123 65.4672 44.3123 65.9126 44.535C65.6899 44.3123 65.9126 44.3123 65.9126 44.535ZM66.1353 44.535C66.1353 44.3123 65.9126 44.0896 65.6899 44.0896C65.4672 44.0896 65.2446 44.3123 65.2446 44.535C65.2446 44.7577 65.4672 44.9803 65.6899 44.9803C65.9126 44.9803 66.1353 44.7577 66.1353 44.535ZM65.2446 66.1342C65.2446 66.2876 65.0859 66.2216 64.9432 66.278C64.7992 66.3349 64.7992 66.287 64.7992 66.1342C64.7992 65.9115 64.7992 65.9115 65.2446 66.1342C65.2446 65.9115 65.2446 65.9115 65.2446 66.1342ZM65.4673 66.1342C65.4673 65.9115 65.2446 65.6888 65.0219 65.6888C64.7993 65.6888 64.5766 65.9115 64.5766 66.1342C64.5766 66.3568 64.7993 66.5795 65.0219 66.5795C65.2446 66.5795 65.4673 66.3568 65.4673 66.1342ZM64.3539 43.1989C64.3539 43.3524 64.1952 43.2863 64.0525 43.3428C63.9617 43.3787 63.9282 43.3729 63.9158 43.3253C63.8954 43.2467 63.9397 43.1626 64.0135 43.1289C64.0992 43.0899 64.2266 43.0716 64.3539 43.1989C64.3539 42.9763 64.3539 43.1989 64.3539 43.1989ZM64.5766 43.1989C64.5766 42.9763 64.3539 42.7536 64.1312 42.7536C63.9086 42.7536 63.6859 42.9763 63.6859 43.1989C63.6859 43.4216 63.9086 43.6443 64.1312 43.6443C64.3539 43.6443 64.5766 43.4216 64.5766 43.1989ZM64.7992 66.3568C62.1272 68.5836 58.7872 69.9196 55.0018 69.9196C49.9271 69.9196 45.5083 67.5147 42.8286 63.5713C42.797 63.5249 42.7708 63.4666 42.8246 63.4506C42.8905 63.4311 43.0665 63.3641 43.107 63.4196C45.792 67.1024 50.1813 69.4742 55.0018 69.4742C58.7872 69.9196 62.1272 68.3609 64.7992 66.3568ZM42.9777 63.2394C42.9777 63.3146 42.6793 63.3935 42.605 63.405C42.5324 63.4163 42.5324 63.3611 42.5324 63.2394C42.5324 63.2394 42.5324 63.2394 42.5324 63.2394C42.5324 63.2394 42.5324 63.0168 42.9777 63.2394C42.755 63.0168 42.9777 63.2394 42.9777 63.2394ZM43.2004 63.2394C43.2004 63.0168 42.9777 62.7941 42.755 62.7941C42.5324 62.7941 42.3097 63.0168 42.3097 63.2394C42.3097 63.4621 42.5324 63.6848 42.755 63.6848C42.9777 63.6848 43.2004 63.4621 43.2004 63.2394ZM41.6417 61.0127C41.6417 61.0127 41.4371 61.1143 41.3901 61.1354C41.1964 61.2223 41.1964 61.1814 41.1964 61.0127C41.1964 60.79 41.1964 60.79 41.6417 61.0127C41.419 60.79 41.6417 60.79 41.6417 61.0127ZM41.8644 61.0127C41.8644 60.79 41.6417 60.5674 41.419 60.5674C41.1964 60.5674 40.9737 60.79 40.9737 61.0127C40.9737 61.2354 41.1964 61.4581 41.419 61.4581C41.6417 61.4581 41.8644 61.2354 41.8644 61.0127ZM63.9086 42.9763C61.4592 41.1949 58.3419 40.0815 55.0018 40.0815C46.7631 40.0815 40.083 46.7617 40.083 55.0006C40.083 56.9793 40.5172 58.958 41.1711 60.7224C41.1862 60.7632 41.2251 60.79 41.2686 60.79C41.3414 60.79 41.3918 60.7173 41.3666 60.649C40.7278 58.9145 40.3057 57.1744 40.3057 55.2232C40.3057 46.9844 46.9857 40.3042 55.2245 40.3042C58.3419 40.0815 61.4592 41.1949 63.9086 42.9763Z" fill="#06FF79"/>
<g opacity="0.4">
<mask id="path-2-inside-1_7_1217" fill="white">
<path d="M71.0322 45.6483C71.0322 45.6483 71.0322 45.6483 71.0322 45.6483C71.2549 45.6483 71.2549 45.8709 71.2549 46.0936C71.2549 46.3163 71.0322 46.3163 70.8095 46.3163C70.7878 46.3163 70.7682 46.3142 70.7506 46.3101C70.4331 46.2379 70.7066 45.6483 71.0322 45.6483V45.6483ZM71.5332 45.7596C71.4182 45.5296 71.1075 45.4043 70.8546 45.4502C70.7075 45.4768 70.5869 45.5324 70.5869 45.6483C70.5869 45.8709 70.5869 46.3163 70.8095 46.3163C70.9063 46.3163 71.0452 46.3163 71.1713 46.298C71.4257 46.2611 71.6482 45.9896 71.5332 45.7596V45.7596ZM47.9022 37.9739C47.7501 38.0357 47.6122 38.1841 47.7524 38.2694V38.2694C47.7988 38.2977 47.9004 38.2892 47.9506 38.2683C52.1639 36.5135 57.0307 36.084 61.4574 37.8547C65.6192 39.388 68.7036 42.2141 70.7106 45.6972C70.7608 45.7842 70.8799 45.8006 70.9509 45.7296V45.7296C70.999 45.6815 71.0093 45.6073 70.9755 45.5483C68.9655 42.0314 65.6485 39.1762 61.4574 37.6321C56.8733 35.8857 52.0751 36.2794 47.9022 37.9739ZM47.4293 38.0774C47.4293 38.0774 47.4293 38.0774 47.4293 38.0774C47.652 38.0774 47.652 38.3001 47.652 38.5228C47.652 38.7454 47.4293 38.7454 47.2067 38.7454C47.1849 38.7454 47.1654 38.7433 47.1477 38.7393C46.8302 38.667 47.1037 38.0774 47.4293 38.0774V38.0774ZM47.652 37.8547C47.4293 37.8547 46.984 37.8547 46.984 38.0774C46.984 38.3001 46.984 38.7454 47.2067 38.7454V38.7454C47.6959 38.7454 48.1772 38.0624 47.727 37.8709C47.7024 37.8605 47.6772 37.8547 47.652 37.8547ZM72.0938 47.9211C72.1673 47.8602 72.213 47.857 72.2836 47.9211C72.3682 47.9978 72.3682 48.1591 72.3682 48.3203C72.3682 48.543 72.1456 48.543 71.9229 48.543C71.8339 48.543 71.7805 48.5075 71.7485 48.4506C71.6508 48.2776 71.9408 48.0479 72.0938 47.9211V47.9211ZM72.6466 47.9863C72.5316 47.7564 72.2209 47.631 71.9679 47.6769C71.8208 47.7035 71.7002 47.7591 71.7002 47.875C71.7002 48.0977 71.7002 48.543 71.9229 48.543C72.0197 48.543 72.1586 48.543 72.2846 48.5247C72.5391 48.4878 72.7615 48.2163 72.6466 47.9863V47.9863ZM45.4253 39.1908C45.648 39.1908 45.648 39.4134 45.648 39.6361C45.648 39.8588 45.4253 39.8588 45.2026 39.8588C45.1867 39.8588 45.172 39.8577 45.1583 39.8555C44.8273 39.8026 45.0901 39.1908 45.4253 39.1908V39.1908ZM45.4253 38.9681C45.2026 38.9681 44.7573 38.9681 44.7573 39.1908C44.7573 39.4134 44.7573 39.8588 44.98 39.8588V39.8588C45.4692 39.8588 46.0546 39.1676 45.5965 38.996C45.549 38.9781 45.4921 38.9681 45.4253 38.9681ZM72.3268 48.5372C72.3824 48.5521 72.382 48.5784 72.4026 48.6321C73.9268 52.6171 73.9154 57.0359 72.3682 61.2353C70.1596 66.9778 65.5413 71.1867 60.0342 72.5585C59.9653 72.5756 59.8988 72.5233 59.8988 72.4522V72.4522C59.8988 72.403 59.9316 72.3597 59.979 72.3463C65.5104 70.7716 70.1522 66.7743 72.3682 61.0126C73.8991 56.8572 73.7116 52.487 72.4385 48.5349C72.4067 48.4361 72.2265 48.5103 72.3268 48.5372V48.5372ZM59.4534 72.5916C59.4534 72.5916 59.4534 72.5916 59.4534 72.5916C59.6761 72.5916 59.6761 72.8142 59.6761 73.0369C59.6761 73.2596 59.4534 73.2596 59.2308 73.2596C59.2091 73.2596 59.1895 73.2575 59.1718 73.2535C58.8543 73.1812 59.1278 72.5916 59.4534 72.5916V72.5916ZM59.6761 72.3689C59.4534 72.3689 59.0081 72.3689 59.0081 72.5916C59.0081 72.8143 59.0081 73.2596 59.2308 73.2596V73.2596C59.72 73.2596 60.2013 72.5765 59.7511 72.3851C59.7265 72.3746 59.7013 72.3689 59.6761 72.3689ZM56.3361 73.0369C56.5587 73.0369 56.5587 73.2596 56.5587 73.4823C56.5587 73.7049 56.3361 73.7049 56.1134 73.7049C55.8907 73.7049 55.8907 73.4823 55.8907 73.2596C55.8907 73.0369 56.1134 73.0369 56.3361 73.0369ZM56.6144 73.1483C56.4994 72.9183 56.1887 72.793 55.9357 72.8388C55.7887 72.8655 55.6681 72.921 55.6681 73.0369C55.6681 73.2596 55.6681 73.7049 55.8907 73.7049C55.9875 73.7049 56.1264 73.7049 56.2525 73.6866C56.5069 73.6497 56.7294 73.3782 56.6144 73.1483V73.1483ZM44.98 39.6361C41.8626 41.6402 39.1906 44.7576 37.8545 48.7657C34.2918 58.3406 39.1906 69.0288 48.7653 72.5916C51.1775 73.4687 53.3737 73.698 55.7792 73.7048C55.8407 73.705 55.8907 73.6551 55.8907 73.5936V73.5936C55.8907 73.5321 55.841 73.4823 55.7795 73.4821C53.5827 73.4747 51.1777 73.2448 48.988 72.3689C39.6359 68.8062 34.7372 58.3406 38.0772 48.9883C39.4132 44.9803 41.8626 41.8628 44.98 39.6361Z"/>
</mask>
<path d="M71.0322 45.6483C71.0322 45.6483 71.0322 45.6483 71.0322 45.6483C71.2549 45.6483 71.2549 45.8709 71.2549 46.0936C71.2549 46.3163 71.0322 46.3163 70.8095 46.3163C70.7878 46.3163 70.7682 46.3142 70.7506 46.3101C70.4331 46.2379 70.7066 45.6483 71.0322 45.6483V45.6483ZM71.5332 45.7596C71.4182 45.5296 71.1075 45.4043 70.8546 45.4502C70.7075 45.4768 70.5869 45.5324 70.5869 45.6483C70.5869 45.8709 70.5869 46.3163 70.8095 46.3163C70.9063 46.3163 71.0452 46.3163 71.1713 46.298C71.4257 46.2611 71.6482 45.9896 71.5332 45.7596V45.7596ZM47.9022 37.9739C47.7501 38.0357 47.6122 38.1841 47.7524 38.2694V38.2694C47.7988 38.2977 47.9004 38.2892 47.9506 38.2683C52.1639 36.5135 57.0307 36.084 61.4574 37.8547C65.6192 39.388 68.7036 42.2141 70.7106 45.6972C70.7608 45.7842 70.8799 45.8006 70.9509 45.7296V45.7296C70.999 45.6815 71.0093 45.6073 70.9755 45.5483C68.9655 42.0314 65.6485 39.1762 61.4574 37.6321C56.8733 35.8857 52.0751 36.2794 47.9022 37.9739ZM47.4293 38.0774C47.4293 38.0774 47.4293 38.0774 47.4293 38.0774C47.652 38.0774 47.652 38.3001 47.652 38.5228C47.652 38.7454 47.4293 38.7454 47.2067 38.7454C47.1849 38.7454 47.1654 38.7433 47.1477 38.7393C46.8302 38.667 47.1037 38.0774 47.4293 38.0774V38.0774ZM47.652 37.8547C47.4293 37.8547 46.984 37.8547 46.984 38.0774C46.984 38.3001 46.984 38.7454 47.2067 38.7454V38.7454C47.6959 38.7454 48.1772 38.0624 47.727 37.8709C47.7024 37.8605 47.6772 37.8547 47.652 37.8547ZM72.0938 47.9211C72.1673 47.8602 72.213 47.857 72.2836 47.9211C72.3682 47.9978 72.3682 48.1591 72.3682 48.3203C72.3682 48.543 72.1456 48.543 71.9229 48.543C71.8339 48.543 71.7805 48.5075 71.7485 48.4506C71.6508 48.2776 71.9408 48.0479 72.0938 47.9211V47.9211ZM72.6466 47.9863C72.5316 47.7564 72.2209 47.631 71.9679 47.6769C71.8208 47.7035 71.7002 47.7591 71.7002 47.875C71.7002 48.0977 71.7002 48.543 71.9229 48.543C72.0197 48.543 72.1586 48.543 72.2846 48.5247C72.5391 48.4878 72.7615 48.2163 72.6466 47.9863V47.9863ZM45.4253 39.1908C45.648 39.1908 45.648 39.4134 45.648 39.6361C45.648 39.8588 45.4253 39.8588 45.2026 39.8588C45.1867 39.8588 45.172 39.8577 45.1583 39.8555C44.8273 39.8026 45.0901 39.1908 45.4253 39.1908V39.1908ZM45.4253 38.9681C45.2026 38.9681 44.7573 38.9681 44.7573 39.1908C44.7573 39.4134 44.7573 39.8588 44.98 39.8588V39.8588C45.4692 39.8588 46.0546 39.1676 45.5965 38.996C45.549 38.9781 45.4921 38.9681 45.4253 38.9681ZM72.3268 48.5372C72.3824 48.5521 72.382 48.5784 72.4026 48.6321C73.9268 52.6171 73.9154 57.0359 72.3682 61.2353C70.1596 66.9778 65.5413 71.1867 60.0342 72.5585C59.9653 72.5756 59.8988 72.5233 59.8988 72.4522V72.4522C59.8988 72.403 59.9316 72.3597 59.979 72.3463C65.5104 70.7716 70.1522 66.7743 72.3682 61.0126C73.8991 56.8572 73.7116 52.487 72.4385 48.5349C72.4067 48.4361 72.2265 48.5103 72.3268 48.5372V48.5372ZM59.4534 72.5916C59.4534 72.5916 59.4534 72.5916 59.4534 72.5916C59.6761 72.5916 59.6761 72.8142 59.6761 73.0369C59.6761 73.2596 59.4534 73.2596 59.2308 73.2596C59.2091 73.2596 59.1895 73.2575 59.1718 73.2535C58.8543 73.1812 59.1278 72.5916 59.4534 72.5916V72.5916ZM59.6761 72.3689C59.4534 72.3689 59.0081 72.3689 59.0081 72.5916C59.0081 72.8143 59.0081 73.2596 59.2308 73.2596V73.2596C59.72 73.2596 60.2013 72.5765 59.7511 72.3851C59.7265 72.3746 59.7013 72.3689 59.6761 72.3689ZM56.3361 73.0369C56.5587 73.0369 56.5587 73.2596 56.5587 73.4823C56.5587 73.7049 56.3361 73.7049 56.1134 73.7049C55.8907 73.7049 55.8907 73.4823 55.8907 73.2596C55.8907 73.0369 56.1134 73.0369 56.3361 73.0369ZM56.6144 73.1483C56.4994 72.9183 56.1887 72.793 55.9357 72.8388C55.7887 72.8655 55.6681 72.921 55.6681 73.0369C55.6681 73.2596 55.6681 73.7049 55.8907 73.7049C55.9875 73.7049 56.1264 73.7049 56.2525 73.6866C56.5069 73.6497 56.7294 73.3782 56.6144 73.1483V73.1483ZM44.98 39.6361C41.8626 41.6402 39.1906 44.7576 37.8545 48.7657C34.2918 58.3406 39.1906 69.0288 48.7653 72.5916C51.1775 73.4687 53.3737 73.698 55.7792 73.7048C55.8407 73.705 55.8907 73.6551 55.8907 73.5936V73.5936C55.8907 73.5321 55.841 73.4823 55.7795 73.4821C53.5827 73.4747 51.1777 73.2448 48.988 72.3689C39.6359 68.8062 34.7372 58.3406 38.0772 48.9883C39.4132 44.9803 41.8626 41.8628 44.98 39.6361Z" fill="#06FF79"/>
<path d="M61.4574 37.8547L61.086 38.7832L61.0988 38.7883L61.1117 38.7931L61.4574 37.8547ZM61.4574 37.6321L61.1014 38.5666L61.1117 38.5704L61.4574 37.6321ZM72.3682 61.2353L73.3016 61.5943L73.3041 61.5877L73.3066 61.581L72.3682 61.2353ZM72.3682 61.0126L73.3016 61.3716L73.3041 61.365L73.3066 61.3583L72.3682 61.0126ZM44.98 39.6361L45.5612 40.4499L44.4392 38.7949L44.98 39.6361ZM37.8545 48.7657L38.7918 49.1144L38.7978 49.0982L38.8032 49.0819L37.8545 48.7657ZM48.7653 72.5916L48.4166 73.5288L48.4236 73.5314L48.7653 72.5916ZM48.988 72.3689L49.3594 71.4404L49.3517 71.4374L49.344 71.4344L48.988 72.3689ZM38.0772 48.9883L39.019 49.3247L39.0225 49.3147L39.0259 49.3046L38.0772 48.9883ZM55.7792 73.7048L55.782 72.7048L55.7792 73.7048ZM71.0322 45.6483L71.0322 44.6483L71.0322 45.6483ZM59.1718 73.2535L58.9498 74.2285L59.1718 73.2535ZM72.4385 48.5349L73.3904 48.2283L72.4385 48.5349ZM59.979 72.3463L59.7052 71.3845L59.979 72.3463ZM72.4026 48.6321L71.4686 48.9894L72.4026 48.6321ZM45.1583 39.8555L45.0006 40.843L45.1583 39.8555ZM72.2846 48.5247L72.141 47.5351L72.2846 48.5247ZM71.7485 48.4506L70.8775 48.942L71.7485 48.4506ZM72.2836 47.9211L71.612 48.662L72.2836 47.9211ZM59.4534 72.5916L59.4535 71.5916L59.4534 72.5916ZM47.727 37.8709L47.3356 38.7911L47.727 37.8709ZM60.0342 72.5585L59.7925 71.5881L60.0342 72.5585ZM55.7795 73.4821L55.7829 72.4821L55.7795 73.4821ZM56.2525 73.6866L56.1089 72.697L56.2525 73.6866ZM70.9755 45.5483L71.8437 45.0521L70.9755 45.5483ZM55.9357 72.8388L56.1141 73.8228L55.9357 72.8388ZM47.9506 38.2683L48.3351 39.1914L47.9506 38.2683ZM71.1713 46.298L71.0277 45.3084L71.1713 46.298ZM70.8546 45.4502L70.6762 44.4662L70.8546 45.4502ZM47.9022 37.9739L47.5259 37.0474L47.9022 37.9739ZM47.4293 38.0774L47.4293 39.0774L47.4293 38.0774ZM71.9679 47.6769L71.7896 46.6929L71.9679 47.6769ZM70.7506 46.3101L70.5286 47.2852L70.7506 46.3101ZM70.7106 45.6972L69.8442 46.1965L70.7106 45.6972ZM71.0322 46.6483C70.9149 46.6483 70.7266 46.6156 70.547 46.4759C70.376 46.3429 70.3052 46.1842 70.2784 46.1036C70.2534 46.0289 70.2526 45.9812 70.2536 45.9966C70.2545 46.0095 70.2549 46.0308 70.2549 46.0936H72.2549C72.2549 46.039 72.2661 45.7423 72.1757 45.4712C72.121 45.3071 72.0085 45.0789 71.7749 44.8972C71.5327 44.7088 71.2608 44.6483 71.0322 44.6483L71.0322 46.6483ZM70.2549 46.0936C70.2549 45.9764 70.2875 45.788 70.4272 45.6084C70.5602 45.4374 70.7189 45.3666 70.7995 45.3398C70.8742 45.3149 70.9219 45.314 70.9065 45.315C70.8936 45.3159 70.8723 45.3163 70.8095 45.3163V47.3163C70.8642 47.3163 71.1609 47.3275 71.432 47.2371C71.5961 47.1824 71.8243 47.0699 72.006 46.8363C72.1944 46.594 72.2549 46.3222 72.2549 46.0936H70.2549ZM70.8095 45.3163C70.8525 45.3163 70.9083 45.3205 70.9726 45.3351L70.5286 47.2852C70.6282 47.3079 70.7231 47.3163 70.8095 47.3163V45.3163ZM70.6762 44.4662C70.5536 44.4884 70.3325 44.5389 70.1186 44.6786C69.8669 44.8431 69.5869 45.1676 69.5869 45.6483H71.5869C71.5869 45.8031 71.5437 45.961 71.4577 46.0995C71.3768 46.2299 71.2794 46.3092 71.2125 46.3529C71.0957 46.4292 71.0085 46.4386 71.0329 46.4341L70.6762 44.4662ZM69.5869 45.6483C69.5869 45.7393 69.5834 46.0083 69.6341 46.2619C69.6586 46.3841 69.7133 46.6025 69.8586 46.8124C70.0302 47.0602 70.3517 47.3163 70.8095 47.3163V45.3163C70.9575 45.3163 71.1096 45.3558 71.2454 45.4361C71.3744 45.5125 71.4559 45.606 71.503 45.674C71.5491 45.7406 71.5717 45.7961 71.5814 45.823C71.5917 45.8514 71.5951 45.8688 71.5953 45.8697C71.5957 45.8715 71.5945 45.8662 71.5931 45.8522C71.5916 45.8386 71.5903 45.821 71.5892 45.799C71.587 45.7529 71.5869 45.7058 71.5869 45.6483H69.5869ZM70.8095 47.3163C70.8952 47.3163 71.1059 47.318 71.3149 47.2876L71.0277 45.3084C71.0129 45.3105 70.9854 45.3131 70.9429 45.3147C70.901 45.3162 70.8593 45.3163 70.8095 45.3163V47.3163ZM48.3351 39.1914C52.3608 37.5147 56.9516 37.1294 61.086 38.7832L61.8288 36.9263C57.1097 35.0386 51.967 35.5122 47.5661 37.3451L48.3351 39.1914ZM61.1117 38.7931C65.0375 40.2395 67.945 42.9006 69.8442 46.1965L71.5771 45.1979C69.4621 41.5277 66.2008 38.5366 61.8032 36.9164L61.1117 38.7931ZM71.8437 45.0521C69.7141 41.3259 66.2095 38.3171 61.8032 36.6937L61.1117 38.5704C65.0875 40.0352 68.2169 42.7368 70.1073 46.0445L71.8437 45.0521ZM61.8134 36.6976C56.9554 34.8469 51.893 35.274 47.5259 37.0474L48.2784 38.9005C52.2573 37.2847 56.7912 36.9245 61.1014 38.5666L61.8134 36.6976ZM47.4293 39.0774C47.312 39.0774 47.1237 39.0447 46.9441 38.905C46.7731 38.772 46.7023 38.6134 46.6755 38.5328C46.6506 38.4581 46.6497 38.4103 46.6507 38.4257C46.6516 38.4387 46.652 38.46 46.652 38.5228H48.652C48.652 38.4681 48.6632 38.1714 48.5728 37.9004C48.5182 37.7363 48.4056 37.5081 48.172 37.3264C47.9298 37.1379 47.658 37.0774 47.4294 37.0774L47.4293 39.0774ZM46.652 38.5228C46.652 38.4055 46.6846 38.2172 46.8244 38.0376C46.9573 37.8666 47.116 37.7958 47.1966 37.7689C47.2713 37.744 47.3191 37.7431 47.3037 37.7442C47.2907 37.745 47.2694 37.7454 47.2067 37.7454V39.7454C47.2613 39.7454 47.558 39.7566 47.829 39.6663C47.9931 39.6116 48.2214 39.499 48.4031 39.2654C48.5915 39.0232 48.652 38.7513 48.652 38.5228H46.652ZM47.2067 37.7454C47.2496 37.7454 47.3054 37.7496 47.3696 37.7642L46.9257 39.7143C47.0254 39.737 47.1203 39.7454 47.2067 39.7454V37.7454ZM47.652 36.8547C47.5609 36.8547 47.2919 36.8513 47.0384 36.902C46.9161 36.9264 46.6977 36.9812 46.4878 37.1265C46.24 37.2981 45.984 37.6196 45.984 38.0774H47.984C47.984 38.2254 47.9445 38.3774 47.8641 38.5132C47.7878 38.6422 47.6943 38.7238 47.6262 38.7709C47.5597 38.8169 47.5041 38.8396 47.4773 38.8493C47.4488 38.8596 47.4315 38.863 47.4306 38.8632C47.4287 38.8635 47.4341 38.8624 47.4481 38.8609C47.4616 38.8595 47.4793 38.8581 47.5012 38.8571C47.5473 38.8549 47.5945 38.8547 47.652 38.8547V36.8547ZM45.984 38.0774C45.984 38.1685 45.9805 38.4375 46.0312 38.6911C46.0557 38.8133 46.1104 39.0317 46.2557 39.2416C46.4273 39.4894 46.7488 39.7454 47.2067 39.7454V37.7454C47.3546 37.7454 47.5067 37.7849 47.6425 37.8653C47.7715 37.9416 47.853 38.0351 47.9001 38.1031C47.9462 38.1697 47.9688 38.2253 47.9785 38.2521C47.9888 38.2805 47.9922 38.2979 47.9924 38.2988C47.9928 38.3006 47.9916 38.2953 47.9902 38.2813C47.9887 38.2677 47.9874 38.2501 47.9863 38.2282C47.9841 38.1821 47.984 38.1349 47.984 38.0774H45.984ZM48.1183 36.9507C47.9878 36.8952 47.8298 36.8547 47.652 36.8547V38.8547C47.5246 38.8547 47.417 38.8257 47.3356 38.7911L48.1183 36.9507ZM71.612 48.662C71.5012 48.5616 71.4412 48.4537 71.4101 48.3792C71.3803 48.308 71.3713 48.2545 71.3688 48.2382C71.3662 48.2204 71.3668 48.2159 71.3675 48.2346C71.3681 48.2537 71.3682 48.2768 71.3682 48.3203H73.3682C73.3682 48.2596 73.3704 48.0986 73.3465 47.9398C73.3244 47.7936 73.2551 47.4521 72.9553 47.1803L71.612 48.662ZM71.3682 48.3203C71.3682 48.2031 71.4009 48.0148 71.5406 47.8351C71.6736 47.6642 71.8322 47.5934 71.9128 47.5665C71.9875 47.5416 72.0353 47.5407 72.0199 47.5417C72.007 47.5426 71.9857 47.543 71.9229 47.543V49.543C71.9775 49.543 72.2742 49.5542 72.5453 49.4638C72.7094 49.4091 72.9376 49.2966 73.1193 49.063C73.3077 48.8207 73.3682 48.5489 73.3682 48.3203H71.3682ZM71.9229 47.543C72.0127 47.543 72.1535 47.5617 72.3039 47.6461C72.4581 47.7327 72.5595 47.8531 72.6194 47.9593L70.8775 48.942C70.9695 49.105 71.1136 49.2716 71.3248 49.3901C71.5322 49.5065 71.7442 49.543 71.9229 49.543V47.543ZM71.7896 46.6929C71.6669 46.7151 71.4458 46.7656 71.2319 46.9053C70.9802 47.0698 70.7002 47.3944 70.7002 47.875H72.7002C72.7002 48.0299 72.657 48.1877 72.571 48.3262C72.4901 48.4566 72.3928 48.5359 72.3259 48.5796C72.2091 48.6559 72.1218 48.6653 72.1462 48.6608L71.7896 46.6929ZM70.7002 47.875C70.7002 47.966 70.6968 48.2351 70.7475 48.4886C70.7719 48.6108 70.8266 48.8292 70.972 49.0391C71.1435 49.287 71.465 49.543 71.9229 49.543V47.543C72.0709 47.543 72.2229 47.5825 72.3587 47.6629C72.4877 47.7392 72.5693 47.8327 72.6164 47.9007C72.6624 47.9673 72.6851 48.0229 72.6948 48.0497C72.7051 48.0781 72.7085 48.0955 72.7086 48.0964C72.709 48.0982 72.7079 48.0929 72.7064 48.0789C72.705 48.0653 72.7036 48.0477 72.7026 48.0257C72.7004 47.9796 72.7002 47.9325 72.7002 47.875H70.7002ZM71.9229 49.543C72.0086 49.543 72.2192 49.5447 72.4282 49.5143L72.141 47.5351C72.1263 47.5372 72.0988 47.5398 72.0563 47.5414C72.0144 47.5429 71.9726 47.543 71.9229 47.543V49.543ZM45.4253 40.1908C45.308 40.1908 45.1197 40.1581 44.9401 40.0184C44.7691 39.8854 44.6983 39.7267 44.6714 39.6462C44.6465 39.5714 44.6457 39.5237 44.6467 39.5391C44.6476 39.552 44.648 39.5733 44.648 39.6361H46.648C46.648 39.5815 46.6592 39.2848 46.5688 39.0137C46.5141 38.8496 46.4016 38.6214 46.168 38.4397C45.9257 38.2513 45.6539 38.1908 45.4253 38.1908V40.1908ZM44.648 39.6361C44.648 39.5189 44.6806 39.3306 44.8203 39.1509C44.9533 38.9799 45.112 38.9091 45.1926 38.8823C45.2673 38.8574 45.315 38.8565 45.2996 38.8575C45.2867 38.8584 45.2654 38.8588 45.2026 38.8588V40.8588C45.2572 40.8588 45.554 40.87 45.825 40.7796C45.9891 40.7249 46.2174 40.6124 46.399 40.3788C46.5875 40.1365 46.648 39.8647 46.648 39.6361H44.648ZM45.2026 38.8588C45.2342 38.8588 45.2725 38.861 45.316 38.868L45.0006 40.843C45.0715 40.8543 45.1393 40.8588 45.2026 40.8588V38.8588ZM45.4253 37.9681C45.3342 37.9681 45.0652 37.9647 44.8117 38.0154C44.6895 38.0398 44.471 38.0945 44.2611 38.2398C44.0133 38.4114 43.7573 38.7329 43.7573 39.1908H45.7573C45.7573 39.3387 45.7178 39.4908 45.6374 39.6266C45.5611 39.7556 45.4676 39.8371 45.3996 39.8842C45.333 39.9303 45.2774 39.9529 45.2506 39.9627C45.2222 39.973 45.2048 39.9763 45.2039 39.9765C45.2021 39.9769 45.2074 39.9758 45.2214 39.9743C45.2349 39.9729 45.2526 39.9715 45.2745 39.9705C45.3206 39.9683 45.3678 39.9681 45.4253 39.9681V37.9681ZM43.7573 39.1908C43.7573 39.2819 43.7538 39.5509 43.8045 39.8044C43.829 39.9266 43.8837 40.145 44.029 40.3549C44.2006 40.6028 44.5221 40.8588 44.98 40.8588V38.8588C45.1279 38.8588 45.28 38.8983 45.4158 38.9786C45.5448 39.055 45.6263 39.1485 45.6734 39.2165C45.7195 39.283 45.7421 39.3386 45.7518 39.3655C45.7621 39.3939 45.7655 39.4112 45.7657 39.4121C45.7661 39.414 45.7649 39.4087 45.7635 39.3947C45.762 39.3811 45.7607 39.3635 45.7596 39.3415C45.7574 39.2954 45.7573 39.2483 45.7573 39.1908H43.7573ZM45.9474 38.0595C45.7698 37.993 45.5914 37.9681 45.4253 37.9681V39.9681C45.3929 39.9681 45.3281 39.9633 45.2456 39.9324L45.9474 38.0595ZM71.4686 48.9894C72.9019 52.7366 72.8977 56.9053 71.4299 60.8896L73.3066 61.581C74.933 57.1664 74.9517 52.4975 73.3366 48.2749L71.4686 48.9894ZM71.4349 60.8763C69.3335 66.3399 64.9576 70.3016 59.7925 71.5881L60.2759 73.5288C66.125 72.0719 70.9857 67.6157 73.3016 61.5943L71.4349 60.8763ZM60.2528 73.308C66.0757 71.6504 70.9687 67.4371 73.3016 61.3716L71.4349 60.6537C69.3358 66.1114 64.9452 69.8928 59.7052 71.3845L60.2528 73.308ZM73.3066 61.3583C74.9277 56.958 74.7196 52.3546 73.3904 48.2283L71.4867 48.8415C72.7036 52.6193 72.8706 56.7564 71.4299 60.6669L73.3066 61.3583ZM59.4534 73.5916C59.3362 73.5916 59.1478 73.5589 58.9682 73.4192C58.7972 73.2862 58.7264 73.1275 58.6996 73.047C58.6747 72.9722 58.6738 72.9245 58.6748 72.9399C58.6757 72.9528 58.6761 72.9741 58.6761 73.0369H60.6761C60.6761 72.9823 60.6873 72.6856 60.597 72.4145C60.5423 72.2505 60.4297 72.0222 60.1961 71.8405C59.9539 71.6521 59.6821 71.5916 59.4535 71.5916L59.4534 73.5916ZM58.6761 73.0369C58.6761 72.9197 58.7088 72.7313 58.8485 72.5517C58.9814 72.3807 59.1401 72.31 59.2207 72.2831C59.2954 72.2582 59.3431 72.2573 59.3277 72.2583C59.3148 72.2592 59.2935 72.2596 59.2308 72.2596V74.2596C59.2854 74.2596 59.5821 74.2708 59.8532 74.1804C60.0173 74.1257 60.2455 74.0132 60.4272 73.7796C60.6156 73.5373 60.6761 73.2655 60.6761 73.0369H58.6761ZM59.2308 72.2596C59.2738 72.2596 59.3295 72.2638 59.3938 72.2784L58.9498 74.2285C59.0495 74.2512 59.1444 74.2596 59.2308 74.2596V72.2596ZM59.6761 71.3689C59.5851 71.3689 59.316 71.3655 59.0625 71.4162C58.9403 71.4406 58.7219 71.4953 58.5119 71.6407C58.2641 71.8122 58.0081 72.1337 58.0081 72.5916H60.0081C60.0081 72.7395 59.9686 72.8916 59.8882 73.0274C59.8119 73.1564 59.7184 73.238 59.6504 73.285C59.5838 73.3311 59.5282 73.3537 59.5014 73.3635C59.473 73.3738 59.4556 73.3771 59.4547 73.3773C59.4529 73.3777 59.4582 73.3766 59.4722 73.3751C59.4858 73.3737 59.5034 73.3723 59.5253 73.3713C59.5714 73.3691 59.6186 73.3689 59.6761 73.3689V71.3689ZM58.0081 72.5916C58.0081 72.6826 58.0046 72.9517 58.0553 73.2052C58.0798 73.3274 58.1345 73.5458 58.2798 73.7557C58.4514 74.0036 58.7729 74.2596 59.2308 74.2596V72.2596C59.3787 72.2596 59.5308 72.2991 59.6666 72.3795C59.7956 72.4558 59.8771 72.5493 59.9242 72.6173C59.9703 72.6839 59.9929 72.7395 60.0026 72.7663C60.0129 72.7947 60.0163 72.8121 60.0165 72.813C60.0169 72.8148 60.0158 72.8095 60.0143 72.7955C60.0128 72.7819 60.0115 72.7643 60.0104 72.7423C60.0082 72.6962 60.0081 72.6491 60.0081 72.5916H58.0081ZM60.1423 71.4648C60.0118 71.4093 59.8539 71.3689 59.6761 71.3689V73.3689C59.5487 73.3689 59.4412 73.3399 59.3598 73.3053L60.1423 71.4648ZM56.3361 74.0369C56.2188 74.0369 56.0305 74.0042 55.8508 73.8645C55.6799 73.7315 55.6091 73.5729 55.5822 73.4923C55.5573 73.4176 55.5564 73.3699 55.5575 73.3853C55.5583 73.3982 55.5587 73.4195 55.5587 73.4823H57.5587C57.5587 73.4276 57.5699 73.1309 57.4796 72.8599C57.4249 72.6958 57.3124 72.4676 57.0788 72.2859C56.8365 72.0974 56.5647 72.0369 56.3361 72.0369V74.0369ZM55.5587 73.4823C55.5587 73.365 55.5914 73.1767 55.7311 72.9971C55.8641 72.8261 56.0227 72.7553 56.1033 72.7284C56.1781 72.7035 56.2258 72.7026 56.2104 72.7037C56.1975 72.7045 56.1762 72.7049 56.1134 72.7049V74.7049C56.168 74.7049 56.4647 74.7161 56.7358 74.6258C56.8999 74.5711 57.1281 74.4585 57.3098 74.2249C57.4982 73.9827 57.5587 73.7109 57.5587 73.4823H55.5587ZM56.1134 72.7049C56.2307 72.7049 56.419 72.7376 56.5986 72.8773C56.7696 73.0103 56.8404 73.1689 56.8672 73.2495C56.8921 73.3242 56.893 73.372 56.892 73.3566C56.8911 73.3437 56.8907 73.3224 56.8907 73.2596H54.8907C54.8907 73.3143 54.8795 73.611 54.9699 73.882C55.0246 74.0461 55.1371 74.2744 55.3708 74.456C55.613 74.6444 55.8848 74.7049 56.1134 74.7049V72.7049ZM56.8907 73.2596C56.8907 73.3769 56.8581 73.5652 56.7184 73.7448C56.5854 73.9158 56.4267 73.9866 56.3462 74.0134C56.2714 74.0383 56.2237 74.0392 56.2391 74.0382C56.252 74.0373 56.2733 74.0369 56.3361 74.0369V72.0369C56.2814 72.0369 55.9847 72.0257 55.7136 72.1161C55.5495 72.1708 55.3213 72.2833 55.1396 72.5169C54.9512 72.7592 54.8907 73.031 54.8907 73.2596H56.8907ZM55.7574 71.8548C55.6348 71.8771 55.4137 71.9275 55.1998 72.0672C54.9481 72.2317 54.6681 72.5563 54.6681 73.0369H56.6681C56.6681 73.1918 56.6248 73.3496 56.5389 73.4881C56.4579 73.6186 56.3606 73.6979 56.2937 73.7416C56.1769 73.8179 56.0896 73.8272 56.1141 73.8228L55.7574 71.8548ZM54.6681 73.0369C54.6681 73.128 54.6646 73.397 54.7153 73.6505C54.7397 73.7728 54.7945 73.9912 54.9398 74.2011C55.1114 74.4489 55.4329 74.7049 55.8907 74.7049V72.7049C56.0387 72.7049 56.1907 72.7444 56.3266 72.8248C56.4555 72.9011 56.5371 72.9947 56.5842 73.0627C56.6303 73.1292 56.6529 73.1848 56.6626 73.2117C56.6729 73.2401 56.6763 73.2574 56.6765 73.2583C56.6768 73.2602 56.6757 73.2549 56.6742 73.2409C56.6728 73.2273 56.6715 73.2097 56.6704 73.1877C56.6682 73.1416 56.6681 73.0944 56.6681 73.0369H54.6681ZM55.8907 74.7049C55.9764 74.7049 56.187 74.7066 56.3961 74.6763L56.1089 72.697C56.0941 72.6992 56.0666 72.7018 56.0241 72.7033C55.9822 72.7049 55.9405 72.7049 55.8907 72.7049V74.7049ZM44.4392 38.7949C41.1471 40.9113 38.3202 44.2064 36.9059 48.4494L38.8032 49.0819C40.0609 45.3088 42.5781 42.369 45.5207 40.4773L44.4392 38.7949ZM36.9173 48.4169C33.1618 58.5101 38.3248 69.7737 48.4166 73.5288L49.1141 71.6544C40.0563 68.284 35.4219 58.1711 38.7918 49.1144L36.9173 48.4169ZM48.4236 73.5314C50.9804 74.4611 53.301 74.6978 55.7764 74.7048L55.782 72.7048C53.4463 72.6982 51.3746 72.4763 49.1071 71.6518L48.4236 73.5314ZM55.7829 72.4821C53.6407 72.4749 51.3802 72.2488 49.3594 71.4404L48.6166 73.2974C50.9752 74.2408 53.5247 74.4745 55.7762 74.4821L55.7829 72.4821ZM49.344 71.4344C40.4915 68.062 35.8651 58.1556 39.019 49.3247L37.1355 48.652C33.6093 58.5256 38.7803 69.5503 48.632 73.3034L49.344 71.4344ZM39.0259 49.3046C40.2919 45.5066 42.6073 42.5598 45.5612 40.4499L44.3987 38.8224C41.1179 41.1659 38.5346 44.4539 37.1285 48.6721L39.0259 49.3046ZM55.7764 74.7048C56.3913 74.7065 56.8907 74.2085 56.8907 73.5936H54.8907C54.8907 73.1017 55.2902 72.7034 55.782 72.7048L55.7764 74.7048ZM71.0322 44.6483L71.0322 44.6483L71.0322 46.6483L71.0322 46.6483L71.0322 44.6483ZM59.3938 72.2784C59.518 72.3067 59.6686 72.375 59.7984 72.5093C59.9263 72.6416 59.9885 72.7909 60.0142 72.9116C60.0597 73.1253 60 73.2684 59.9855 73.3009C59.9638 73.3499 59.9311 73.3993 59.8744 73.4473C59.8209 73.4927 59.6781 73.5916 59.4534 73.5916L59.4534 71.5916C59.066 71.5916 58.7669 71.7641 58.5804 71.9224C58.3908 72.0832 58.2485 72.2845 58.1574 72.4899C58.0735 72.6789 57.9846 72.9829 58.0579 73.3276C58.0975 73.5136 58.1879 73.7209 58.3604 73.8993C58.5347 74.0796 58.7462 74.1822 58.9498 74.2285L59.3938 72.2784ZM73.3904 48.2283C73.2711 47.8581 72.9859 47.632 72.7061 47.5399C72.4651 47.4606 72.2413 47.4792 72.0798 47.5215C71.9948 47.5438 71.8873 47.5827 71.7765 47.6526C71.6922 47.7058 71.468 47.8622 71.3562 48.174C71.2928 48.3507 71.2725 48.564 71.333 48.7838C71.3914 48.9963 71.5071 49.1491 71.6099 49.2476C71.794 49.4239 71.994 49.4833 72.0678 49.5031L72.5857 47.5713C72.6344 47.5843 72.8182 47.6355 72.9931 47.803C73.0913 47.897 73.2041 48.0453 73.2613 48.2532C73.3205 48.4684 73.3005 48.677 73.2388 48.8492C73.1303 49.1517 72.9148 49.2993 72.8429 49.3446C72.7445 49.4066 72.6533 49.4388 72.5865 49.4563C72.4615 49.489 72.2824 49.506 72.081 49.4397C71.8408 49.3607 71.59 49.1623 71.4867 48.8415L73.3904 48.2283ZM60.8988 72.4522C60.8988 72.8532 60.632 73.2001 60.2528 73.308L59.7052 71.3845C59.2313 71.5194 58.8988 71.9528 58.8988 72.4522H60.8988ZM73.3366 48.2749C73.3389 48.281 73.3403 48.2848 73.3393 48.2822C73.3366 48.2744 73.3403 48.285 73.3365 48.274C73.335 48.2699 73.3326 48.263 73.3297 48.2551C73.3214 48.2322 73.2891 48.1418 73.2268 48.0416C73.1538 47.9244 73.0512 47.8102 72.9137 47.7186C72.7874 47.6344 72.6671 47.5931 72.5857 47.5713L72.0678 49.5031C72.0142 49.4887 71.9147 49.4562 71.8046 49.3829C71.6833 49.3021 71.5924 49.2006 71.5289 49.0985C71.4759 49.0135 71.4509 48.9408 71.4501 48.9384C71.4363 48.9004 71.4631 48.9751 71.4686 48.9894L73.3366 48.2749ZM45.316 38.868C45.4375 38.8874 45.5943 38.9444 45.7357 39.0737C45.8762 39.2022 45.9493 39.3543 45.9817 39.4802C46.0387 39.702 45.9792 39.8538 45.9656 39.8867C45.9444 39.9377 45.9115 39.9896 45.8536 40.0403C45.7976 40.0892 45.6524 40.1908 45.4253 40.1908V38.1908C45.0306 38.1908 44.7269 38.3689 44.5377 38.5341C44.3465 38.7011 44.2058 38.9093 44.1184 39.1199C44.0385 39.3123 43.9544 39.6271 44.0447 39.9784C44.0938 40.1692 44.198 40.3777 44.3862 40.5498C44.5753 40.7226 44.7963 40.8103 45.0006 40.843L45.316 38.868ZM72.4282 49.5143C72.8421 49.4543 73.1949 49.2182 73.4151 48.913C73.6418 48.5988 73.8087 48.0746 73.541 47.5391L71.7521 48.4335C71.5994 48.128 71.7125 47.8546 71.7932 47.7428C71.8673 47.6401 71.9816 47.5582 72.141 47.5351L72.4282 49.5143ZM72.6194 47.9593C72.7665 48.2199 72.7383 48.4784 72.689 48.6271C72.6667 48.6944 72.6405 48.7413 72.6252 48.7661C72.6093 48.7918 72.5971 48.8066 72.594 48.8103C72.5897 48.8155 72.5974 48.8059 72.6271 48.7794C72.657 48.7527 72.6853 48.7297 72.7318 48.6912L71.4559 47.151C71.406 47.1924 71.2116 47.3459 71.0603 47.5267C70.9837 47.6182 70.8629 47.7795 70.7904 47.9983C70.7095 48.2427 70.6816 48.5948 70.8775 48.942L72.6194 47.9593ZM72.9553 47.1803C72.8603 47.0942 72.5901 46.8688 72.1763 46.8743C71.7866 46.8796 71.5288 47.0906 71.4559 47.151L72.7318 48.6912C72.7197 48.7012 72.6705 48.7415 72.5918 48.7808C72.5063 48.8236 72.3728 48.8719 72.2033 48.8742C71.8484 48.879 71.6363 48.684 71.612 48.662L72.9553 47.1803ZM59.4535 71.5916L59.4534 71.5916L59.4534 73.5916L59.4534 73.5916L59.4535 71.5916ZM47.2067 39.7454C47.8782 39.7454 48.4034 39.3202 48.6602 38.9208C48.7949 38.7113 48.9443 38.3752 48.8977 37.9732C48.8419 37.4918 48.5295 37.1255 48.1183 36.9507L47.3356 38.7911C47.2624 38.76 47.158 38.6967 47.0666 38.5799C46.9732 38.4608 46.9253 38.3262 46.911 38.2035C46.8855 37.9834 46.9685 37.8539 46.978 37.8391C46.9973 37.809 47.0126 37.7972 47.0264 37.7885C47.0393 37.7804 47.0994 37.7454 47.2067 37.7454V39.7454ZM59.7925 71.5881C60.3592 71.4469 60.8988 71.8779 60.8988 72.4522H58.8988C58.8988 73.1686 59.5713 73.7043 60.2759 73.5288L59.7925 71.5881ZM56.8907 73.5936C56.8907 72.9808 56.395 72.4842 55.7829 72.4821L55.7762 74.4821C55.2871 74.4804 54.8907 74.0834 54.8907 73.5936H56.8907ZM47.3696 37.7642C47.4939 37.7925 47.6445 37.8609 47.7743 37.9951C47.9022 38.1274 47.9644 38.2767 47.9901 38.3974C48.0356 38.6111 47.9759 38.7542 47.9614 38.7867C47.9397 38.8357 47.907 38.8851 47.8503 38.9331C47.7968 38.9786 47.6539 39.0774 47.4293 39.0774L47.4293 37.0774C47.0419 37.0774 46.7427 37.25 46.5563 37.4082C46.3667 37.5691 46.2244 37.7703 46.1332 37.9758C46.0494 38.1647 45.9605 38.4687 46.0338 38.8134C46.0734 38.9995 46.1638 39.2067 46.3363 39.3851C46.5106 39.5654 46.7221 39.668 46.9257 39.7143L47.3696 37.7642ZM56.3961 74.6763C56.81 74.6162 57.1627 74.3801 57.3829 74.075C57.6097 73.7607 57.7766 73.2366 57.5088 72.7011L55.72 73.5955C55.5672 73.2899 55.6804 73.0165 55.761 72.9047C55.8351 72.802 55.9495 72.7201 56.1089 72.697L56.3961 74.6763ZM71.658 46.4367C72.0218 46.0728 72.1034 45.5065 71.8437 45.0521L70.1073 46.0445C69.9151 45.7081 69.9761 45.2902 70.2438 45.0225L71.658 46.4367ZM56.1141 73.8228C56.0237 73.8392 55.9628 73.8224 55.9245 73.8056C55.8872 73.7892 55.79 73.7355 55.72 73.5955L57.5088 72.7011C57.3239 72.3311 57.0138 72.0997 56.7292 71.9746C56.4435 71.8491 56.1008 71.7926 55.7574 71.8548L56.1141 73.8228ZM47.2327 39.1237C47.512 39.2937 47.7934 39.2896 47.882 39.2868C48.004 39.2829 48.1685 39.2608 48.3351 39.1914L47.5661 37.3451C47.6342 37.3168 47.6886 37.3045 47.7181 37.2989C47.7516 37.2925 47.7845 37.2889 47.8181 37.2878C47.85 37.2868 47.8999 37.2875 47.9629 37.2981C48.0174 37.3074 48.1372 37.333 48.2721 37.4151L47.2327 39.1237ZM71.3149 47.2876C71.7288 47.2276 72.0816 46.9915 72.3017 46.6863C72.5285 46.3721 72.6954 45.8479 72.4276 45.3124L70.6388 46.2068C70.486 45.9013 70.5992 45.6278 70.6798 45.5161C70.7539 45.4134 70.8683 45.3315 71.0277 45.3084L71.3149 47.2876ZM59.2308 74.2596C59.9023 74.2596 60.4275 73.8343 60.6843 73.435C60.819 73.2255 60.9685 72.8893 60.9218 72.4873C60.866 72.0058 60.5535 71.6396 60.1423 71.4648L59.3598 73.3053C59.2866 73.2742 59.1821 73.2109 59.0907 73.0941C58.9974 72.975 58.9494 72.8404 58.9352 72.7177C58.9096 72.4975 58.9926 72.3681 59.0021 72.3533C59.0214 72.3232 59.0367 72.3113 59.0505 72.3027C59.0634 72.2946 59.1235 72.2596 59.2308 72.2596V74.2596ZM71.0329 46.4341C70.9425 46.4505 70.8817 46.4338 70.8433 46.4169C70.806 46.4006 70.7088 46.3468 70.6388 46.2068L72.4276 45.3124C72.2427 44.9424 71.9326 44.711 71.648 44.5859C71.3623 44.4604 71.0196 44.404 70.6762 44.4662L71.0329 46.4341ZM48.2721 37.4151C48.4134 37.5011 48.627 37.6984 48.6821 38.0342C48.7321 38.3391 48.6175 38.5632 48.5568 38.6569C48.446 38.8277 48.3217 38.8829 48.2784 38.9005L47.5259 37.0474C47.3306 37.1267 47.0613 37.2871 46.8786 37.5688C46.7819 37.7179 46.6496 37.9991 46.7084 38.3577C46.7723 38.7472 47.0212 38.9951 47.2327 39.1237L48.2721 37.4151ZM44.98 40.8588C45.6289 40.8588 46.1616 40.4564 46.4345 40.1036C46.5735 39.9239 46.7709 39.5988 46.762 39.1819C46.7571 38.9508 46.6866 38.6991 46.5174 38.4768C46.3525 38.2601 46.1402 38.1318 45.9474 38.0595L45.2456 39.9324C45.1673 39.903 45.0369 39.8339 44.9258 39.6878C44.8104 39.5362 44.7655 39.3667 44.7625 39.2245C44.7597 39.0939 44.7914 39.0009 44.8098 38.9571C44.8292 38.9109 44.8477 38.8861 44.8525 38.8799C44.8598 38.8704 44.855 38.8775 44.846 38.8827C44.8322 38.8907 44.8768 38.8588 44.98 38.8588V40.8588ZM47.4294 37.0774L47.4293 37.0774L47.4293 39.0774L47.4293 39.0774L47.4294 37.0774ZM72.1462 48.6608C72.0558 48.6772 71.995 48.6605 71.9567 48.6437C71.9194 48.6273 71.8221 48.5736 71.7521 48.4335L73.541 47.5391C73.356 47.1691 73.0459 46.9377 72.7613 46.8127C72.4756 46.6871 72.133 46.6307 71.7896 46.6929L72.1462 48.6608ZM70.9726 45.3351C71.0968 45.3634 71.2475 45.4317 71.3772 45.566C71.5051 45.6983 71.5673 45.8476 71.593 45.9682C71.6384 46.182 71.5788 46.3251 71.5643 46.3576C71.5426 46.4066 71.5099 46.4559 71.4532 46.504C71.3997 46.5494 71.2568 46.6483 71.0322 46.6483L71.0322 44.6483C70.6448 44.6483 70.3456 44.8208 70.1592 44.979C69.9696 45.1399 69.8273 45.3412 69.7361 45.5466C69.6523 45.7356 69.5634 46.0396 69.6367 46.3842C69.6763 46.5703 69.7667 46.7775 69.9391 46.9559C70.1134 47.1362 70.3249 47.2388 70.5286 47.2852L70.9726 45.3351ZM69.8442 46.1965C70.2188 46.8467 71.1163 46.9784 71.658 46.4367L70.2438 45.0225C70.6435 44.6227 71.3027 44.7217 71.5771 45.1979L69.8442 46.1965Z" fill="black" mask="url(#path-2-inside-1_7_1217)"/>
</g>
<path opacity="0.4" d="M48.7652 75.7092C48.7652 76.0348 48.1756 76.3083 48.1034 75.9908C48.0993 75.9731 48.0972 75.9536 48.0972 75.9319C48.0972 75.7092 48.0972 75.4865 48.3199 75.4865C48.5426 75.4865 48.7652 75.4865 48.7652 75.7092ZM48.2554 76.3287C48.5656 76.4398 48.9019 76.2979 49.0714 76.0154C49.2409 75.7328 49.1313 75.3499 48.8488 75.1803C48.5662 75.0108 48.1526 75.1482 47.9942 75.4371C47.9722 75.4772 47.9525 75.5197 47.9358 75.5652C47.8509 75.7958 47.9046 76.0735 48.0911 76.2334C48.1422 76.2771 48.1963 76.3075 48.2554 76.3287ZM75.2277 63.7653C75.2444 63.7274 75.2693 63.6882 75.2285 63.6815C75.1674 63.6714 74.9552 63.6472 74.929 63.7032C72.6814 68.4995 68.7176 72.6284 63.4614 74.8185C58.6 77.0282 53.5194 77.0451 48.8723 75.7395C48.8186 75.7244 48.7652 75.8482 48.7652 75.904C48.7652 75.9598 48.8186 75.9471 48.8723 75.9622C53.5194 77.2678 58.6 77.2526 63.4614 75.2638C68.9989 73.0488 72.9941 68.8506 75.2277 63.7653ZM75.4855 63.2396C75.4855 63.5747 74.8737 63.8376 74.8208 63.5066C74.8186 63.4929 74.8175 63.4781 74.8175 63.4622C74.8175 63.2396 74.8175 63.0169 75.0402 63.0169C75.2628 63.0169 75.4855 63.0169 75.4855 63.2396ZM75.2104 63.9933C75.4016 63.9775 75.5614 63.8443 75.6838 63.6965C75.7309 63.6395 75.7744 63.5789 75.8112 63.5116C75.9696 63.2227 75.8515 62.8802 75.569 62.7107C75.2865 62.5412 74.8729 62.6785 74.7144 62.9674C74.6924 63.0076 74.6727 63.0501 74.656 63.0956C74.5712 63.3262 74.6353 63.5889 74.7883 63.7811C74.9055 63.9282 75.0376 64.0075 75.2104 63.9933ZM46.0932 74.5958C46.0932 74.88 45.4856 75.1503 45.4301 74.8716C45.4269 74.8555 45.4252 74.8378 45.4252 74.8185C45.4252 74.5958 45.4252 74.3732 45.6479 74.3732C45.8705 74.3732 46.0932 74.3732 46.0932 74.5958ZM45.8705 75.2638C45.9908 75.1436 46.1111 75.0233 46.1963 74.8679C46.3547 74.579 46.2366 74.2365 45.9541 74.067C45.6715 73.8975 45.2579 74.0348 45.0995 74.3237C45.0775 74.3639 45.0578 74.4064 45.0411 74.4519C44.9562 74.6824 45.0226 74.9474 45.1957 75.1217C45.4231 75.3506 45.7069 75.4275 45.8705 75.2638ZM76.1535 61.0128C75.9308 61.0128 75.7082 61.0128 75.7082 60.7901C75.7082 60.5675 75.7082 60.3448 75.9308 60.3448C76.2944 60.3448 76.5983 60.9025 76.2479 60.9998C76.2173 61.0083 76.1854 61.0128 76.1535 61.0128ZM76.3762 61.2355C76.4965 61.1152 76.6167 60.995 76.7019 60.8396C76.8603 60.5507 76.7422 60.2082 76.4597 60.0386C76.1771 59.8691 75.7697 60.0116 75.6102 60.2999C75.5918 60.3332 75.5761 60.3659 75.5627 60.3983C75.4103 60.7675 75.6305 61.2364 76.022 61.3158C76.157 61.3431 76.2852 61.3265 76.3762 61.2355ZM45.2025 74.401C45.2025 74.4521 45.1488 74.5689 45.1031 74.5458C40.6929 72.3126 36.9472 68.5455 34.7371 63.4622C31.8692 56.6233 32.7169 49.3472 36.4141 43.5829C36.4675 43.4996 36.5842 43.4874 36.6541 43.5574C36.7051 43.6084 36.7144 43.6878 36.6769 43.7494C33.1678 49.5226 32.3039 56.8224 34.9598 63.4622C36.9489 68.3245 40.6929 72.09 45.1031 74.3231C45.1488 74.3462 45.2025 74.3498 45.2025 74.401ZM36.9638 43.1991C36.7411 43.1991 36.5185 43.1991 36.5185 42.9764C36.5185 42.7537 36.5185 42.531 36.7411 42.531C36.9638 42.531 37.1865 42.531 37.1865 42.7537C37.1865 42.9764 37.1865 43.1991 36.9638 43.1991ZM36.6766 43.5959C36.9868 43.707 37.3231 43.5651 37.4926 43.2826C37.6622 43 37.5525 42.6171 37.27 42.4475C36.9874 42.278 36.5738 42.4154 36.4154 42.7043C36.3934 42.7445 36.3737 42.787 36.357 42.8324C36.2722 43.063 36.3258 43.3407 36.5124 43.5006C36.5634 43.5443 36.6175 43.5747 36.6766 43.5959ZM39.4132 40.0817C39.1905 40.0817 38.9678 40.0817 38.9678 39.859C38.9678 39.6363 38.9678 39.4136 39.1905 39.4136C39.4132 39.4136 39.6358 39.4136 39.6358 39.6363C39.6358 39.859 39.6358 40.0817 39.4132 40.0817ZM39.126 40.4785C39.4362 40.5896 39.7756 40.4449 39.944 40.1617C40.1097 39.8831 39.9258 39.4751 39.6358 39.3301C39.3459 39.1852 39.027 39.2967 38.8688 39.5796C38.8451 39.6219 38.8241 39.6668 38.8063 39.715C38.7215 39.9456 38.7752 40.2233 38.9617 40.3832C39.0128 40.4269 39.0668 40.4573 39.126 40.4785ZM76.0833 60.1387C76.2682 60.1772 76.434 60.1116 76.4764 59.9276C77.4739 55.5998 77.2044 51.0694 75.2628 46.5391C70.5868 35.4055 57.672 30.0614 46.5386 34.7375C43.9202 35.8285 41.5156 37.561 39.5344 39.3064C39.4684 39.3645 39.4656 39.4661 39.5278 39.5282C39.5874 39.5879 39.6843 39.5878 39.7443 39.5285C41.7202 37.5763 43.9146 36.0535 46.5386 34.9602C57.4493 30.2841 70.3641 35.6282 74.8175 46.5391C76.5586 50.8919 76.8106 55.4573 75.7816 59.8197C75.7453 59.9735 75.9286 60.1065 76.0833 60.1387Z" fill="#06FF79"/>
<path opacity="0.4" d="M80.0828 52.5505C80.276 52.5505 80.5514 52.6636 80.5514 52.8567C80.5514 53.0498 80.2714 53.1628 80.0783 53.1628C79.8852 53.1628 79.8247 52.9318 79.7791 52.7442C79.7517 52.6313 79.805 52.5505 79.9391 52.5505C79.9878 52.5505 80.0365 52.5505 80.0828 52.5505ZM80.8298 52.3278C80.7042 52.2022 80.5078 52.1475 80.2805 52.1636C79.8899 52.1912 79.5245 52.4866 79.5522 52.8772C79.5568 52.9421 79.5672 53.0095 79.5833 53.0786C79.6417 53.3282 79.7487 53.5325 79.999 53.5883C80.5027 53.7006 81.0594 53.1848 80.9883 52.6735C80.9688 52.5336 80.916 52.414 80.8298 52.3278ZM55.6681 29.6163C55.5451 29.6152 55.4455 29.715 55.4455 29.838C55.4455 29.9609 55.5452 30.0605 55.6682 30.0617C61.8285 30.1193 67.9733 32.5657 72.8137 37.1861C76.9938 41.3663 79.4349 46.8508 79.9223 52.3508C79.9323 52.4636 80.0319 52.5505 80.1451 52.5505C80.2753 52.5505 80.3709 52.4368 80.3543 52.3077C79.6512 46.822 77.425 41.3521 73.0364 36.9635C68.1959 32.1229 61.8336 29.6739 55.6681 29.6163ZM55.0837 29.4483C55.2768 29.4483 55.3373 29.6793 55.3829 29.8669C55.4103 29.9798 55.357 30.0606 55.2229 30.0606C55.1462 30.0606 55.0695 30.087 55.0019 30.1126C54.8212 30.1808 54.6105 29.9476 54.6105 29.7545C54.6105 29.5613 54.8906 29.4483 55.0837 29.4483ZM55.4455 29.1699C55.32 29.0443 55.1235 28.9896 54.8962 29.0057C54.5057 29.0333 54.1652 29.2516 54.1652 29.6431C54.1652 30.0346 54.491 30.4752 54.8815 30.4476C55.0572 30.4351 55.2514 30.3804 55.4455 30.2833C55.8909 30.0606 55.8909 29.6153 55.4455 29.1699ZM80.6071 56.1132C80.6957 56.2018 80.749 56.2904 80.7671 56.3649C80.8127 56.5526 80.5431 56.673 80.3555 56.7186C80.3079 56.7302 80.2661 56.7274 80.2335 56.7103C80.1334 56.6577 80.0701 56.4716 80.0234 56.3685C79.9262 56.154 80.2684 55.8804 80.4696 56.0028C80.5141 56.0299 80.5606 56.0667 80.6071 56.1132ZM80.8298 55.8906C80.7042 55.765 80.5078 55.7102 80.2805 55.7263C79.8899 55.7539 79.5245 56.0494 79.5522 56.4399C79.5568 56.5049 79.5672 56.5723 79.5833 56.6413C79.6417 56.891 79.7487 57.0952 79.999 57.151C80.5027 57.2634 81.0594 56.7475 80.9883 56.2363C80.9688 56.0963 80.916 55.9768 80.8298 55.8906ZM51.8038 29.6153C51.997 29.6153 52.2725 29.7283 52.2725 29.9215C52.2725 30.1146 52.0415 30.175 51.8539 30.2206C51.741 30.2481 51.6602 30.1947 51.6602 30.0606C51.6602 29.838 51.4375 29.6153 51.6602 29.6153C51.6602 29.6153 51.7178 29.6153 51.8038 29.6153ZM52.4952 30.0328C52.4952 29.6413 52.2465 29.2256 51.855 29.2256C51.4635 29.2256 51.0478 29.4743 51.0478 29.8658C51.0478 30.2573 51.2965 30.673 51.688 30.673C52.0795 30.673 52.4952 30.4243 52.4952 30.0328ZM80.319 56.7731C80.4083 56.7909 80.3785 56.8587 80.3709 56.9494C79.8915 62.6827 77.4467 68.4033 73.0364 72.8137C67.0712 78.7789 58.6948 81.2368 50.952 79.9697C50.8465 79.9525 50.7695 79.8519 50.7695 79.745C50.7695 79.6089 50.8921 79.5149 51.0264 79.5365C58.7436 80.7805 66.8677 78.5347 72.8137 72.3683C77.1802 68.0018 79.406 62.5649 79.911 56.8973C79.9229 56.7643 80.1881 56.7471 80.319 56.7731ZM50.2452 79.4938C50.4383 79.4938 50.7138 79.6069 50.7138 79.8C50.7138 79.9931 50.4338 80.1062 50.2407 80.1062C50.0475 80.1062 49.9871 79.8752 49.9415 79.6875C49.914 79.5746 49.9674 79.4938 50.1015 79.4938H50.2452ZM51.1031 79.7231C51.0866 79.332 50.6878 79.1041 50.2963 79.1041C49.9048 79.1041 49.4892 79.3528 49.4892 79.7443C49.4892 80.1358 49.7378 80.5515 50.1293 80.5515C50.5208 80.5515 50.9841 80.2701 51.0836 79.8915C51.0989 79.8335 51.1053 79.7772 51.1031 79.7231ZM45.7919 78.1578C45.985 78.1578 46.2605 78.2708 46.2605 78.464C46.2605 78.6571 45.9804 78.7701 45.7873 78.7701C45.5942 78.7701 45.5337 78.5391 45.4881 78.3515C45.4607 78.2386 45.514 78.1578 45.6481 78.1578C45.6968 78.1578 45.7455 78.1578 45.7919 78.1578ZM46.3161 77.9351C46.1905 77.8095 45.9941 77.7548 45.7668 77.7708C45.3762 77.7985 45.0358 78.0168 45.0358 78.4083C45.0358 78.7998 45.3616 79.2404 45.7521 79.2127C45.9278 79.2003 46.122 79.1455 46.3161 79.0485C46.7615 78.8258 46.7615 78.3805 46.3161 77.9351ZM51.2194 29.9707C51.2092 29.9091 51.1587 29.8477 51.0972 29.8586C46.0151 30.7628 40.9414 32.986 36.964 36.9635C27.1666 46.9837 27.1666 63.0161 37.1867 72.8137C39.5692 75.1962 42.3731 76.9467 45.1885 78.0651C45.3025 78.1104 45.3986 78.0506 45.451 77.9397C45.5051 77.8254 45.5152 77.6612 45.3977 77.6145C42.587 76.4958 39.7945 74.7471 37.632 72.3683C27.8346 62.5707 27.8346 46.761 37.4094 36.9635C41.3358 33.037 46.117 30.8201 51.1249 29.894C51.2215 29.8762 51.2354 30.0675 51.2194 29.9707Z" fill="#06FF79"/>
<path opacity="0.4" d="M80.3846 40.7499C80.6073 40.7499 80.6073 40.9726 80.6073 41.1953C80.6073 41.4179 80.3846 41.4179 80.1619 41.4179C79.9393 41.4179 79.9393 41.1953 79.9393 40.9726C79.9393 40.7499 80.1619 40.7499 80.3846 40.7499ZM80.3846 40.3046C79.9393 40.0819 79.4939 40.3046 79.2713 40.7499C79.0486 41.1953 79.2713 41.6406 79.7166 41.8633C80.1619 42.086 80.6073 41.8633 80.83 41.4179C81.0526 40.9726 80.8299 40.5272 80.3846 40.3046ZM43.8724 28.4052C43.7627 28.4517 43.6847 28.5375 43.7515 28.6361C43.8201 28.7374 43.993 28.8919 44.1052 28.843C50.5155 26.0485 58.2052 25.8637 65.2431 28.503C71.621 30.9222 76.4783 35.2963 79.8151 40.7673C79.8502 40.8248 80.0423 40.7728 80.1079 40.7573C80.1573 40.7456 80.1314 40.6954 80.1064 40.6512C76.9839 35.1279 71.885 30.4925 65.4658 28.0576C58.2012 25.1958 50.5014 25.5985 43.8724 28.4052ZM42.9893 28.6312C43.0865 28.2808 43.6442 28.5847 43.6442 28.9483C43.6442 29.171 43.4216 29.171 43.1989 29.171C42.9762 29.171 42.9762 28.9483 42.9762 28.7256C42.9762 28.6937 42.9808 28.6618 42.9893 28.6312ZM43.6442 28.0576C43.1989 27.8349 42.7536 28.0576 42.5309 28.503C42.3082 28.9483 42.5309 29.3936 42.9762 29.6163C43.4216 29.839 43.8669 29.6163 44.0896 29.171C44.3123 28.7256 44.0896 28.2803 43.6442 28.0576ZM81.9433 44.3127C82.166 44.3127 82.166 44.5353 82.166 44.758C82.166 44.9807 81.9433 44.9807 81.7206 44.9807C81.498 44.9807 81.4979 44.758 81.4979 44.5353C81.4979 44.3127 81.7206 44.3127 81.9433 44.3127ZM82.166 43.8673C81.7206 43.6447 81.2753 43.8673 81.0526 44.3127C80.8299 44.758 81.0526 45.2034 81.4979 45.426C81.9433 45.6487 82.3886 45.426 82.6113 44.9807C82.834 44.5353 82.6113 44.09 82.166 43.8673ZM40.3042 30.0617C40.5269 30.0617 40.5269 30.2843 40.5269 30.507C40.5269 30.7297 40.3042 30.7297 40.0815 30.7297C40.06 30.7297 40.0405 30.7276 40.0228 30.7236C39.7051 30.6517 39.9784 30.0617 40.3042 30.0617ZM40.7713 30.9048C41.1118 30.0883 39.5865 29.4931 39.1909 30.2843C38.9682 30.7297 39.1909 31.175 39.6362 31.3977C40.0816 31.6204 40.5269 31.3977 40.7496 30.9523C40.7574 30.9368 40.7646 30.9209 40.7713 30.9048ZM82.0708 45.2626C82.1845 45.2133 82.2139 45.3379 82.2546 45.455C84.3981 51.6295 84.5794 58.6534 81.9433 65.2438C78.6308 74.2982 70.938 80.5053 62.3403 82.7791C62.2316 82.8078 62.146 82.744 62.1088 82.638C62.0648 82.5122 62.0663 82.3476 62.195 82.3131C70.7566 80.0226 78.1954 73.8281 81.4979 65.0212C83.8936 58.4875 83.9461 51.7409 81.6556 45.6145C81.6014 45.4695 81.9287 45.3242 82.0708 45.2626ZM61.2482 82.7405C61.3454 82.3901 61.9031 82.694 61.9031 83.0576C61.9031 83.2803 61.6804 83.2803 61.4578 83.2803C61.2351 83.2803 61.2351 83.0576 61.2351 82.8349C61.2351 82.803 61.2397 82.7711 61.2482 82.7405ZM61.9031 82.1669C61.4578 81.9443 61.0124 82.1669 60.7898 82.6123C60.5671 83.0576 60.7897 83.503 61.2351 83.7256C61.6804 83.9483 62.1258 83.7256 62.3484 83.2803C62.5711 82.8349 62.3484 82.3896 61.9031 82.1669ZM56.559 83.2803C56.7817 83.2803 56.7817 83.503 56.7817 83.7256C56.7817 83.9483 56.559 83.9483 56.3364 83.9483C56.1137 83.9483 56.1137 83.7256 56.1137 83.503C56.1137 83.2803 56.3364 83.2803 56.559 83.2803ZM56.7817 82.8349C56.3364 82.6123 55.891 82.8349 55.6684 83.2803C55.4457 83.7256 55.6684 84.171 56.1137 84.3937C56.5591 84.6163 57.0044 84.3936 57.2271 83.9483C57.4497 83.503 57.227 83.0576 56.7817 82.8349ZM39.5172 30.832C39.4763 30.793 39.3796 30.7518 39.3323 30.7828C34.2498 34.1193 30.2723 38.7777 28.0574 44.758C22.4907 59.677 30.0614 76.3774 44.7576 81.9442C48.2547 83.2557 51.9665 83.9235 55.6821 83.737C55.7994 83.7311 55.891 83.6305 55.891 83.5131C55.891 83.3851 55.7832 83.2871 55.6554 83.2937C52.1617 83.4732 48.4645 82.8055 44.9803 81.4989C30.2841 75.9321 22.9361 59.4544 28.5028 44.758C30.6766 38.8885 34.5483 34.2924 39.4963 31.1769C39.5985 31.1124 39.6049 30.9153 39.5172 30.832Z" fill="#06FF79"/>
<path opacity="0.4" d="M40.9725 84.1698C40.8357 84.1698 40.699 84.1698 40.5623 84.0667C40.3354 83.8956 40.2331 83.6446 40.3601 83.3904C40.4872 83.1363 40.8297 82.985 41.0838 83.1121C41.3379 83.2392 41.4595 83.668 41.3296 83.9208C41.2444 84.0868 41.1084 84.1698 40.9725 84.1698ZM41.1951 84.6151C41.6405 84.3925 42.0858 83.9471 41.8631 83.5018C41.6405 83.0564 41.1951 82.6111 40.7498 82.8337C39.9026 83.2573 40.1736 84.9422 41.0784 84.6619C41.1185 84.6495 41.1576 84.6339 41.1951 84.6151ZM82.4048 72.2555C82.4962 72.1104 82.4425 71.8171 82.2936 71.7321C82.2274 71.6943 82.1419 71.7399 82.1018 71.8048C77.8678 78.6547 71.2137 83.7357 63.0167 85.9512C55.5438 87.9293 48.2878 86.8701 41.8912 83.8443C41.775 83.7893 41.6701 83.8453 41.6072 83.9574C41.5484 84.0621 41.5307 84.2242 41.6392 84.2756C48.0529 87.3071 55.7524 88.1576 63.0167 86.3965C71.3417 84.2057 78.1578 78.9972 82.4048 72.2555ZM82.8342 71.9228C82.6975 71.9228 82.5607 71.9228 82.424 71.8197C82.1972 71.6486 82.0982 71.2941 82.2693 71.0673C82.2971 71.0304 82.3324 70.9935 82.3773 70.9566C82.5181 70.8408 82.6473 70.7874 82.8258 70.8241C83.1877 70.8986 83.221 71.4686 83.0387 71.79C82.9885 71.8785 82.9335 71.9228 82.8342 71.9228ZM82.8342 72.3682C83.2795 72.1455 83.7249 71.7001 83.5022 71.2548C83.2795 70.8095 82.8342 70.3641 82.3889 70.5868C81.9435 70.8094 81.4982 71.2548 81.7209 71.7001C81.9435 72.1455 82.3889 72.5908 82.8342 72.3682ZM37.555 81.7402C37.3839 82.0283 36.9425 82.242 36.7086 82.0021C36.7025 81.9957 36.6963 81.9892 36.6901 81.9824C36.5518 81.8293 36.482 81.602 36.5628 81.4122C36.5773 81.3782 36.5966 81.3442 36.6222 81.3102C36.7933 81.0833 37.1478 80.9844 37.3746 81.1555C37.4069 81.1799 37.4393 81.21 37.4716 81.2473C37.6001 81.3954 37.6552 81.5716 37.555 81.7402ZM36.6026 82.4441C37.0168 82.6808 37.6849 82.544 37.9744 82.1648C38.1279 81.9637 38.1943 81.7307 38.0778 81.4977C37.8551 81.0524 37.4098 80.607 36.9644 80.8297C36.7554 80.9342 36.5463 81.0878 36.4064 81.2674C36.1132 81.6438 36.1884 82.2073 36.6026 82.4441ZM84.9835 67.9345C84.8123 68.2226 84.3709 68.4364 84.1371 68.1964C84.1309 68.1901 84.1248 68.1835 84.1186 68.1767C83.9803 68.0236 83.9105 67.7963 83.9913 67.6065C84.0058 67.5725 84.025 67.5385 84.0507 67.5045C84.2217 67.2777 84.5762 67.1787 84.8031 67.3498C84.8354 67.3742 84.8677 67.4043 84.9001 67.4416C85.0286 67.5898 85.0837 67.7659 84.9835 67.9345ZM84.031 68.6384C84.4453 68.8751 85.1133 68.7384 85.4028 68.3592C85.5564 68.1581 85.6227 67.925 85.5062 67.692C85.2836 67.2467 84.8382 66.8014 84.3929 67.024C84.1838 67.1286 83.9748 67.2822 83.8348 67.4618C83.5416 67.8381 83.6168 68.4017 84.031 68.6384ZM36.5534 81.2608C36.4896 81.3933 36.3536 81.3809 36.2342 81.2948C30.3594 77.0619 25.7992 70.6859 23.827 63.0159C21.1823 52.6575 23.9909 42.081 30.5256 34.309C30.5953 34.2261 30.7923 34.2457 30.8974 34.2716C30.994 34.2955 31.0758 34.4079 31.0118 34.4841C24.669 42.043 21.8456 52.637 24.495 62.7933C26.4465 70.166 30.7209 76.4828 36.7012 80.7156C36.8473 80.819 36.631 81.0996 36.5534 81.2608ZM31.5647 33.7345C31.4376 33.9887 31.0952 34.14 30.841 34.0129C30.5869 33.8858 30.4356 33.5433 30.5627 33.2892C30.6898 33.0351 31.0322 32.8838 31.2864 33.0109C31.5405 33.1379 31.6918 33.4804 31.5647 33.7345ZM30.674 34.3469C31.0912 34.5555 31.6638 34.447 31.9523 34.0806C32.1129 33.8765 32.1847 33.6385 32.0657 33.4005C31.843 32.9552 31.3977 32.5099 30.9524 32.7325C30.7383 32.8396 30.5242 32.998 30.3844 33.1833C30.1033 33.5554 30.2569 34.1383 30.674 34.3469ZM35.6284 30.0605C35.4917 30.0605 35.3549 30.0605 35.2182 29.9573C34.9914 29.7863 34.8924 29.4318 35.0635 29.2049C35.1011 29.1551 35.1523 29.1053 35.2222 29.0555C35.3364 28.9741 35.4314 28.9368 35.5706 28.9538C35.9564 29.0008 35.9889 29.6418 35.7753 29.9666C35.7377 30.024 35.6922 30.0605 35.6284 30.0605ZM34.5151 29.8378C34.9175 30.6426 36.6259 30.3067 36.3247 29.4588C36.3169 29.4367 36.3075 29.4146 36.2964 29.3924C36.0737 28.9471 35.6284 28.5018 35.1831 28.7244C34.7377 28.9471 34.2924 29.3924 34.5151 29.8378ZM84.8538 67.2467C84.9787 67.2467 85.091 67.1703 85.1361 67.0537C87.5283 60.8696 88.3826 54.0356 86.6196 46.9835C81.9435 29.8378 64.3527 19.1495 47.2072 23.603C43.094 24.6854 39.4017 26.3993 36.1304 28.7446C36.0417 28.8082 36.0407 29.0363 36.0603 29.1437C36.0769 29.2347 36.179 29.3154 36.254 29.2612C39.5497 26.8793 43.2711 25.1417 47.2072 24.0483C64.3527 19.8175 81.7208 30.0605 85.9516 47.2062C87.6925 53.9526 87.0939 60.699 84.5715 66.8217C84.4884 67.0234 84.6356 67.2467 84.8538 67.2467Z" fill="#06FF79"/>
<path opacity="0.4" d="M74.4919 84.4094C75.0366 84.5512 74.7132 85.506 74.1502 85.506C73.9276 85.506 73.7049 85.0607 73.7049 84.838C73.7049 84.6153 74.1502 84.3927 74.3729 84.3927C74.4082 84.3927 74.449 84.3982 74.4919 84.4094ZM74.2102 85.7555C75.2158 86.1535 75.7855 84.2083 74.8182 83.7246C74.3729 83.502 73.7049 83.9473 73.4822 84.3927C73.2596 84.838 73.7049 85.506 74.1502 85.7287C74.1698 85.7385 74.1898 85.7474 74.2102 85.7555ZM86.9523 38.7322C86.8981 38.6278 86.7367 38.6483 86.6355 38.7084C86.523 38.7752 86.4681 38.8833 86.527 39.0001C90.4289 46.7421 91.4893 55.9901 88.8464 65.0202C86.4505 73.0792 81.4979 79.4338 75.0308 83.8755C74.901 83.9646 74.8399 84.3559 74.931 84.4842C74.9749 84.5461 75.0863 84.5851 75.1493 84.5428C81.7787 80.0895 87.0783 73.4371 89.5144 65.2429C92.1631 56.1929 91.0922 46.7053 86.9523 38.7322ZM86.7833 37.874C87.077 38.1312 86.7786 38.5534 86.4137 38.692C86.3259 38.7253 86.2404 38.7449 86.1744 38.7449C85.9517 38.7449 85.729 38.2995 85.729 38.0769C85.729 37.9435 85.8889 37.8101 86.0649 37.7245C86.2704 37.6247 86.6114 37.7235 86.7833 37.874ZM86.4071 39.2458C87.264 39.1771 87.5216 37.9379 86.8796 37.3662C86.7965 37.2921 86.7081 37.2304 86.6197 37.1862C86.1744 36.9635 85.5063 37.4089 85.2837 37.8542C85.1152 38.1911 85.3291 38.6554 85.636 38.958C85.8226 39.1419 86.1459 39.2667 86.4071 39.2458ZM70.2226 86.6347C70.7408 86.8132 70.4676 87.7327 69.9195 87.7327C69.6969 87.7327 69.4742 87.2874 69.4742 87.0647C69.4742 86.842 69.9195 86.6194 70.1422 86.6194C70.1667 86.6194 70.1939 86.6248 70.2226 86.6347ZM69.9795 88.2049C70.9851 88.6029 71.5549 86.6577 70.5875 86.174C70.1422 85.9514 69.4742 86.3967 69.2515 86.8421C69.0289 87.2874 69.4742 87.9554 69.9195 88.1781C69.9391 88.1879 69.9591 88.1968 69.9795 88.2049ZM84.6157 34.5141C84.6157 34.7368 84.1703 34.9595 83.9477 34.9595C83.725 34.9595 83.5023 34.5141 83.5023 34.2915C83.5023 34.0688 83.9477 33.8461 84.1703 33.8461C84.393 33.8461 84.6157 34.2915 84.6157 34.5141ZM83.785 35.2089C84.7906 35.6069 85.3603 33.6618 84.393 33.1781C83.9477 32.9554 83.2797 33.4008 83.057 33.8461C82.8343 34.2914 83.2797 34.9595 83.725 35.1821C83.7446 35.1919 83.7646 35.2009 83.785 35.2089ZM69.4742 87.5811C69.4742 87.6619 69.4266 87.7538 69.3526 87.7861C61.8106 91.0823 53.1741 91.9492 44.758 89.2914C33.2623 85.9753 24.8394 77.1721 21.2326 66.5862C21.1941 66.4732 21.2557 66.3809 21.3655 66.3341C21.4846 66.2832 21.6493 66.2768 21.6919 66.3991C25.3029 76.7496 33.4999 85.5343 44.9806 88.8461C53.3354 91.2646 61.6902 90.6438 69.1875 87.4124C69.3227 87.3541 69.4742 87.434 69.4742 87.5811ZM21.6004 65.6882C21.6004 65.9109 21.1551 66.1335 20.9324 66.1335C20.7097 66.1335 20.4871 65.6882 20.4871 65.4655C20.4871 65.2429 20.9324 65.0202 21.1551 65.0202C21.6004 65.0202 21.6004 65.4655 21.6004 65.6882ZM22.0457 65.9109C22.2684 65.4655 21.8231 64.7975 21.3777 64.5749C20.9324 64.3522 20.2644 64.7975 20.0417 65.2429C20.0352 65.256 20.0292 65.2693 20.0238 65.2828C19.6364 66.2473 21.5809 66.8405 22.0457 65.9109ZM20.2644 59.4534C20.2644 59.6761 19.8191 59.8987 19.5964 59.8987C19.3737 59.8987 19.1511 59.4534 19.1511 59.2307C19.1511 59.008 19.5964 58.7854 19.8191 58.7854C20.0417 58.7854 20.2644 59.008 20.2644 59.4534ZM20.2087 60.1214C20.7192 59.8662 20.8913 59.1256 20.5903 58.6408C20.4505 58.4155 20.2461 58.2196 20.0417 58.1174C19.5964 57.8947 18.9284 58.34 18.7057 58.7854C18.5969 59.0031 18.6476 59.274 18.78 59.5201C19.0504 60.0227 19.6983 60.3766 20.2087 60.1214ZM83.5826 33.6683C83.6153 33.6418 83.6894 33.5755 83.6643 33.5417C79.215 27.5689 73.0025 22.9251 65.4662 20.7085C46.5393 15.1417 26.4991 25.8299 20.9324 44.757C19.6163 49.3634 19.1645 53.9697 19.5771 58.3632C19.5877 58.4765 19.6886 58.5627 19.8024 58.5627C19.9335 58.5627 20.0303 58.4496 20.0183 58.3191C19.6129 53.939 20.0661 49.352 21.3777 44.9797C26.9445 26.2753 46.762 15.587 65.2435 21.1538C72.7275 23.355 78.9059 27.9498 83.3485 33.6475C83.3829 33.6915 83.5392 33.7035 83.5826 33.6683Z" fill="#06FF79"/>
<path opacity="0.4" d="M94.4135 53.6646C94.6362 53.8873 94.6362 54.3326 94.4135 54.5553C94.1909 54.778 93.7455 54.778 93.5229 54.5553C93.0689 54.1013 93.9596 53.2106 94.4135 53.6646ZM94.8589 53.4419C94.4135 52.9966 93.7455 52.9966 93.3002 53.4419C92.8549 53.8873 92.8549 54.5553 93.3002 55.0006C93.7455 55.446 94.4135 55.446 94.8589 55.0006C95.3042 54.5553 95.3042 53.8873 94.8589 53.4419ZM58.1353 15.8323C58.0068 15.8202 57.8958 16.0067 57.8958 16.1358C57.8958 16.2513 57.9851 16.2619 58.1002 16.2705C67.6067 16.9873 77.0945 21.4326 83.9481 29.1707C90.0561 35.9332 93.1722 44.4054 93.5057 52.9124C93.5172 53.207 93.9682 53.1471 93.9682 53.4419C93.7455 44.5351 90.4055 35.8508 84.1708 28.948C77.3231 20.9957 68.0649 16.7687 58.1353 15.8323ZM57.8958 15.8104C58.1185 16.033 58.1185 16.4784 57.8958 16.7011C57.6732 16.9237 57.2278 16.9237 57.0052 16.7011C56.5483 16.2442 57.3268 15.3344 57.8248 15.7459C57.8503 15.767 57.8741 15.7887 57.8958 15.8104ZM58.5082 16.1444C58.5082 15.6119 58.1596 15.0669 57.6282 15.0331C57.3281 15.014 57.0229 15.1246 56.7825 15.365C56.3372 15.8104 56.3372 16.4784 56.7825 16.9237C57.0229 17.1641 57.3281 17.2747 57.6282 17.2556C58.1596 17.2218 58.5082 16.6768 58.5082 16.1444ZM94.1909 59.0087C94.4135 59.2314 94.4135 59.6768 94.1909 59.8994C93.9682 60.1221 93.5229 60.1221 93.3002 59.8994C92.8462 59.4455 93.7369 58.5548 94.1909 59.0087ZM94.6362 58.7861C94.1909 58.3407 93.5229 58.3407 93.0775 58.7861C92.6322 59.2314 92.6322 59.8994 93.0775 60.3448C93.5229 60.7901 94.1909 60.7901 94.6362 60.3448C95.0815 59.8994 95.0815 59.2314 94.6362 58.7861ZM52.0166 15.6851C52.5022 15.259 53.2313 16.2442 52.7745 16.7011C52.5518 16.9237 52.1065 16.9237 51.8838 16.7011C51.6611 16.4784 51.6611 16.033 51.8838 15.8104C51.9304 15.7637 51.9746 15.722 52.0166 15.6851ZM53.2198 15.365C52.7745 14.9197 52.1065 14.9197 51.6611 15.365C51.2158 15.8104 51.2158 16.4784 51.6611 16.9237C52.1065 17.3691 52.7745 17.3691 53.2198 16.9237C53.6651 16.4784 53.6651 15.8104 53.2198 15.365ZM93.5928 60.3448C93.7921 60.3448 93.9465 60.5194 93.9197 60.7169C92.7302 69.4932 88.3022 78.0258 81.2761 84.3933C71.5243 93.2588 58.4634 95.9473 46.4851 93.3372C46.3869 93.3158 46.3171 93.1556 46.3171 93.0551C46.3171 92.916 46.4475 92.8869 46.5828 92.919C58.3154 95.7059 71.3278 92.7897 80.8307 84.1707C87.8787 77.7833 92.0946 69.4353 93.2628 60.635C93.2848 60.4693 93.4256 60.3448 93.5928 60.3448ZM45.8717 92.4095C46.0944 92.6322 46.0944 93.0776 45.8717 93.3002C45.6491 93.5229 45.2037 93.5229 44.9811 93.3002C44.7584 93.0776 44.7584 92.6322 44.9811 92.4095C45.2037 92.1869 45.6491 92.1869 45.8717 92.4095ZM46.0944 91.9642C45.6491 91.5188 44.9811 91.5188 44.5357 91.9642C44.0904 92.4095 44.0904 93.0776 44.5357 93.5229C45.3509 94.3381 46.9064 92.8093 46.1078 91.9779C46.1034 91.9733 46.0989 91.9687 46.0944 91.9642ZM39.1917 89.9602C39.4143 90.1828 39.4143 90.6282 39.1917 90.8508C38.969 91.0735 38.5237 91.0735 38.301 90.8508C38.0783 90.6282 38.0783 90.1828 38.301 89.9602C38.5237 89.7375 38.969 89.7375 39.1917 89.9602ZM39.4143 89.7375C38.969 89.2921 38.301 89.2921 37.8556 89.7375C37.4103 90.1828 37.4103 90.8508 37.8556 91.2962C38.301 91.7415 38.969 91.7415 39.4143 91.2962C39.8597 90.8508 39.8597 90.1828 39.4143 89.7375ZM51.458 16.0526C51.4082 16.0028 51.398 16.0364 51.3277 16.0424C43.3486 16.7319 35.3766 20.0678 28.9489 25.8306C12.6941 40.3043 11.3581 65.0209 25.8315 81.2759C29.3574 85.2425 33.5374 88.3368 37.9401 90.3429C38.005 90.3725 38.0771 90.3021 38.0826 90.2311C38.0905 90.1278 38.022 89.8196 37.9297 89.7724C33.6246 87.5712 29.7403 84.727 26.2769 80.8306C12.0261 64.7982 13.5847 40.3043 29.3942 26.0533C35.7165 20.385 43.3194 17.2781 51.367 16.5235C51.5705 16.5045 51.6026 16.1972 51.458 16.0526Z" fill="#06FF79"/>
</g>
<path d="M54.9987 100.648C29.8371 100.648 9.35156 80.1625 9.35156 55.0006C9.35156 29.8386 29.8371 9.35278 54.9987 9.35278C80.1602 9.35278 100.646 29.8386 100.646 55.0006C100.646 80.1625 80.1602 100.648 54.9987 100.648ZM54.9987 10.4661C30.5051 10.4661 10.4649 30.5066 10.4649 55.0006C10.4649 79.4945 30.5051 99.535 54.9987 99.535C79.4922 99.535 99.5324 79.4945 99.5324 55.0006C99.5324 30.5066 79.7149 10.4661 54.9987 10.4661Z" fill="#06FF79"/>
<path d="M55.0016 99.7568C30.2853 99.7568 10.2451 79.7164 10.2451 54.9998C10.2451 30.2832 30.2853 10.2427 55.0016 10.2427C79.7178 10.2427 99.758 30.2832 99.758 54.9998C99.758 79.7164 79.7178 99.7568 55.0016 99.7568ZM55.0016 11.8014C31.176 11.8014 11.8038 31.1738 11.8038 54.9998C11.8038 78.8257 31.176 98.1981 55.0016 98.1981C78.8271 98.1981 98.1993 78.8257 98.1993 54.9998C98.1993 31.1738 78.8271 11.8014 55.0016 11.8014Z" fill="#06FF79"/>
<path d="M55.0016 100.202C30.0627 100.202 9.7998 79.9388 9.7998 54.9995C9.7998 30.0603 30.0627 9.79712 55.0016 9.79712C79.9405 9.79712 100.203 30.0603 100.203 54.9995C100.203 79.9388 79.9405 100.202 55.0016 100.202ZM55.0016 11.3558C30.9534 11.3558 11.3585 30.951 11.3585 54.9995C11.3585 79.0481 30.9534 98.6433 55.0016 98.6433C79.0498 98.6433 98.6447 79.0481 98.6447 54.9995C98.6447 30.951 79.0498 11.3558 55.0016 11.3558Z" fill="#06FF79"/>
<path d="M55.0001 109.11C25.1625 109.11 0.891602 84.8385 0.891602 55.0004C0.891602 25.1624 25.1625 0.891113 55.0001 0.891113C84.8378 0.891113 109.109 25.1624 109.109 55.0004C109.331 84.8385 84.8378 109.11 55.0001 109.11ZM55.0001 3.78585C26.7212 3.78585 3.78629 26.7211 3.78629 55.0004C3.78629 83.2798 26.7212 106.215 55.0001 106.215C83.2791 106.215 106.214 83.2798 106.214 55.0004C106.214 26.7211 83.2791 3.78585 55.0001 3.78585Z" fill="black"/>
<path d="M54.9992 110C24.7162 110 0 85.2834 0 55C0 24.7166 24.7162 0 54.9992 0C85.2822 0 109.998 24.7166 109.998 55C110.221 85.2834 85.5048 110 54.9992 110ZM54.9992 2.89474C26.2749 2.89474 2.8947 26.2753 2.8947 55C2.8947 83.7247 26.2749 107.105 54.9992 107.105C83.7235 107.105 107.104 83.7247 107.104 55C107.104 26.2753 83.7235 2.89474 54.9992 2.89474Z" fill="#06FF79"/>
<path fill-rule="evenodd" clip-rule="evenodd" d="M45.5775 57.5793C46.064 57.8597 46.3702 58.37 46.4219 58.9288C46.9118 64.216 49.2156 67.2848 53.3356 68.1351C53.8744 68.2465 54.3503 68.5732 54.6121 69.0578C56.1518 71.9019 58.0977 74.508 60.3744 76.8033C61.3494 77.7862 60.8987 79.4936 59.5214 79.6315C58.3178 79.7514 57.0638 79.8111 55.7581 79.8111C48.2678 79.8111 42.4339 77.8359 38.2563 73.8863C34.1271 69.936 32.0625 64.3359 32.0625 57.0862V52.6461C32.0625 51.3702 33.4431 50.5735 34.548 51.2111L45.5775 57.5793ZM32.891 47.683C32.378 47.3867 32.0625 46.8399 32.0625 46.248V43.3138C32.0625 42.0385 33.4431 41.2412 34.548 41.8788L45.4947 48.1986C46.007 48.4949 46.3232 49.0417 46.3232 49.6336V52.5679C46.3232 53.8438 44.9419 54.6404 43.8377 54.0028L32.891 47.683ZM44.6662 30.0398C45.5808 30.0398 46.3232 30.7815 46.3232 31.6968V43.2356C46.3232 44.5115 44.9419 45.3088 43.8377 44.6705L32.891 38.3507C32.378 38.0544 32.0625 37.5076 32.0625 36.9157V31.6968C32.0625 30.7815 32.8042 30.0398 33.7195 30.0398H44.6662Z" fill="#06FF79"/>
<path fill-rule="evenodd" clip-rule="evenodd" d="M70.2554 56.6759C70.2554 63.2357 72.3572 67.0402 76.5606 68.09C77.3911 68.2975 78.0499 68.9935 78.0499 69.8491V78.107C78.0499 79.0402 77.2778 79.7945 76.3479 79.7203C70.6472 79.2643 66.1077 77.3236 62.7301 73.8982C58.8772 69.9472 56.9512 64.3459 56.9512 57.0941V42.3918C56.9512 41.1159 58.3318 40.3192 59.4367 40.9568L69.4269 46.7246C69.9393 47.0208 70.2554 47.5677 70.2554 48.1595V56.6759ZM67.77 43.1574C68.8748 43.795 70.2554 42.9983 70.2554 41.7224V31.6968C70.2554 30.7815 69.5138 30.0398 68.5985 30.0398H58.6082C57.6928 30.0398 56.9512 30.7815 56.9512 31.6968V35.9547C56.9512 36.5465 57.2673 37.0934 57.7797 37.3896L67.77 43.1574Z" fill="#06FF79"/>
</svg>
