<svg width="110" height="110" fill="none" xmlns="http://www.w3.org/2000/svg"><g opacity=".8"><path opacity=".4" d="M66.58 64.576c0 .153-.158.087-.3.143-.092.036-.125.03-.138-.017a.173.173 0 01.098-.197c.086-.039.213-.057.34.07 0-.222 0 0 0 0zm.223 0a.479.479 0 00-.445-.446.479.479 0 00-.445.446c0 .222.222.445.445.445a.479.479 0 00.445-.445zm-.796-19.946c-.052-.053-.122-.068-.174-.015-.056.055.123-.029.173.032 2.396 2.874 3.915 6.397 3.915 10.354 0 3.494-1.286 6.774-3.226 9.21a.087.087 0 00.068.142c.025 0 .05-.012.066-.031 2.211-2.666 3.537-5.773 3.537-9.544-.22-3.74-1.745-7.481-4.36-10.148zm-.094-.095s-.205.102-.252.123c-.194.087-.194.046-.194-.123 0-.223 0-.223.446 0-.223-.223 0-.223 0 0zm.222 0a.479.479 0 00-.445-.445.479.479 0 00-.445.445c0 .223.222.445.445.445a.479.479 0 00.445-.445zm-.89 21.6c0 .153-.16.087-.302.143-.144.057-.144.009-.144-.144 0-.222 0-.222.446 0 0-.222 0-.222 0 0zm.222 0a.479.479 0 00-.445-.446.479.479 0 00-.445.445c0 .223.222.445.445.445a.479.479 0 00.445-.445zm-1.113-22.936c0 .153-.159.087-.302.144-.09.036-.124.03-.136-.018a.173.173 0 01.097-.196c.086-.04.214-.057.34.07 0-.223 0 0 0 0zm.223 0a.479.479 0 00-.446-.445.479.479 0 00-.445.445c0 .223.223.445.445.445a.479.479 0 00.446-.445zm.222 23.158c-2.672 2.227-6.012 3.563-9.797 3.563-5.075 0-9.494-2.405-12.173-6.349-.032-.046-.058-.104-.004-.12.066-.02.241-.087.282-.031 2.685 3.682 7.074 6.054 11.895 6.054 3.785.446 7.125-1.113 9.797-3.117zm-21.821-3.118c0 .076-.299.155-.373.166-.073.011-.073-.044-.073-.166 0 0 0-.222.446 0-.223-.222 0 0 0 0zm.222 0a.479.479 0 00-.445-.445.479.479 0 00-.445.445c0 .223.222.446.445.446a.479.479 0 00.445-.446zm-1.558-2.226s-.205.101-.252.122c-.194.087-.194.046-.194-.122 0-.223 0-.223.446 0-.223-.223 0-.223 0 0zm.222 0a.479.479 0 00-.445-.446.479.479 0 00-.445.446c0 .222.222.445.445.445a.479.479 0 00.445-.445zM63.91 42.976a15.206 15.206 0 00-8.907-2.895c-8.239 0-14.919 6.68-14.919 14.92 0 1.978.434 3.957 1.088 5.721a.105.105 0 00.195-.073c-.638-1.735-1.06-3.475-1.06-5.426 0-8.239 6.68-14.919 14.919-14.919 3.117-.223 6.234.89 8.684 2.672z" fill="#06FF79"/><g opacity=".4"><mask id="a" fill="#fff"><path d="M71.032 45.648c.223 0 .223.223.223.446 0 .222-.223.222-.445.222a.26.26 0 01-.06-.006c-.317-.072-.043-.662.282-.662zm.501.112c-.115-.23-.425-.356-.678-.31-.148.027-.268.082-.268.198 0 .223 0 .668.222.668.097 0 .236 0 .362-.018.255-.037.477-.308.362-.538zm-23.63-7.786c-.153.062-.29.21-.15.295.046.029.147.02.198 0 4.213-1.755 9.08-2.185 13.506-.414 4.162 1.533 7.247 4.36 9.254 7.842.05.087.169.104.24.033a.15.15 0 00.025-.182c-2.01-3.517-5.328-6.372-9.519-7.916-4.584-1.746-9.382-1.353-13.555.342zm-.474.103c.223 0 .223.223.223.446 0 .222-.223.222-.445.222a.267.267 0 01-.06-.006c-.317-.072-.043-.662.282-.662zm.223-.222c-.223 0-.668 0-.668.222 0 .223 0 .668.223.668.489 0 .97-.683.52-.874a.193.193 0 00-.075-.016zM72.094 47.92c.073-.06.119-.064.19 0 .084.077.084.238.084.4 0 .222-.222.222-.445.222-.09 0-.142-.035-.174-.092-.098-.173.192-.403.345-.53zm.553.065c-.115-.23-.426-.355-.68-.31-.146.027-.267.083-.267.199 0 .223 0 .668.223.668.097 0 .236 0 .362-.018.254-.037.477-.309.362-.539zm-27.222-8.795c.223 0 .223.222.223.445s-.223.223-.445.223a.28.28 0 01-.045-.004c-.33-.052-.068-.664.267-.664zm0-.223c-.222 0-.668 0-.668.223 0 .222 0 .668.223.668.49 0 1.075-.691.617-.863a.484.484 0 00-.172-.028zm26.902 9.57c.055.014.055.04.076.094 1.524 3.985 1.512 8.404-.035 12.603-2.208 5.743-6.827 9.952-12.334 11.323a.11.11 0 01-.135-.106.11.11 0 01.08-.106c5.531-1.574 10.173-5.572 12.39-11.333 1.53-4.156 1.343-8.526.07-12.478-.032-.099-.212-.025-.112.002zM59.453 72.591c.223 0 .223.222.223.445s-.223.223-.445.223a.267.267 0 01-.06-.007c-.317-.072-.043-.661.282-.661zm.223-.223c-.223 0-.668 0-.668.223 0 .222 0 .668.223.668.489 0 .97-.684.52-.875a.19.19 0 00-.075-.016zm-3.34.668c.223 0 .223.223.223.445 0 .223-.223.223-.446.223-.222 0-.222-.223-.222-.445 0-.223.222-.223.445-.223zm.278.111c-.115-.23-.425-.355-.678-.31-.147.028-.268.083-.268.199 0 .223 0 .668.223.668.096 0 .235 0 .361-.018.255-.037.477-.309.362-.539zM44.98 39.636c-3.117 2.004-5.79 5.122-7.125 9.13-3.563 9.575 1.336 20.263 10.91 23.826 2.413.877 4.609 1.106 7.014 1.113a.111.111 0 100-.223c-2.196-.007-4.601-.237-6.791-1.113-9.352-3.563-14.25-14.028-10.91-23.38 1.335-4.009 3.785-7.126 6.902-9.353z"/></mask><path d="M71.032 45.648c.223 0 .223.223.223.446 0 .222-.223.222-.445.222a.26.26 0 01-.06-.006c-.317-.072-.043-.662.282-.662zm.501.112c-.115-.23-.425-.356-.678-.31-.148.027-.268.082-.268.198 0 .223 0 .668.222.668.097 0 .236 0 .362-.018.255-.037.477-.308.362-.538zm-23.63-7.786c-.153.062-.29.21-.15.295.046.029.147.02.198 0 4.213-1.755 9.08-2.185 13.506-.414 4.162 1.533 7.247 4.36 9.254 7.842.05.087.169.104.24.033a.15.15 0 00.025-.182c-2.01-3.517-5.328-6.372-9.519-7.916-4.584-1.746-9.382-1.353-13.555.342zm-.474.103c.223 0 .223.223.223.446 0 .222-.223.222-.445.222a.267.267 0 01-.06-.006c-.317-.072-.043-.662.282-.662zm.223-.222c-.223 0-.668 0-.668.222 0 .223 0 .668.223.668.489 0 .97-.683.52-.874a.193.193 0 00-.075-.016zM72.094 47.92c.073-.06.119-.064.19 0 .084.077.084.238.084.4 0 .222-.222.222-.445.222-.09 0-.142-.035-.174-.092-.098-.173.192-.403.345-.53zm.553.065c-.115-.23-.426-.355-.68-.31-.146.027-.267.083-.267.199 0 .223 0 .668.223.668.097 0 .236 0 .362-.018.254-.037.477-.309.362-.539zm-27.222-8.795c.223 0 .223.222.223.445s-.223.223-.445.223a.28.28 0 01-.045-.004c-.33-.052-.068-.664.267-.664zm0-.223c-.222 0-.668 0-.668.223 0 .222 0 .668.223.668.49 0 1.075-.691.617-.863a.484.484 0 00-.172-.028zm26.902 9.57c.055.014.055.04.076.094 1.524 3.985 1.512 8.404-.035 12.603-2.208 5.743-6.827 9.952-12.334 11.323a.11.11 0 01-.135-.106.11.11 0 01.08-.106c5.531-1.574 10.173-5.572 12.39-11.333 1.53-4.156 1.343-8.526.07-12.478-.032-.099-.212-.025-.112.002zM59.453 72.591c.223 0 .223.222.223.445s-.223.223-.445.223a.267.267 0 01-.06-.007c-.317-.072-.043-.661.282-.661zm.223-.223c-.223 0-.668 0-.668.223 0 .222 0 .668.223.668.489 0 .97-.684.52-.875a.19.19 0 00-.075-.016zm-3.34.668c.223 0 .223.223.223.445 0 .223-.223.223-.446.223-.222 0-.222-.223-.222-.445 0-.223.222-.223.445-.223zm.278.111c-.115-.23-.425-.355-.678-.31-.147.028-.268.083-.268.199 0 .223 0 .668.223.668.096 0 .235 0 .361-.018.255-.037.477-.309.362-.539zM44.98 39.636c-3.117 2.004-5.79 5.122-7.125 9.13-3.563 9.575 1.336 20.263 10.91 23.826 2.413.877 4.609 1.106 7.014 1.113a.111.111 0 100-.223c-2.196-.007-4.601-.237-6.791-1.113-9.352-3.563-14.25-14.028-10.91-23.38 1.335-4.009 3.785-7.126 6.902-9.353z" fill="#06FF79"/><path d="M61.457 37.855l-.371.928.013.005.013.005.345-.938zm0-.223l-.356.935.01.003.346-.938zm10.911 23.603l.934.36.002-.007.003-.007-.939-.346zm0-.222l.934.359.002-.007.003-.007-.939-.345zM44.98 39.636l.581.814-1.122-1.655.541.841zm-7.125 9.13l.937.348.006-.016.005-.016-.948-.316zm10.91 23.826l-.348.937.007.002.341-.94zm.223-.223l.371-.929-.007-.003-.008-.003-.356.935zm-10.91-23.38l.941.336.004-.01.003-.01-.949-.317zm17.701 24.716l.003-1-.003 1zm15.253-28.057v-1 1zm-11.86 27.605l-.222.975.222-.974zm13.267-24.718l.951-.307-.951.307zm-12.46 23.811l-.274-.962.274.962zm12.424-23.714l-.934.357.934-.357zm-27.245-8.776l-.157.987.157-.988zm27.127 8.669l-.144-.99.144.99zm-.536-.074l-.871.491.87-.491zm.535-.53l-.672.741.672-.74zm-12.83 24.67v-1 1zm-11.727-34.72l-.391.92.391-.92zm12.307 34.687l-.242-.97.242.97zm-4.255.924l.004-1-.004 1zm.473.205l-.143-.99.143.99zm14.723-28.139l.869-.496-.868.496zm-15.04 27.29l.18.985-.18-.984zm-7.984-34.57l.384.923-.384-.923zm23.22 8.03l-.143-.99.143.99zm-.316-.848l-.179-.984.179.984zm-22.953-7.476l-.376-.927.376.927zm-.473.103v1-1zm24.539 9.6l-.178-.984.178.984zM70.75 46.31l-.222.975.222-.975zm-.04-.613l-.867.5.867-.5zm.321.951a.8.8 0 01-.485-.172.797.797 0 01-.269-.372c-.025-.075-.025-.123-.024-.107v.097h2c0-.055.012-.352-.078-.623a1.204 1.204 0 00-.401-.574 1.2 1.2 0 00-.743-.249v2zm-.777-.554a.8.8 0 01.172-.486.797.797 0 01.372-.268c.075-.025.123-.026.107-.025l-.097.001v2c.055 0 .352.011.623-.079.164-.055.392-.167.574-.4a1.2 1.2 0 00.249-.743h-2zm.555-.778c.043 0 .098.005.163.02l-.444 1.95c.1.022.194.03.28.03v-2zm-.134-.85a1.511 1.511 0 00-.557.213 1.153 1.153 0 00-.532.97h2a.859.859 0 01-.374.704c-.117.076-.204.086-.18.081l-.357-1.968zm-1.09 1.182c0 .091-.003.36.048.614.025.122.08.34.225.55.171.248.493.504.95.504v-2a.86.86 0 01.694.358.654.654 0 01.078.149c.01.028.014.046.014.047l-.002-.018a3.18 3.18 0 01-.006-.204h-2zm1.224 1.668c.085 0 .296.002.505-.028l-.287-1.98a.89.89 0 01-.085.007 3.713 3.713 0 01-.133.001v2zm-22.475-8.125c4.026-1.676 8.617-2.062 12.751-.408l.743-1.857c-4.72-1.887-9.862-1.414-14.263.42l.77 1.845zm12.777-.398c3.925 1.447 6.833 4.108 8.732 7.404l1.733-1c-2.115-3.67-5.376-6.66-9.774-8.28l-.691 1.876zm10.732 6.26c-2.13-3.727-5.634-6.736-10.04-8.36l-.692 1.877c3.976 1.465 7.105 4.167 8.995 7.474l1.737-.992zm-10.03-8.355c-4.859-1.851-9.921-1.424-14.288.35l.752 1.852c3.98-1.615 8.513-1.975 12.823-.333l.712-1.87zm-14.385 2.38a.8.8 0 01-.485-.173.797.797 0 01-.269-.372c-.024-.075-.025-.123-.024-.107l.001.097h2c0-.055.011-.352-.08-.623a1.203 1.203 0 00-.4-.574 1.2 1.2 0 00-.743-.249v2zm-.777-.555a.8.8 0 01.172-.485.797.797 0 01.373-.27c.074-.024.122-.025.107-.024a1.89 1.89 0 01-.097.001v2c.054 0 .351.012.622-.079.164-.054.392-.167.574-.4a1.2 1.2 0 00.249-.743h-2zm.555-.778c.043 0 .098.005.163.02l-.444 1.95c.1.022.194.03.28.03v-2zm.445-.89c-.091 0-.36-.004-.614.047-.122.024-.34.08-.55.224a1.151 1.151 0 00-.504.951h2a.858.858 0 01-.358.694.658.658 0 01-.149.078c-.028.01-.045.014-.046.014l.017-.002a3.175 3.175 0 01.204-.006v-2zm-1.668 1.222c0 .092-.004.36.047.614.025.122.08.34.225.55.171.248.493.504.95.504v-2a.858.858 0 01.694.358.656.656 0 01.078.15c.01.028.014.045.014.046l-.002-.018a3.185 3.185 0 01-.006-.204h-2zm2.134-1.126a1.19 1.19 0 00-.466-.096v2a.81.81 0 01-.316-.064l.782-1.84zm23.494 11.711a.8.8 0 01-.202-.283.607.607 0 01-.041-.14c-.003-.019-.002-.023-.001-.004v.085h2c0-.06.002-.221-.021-.38a1.267 1.267 0 00-.392-.76l-1.343 1.482zm-.244-.342c0-.117.033-.305.173-.485a.798.798 0 01.372-.269c.075-.024.122-.025.107-.024l-.097.001v2c.055 0 .351.011.622-.08.164-.054.393-.166.574-.4a1.2 1.2 0 00.25-.743h-2zm.555-.777a.829.829 0 01.697.416l-1.742.983c.091.163.236.33.447.448.207.117.42.153.598.153v-2zm-.133-.85a1.511 1.511 0 00-.558.212c-.252.165-.532.49-.532.97h2a.858.858 0 01-.374.705c-.117.076-.204.085-.18.08l-.356-1.967zm-1.09 1.182c0 .091-.003.36.047.614.025.122.08.34.225.55.172.248.493.504.95.504v-2a.858.858 0 01.694.358.66.66 0 01.093.195l-.003-.017a3.17 3.17 0 01-.006-.204h-2zm1.223 1.668c.086 0 .296.002.505-.029l-.287-1.979a.883.883 0 01-.085.006 3.716 3.716 0 01-.133.002v2zm-26.498-9.352a.8.8 0 01-.485-.173.798.798 0 01-.269-.372c-.024-.075-.025-.122-.024-.107l.001.097h2c0-.055.011-.351-.08-.622a1.204 1.204 0 00-.4-.574 1.2 1.2 0 00-.743-.25v2zm-.777-.555a.8.8 0 01.172-.485.797.797 0 01.373-.269c.074-.025.122-.026.107-.024h-.097v2c.054 0 .351.012.622-.078.164-.055.392-.168.574-.401a1.2 1.2 0 00.249-.743h-2zm.555-.777c.031 0 .07.002.113.009l-.315 1.975c.07.011.138.016.202.016v-2zm.222-.89c-.09 0-.36-.004-.613.046-.122.025-.341.08-.55.225a1.151 1.151 0 00-.505.95h2a.858.858 0 01-.357.694.662.662 0 01-.15.079c-.028.01-.045.013-.046.014l.017-.003a3.175 3.175 0 01.204-.006v-2zm-1.668 1.222c0 .09-.003.36.047.613.025.123.08.341.225.55.172.249.493.505.951.505v-2a.86.86 0 01.693.358.652.652 0 01.079.148c.01.029.014.046.014.047l-.002-.017a3.18 3.18 0 01-.006-.204h-2zm2.19-1.132a1.485 1.485 0 00-.522-.09v2a.521.521 0 01-.18-.037l.702-1.873zM71.47 48.99c1.433 3.748 1.429 7.916-.04 11.9l1.878.692c1.626-4.415 1.645-9.084.03-13.306l-1.868.714zm-.034 11.887c-2.102 5.464-6.477 9.426-11.643 10.712l.484 1.94c5.849-1.456 10.71-5.912 13.026-11.934l-1.867-.718zM60.253 73.308c5.823-1.658 10.716-5.87 13.049-11.936l-1.867-.718c-2.1 5.457-6.49 9.239-11.73 10.73l.548 1.924zm13.054-11.95c1.62-4.4 1.413-9.003.083-13.13l-1.903.614c1.217 3.777 1.384 7.914-.057 11.825l1.877.691zM59.453 73.592a.8.8 0 01-.485-.173.797.797 0 01-.268-.372c-.025-.075-.026-.123-.025-.107l.001.097h2c0-.055.011-.351-.079-.623a1.204 1.204 0 00-.4-.573 1.2 1.2 0 00-.744-.25v2zm-.777-.555a.8.8 0 01.172-.485.797.797 0 01.373-.269c.074-.025.122-.026.107-.025a1.7 1.7 0 01-.097.002v2c.054 0 .351.01.622-.08.164-.054.392-.167.574-.4a1.2 1.2 0 00.25-.743h-2zm.555-.777c.043 0 .099.004.163.018l-.444 1.95c.1.023.194.032.28.032v-2zm.445-.891c-.09 0-.36-.004-.614.047-.122.025-.34.08-.55.225a1.15 1.15 0 00-.504.95h2a.858.858 0 01-.358.694.662.662 0 01-.149.079c-.028.01-.045.013-.046.013l.017-.002a3.175 3.175 0 01.204-.006v-2zm-1.668 1.223c0 .09-.003.36.047.613.025.122.08.34.225.55.171.249.493.505.95.505v-2a.858.858 0 01.694.357.656.656 0 01.079.15c.01.028.013.045.014.046l-.003-.017a3.18 3.18 0 01-.006-.204h-2zm2.134-1.127a1.19 1.19 0 00-.466-.096v2a.809.809 0 01-.316-.064l.782-1.84zm-3.806 2.572a.801.801 0 01-.485-.172.798.798 0 01-.269-.373c-.025-.074-.026-.122-.025-.107.001.013.002.034.002.097h2c0-.054.01-.351-.08-.622a1.204 1.204 0 00-.4-.574 1.2 1.2 0 00-.743-.25v2zm-.777-.555a.8.8 0 01.172-.485.798.798 0 01.372-.269c.075-.024.123-.025.107-.024h-.097v2c.055 0 .352.012.623-.078.164-.055.392-.168.574-.401a1.2 1.2 0 00.249-.743h-2zm.554-.777a.8.8 0 01.486.172.797.797 0 01.268.373c.025.074.026.122.025.107l-.001-.097h-2c0 .054-.011.351.079.622.055.164.167.392.4.574a1.2 1.2 0 00.743.249v-2zm.778.555a.8.8 0 01-.173.485.797.797 0 01-.372.268c-.075.025-.122.026-.107.025l.097-.001v-2c-.055 0-.351-.011-.622.08a1.204 1.204 0 00-.574.4 1.2 1.2 0 00-.25.743h2zm-1.134-1.405a1.513 1.513 0 00-.557.212c-.252.165-.532.49-.532.97h2a.86.86 0 01-.374.705c-.117.076-.204.085-.18.08l-.357-1.967zm-1.089 1.182c0 .091-.003.36.047.613.025.123.08.341.225.551.171.248.493.504.95.504v-2a.859.859 0 01.694.358.652.652 0 01.079.149c.01.028.013.045.014.046l-.003-.017a3.185 3.185 0 01-.006-.204h-2zm1.223 1.668c.085 0 .296.002.505-.029l-.287-1.979a.825.825 0 01-.085.006c-.042.002-.084.002-.133.002v2zm-11.452-35.91c-3.292 2.116-6.119 5.411-7.533 9.654l1.897.633c1.258-3.773 3.775-6.713 6.718-8.605l-1.082-1.682zm-7.522 9.622c-3.755 10.093 1.408 21.357 11.5 25.112l.697-1.875c-9.058-3.37-13.692-13.483-10.322-22.54l-1.875-.697zM48.424 73.53c2.556.93 4.877 1.167 7.352 1.174l.006-2c-2.336-.007-4.407-.229-6.675-1.053l-.683 1.88zm7.359-1.049c-2.142-.007-4.403-.233-6.424-1.042l-.742 1.857c2.358.944 4.908 1.178 7.16 1.185l.006-2zm-6.439-1.048c-8.852-3.372-13.479-13.278-10.325-22.11l-1.883-.672c-3.527 9.874 1.644 20.898 11.496 24.651l.712-1.869zm-10.318-22.13c1.266-3.797 3.581-6.744 6.535-8.854L44.4 38.822c-3.281 2.344-5.864 5.632-7.27 9.85l1.897.633zm16.75 25.4a1.111 1.111 0 001.115-1.11h-2c0-.492.4-.89.891-.89l-.006 2zm15.256-30.056v2-2zm-11.638 27.63a.83.83 0 01.62.633.632.632 0 01-.029.39.398.398 0 01-.11.146.65.65 0 01-.422.145v-2c-.387 0-.686.172-.873.33a1.6 1.6 0 00-.423.568 1.373 1.373 0 00-.1.838 1.17 1.17 0 00.893.9l.444-1.95zm13.996-24.05a1.068 1.068 0 00-.684-.688 1.11 1.11 0 00-.93.113 1.01 1.01 0 00-.167 1.595c.185.176.385.235.459.255l.518-1.932a.944.944 0 01.407.232.985.985 0 01-.15 1.542.89.89 0 01-.762.095.933.933 0 01-.594-.599l1.903-.613zM60.9 72.452a.89.89 0 01-.646.856l-.548-1.924a1.11 1.11 0 00-.806 1.068h2zm12.438-24.177l.002.007-.002-.008-.007-.019c-.009-.023-.04-.113-.103-.213a1.062 1.062 0 00-.641-.47l-.518 1.931a.937.937 0 01-.6-.514l1.869-.714zm-28.021-9.407a.836.836 0 01.666.612.642.642 0 01-.016.407.407.407 0 01-.112.153.651.651 0 01-.429.15v-2c-.394 0-.698.179-.887.344a1.595 1.595 0 00-.42.586c-.08.192-.164.507-.073.858a1.165 1.165 0 00.956.865l.315-1.975zm27.112 10.646c.414-.06.767-.296.987-.601.227-.314.394-.838.126-1.374l-1.789.895a.677.677 0 01.041-.691.507.507 0 01.348-.208l.287 1.98zm.191-1.555c.147.26.12.52.07.668a.66.66 0 01-.095.183c-.004.005.003-.004.033-.03.03-.027.058-.05.105-.089l-1.276-1.54c-.05.041-.244.195-.396.376a1.454 1.454 0 00-.27.471c-.08.245-.108.597.087.944l1.742-.983zm.336-.779a1.135 1.135 0 00-.779-.306c-.39.006-.647.217-.72.277l1.276 1.54a.737.737 0 01-.14.09.897.897 0 01-.389.093c-.355.005-.567-.19-.591-.212l1.343-1.482zM59.453 71.592v2-2zM47.207 39.745c.671 0 1.196-.425 1.453-.824.135-.21.284-.546.238-.948a1.264 1.264 0 00-.78-1.022l-.782 1.84a.69.69 0 01-.27-.211.755.755 0 01-.155-.377.558.558 0 01.067-.364.147.147 0 01.048-.05.34.34 0 01.18-.044v2zm12.585 31.843a.89.89 0 011.107.864h-2a1.11 1.11 0 001.377 1.077l-.484-1.94zm-2.901 2.006c0-.613-.496-1.11-1.108-1.112l-.007 2a.889.889 0 01-.885-.888h2zm-9.521-35.83a.83.83 0 01.62.633.632.632 0 01-.029.39.398.398 0 01-.11.146.65.65 0 01-.422.144v-2c-.387 0-.686.173-.873.331-.19.161-.332.362-.423.568a1.374 1.374 0 00-.1.837 1.17 1.17 0 00.893.901l.444-1.95zm9.026 36.912c.414-.06.767-.296.987-.601.227-.314.394-.838.126-1.374l-1.789.895a.677.677 0 01.041-.691.508.508 0 01.348-.208l.287 1.98zm15.262-28.24a1.15 1.15 0 00.186-1.384l-1.737.992a.85.85 0 01.137-1.021l1.414 1.414zM56.114 73.824a.316.316 0 01-.19-.017.433.433 0 01-.204-.21l1.789-.895a1.572 1.572 0 00-.78-.726 1.688 1.688 0 00-.972-.12l.357 1.968zm-8.881-34.7c.279.17.56.167.649.164.122-.004.287-.026.453-.096l-.769-1.846a.77.77 0 01.252-.057.732.732 0 01.145.01.88.88 0 01.31.117l-1.04 1.709zm24.082 8.165c.414-.06.767-.296.987-.602.226-.314.393-.838.126-1.374l-1.79.895a.677.677 0 01.042-.69.508.508 0 01.348-.209l.287 1.98zM59.23 74.26c.671 0 1.197-.426 1.453-.825.135-.21.285-.546.238-.948a1.264 1.264 0 00-.78-1.022l-.782 1.84a.69.69 0 01-.27-.21.754.754 0 01-.155-.377.557.557 0 01.067-.365.146.146 0 01.048-.05.34.34 0 01.18-.043v2zm11.802-27.826a.315.315 0 01-.19-.017.433.433 0 01-.204-.21l1.789-.895a1.572 1.572 0 00-.78-.726 1.688 1.688 0 00-.972-.12l.357 1.968zm-22.76-9.019a.894.894 0 01.41.62.884.884 0 01-.126.622.599.599 0 01-.279.244l-.752-1.854c-.195.08-.465.24-.647.522-.097.149-.23.43-.17.789.063.39.312.637.524.766l1.04-1.709zM44.98 40.86c.649 0 1.182-.403 1.455-.755.139-.18.336-.505.327-.922a1.202 1.202 0 00-.245-.705 1.27 1.27 0 00-.57-.417l-.701 1.872a.733.733 0 01-.32-.244.797.797 0 01-.163-.464.655.655 0 01.047-.267.345.345 0 01.042-.077c.008-.01.003-.003-.006.003-.014.008.03-.024.134-.024v2zm2.45-3.782v2-2zm24.716 11.584a.315.315 0 01-.19-.017.433.433 0 01-.204-.21l1.789-.895a1.572 1.572 0 00-.78-.726 1.687 1.687 0 00-.971-.12l.356 1.968zm-1.173-3.326a.83.83 0 01.62.633.633.633 0 01-.029.39.399.399 0 01-.11.146.65.65 0 01-.422.144v-2c-.387 0-.686.173-.873.331-.19.16-.332.362-.423.568a1.374 1.374 0 00-.1.837 1.17 1.17 0 00.893.901l.444-1.95zm-1.129.861c.375.65 1.272.782 1.814.24l-1.414-1.413c.4-.4 1.059-.301 1.333.175l-1.733.998z" fill="#000" mask="url(#a)"/></g><path opacity=".4" d="M48.765 75.71c0 .325-.59.598-.662.28a.26.26 0 01-.006-.058c0-.223 0-.445.223-.445s.445 0 .445.222zm-.51.619c.31.11.647-.031.816-.314.17-.282.06-.665-.222-.835-.283-.17-.696-.032-.855.257a.937.937 0 00-.058.128c-.085.23-.031.508.155.668a.516.516 0 00.164.096zm26.973-12.564c.016-.038.041-.077 0-.084-.06-.01-.273-.034-.299.022-2.248 4.796-6.211 8.925-11.468 11.115-4.861 2.21-9.942 2.227-14.589.922-.053-.016-.107.108-.107.164 0 .056.054.043.107.058 4.647 1.306 9.728 1.29 14.59-.698 5.537-2.215 9.532-6.413 11.766-11.499zm.258-.525c0 .335-.612.598-.665.267a.28.28 0 01-.004-.045c0-.222 0-.445.223-.445s.445 0 .445.223zm-.276.753c.192-.016.351-.149.474-.297.047-.056.09-.117.127-.184.159-.29.04-.632-.242-.801-.282-.17-.696-.032-.855.256a.943.943 0 00-.058.129c-.085.23-.02.493.132.685.118.147.25.226.422.212zM46.093 74.596c0 .284-.607.554-.663.276a.273.273 0 01-.005-.053c0-.223 0-.446.223-.446.222 0 .445 0 .445.223zm-.223.668c.12-.12.241-.24.326-.396.159-.289.04-.631-.242-.801-.282-.17-.696-.032-.855.257a.646.646 0 00.096.798c.228.229.512.305.675.142zm30.283-14.251c-.222 0-.445 0-.445-.223 0-.222 0-.445.223-.445.363 0 .667.558.317.655a.354.354 0 01-.095.013zm.223.223c.12-.12.24-.241.326-.396.158-.29.04-.632-.242-.801-.283-.17-.69-.027-.85.26a.968.968 0 00-.047.1c-.153.368.067.837.459.917.135.027.263.01.354-.08zM45.202 74.4c0 .051-.053.168-.099.145-4.41-2.233-8.156-6-10.366-11.084-2.868-6.839-2.02-14.115 1.677-19.88a.155.155 0 01.24-.025c.051.051.06.13.023.192-3.51 5.774-4.373 13.073-1.717 19.713 1.989 4.862 5.733 8.628 10.143 10.861.046.023.1.027.1.078zm-8.238-31.202c-.223 0-.445 0-.445-.223 0-.222 0-.445.222-.445.223 0 .446 0 .446.223 0 .222 0 .445-.223.445zm-.287.397c.31.111.646-.03.816-.313.17-.283.06-.666-.223-.836-.283-.169-.696-.032-.855.257a.948.948 0 00-.058.128c-.085.231-.031.509.155.669a.515.515 0 00.165.095zm2.736-3.514c-.222 0-.445 0-.445-.223s0-.445.222-.445c.223 0 .446 0 .446.222 0 .223 0 .446-.223.446zm-.287.396c.31.112.65-.033.818-.316.166-.279-.018-.687-.308-.832-.29-.145-.609-.033-.767.25a.948.948 0 00-.063.135c-.084.23-.03.508.156.668a.515.515 0 00.164.095zm36.957 19.66c.185.04.351-.026.393-.21.998-4.328.728-8.859-1.213-13.389-4.676-11.133-17.591-16.478-28.724-11.802-2.619 1.091-5.023 2.824-7.005 4.57a.152.152 0 00-.006.221c.06.06.156.06.216 0 1.976-1.952 4.17-3.474 6.795-4.568 10.91-4.676 23.825.668 28.278 11.58 1.742 4.352 1.994 8.917.965 13.28-.037.154.147.286.301.319z" fill="#06FF79"/><path opacity=".4" d="M80.083 52.55c.193 0 .468.114.468.307s-.28.306-.473.306c-.193 0-.253-.231-.299-.419-.027-.113.026-.194.16-.194h.144zm.747-.222c-.126-.126-.322-.18-.55-.164-.39.027-.755.323-.728.713.005.065.015.133.031.202.059.25.166.453.416.51.504.112 1.06-.404.99-.916a.595.595 0 00-.16-.345zM55.668 29.616a.221.221 0 00-.222.222c0 .123.1.223.222.224 6.16.057 12.305 2.504 17.146 7.124 4.18 4.18 6.62 9.665 7.108 15.165.01.113.11.2.223.2.13 0 .226-.114.21-.243-.704-5.486-2.93-10.956-7.319-15.344-4.84-4.841-11.202-7.29-17.368-7.348zm-.584-.168c.193 0 .253.231.299.419.027.113-.026.194-.16.194a.641.641 0 00-.221.052c-.18.068-.392-.165-.392-.358 0-.194.28-.307.474-.307zm.361-.278c-.125-.126-.322-.18-.549-.164-.39.027-.73.246-.73.637 0 .392.325.832.716.805.175-.013.37-.068.564-.165.445-.222.445-.668 0-1.113zm25.162 26.943a.572.572 0 01.16.252c.046.188-.224.308-.411.354a.173.173 0 01-.122-.009c-.1-.052-.164-.238-.21-.342-.098-.214.244-.488.446-.365a.747.747 0 01.137.11zm.223-.222c-.126-.126-.322-.18-.55-.165-.39.028-.755.323-.728.714.005.065.015.132.031.201.059.25.166.454.416.51.504.112 1.06-.404.99-.915a.595.595 0 00-.16-.345zM51.804 29.615c.193 0 .468.113.468.307 0 .193-.23.253-.418.299-.113.027-.194-.026-.194-.16 0-.223-.222-.446 0-.446h.144zm.691.418c0-.392-.248-.807-.64-.807-.391 0-.807.248-.807.64 0 .391.248.807.64.807s.807-.249.807-.64zm27.824 26.74c.09.018.06.086.052.176-.48 5.734-2.924 11.454-7.335 15.865-5.965 5.965-14.341 8.423-22.084 7.156a.228.228 0 01-.182-.225c0-.136.122-.23.256-.209 7.718 1.245 15.842-1.001 21.788-7.168 4.366-4.366 6.592-9.803 7.097-15.47.012-.134.277-.15.408-.125zm-30.074 22.72c.193 0 .469.114.469.307s-.28.306-.473.306c-.194 0-.254-.23-.3-.418-.027-.113.026-.194.16-.194h.144zm.858.23c-.016-.391-.415-.619-.807-.619-.391 0-.807.249-.807.64 0 .392.249.808.64.808.392 0 .855-.282.955-.66a.568.568 0 00.02-.169zm-5.311-1.565c.193 0 .468.113.468.306s-.28.306-.473.306c-.193 0-.253-.23-.299-.418-.027-.113.026-.194.16-.194h.144zm.524-.223c-.126-.126-.322-.18-.55-.164-.39.028-.73.246-.73.637 0 .392.326.832.716.805.176-.013.37-.067.564-.164.445-.223.445-.669 0-1.114zm4.903-47.964c-.01-.062-.06-.123-.122-.112-5.082.904-10.156 3.127-14.133 7.105-9.797 10.02-9.797 26.052.223 35.85a23.818 23.818 0 008.002 5.251c.114.045.21-.014.262-.125.054-.115.064-.279-.053-.325-2.811-1.12-5.604-2.868-7.766-5.247-9.797-9.797-9.797-25.607-.223-35.404 3.927-3.927 8.708-6.144 13.716-7.07.096-.018.11.174.094.077z" fill="#06FF79"/><path opacity=".4" d="M80.385 40.75c.222 0 .222.223.222.445 0 .223-.222.223-.445.223s-.223-.223-.223-.445c0-.223.223-.223.446-.223zm0-.445c-.446-.223-.891 0-1.114.445-.222.445 0 .89.446 1.113.445.223.89 0 1.113-.445.223-.445 0-.89-.445-1.113zm-36.513-11.9c-.11.047-.187.133-.12.231.068.101.241.256.353.207 6.41-2.794 14.1-2.98 21.138-.34 6.378 2.42 11.235 6.793 14.572 12.264.035.058.227.006.293-.01.05-.011.023-.062-.002-.106-3.122-5.523-8.221-10.159-14.64-12.593-7.265-2.862-14.965-2.46-21.594.347zm-.883.226c.098-.35.655-.046.655.317 0 .223-.222.223-.445.223s-.223-.223-.223-.445c0-.032.005-.064.013-.095zm.655-.573c-.445-.223-.89 0-1.113.445-.223.445 0 .89.445 1.113.446.223.89 0 1.114-.445.222-.445 0-.89-.446-1.113zm38.3 16.255c.222 0 .222.222.222.445s-.223.223-.445.223c-.223 0-.223-.223-.223-.446 0-.222.223-.222.445-.222zm.222-.446c-.445-.222-.89 0-1.113.446-.223.445 0 .89.445 1.113.445.223.89 0 1.113-.445.223-.446 0-.891-.445-1.114zM40.304 30.062c.223 0 .223.222.223.445s-.223.223-.446.223a.266.266 0 01-.058-.006c-.318-.072-.045-.662.281-.662zm.467.843c.34-.817-1.184-1.412-1.58-.62-.223.445 0 .89.445 1.113.446.222.89 0 1.114-.446a.728.728 0 00.021-.047zm41.3 14.358c.114-.05.143.075.184.192 2.143 6.175 2.324 13.198-.312 19.789-3.312 9.054-11.005 15.261-19.603 17.535-.108.029-.194-.035-.231-.141-.044-.126-.043-.29.086-.325 8.562-2.29 16-8.485 19.303-17.292 2.396-6.534 2.448-13.28.158-19.407-.055-.145.273-.29.415-.351zM61.248 82.74c.097-.35.655-.046.655.318 0 .222-.223.222-.445.222-.223 0-.223-.222-.223-.445 0-.032.005-.064.013-.094zm.655-.573c-.445-.223-.89 0-1.113.445-.223.446 0 .891.445 1.114.445.222.89 0 1.113-.446.223-.445 0-.89-.445-1.113zM56.56 83.28c.223 0 .223.223.223.446 0 .222-.223.222-.446.222-.222 0-.222-.222-.222-.445s.222-.223.445-.223zm.223-.445c-.446-.223-.891 0-1.114.445-.222.446 0 .891.446 1.114.445.222.89 0 1.113-.446.223-.445 0-.89-.445-1.113zM39.517 30.832c-.04-.039-.137-.08-.185-.05-5.082 3.337-9.06 7.996-11.275 13.976-5.566 14.919 2.004 31.62 16.7 37.186 3.498 1.312 7.21 1.98 10.925 1.793a.223.223 0 00.209-.224.22.22 0 00-.236-.22c-3.493.18-7.19-.488-10.675-1.794-14.696-5.567-22.044-22.045-16.477-36.741 2.174-5.87 6.045-10.466 10.993-13.581.102-.065.109-.262.021-.345z" fill="#06FF79"/><path opacity=".4" d="M40.972 84.17c-.136 0-.273 0-.41-.103-.227-.171-.329-.422-.202-.677.127-.254.47-.405.724-.278s.375.556.246.809c-.086.166-.222.249-.358.249zm.223.445c.446-.222.89-.668.668-1.113-.222-.446-.668-.89-1.113-.668-.847.423-.576 2.108.328 1.828a.764.764 0 00.117-.047zm41.21-12.36c.091-.145.037-.438-.111-.523-.067-.038-.152.008-.192.073-4.234 6.85-10.888 11.93-19.085 14.146-7.473 1.978-14.73.92-21.126-2.107-.116-.055-.22.001-.284.113-.059.105-.076.267.032.319 6.414 3.031 14.113 3.882 21.378 2.12 8.325-2.19 15.14-7.399 19.388-14.14zm.43-.332c-.137 0-.274 0-.411-.103-.227-.171-.326-.526-.155-.753a.652.652 0 01.108-.11c.141-.116.27-.17.449-.133.362.075.395.645.213.966-.05.088-.106.133-.205.133zm0 .445c.445-.222.89-.668.667-1.113-.222-.445-.668-.89-1.113-.668-.445.222-.89.668-.668 1.113.222.445.668.89 1.113.668zm-45.28 9.372c-.171.288-.612.502-.846.262l-.019-.02c-.138-.153-.208-.38-.127-.57a.485.485 0 01.06-.102c.17-.227.525-.326.752-.154a.635.635 0 01.097.091c.128.148.183.325.083.493zm-.952.704c.414.237 1.082.1 1.371-.28.154-.2.22-.433.104-.666-.223-.446-.668-.891-1.114-.668a1.667 1.667 0 00-.558.437c-.293.377-.218.94.197 1.177zm48.38-14.51c-.17.289-.612.502-.846.262a.711.711 0 01-.018-.02c-.139-.152-.209-.38-.128-.57a.481.481 0 01.06-.102c.17-.226.525-.325.752-.154a.64.64 0 01.097.092c.129.148.184.324.084.493zm-.952.704c.414.237 1.082.1 1.372-.279.153-.2.22-.434.103-.667-.222-.445-.668-.89-1.113-.668-.21.105-.418.258-.558.438-.293.376-.218.94.196 1.176zM36.553 81.261c-.063.132-.2.12-.319.034-5.875-4.233-10.435-10.61-12.407-18.28-2.645-10.358.164-20.934 6.699-28.706.07-.083.266-.063.371-.037.097.023.179.136.115.212-6.343 7.559-9.166 18.153-6.517 28.31 1.951 7.372 6.226 13.689 12.206 17.922.146.103-.07.384-.148.545zm-4.988-47.526c-.127.254-.47.405-.724.278s-.405-.47-.278-.724.47-.405.723-.278c.255.127.406.47.279.723zm-.891.612c.417.209.99.1 1.278-.266.16-.205.233-.443.114-.68-.223-.446-.668-.891-1.114-.669a1.651 1.651 0 00-.568.451c-.28.372-.127.955.29 1.164zm4.954-4.287c-.136 0-.273 0-.41-.103-.227-.17-.326-.525-.155-.752.038-.05.09-.1.16-.15.113-.08.208-.118.348-.101.385.047.418.688.204 1.013-.037.057-.083.094-.147.094zm-1.113-.222c.402.805 2.11.469 1.81-.38a.58.58 0 00-.029-.066c-.222-.445-.668-.89-1.113-.668-.445.223-.89.668-.668 1.114zm50.339 37.409a.302.302 0 00.282-.193c2.392-6.184 3.247-13.018 1.484-20.07-4.677-17.146-22.267-27.835-39.413-23.381-4.113 1.082-7.805 2.796-11.077 5.142-.088.063-.09.291-.07.399.017.09.119.171.194.117 3.296-2.382 7.017-4.12 10.953-5.213 17.146-4.23 34.514 6.013 38.745 23.158 1.74 6.747 1.142 13.493-1.38 19.616a.307.307 0 00.282.425z" fill="#06FF79"/><path opacity=".4" d="M74.492 84.41c.545.141.221 1.096-.342 1.096-.222 0-.445-.445-.445-.668 0-.223.445-.445.668-.445a.48.48 0 01.119.016zm-.282 1.346c1.006.397 1.576-1.548.608-2.031-.445-.223-1.113.222-1.336.668-.222.445.223 1.113.668 1.336.02.01.04.018.06.026zm12.742-47.024c-.054-.104-.215-.084-.317-.024-.112.067-.167.175-.108.292 3.902 7.742 4.962 16.99 2.32 26.02-2.396 8.06-7.35 14.414-13.816 18.856-.13.089-.191.48-.1.608.044.062.155.101.218.059 6.63-4.454 11.93-11.106 14.365-19.3a35.748 35.748 0 00-2.562-26.51zm-.169-.858c.294.257-.004.68-.37.818a.72.72 0 01-.239.053c-.222 0-.445-.445-.445-.668 0-.133.16-.267.336-.352.205-.1.546-.002.718.149zm-.376 1.372c.857-.069 1.115-1.308.473-1.88a1.211 1.211 0 00-.26-.18c-.446-.222-1.114.223-1.336.668-.169.337.045.801.352 1.104.187.184.51.309.771.288zM70.223 86.635c.518.178.245 1.098-.303 1.098-.223 0-.446-.446-.446-.668 0-.223.445-.446.668-.446a.25.25 0 01.08.016zm-.243 1.57c1.005.398 1.575-1.547.608-2.031-.446-.223-1.114.223-1.337.668-.222.445.223 1.113.668 1.336l.06.027zm14.636-53.69c0 .222-.446.444-.668.444-.223 0-.446-.445-.446-.668 0-.222.446-.445.668-.445.223 0 .446.446.446.668zm-.831.694c1.006.398 1.575-1.547.608-2.03-.445-.224-1.113.222-1.336.667-.223.445.223 1.114.668 1.336l.06.027zM69.475 87.58c0 .08-.048.173-.122.205-7.542 3.296-16.179 4.163-24.595 1.505-11.496-3.316-19.919-12.119-23.525-22.705-.039-.113.023-.205.133-.252.119-.05.283-.057.326.065C25.302 76.75 33.5 85.534 44.98 88.846c8.354 2.419 16.71 1.798 24.206-1.434.136-.058.287.022.287.17zM21.6 65.688c0 .223-.445.445-.668.445-.222 0-.445-.445-.445-.667 0-.223.445-.446.668-.446.445 0 .445.446.445.668zm.446.223c.222-.445-.223-1.114-.668-1.336-.446-.223-1.114.222-1.336.668a.546.546 0 00-.018.04c-.388.964 1.557 1.558 2.022.628zm-1.782-6.458c0 .223-.445.446-.668.446-.222 0-.445-.446-.445-.668 0-.223.445-.446.668-.446.223 0 .445.223.445.668zm-.055.668c.51-.255.682-.995.381-1.48a1.457 1.457 0 00-.548-.524c-.446-.222-1.114.223-1.336.668-.11.218-.058.489.074.735.27.503.918.857 1.429.601zm63.374-26.453c.032-.026.106-.093.081-.126-4.449-5.973-10.662-10.617-18.198-12.834C46.54 15.143 26.5 25.83 20.932 44.758c-1.316 4.606-1.767 9.213-1.355 13.606.01.114.112.2.225.2a.219.219 0 00.216-.244c-.405-4.38.048-8.967 1.36-13.34 5.567-18.704 25.384-29.392 43.865-23.825 7.485 2.201 13.663 6.796 18.106 12.494.034.043.19.055.234.02z" fill="#06FF79"/><path opacity=".4" d="M94.413 53.665c.223.222.223.668 0 .89-.222.223-.667.223-.89 0-.454-.454.437-1.344.89-.89zm.446-.223a1.076 1.076 0 00-1.559 0 1.076 1.076 0 000 1.559 1.076 1.076 0 001.559 0 1.076 1.076 0 000-1.56zm-36.724-37.61c-.128-.012-.24.175-.24.304 0 .115.09.126.205.134 9.507.717 18.994 5.163 25.848 12.9 6.108 6.763 9.224 15.235 9.558 23.742.011.295.462.235.462.53-.222-8.907-3.563-17.591-9.797-24.494-6.848-7.952-16.106-12.18-26.036-13.116zm-.24-.022c.223.223.223.668 0 .891-.222.223-.667.223-.89 0-.457-.457.322-1.367.82-.955.025.021.05.043.07.064zm.613.334c0-.532-.348-1.077-.88-1.11-.3-.02-.605.09-.846.331a1.076 1.076 0 000 1.559c.24.24.546.35.846.332.532-.034.88-.58.88-1.112zM94.191 59.01c.222.222.222.668 0 .89-.223.223-.668.223-.89 0-.455-.453.436-1.344.89-.89zm.445-.223a1.076 1.076 0 00-1.558 0 1.076 1.076 0 000 1.559 1.076 1.076 0 001.558 0 1.076 1.076 0 000-1.559zm-42.62-43.1c.486-.427 1.215.558.759 1.015-.223.223-.669.223-.891 0-.223-.223-.223-.668 0-.89.046-.047.09-.089.133-.126zm1.204-.321a1.076 1.076 0 00-1.559 0 1.076 1.076 0 000 1.559 1.076 1.076 0 001.559 0 1.076 1.076 0 000-1.559zm40.373 44.98c.2 0 .353.174.327.372-1.19 8.776-5.618 17.309-12.644 23.676-9.752 8.866-22.813 11.554-34.79 8.944-.1-.021-.169-.181-.169-.282 0-.139.13-.168.266-.136 11.732 2.787 24.745-.13 34.248-8.748 7.048-6.388 11.264-14.736 12.432-23.536a.333.333 0 01.33-.29zM45.872 92.409c.222.223.222.669 0 .891-.223.223-.668.223-.89 0-.224-.222-.224-.668 0-.89.222-.223.667-.223.89 0zm.222-.445a1.076 1.076 0 00-1.558 0 1.076 1.076 0 000 1.559c.815.815 2.37-.714 1.572-1.545a.866.866 0 00-.014-.014zm-6.902-2.004c.222.223.222.668 0 .89-.223.224-.668.224-.891 0-.223-.222-.223-.667 0-.89.223-.222.668-.222.89 0zm.222-.222a1.076 1.076 0 00-1.558 0 1.076 1.076 0 000 1.558 1.076 1.076 0 001.558 0 1.076 1.076 0 000-1.559zm12.044-73.685c-.05-.05-.06-.017-.13-.01-7.98.689-15.951 4.025-22.38 9.788-16.254 14.473-17.59 39.19-3.117 55.445 3.526 3.967 7.706 7.06 12.11 9.067.064.03.136-.04.142-.112.008-.103-.061-.411-.153-.459-4.305-2.2-8.19-5.045-11.653-8.941-14.25-16.033-12.692-40.527 3.117-54.778 6.323-5.668 13.925-8.775 21.973-9.53.204-.018.236-.326.091-.47z" fill="#06FF79"/></g><path d="M54.999 100.648c-25.162 0-45.647-20.486-45.647-45.647 0-25.162 20.485-45.648 45.647-45.648 25.161 0 45.647 20.486 45.647 45.648 0 25.161-20.486 45.647-45.647 45.647zm0-90.182c-24.494 0-44.534 20.04-44.534 44.535 0 24.494 20.04 44.534 44.534 44.534 24.493 0 44.533-20.04 44.533-44.534S79.715 10.466 55 10.466z" fill="#06FF79"/><path d="M55.002 99.757c-24.717 0-44.757-20.04-44.757-44.757s20.04-44.757 44.757-44.757c24.716 0 44.756 20.04 44.756 44.757 0 24.716-20.04 44.757-44.756 44.757zm0-87.956c-23.826 0-43.198 19.373-43.198 43.199 0 23.826 19.372 43.198 43.198 43.198 23.825 0 43.197-19.372 43.197-43.198S78.827 11.8 55.002 11.8z" fill="#06FF79"/><path d="M55.002 100.202c-24.94 0-45.202-20.263-45.202-45.203C9.8 30.06 30.063 9.797 55.002 9.797c24.938 0 45.201 20.263 45.201 45.203 0 24.939-20.263 45.202-45.201 45.202zm0-88.846c-24.049 0-43.644 19.595-43.644 43.643 0 24.05 19.595 43.644 43.644 43.644 24.048 0 43.643-19.595 43.643-43.644 0-24.048-19.595-43.643-43.643-43.643z" fill="#06FF79"/><path d="M55 109.11C25.163 109.11.892 84.838.892 55S25.162.891 55 .891c29.838 0 54.109 24.271 54.109 54.11.222 29.837-24.271 54.109-54.109 54.109zM55 3.786C26.721 3.786 3.786 26.72 3.786 55c0 28.28 22.935 51.215 51.214 51.215 28.28 0 51.214-22.935 51.214-51.215 0-28.279-22.935-51.214-51.214-51.214z" fill="#000"/><path d="M55 110C24.715 110 0 85.283 0 55S24.716 0 55 0c30.282 0 54.998 24.717 54.998 55 .223 30.283-24.493 55-54.999 55zM55 2.895C26.274 2.895 2.894 26.275 2.894 55c0 28.725 23.38 52.105 52.104 52.105S107.104 83.725 107.104 55c0-28.725-23.38-52.105-52.105-52.105z" fill="#06FF79"/><path fill-rule="evenodd" clip-rule="evenodd" d="M45.578 57.58c.486.28.792.79.844 1.349.49 5.287 2.794 8.356 6.914 9.206a1.867 1.867 0 011.276.923 33.98 33.98 0 005.762 7.745c.975.983.525 2.69-.853 2.829-1.203.12-2.457.18-3.763.18-7.49 0-13.324-1.976-17.502-5.926-4.129-3.95-6.194-9.55-6.194-16.8v-4.44a1.657 1.657 0 012.486-1.435l11.03 6.368zM32.89 47.682a1.657 1.657 0 01-.828-1.435v-2.934a1.657 1.657 0 012.485-1.435l10.947 6.32c.512.296.828.843.828 1.435v2.934a1.657 1.657 0 01-2.485 1.435l-10.947-6.32zM44.666 30.04c.915 0 1.657.742 1.657 1.657v11.539c0 1.276-1.381 2.073-2.485 1.434L32.89 38.35a1.657 1.657 0 01-.828-1.434v-5.22c0-.915.741-1.656 1.656-1.656h10.947zM70.255 56.676c0 6.56 2.102 10.364 6.306 11.414.83.207 1.489.903 1.489 1.76v8.257c0 .933-.772 1.688-1.702 1.613-5.7-.456-10.24-2.396-13.618-5.822-3.853-3.95-5.779-9.552-5.779-16.804V42.392a1.657 1.657 0 012.486-1.435l9.99 5.768c.512.296.828.843.828 1.434v8.517zM67.77 43.157a1.657 1.657 0 002.485-1.435V31.697c0-.915-.741-1.657-1.656-1.657h-9.99c-.916 0-1.658.742-1.658 1.657v4.258c0 .592.316 1.138.829 1.435l9.99 5.767z" fill="#06FF79"/></svg>