<svg width="697" height="700" fill="none" xmlns="http://www.w3.org/2000/svg"><g opacity=".4" filter="url(#filter0_d_611_6131)" fill="#06FF79"><path opacity=".4" d="M664.641 253.638c.283 1.134.566 1.984.85 3.118l2.267 8.785c-.283-1.983-.283-1.983-3.117-11.903zM671.725 280.846c0-.567-.284-1.134-.284-1.7l.567 2.55.567 2.268-.85-3.118c0 .283 0 .283 0 0zM670.876 422.838c-.284.851-.567 1.984-.567 2.834-2.834 9.353-7.086 21.54-10.77 30.61 0-.567.283-1.134.283-1.417 3.402-9.637 8.22-22.39 11.054-32.027zM654.721 469.886c.283-.567.567-1.134.567-1.701-1.417 5.102-3.118 11.62-5.102 16.438l-.85 2.268c1.984-5.102 4.251-11.62 5.385-17.005 0 .283 0 0 0 0zM373.855 681.032c-.851 0-1.417 0-2.268.284-1.133 0-6.235 0-19.839.283.567-.283.567-.283 12.754-.283 7.652-.284 9.069-.284 9.353-.284zM100.355 127.8c1.417-.566 2.267-.85 9.352-1.417l-.85.851c-.283.283-.283.566-.567.566-1.417.284-3.117.284-4.534.567 0 0-3.968.567-4.819 1.134.567-.567 1.134-1.134 1.418-1.701zM443.575 32.288c-.283 0-.567-.283-1.134-.283 6.802 2.267 15.588 5.101 22.39 7.652 1.134.284 2.268.85 3.118 1.134-7.085-2.55-17.005-5.952-24.374-8.503 0 .284 0 .284 0 0zM652.451 474.137c.283-.284.283-.567.567-.85-10.203 27.491-10.487 28.625-23.807 51.298-.567 1.134-1.418 2.268-1.984 3.401 15.304-26.358 15.871-27.491 25.224-53.849zM223.923 41.641c4.535-1.417 4.535-1.417 10.77-2.834-.567.283-1.133.567-1.984.85-1.417.284-3.117.85-4.534 1.134-1.984.567-4.535 1.417-6.236 1.984.567-.567 1.418-.85 1.984-1.134zM167.525 70.834c22.39-13.321 29.759-17.289 60.652-29.476-11.337 5.102-23.241 9.353-34.294 14.738-8.786 4.251-20.123 11.053-28.625 16.155.567-.567 1.417-.85 2.267-1.418zM335.309 18.118h1.134c-28.909 1.984-51.866 3.4-90.977 16.721-.284 0-.851.284-1.134.284 25.224-7.936 44.78-14.455 90.977-17.005-.283 0 0 0 0 0zM280.893 35.123c-.284.283-.567.567-1.134.567-14.171 1.133-28.625 1.417-42.796 2.834 1.7-.567 3.684-1.417 43.93-3.401zM308.949 680.182l3.968.567h.283c-1.417-.284-2.834-.567-4.251-.567zM98.938 570.782c.566.851 1.417 1.701 1.983 2.268-.566-.567-1.133-1.417-1.984-2.268zM199.551 647.589c-5.102-2.834-5.385-3.118-7.086-6.235-.567-1.134 0-3.118.567-4.252.567.284 1.134.567 1.701 1.134-.567 1.134-1.134 3.118-.567 4.251 1.417 2.268 2.267 3.685 7.369 5.952-.851-.283-1.417-.567-1.984-.85zM29.216 253.638c10.77-30.042 24.09-67.454 74.539-119.036-2.551 6.802-11.054 12.471-16.155 17.572-15.021 16.155-42.796 51.299-59.518 104.298v-.567c.567-.85.85-1.7 1.134-2.267zM24.967 268.092c.283-.567.283-1.133.567-1.984 2.55 4.252 12.187 7.936 54.416 13.888-.284.85-.284 1.133-.284 1.984-37.694-4.818-53.566-8.786-54.7-13.888 0 .284 0 0 0 0zM96.954 568.515c-.284-.283-.567-.567-.85-1.134 25.791 25.791 43.079 39.396 89.276 64.62l.85.85c-45.913-24.941-63.202-38.545-89.276-64.336zM92.136 562.563c-.284-.566-.85-1.133-1.134-1.417 3.401.284 9.353 1.134 74.255 1.984.284.567.567.851.851 1.417-35.144 0-71.422-1.7-73.972-1.984zM108.291 443.528c.283.283.567.85.85 1.417-30.042 37.411-49.031 67.17-21.256 112.517-37.695-45.914 4.535-95.229 20.406-113.934zM19.297 404.7c-3.4-42.23 12.187-72.839 60.085-117.052 0 .567 0 1.134.283 1.417-43.363 42.229-64.336 71.988-59.8 118.185-.284-.85-.568-1.7-.568-2.55zM24.684 431.341c1.983.85 5.668 2.834 81.624 5.668.283.851.283 1.134.283 1.984-20.69-.567-79.923-2.834-81.34-5.385 0-.85-.284-1.417-.567-2.267zM585.566 517.783c.567-.567.851-1.133.851-1.417 20.122 17.005 27.775 28.909 14.171 47.614-.567.567-.851 1.134-1.418 1.701 10.77-15.305 11.621-26.641-13.604-47.898 0 .284 0 .284 0 0zM327.087 681.599h-1.983c1.417 0 2.834 0 7.935.283h1.701c-5.385-.283-6.802-.283-7.653-.283zM199.836 641.07c.283.284.85.284 1.134.567 14.454 7.652 27.775 17.855 43.363 23.24 29.475 10.203 40.812 12.187 71.988 15.872-67.737-6.235-102.031-29.759-116.485-39.679zM400.21 671.963c-3.117 1.417-43.363 8.219-47.898 9.069.284 0 .284-.283 10.204-1.984 18.422-3.118 29.192-5.385 37.694-7.085zM106.307 135.169l.851-.85c-13.604 25.508-34.01 64.053-21.823 136.608L84.2 272.06c-4.251-32.309-10.77-81.057 22.106-136.891z"/><path opacity=".4" d="M224.491 43.058h.284c-29.759 14.455-63.486 30.61-104.865 74.539 20.69-20.973 48.465-49.598 104.581-74.539z"/><path opacity=".4" d="M229.311 41.641c.567-.283.85-.283 1.417-.566-17.855 9.92-51.299 28.058-43.646 70.004-.567.567-.851.567-1.418 1.133-1.984-17.005-5.385-45.63 43.647-70.57-.284 0 0 0 0 0zM181.128 117.031c-.283.566-.566.85-.85 1.417-36.277 3.684-48.181 5.385-65.469 8.219.85-1.134 2.834-3.118 66.319-9.636zM170.359 569.932c.567.567.85.567 1.417 1.134-1.701 21.823-1.417 37.978 18.989 61.785-.284-.283-25.508-17.288-20.406-62.919zM204.37 641.92l-.567-.567c35.427 17.006 71.421 32.594 122.153 39.679h.85c-30.326-4.251-64.336-11.053-122.436-39.112z"/><path opacity=".4" d="M202.102 639.937c-.283-.284-.85-.567-1.133-.851 25.791 10.203 53.282 20.406 105.148 34.01.283 0 .283.284.567.284-53.566-13.604-87.86-26.925-104.582-33.443zM86.468 294.733c.284 0 .85-.283 1.134-.566 1.7 32.309 3.684 72.555 23.524 131.789-.284 0-.85.283-1.417.567-9.92-32.31-22.39-72.555-23.24-131.79-.284 0-.284 0 0 0zM179.428 125.533c.284 0 .567.283.567.283-36.844 45.064-61.785 81.341-88.426 144.543-.284 0-.567-.283-.567-.283 19.839-48.464 40.812-87.576 88.426-144.543zM185.946 125.249c.283-.283.85-.566 1.417-.566-2.834 45.913 5.101 90.977 55.833 183.938-.567.283-1.134.85-1.7 1.134-39.679-74.256-61.502-127.822-55.55-184.506-.284 0-.284 0 0 0zM93.836 285.381c0-.284.283-.851.567-1.984 22.106 6.518 55.55 16.155 142.559 33.16 0 .566-.283 1.133-.283 1.7-56.401-9.919-112.517-23.524-142.843-32.876zM275.79 39.374c-22.673 14.738-46.197 30.042-80.491 69.154-.283 0-.566-.284-.85-.284 18.989-20.689 43.08-46.48 81.341-68.87zM314.334 87.272v1.133c-38.828 8.503-79.073 17.005-119.035 27.208.283-.283.283-.85.567-1.133 17.288-4.535 35.427-9.353 118.468-27.208zM237.528 326.76c.284.566.567 1.133.85 1.417-53.566 41.946-80.49 62.918-117.051 104.014-.284-.283-.567-.85-.85-1.417 16.154-18.989 38.544-45.347 117.051-104.014zM179.712 573.05c.283 0 .567-.283.567-.567 20.406 22.39 68.02 74.539 124.42 99.196-16.155-7.369-64.903-30.042-124.987-98.629-.284 0 0 0 0 0zM117.926 450.613c.283 0 .85 0 1.133-.283 11.621 33.727 19.84 58.101 47.615 103.731-.284 0-.851 0-1.134.283-19.272-32.593-30.893-53.282-47.614-103.731zM123.594 440.127c0-.567 0-.85-.283-1.701 34.293 3.968 64.052 7.086 138.024 13.604v1.418c-56.967-3.968-129.522-12.187-137.741-13.321 0 .283 0 0 0 0zM181.129 567.665c0-.283-.283-.567-.567-1.417 26.358 9.636 45.064 16.438 100.614 34.86v1.417c-55.267-18.138-72.839-24.374-100.047-34.86 0 .283 0 .283 0 0zM272.674 465.918h1.417c3.968 63.769 5.385 90.127 14.454 130.656h-1.417c-5.101-22.957-12.47-57.534-14.454-130.656zM263.603 460.25c.567.85.567.85 1.417 1.7-36.561 30.326-70.855 60.652-89.277 96.929l-1.417-1.417c10.77-19.556 24.091-43.93 89.277-97.212zM282.026 37.957c.283-.283.85-.283 1.134-.567-1.417 11.904 3.117 21.54 33.443 44.213-.283.567-.567.567-.85 1.134-28.059-21.54-35.711-31.46-33.727-44.78zM341.262 18.118h1.984c-40.812.85-60.935 6.235-59.518 15.588-.566.283-.85.283-1.417.566-.85-9.636 18.989-15.304 58.951-16.154zM346.927 18.118l.283.283c-1.417.567-2.551 1.134-9.069 2.834-16.438 4.535-32.877 8.503-49.315 13.037.85-.566.85-.566 11.904-3.4 1.133-.284 6.235-1.701 26.924-7.086 16.722-4.251 18.139-4.818 19.556-5.385 0-.284 0-.283-.283-.283zM350.045 681.315c-.283.284-.283.284-3.967.284-7.936 0-9.92.283-10.77.283h-1.417c3.967-.283 8.502-.567 16.154-.567zM312.633 675.931c1.984.566 3.684 1.984 5.668 2.55 3.685 1.134 8.786 2.268 12.471 2.835-10.487-1.134-15.022-3.685-18.139-5.385zM524.064 69.416c.567.284 1.134.85 1.701 1.134 1.7 1.134 3.684 2.834 4.818 4.818.567 1.134.283 2.834.283 4.251-.566-.283-1.133-.85-1.7-1.133.283-1.417.283-3.685-.567-4.818-.85-1.984-3.117-3.401-4.535-4.252z"/><path opacity=".4" d="M287.694 611.311c.567.284.851.284 1.417.567-1.7 17.855-4.251 44.78 18.423 60.368-.284 0-26.925-11.053-19.84-60.935zM315.467 675.364c-.283 0-.566-.284-.85-.284 22.957 3.401 30.609 4.818 35.994 5.952-.567.283-1.417-.283-1.984-.283-6.235-1.134-11.903-1.984-33.16-5.385zM348.062 18.118c3.117 2.267 5.101 3.684.283 17.855-3.684 10.77-13.604 28.909-21.54 43.646-.283 0-.567-.283-.85-.283 21.256-40.529 29.192-55.834 22.107-61.218zM380.088 662.043l.284.284c-10.77 8.502-17.572 13.604-26.642 18.138 8.22-4.818 12.471-7.369 26.358-18.422zM295.912 611.595c.284 0 .284-.284.85-.567 45.064 45.63 58.668 61.218 55.55 69.437h-.283c1.7-8.786-7.652-20.406-56.117-68.87zM372.152 561.713l.567 1.134c-46.481 22.106-53.85 25.507-76.24 38.545-.283-.567-.283-.567-.85-1.134 25.508-14.738 36.844-20.123 76.523-38.545zM297.896 609.044c0-.283.284-.567.284-1.134 53.849 26.075 71.705 35.428 85.309 47.331-.284.284-.567.567-.851.567-17.288-13.321-30.042-20.406-84.742-46.764zM318.871 93.79c.284 0 .851.284 1.134.284-31.176 86.159-46.764 129.238-67.453 213.413-.284 0-.851-.283-1.134-.283 9.353-43.363 24.09-99.196 67.453-213.414zM652.736 466.768c0 .283-7.369 16.155-63.486 44.497.283-.851.283-1.134.567-1.701 26.641-14.171 45.347-24.657 62.919-42.796zM387.456 171.73c.284.283.851.567 1.134.85-41.096 48.465-87.859 91.544-130.656 138.308l-1.133-1.133c41.946-47.331 88.71-90.694 130.655-138.025zM282.025 463.084l1.134-1.134c80.207 75.389 80.207 75.389 92.961 88.143-.283.283-.85.567-1.134.85-6.235-5.951-6.235-5.951-92.961-87.859 0 .283 0 0 0 0zM285.426 455.715v-1.701c166.366 13.604 166.366 13.604 185.072 15.305-.284.567-.284 1.417-.284 1.984-11.336-1.134-11.336-1.134-184.788-15.588zM249.433 333.278c.566 0 .85 0 1.7-.283 5.102 33.443 9.069 59.801 20.123 108.832-.567 0-1.134 0-1.417.284-5.669-24.091-13.038-54.133-20.406-108.833-.284 0 0 0 0 0zM260.77 321.658v-1.984c69.153 3.685 138.024 7.086 207.178 10.77v2.267c-69.154-3.967-138.025-7.085-207.178-11.053zM469.081 338.096c.283.567.566 1.417.85 1.984-60.652 38.829-124.137 71.988-185.922 108.549-.284-.566-.851-1.133-1.134-1.7 62.069-36.561 125.838-69.721 186.206-108.833zM326.524 92.373c.567-.283.851-.567 1.134-.85 15.588 18.705 20.123 24.09 60.085 64.336-.567.567-.851.567-1.134 1.133-36.278-35.994-45.63-46.197-60.085-64.619-.283.283 0 .283 0 0zM363.085 26.053c.284 0 .284.284.567.284.284 11.053-3.117 20.122-35.144 54.132l-.85-.85c22.957-24.657 36.845-40.529 35.427-53.566zM427.988 67.432l.85.85c-22.673 5.386-47.331 9.637-98.346 17.573V84.72c37.695-6.235 67.737-11.053 97.496-17.289zM416.082 30.871c36.278 15.872 75.106 36.845 115.635 103.164h-.567c-27.208-41.662-54.417-77.94-115.068-103.164zM531.717 83.587c.283.284 19.839 16.722 7.652 54.983l-1.417-1.417c4.251-15.588 8.503-30.326-6.235-53.566z"/><path opacity=".4" d="M411.266 29.454c6.518 1.984 15.304 10.487 15.871 11.337 6.519 9.353 6.802 10.77 7.369 21.823-.567-.283-.85-.567-1.417-.85-1.134-16.155-3.968-21.256-21.823-32.31zM366.77 26.337c17.571 9.069 31.459 17.005 58.95 34.86 0 .283-.283.283-.283.567-25.224-16.439-37.978-24.374-58.667-35.428zM480.133 345.465c.567 0 .85 0 1.984-.283 2.551 40.245 3.968 68.02.85 113.65h-1.417c1.417-39.961 2.267-64.335-1.417-113.367zM347.213 18.118h-.283c3.401.283 17.572 1.417 54.416 8.219.567.283.85.283 1.417.567-37.695-7.37-51.865-8.503-55.55-8.786.284 0 .284 0 0 0z"/><path opacity=".4" d="M348.344 18.118c3.117.85 7.369 2.55 10.486 3.684-3.117-1.134-7.085-2.834-10.486-3.684zM365.35 24.353c-.283 0-.283-.284-.567-.284 21.257 1.701 26.641 1.984 38.828 3.118.567.284 1.134.284 1.418.567-11.054-1.134-17.572-1.7-39.679-3.401zM441.305 72.25c0-.283 0-.566.283-.566 37.128 24.94 52.999 36.844 86.159 63.769 0 .283-.283.566-.283.85-33.444-27.208-49.598-39.112-86.159-64.053zM433.088 71.684c.283.283.567.283.85.566-.283 15.305-.85 35.994-32.876 84.459-.567-.567-.851-.567-1.417-1.134 14.454-22.39 34.01-53.566 33.443-83.891zM570.545 314.856c0 .85.283 1.134.283 2.268-30.326 5.951-39.962 7.652-79.357 14.454 0-1.134 0-1.134-.283-2.268 39.678-6.802 49.314-8.502 79.357-14.454zM399.927 174.281c.567-.284 1.134-.284 1.417-.567 25.225 44.497 48.748 86.442 74.539 145.677-.283.283-.85.283-1.417.567-24.94-53.283-34.293-73.406-74.539-145.677-.283.283-.283.283 0 0zM529.731 143.955c.283.283.567.85.85 1.134-11.62 2.55-35.994 7.935-124.987 18.989 0-.284-.283-.851-.283-1.417 113.934-16.722 113.934-16.722 124.42-18.706zM536.533 151.324c.283.284.567.284.85.567 2.267 42.229-5.385 85.309-50.165 169.767-.567-.283-1.134-.85-1.7-1.133 26.924-52.149 53.282-108.266 51.015-169.201zM383.488 567.098c.284 0 .851-.283 1.417-.283 4.535 23.807 11.621 59.801 2.551 86.442-.283 0-.567.283-.85.283 3.684-14.454 8.502-34.293-3.118-86.442zM471.349 478.955c.283.567.567.85 1.133 1.417-30.325 27.208-34.01 30.609-81.624 71.138l-.85-.85c26.925-24.091 54.699-47.614 81.341-71.705zM391.424 560.863c0-.284.283-.567.567-1.417 32.026 7.936 91.827 22.39 122.436 38.828-.283.284-.85.567-1.133 1.134-23.808-10.487-46.198-20.406-121.87-38.545zM388.307 659.776c.283-.284.566-.567.85-.567 10.77 4.818 14.171 6.802 16.155 11.053-.567.284-.851.284-1.417.567-1.984-3.968-4.252-5.952-15.588-11.053zM509.326 604.226c0 .283-4.535 5.952-118.185 51.582 0-.284 0-.283.283-.567 88.71-36.844 88.71-36.844 117.902-51.015zM575.081 524.585c.284 0 .567.284.567.284-16.155 26.074-24.091 39.112-50.165 68.02-.283 0-.567-.283-.85-.283 20.973-23.807 30.325-34.577 50.448-68.021zM486.088 480.372c.283-.283.85-.567 1.417-1.133 26.358 44.496 39.395 75.956 32.31 115.067-.284.284-.851.567-1.134.567 3.684-28.909 3.401-55.55-32.593-114.501zM442.723 32.288c42.512 12.47 71.138 34.86 80.49 42.23 0 0-.283-.284-.566-.284 0 0-.284-.283-.567-.283-5.102-2.55-10.77-7.936-15.305-11.337-9.636-7.369-28.909-18.422-64.052-30.325zM415.799 30.021c-.283 0-.566-.283-.85-.283 42.513 13.32 66.037 23.24 105.148 44.78l.85.85c-31.459-17.288-55.549-29.759-105.148-45.347zM544.754 151.891c0-.284.283-.567.283-.851 26.925 26.358 44.78 44.214 71.138 80.775 0 .283-.283.566-.283.85-21.257-28.059-34.01-45.064-71.138-80.774zM540.785 153.308h.85c12.187 26.074 32.594 69.437 37.978 147.661h-.85c-5.385-46.481-10.486-90.411-37.978-147.661zM574.229 324.209l1.134 1.134c-14.454 31.742-31.176 67.453-85.592 136.324-.284-.284-.851-.851-1.417-1.134 43.079-55.267 64.619-89.56 85.875-136.324zM620.142 431.057c.283 0 .567.284.85.284-10.77 29.192-15.588 42.513-32.31 71.988-.283 0-.567-.283-.85-.283 13.888-26.925 21.823-41.663 32.31-71.989zM490.338 474.987c.283-.85.567-1.134.567-1.7 39.395 13.887 60.084 22.106 86.159 36.561l-1.134 1.7c-17.288-9.353-32.026-17.572-85.592-36.561 0 .284 0 0 0 0zM617.593 421.421v1.701c-23.24 11.337-49.031 22.39-125.554 45.913v-1.417c79.357-26.357 89.56-29.758 125.554-46.197zM619.575 248.82l1.133 1.7c-9.636 20.973-13.037 28.625-34.293 56.684-.284-.85-.567-1.134-1.134-1.701 16.722-22.673 22.957-31.176 34.294-56.683zM585.281 325.059c.567-.567.567-.85.85-1.133 13.038 24.09 26.642 49.031 36.278 84.458-.567.567-.567.567-1.134 1.417-7.085-23.524-14.737-47.897-35.994-84.742zM508.475 608.194l.283.283c-22.673 18.422-51.015 41.379-95.512 59.518 24.941-11.337 52.999-24.091 95.229-59.801zM625.529 169.463c23.241 39.111 28.059 49.598 41.379 92.677-13.887-43.929-18.705-54.416-41.379-92.677zM588.685 577.301c-.567.567-.85 1.134-1.417 1.417-5.385 4.252-13.321 10.77-64.62 21.257.284-.567.567-1.134 1.134-1.417 3.401-1.134 8.219-1.701 11.904-2.551 13.32-2.551 44.496-9.92 52.999-18.706zM554.107 609.611c-.85.85-1.984 1.417-2.834 2.267-22.107 15.871-32.026 23.24-63.769 38.261 12.754-7.085 26.074-13.32 38.828-20.973 8.503-5.384 19.556-13.32 27.775-19.555zM516.696 605.643c.567-.283.85-.567 1.417-1.134-1.7 12.471-3.684 28.059-34.293 46.197l-1.701.851c14.171-8.786 33.16-20.973 34.577-45.914zM538.237 85.854c-.284-.283-.567-.566-.567-.85 22.39 15.305 49.882 34.01 74.822 66.037.284.283.284.566.567.85-15.304-18.139-32.876-38.828-74.822-66.037.283 0 .283 0 0 0z"/><path opacity=".4" d="M537.385 87.272c.567.283 60.368 43.646 83.608 143.692-.283 0-.567-.283-.567-.283-10.486-38.545-25.224-90.694-83.041-143.41zM621.559 163.794c10.203 14.455 19.272 38.829 4.818 73.122-.567-.85-.567-1.133-1.134-1.7 6.519-17.856 14.454-40.246-3.684-71.422zM412.682 24.636c.85.284 1.7.284 2.55.567l11.337 2.55c-1.417-.283-1.417-.283-13.887-3.117zM365.916 18.684h2.267c22.957 1.701 34.294 4.252 39.112 8.22-.567-.284-1.134-.284-1.7-.567-.567-.284-1.418-.85-1.984-1.417-.567-.284-3.685-1.984-10.487-3.401-9.919-1.7-20.689-2.551-27.208-2.835zM410.13 27.754c-.567-.284-.85-.284-1.417-.567 12.47.567 17.855 1.134 22.673 1.7.567.284 1.417.284 1.984.567-4.818-.283-9.069-.85-23.24-1.7 0 .283 0 0 0 0zM672.29 286.798c5.102 35.144 13.038 88.426-12.186 164.949 11.336-39.112 25.224-88.143 12.186-164.949zM629.211 423.972c.283-.85.567-1.417.567-1.7 12.187 11.336 21.823 20.122 25.791 36.56-.284.567-.567 1.134-.85 1.984-3.401-11.336-5.669-19.272-25.508-36.844zM404.745 671.963c.567-.284.85-.284 1.417-.567 1.984 1.417 5.952 4.535-11.62 7.085-1.417.284-3.118.567-4.251.567-.85 0-1.417.284-2.268.284 13.888-1.417 21.824-3.401 16.722-7.369 0 .283 0 0 0 0zM471.632 657.225c.566-.283 1.133-.283 1.417-.567-16.439 7.086-17.289 7.369-30.609 11.62l-2.551.851c17.288-5.669 19.556-6.519 31.743-11.904-.284 0-.284 0 0 0zM475.035 654.958s-14.171 5.951-66.887 15.871c.567-.283.851-.567 1.418-.567 21.823-5.101 43.929-8.786 65.469-15.304zM625.244 254.205c.284 0 .567 0 .85.283 9.92 51.015 12.471 86.726 1.701 151.912-.284 0-.567 0-.85-.283 8.219-56.967 9.919-90.694-1.701-151.912zM629.211 245.702c0-.85-.283-1.417-.283-1.7 22.39 10.77 30.325 15.588 39.111 26.641.284.567.284 1.417.567 1.984-8.502-9.92-13.887-14.738-39.395-26.925z"/><path opacity=".4" d="M670.591 281.98c.283.567 13.604 52.715-39.679 129.238 0-.567-.283-1.133-.283-1.417 18.139-27.775 45.347-69.721 39.962-127.821zM28.366 255.905c-1.418 5.102-4.252 16.155-5.669 21.257 1.7-7.369 3.685-14.455 5.669-21.257zM313.2 680.465h-.567c6.235.567 15.021 1.417 26.358 1.701h-.567a376.66 376.66 0 01-25.224-1.701zM83.35 552.077s0-.283 0 0c.566.567 15.588 18.989 15.871 18.989l-.283-.283c-5.385-5.952-10.487-12.187-15.588-18.706zM346.928 18.118c-5.668 0-10.486.283-13.604.283 4.535-.284 9.07-.283 13.604-.283zM236.396 37.957c-5.669 2.267-10.77 4.25-11.904 5.101 1.701-.283 22.39-8.219 22.957-8.786-1.134.284-5.952 1.7-11.053 3.685zM109.425 126.667c4.534-5.102 9.069-8.786 10.769-9.07 2.835.567-9.069 14.171-13.887 17.572-1.984 1.417-3.118 1.417-2.834 0 .283-1.417 2.551-4.818 5.952-8.502zM191.048 635.969c-5.385-3.401-7.369-5.669-6.519-5.952h.284c3.401.283 21.256 11.62 20.122 12.754-.85.566-6.802-1.984-13.887-6.802zM79.664 281.98c1.134-5.952 4.535-12.187 9.636-12.471 7.936 0 7.086 16.722.567 23.241-4.818 4.534-10.77 2.267-10.486-6.803 0-1.417 0-2.55.283-3.967zM106.59 438.143c-1.701-8.503 1.984-12.187 5.951-12.471 10.77.851 14.171 18.989 8.786 23.524-4.251 3.685-12.47 0-14.737-11.053zM333.889 681.599c-5.101-.284-8.785-.85-8.785-.85 6.235.283 12.47 1.133 18.705 1.417-1.134 0-5.101 0-9.92-.567zM165.258 563.981c-3.401-5.669-2.834-9.637 1.417-9.637 9.069.567 17.572 14.738 13.604 18.423-2.551 1.983-9.919-.567-15.021-8.786zM181.129 117.03c2.834-3.968 7.652-8.502 12.47-8.786 5.669 0 2.551 7.936-2.551 13.038-5.668 5.668-12.186 5.951-12.47 1.983 0-1.983 1.417-4.818 2.551-6.235zM280.609 35.406c3.968-1.984 8.502-3.684 10.486-3.684.284 0 1.134 0 0 1.133-3.684 3.401-15.588 8.786-15.304 6.519-.284-1.134 1.7-2.55 4.818-3.968zM308.951 674.513c-3.401-1.417-4.818-2.55-4.251-2.834h.566c2.835 0 13.038 4.535 13.038 5.385-.851.284-5.669-.85-9.353-2.551zM236.396 319.958c.283-7.653 5.101-12.754 12.47-13.038 13.321 0 15.305 16.155 7.936 22.957-7.086 6.519-20.973 3.401-20.406-9.919zM281.741 604.226c-1.7-4.535.567-7.936 5.385-7.936 9.069 0 13.604 10.487 9.636 14.454-3.401 3.402-12.47 1.418-15.021-6.518zM261.334 454.014c-.567-8.502 5.102-12.187 11.053-12.187 13.038.284 16.439 15.022 9.92 21.257-6.519 6.235-20.123 1.984-20.973-9.07zM314.615 85.571c.284-1.417 2.268-6.518 9.07-7.085 7.652 0 8.502 8.219 4.534 12.47-4.534 4.535-13.887 3.401-13.887-3.4 0 0 0-.851.283-1.985zM371.869 556.895c.567-4.251 3.968-8.503 11.337-9.069 11.62.283 11.053 11.903 5.669 16.721-6.519 5.669-17.856 2.834-17.006-6.802v-.85zM346.93 18.118c1.133 0 1.7 0 1.7.283h-.567c-.566-.284-.85-.283-1.133-.283zM350.046 681.315c1.134-.566 2.267-1.133 3.118-1.133.566 0 .566.283.283.567-.85.85-4.251 1.417-4.818 1.417.567-.284.85-.567 1.417-.851zM384.057 163.228c0-4.252 2.55-8.786 9.636-9.07 11.62.284 15.304 12.754 9.636 18.139-5.668 5.668-19.272 2.267-19.272-9.069zM359.965 23.786c-.85-.85-1.701-1.984-.567-1.984 2.551 0 8.503 3.684 7.369 4.818-.85.567-3.968 0-6.802-2.834zM380.937 657.792c2.55-3.401 5.951-4.818 7.935-4.818 3.401 0 3.401 2.834 0 5.952-3.968 3.684-9.352 4.818-9.352 1.7 0-.567.566-1.7 1.417-2.834zM467.947 332.145c0-7.653 4.535-12.754 11.337-13.038 13.037.284 15.021 17.856 7.936 23.808-6.519 5.668-18.989 2.55-19.273-10.77zM470.216 471.019c1.417-9.352 8.786-11.903 12.754-11.903 11.903.283 10.486 14.454 4.534 20.123-6.518 6.235-17.288 3.967-17.288-5.952-.284-1.134 0-2.268 0-2.268zM427.135 66.015c-.851-1.133-3.401-5.385.85-5.668 7.085.283 15.871 9.92 13.037 12.47-2.267 1.984-9.636-.283-13.887-6.802zM402.196 671.112c3.968-1.7 8.503-3.401 10.77-3.401.284 0 .567 0 .284.284-1.417 1.7-15.872 6.518-17.572 6.235.283-.283.567-.567 6.518-3.118zM570.262 312.589c0-6.802 3.117-11.337 7.935-11.62 9.637 0 13.038 17.855 6.802 24.09-5.101 5.102-14.454.85-14.737-12.47zM528.883 142.254c-2.834-5.951-1.417-8.502 1.7-8.502 7.369 0 18.139 14.738 13.888 18.706-2.834 2.834-11.053-.851-15.588-10.204zM405.029 27.47c-5.952-1.984-7.369-2.55-7.652-2.834 2.551 0 19.272 4.818 19.272 5.952-.566.567-6.518-1.417-11.62-3.118zM512.161 600.825c4.251-4.818 9.07-7.936 12.471-8.219 3.684 0 1.984 4.534-3.685 9.919-6.235 5.952-12.47 7.936-12.754 5.102 0-1.417 1.417-3.968 3.968-6.802zM575.08 513.816c2.834-6.236 7.369-10.487 11.336-10.77 6.802 0 2.268 12.753-3.967 18.705-4.819 4.535-9.353 3.968-9.353-1.133.283-1.418.567-3.401 1.984-6.802z"/><path opacity=".4" d="M618.16 417.453c1.134-5.385 3.968-11.053 8.503-11.336 7.085.283 5.385 17.572-.567 23.523-3.401 3.401-8.503 2.551-8.503-6.235-.283-.283-.283-2.834.567-5.952zM616.458 240.601c-1.134-4.819-1.134-10.203 2.55-10.487 6.519 0 13.888 18.706 9.353 23.24-2.834 2.835-9.069-1.417-11.903-12.753zM525.764 79.336c-3.685-2.834-7.653-6.235-6.235-6.519 3.684.284 20.972 13.038 19.555 14.455-.283.566-3.684-.567-13.32-7.936zM477.585 653.824c7.368-3.401 10.486-4.818 11.62-5.102-.567 1.418-20.69 9.92-22.674 10.203l11.054-5.101zM653.87 463.367c2.551-7.085 4.818-11.337 5.952-11.62 2.267.567-5.385 22.107-8.503 23.807-.85.567-.85-1.133 0-4.535.851-2.55 1.701-5.668 2.551-7.652zM432.521 29.454c-3.968-1.134-7.936-1.984-11.904-3.117 5.102.85 20.406 5.101 24.658 6.802-.284 0-.284 0-1.701-.567-5.668-1.7-7.652-2.268-11.053-3.118zM668.892 274.327c-1.134-5.101-2.551-11.62-2.267-12.186 1.133.85 6.235 23.24 5.951 25.224-.85-.567-2.834-8.503-3.684-13.038zM617.593 158.409c-2.268-3.117-4.251-5.951-6.519-9.069l3.685 4.818 10.769 15.588c-2.834-3.684-5.384-7.652-7.935-11.337z"/><path d="M466.247 662.043c-.283.283-.85.283-1.134.567 25.508-10.203 35.994-14.171 62.919-30.893l2.551-1.7c-22.107 13.604-30.326 18.422-64.336 32.026.283-.283.283-.283 0 0zM551.84 614.712c.567-.567 1.417-1.133 1.984-1.7 14.738-12.754 15.021-13.037 21.54-20.69-.567.284-.851.851-1.418 1.134-2.834 2.834-6.518 7.085-9.352 9.92-3.401 3.967-8.786 8.219-12.754 11.336z"/><path d="M468.516 660.909c40.245-18.138 60.651-28.908 101.18-64.052v-.284c-34.294 28.909-52.999 42.797-101.18 64.336zM585.283 115.33l-1.701-1.701-1.417-1.417c-22.673-20.69-65.186-59.517-143.126-82.758 53.283 19.556 95.512 35.144 146.244 85.876zM603.137 134.602c-.567-.566-.85-1.133-1.417-1.7-2.551-2.551-6.235-6.235-9.07-8.786.567.567.851 1.134 1.417 1.417 2.551 2.834 6.519 6.235 9.07 9.069zM657.837 270.076c.283.283.566.85.566 1.134-1.7-27.775-4.251-66.037-37.978-113.934-.566-.851-1.417-1.984-1.984-2.834 16.155 24.373 37.978 57.817 39.396 115.634zM439.322 39.657c.567.284.85.567 1.417.567 1.417-3.401 1.701-4.535-.567-7.652-1.7-2.268-5.668-4.252-8.786-5.669-.567-.283-1.417-.283-1.984-.566 4.818 2.267 7.369 3.4 9.353 6.235 1.984 2.834 1.134 4.818.567 7.085z"/><path d="M580.181 113.063c-33.727-30.893-70.005-60.652-140.292-83.892 44.78 16.155 86.442 33.16 140.292 83.892z"/><path d="M583.582 117.314c-.283-.283-31.742-32.593-137.174-73.405 4.251 3.4 11.62 5.101 16.722 7.085 71.421 28.909 105.715 55.267 120.452 66.32zM463.129 662.61c.283 0 28.058-10.487 46.764-34.294-.567.284-1.134.567-1.417.851-3.118 2.267-5.952 6.518-8.219 9.352-.851.284-11.62 12.187-37.128 24.091zM587.832 579.001c45.914-49.598 66.32-85.875 84.175-148.794.567-2.551 1.134-4.818 1.701-7.369-9.07 34.294-24.374 92.394-85.876 156.163zM681.642 341.497v-2.55c-1.984-15.872-3.401-29.759-18.989-52.433 0 .567-.283 1.417 0 1.984 1.417 4.251 5.385 9.07 7.653 12.754.566.85 10.77 17.572 11.336 40.245zM633.746 386.277c.284.284.283.567.567.851 10.486-26.642 20.406-52.149 23.524-94.662-.284-.567-.567-.567-.851-1.134-2.55 26.925-5.385 52.149-23.24 94.945zM635.73 394.213v1.984c28.626-13.037 43.647-22.39 45.914-37.411v-2.268c-2.267 11.054-6.802 20.123-45.914 37.695zM386.607 680.182c21.257-5.385 60.652-15.305 115.918-49.882l.284-.567c-24.374 14.738-65.47 39.112-116.202 50.449zM575.93 182.217c.283.283.567.85.85 1.417 16.438-19.556 23.807-34.577 15.021-56.967l-1.417-1.417c6.802 18.705 6.235 32.026-14.454 56.967zM656.135 268.659c.283 0 .283.283.567.567-6.235-34.01-15.021-80.491-59.518-137.741l-.567-.567c20.123 27.491 48.181 65.469 59.518 137.741 0-.283 0 0 0 0zM653.019 273.761c0-2.835-19.839-35.428-71.988-79.641v1.134c26.925 24.374 50.165 45.63 71.988 78.507zM520.096 620.097l-.85.85c15.871-7.369 34.01-15.588 53.283-28.341.283-.567.85-.851 1.133-1.418-13.887 8.786-25.224 16.155-53.566 28.909.284-.283.284 0 0 0z"/><path d="M585.281 580.419c.567-.567 58.668-53.566 46.197-171.468l-.566.567c3.684 55.833 2.834 107.132-45.631 170.901z"/><path d="M580.466 584.67c.283-.283 22.956-23.24-17.856-67.453l-1.133 1.7c16.721 19.273 30.892 38.828 18.989 65.753zM349.195 15.283c1.7.284 4.535 0 4.535 0h-2.835.851-2.551c-.283 0-.283 0 0 0z"/><path d="M425.716 25.486c-7.936-2.267-46.764-7.935-75.673-10.203 67.737 8.786 67.737 8.786 75.673 10.204z"/><path d="M420.899 24.07c.567 0 .85.283 1.417.283-18.422-4.251-26.074-6.235-53.566-8.503l-2.834-.283c23.524 1.984 31.459 2.834 54.983 8.502-.283 0 0 0 0 0zM369.885 684.15c1.133 0 2.267-.284 3.401-.284 35.427-3.968 44.496-5.668 75.389-15.588-22.674 7.369-42.229 13.321-78.79 15.872z"/><path d="M382.638 681.315c-.284 0-.851.284-1.134.284 27.491-4.251 45.63-7.936 69.154-14.454.567-.284 1.134-.567 1.7-.567-18.422 4.818-36.277 9.353-69.72 14.737zM436.489 651.273l-.567.567c30.892-10.203 47.614-16.155 68.87-24.658l1.134-1.133c-24.941 9.919-37.128 14.454-69.437 25.224zM518.113 616.98c.284 0 30.609-24.941 39.112-94.379-.283.284-.85.567-1.134.567-5.101 30.893-9.353 57.534-37.978 93.812zM384.906 680.182c2.268-.284 21.54-4.535 40.246-21.823-.284 0-.851.283-1.134.283-3.401 1.984-7.085 5.952-10.203 8.502-7.369 5.952-23.807 11.621-28.909 13.038zM348.344 685h2.267c20.973-.283 25.791-1.701 27.492-2.834-.567 0-1.134.283-1.701.283-.283 0-.567.284-.85.567-1.417.567-6.802 1.134-9.07 1.417-1.983 0-7.085.567-18.138.567z"/><path d="M346.928 685c7.369-.283 11.053-.283 25.507-2.267.567 0 .851-.284 1.417-.284-13.037 1.701-17.571 2.268-26.924 2.551zM628.36 385.144c.284 0 .567-.284.851-.284-1.984-37.127-4.818-99.196-50.449-186.205-.283 0-.566.283-.85.283 23.807 48.465 47.331 102.598 50.448 186.206zM564.592 503.046s.283.283.283.566c18.139-23.24 36.845-47.047 59.518-93.527-.283-.567-.567-.567-.85-1.134-15.021 29.475-25.791 50.732-58.951 94.095zM554.958 504.463l.85-.851c-3.685-22.106-13.321-81.057-90.127-190.456-.567.283-1.134.85-1.701 1.417 39.396 57.534 80.775 124.987 90.978 189.89zM622.978 393.93c0-.567.283-1.134.567-1.701-34.861-28.342-79.641-52.999-154.18-85.592 0 .567-.283 1.134-.283 1.701 64.336 30.325 111.383 52.148 153.896 85.592zM388.022 165.778h1.7c-4.818-25.224-19.555-102.597-35.143-139.725h-.567c4.251 10.487 16.155 42.23 34.01 139.725zM431.952 39.09c-2.551-1.983-55.267-19.555-80.774-23.523 15.304 3.117 34.293 7.085 80.774 23.524zM434.221 40.508c-1.133-.85-1.417-.85-12.187-3.118-21.823-4.818-43.93-9.07-65.753-13.887 0 0 0 .283.284.566 25.507 5.669 51.582 10.77 77.656 16.439z"/><path d="M348.062 685c14.738-1.417 31.743-3.118 73.122-26.358l-.283-.283c-21.256 11.903-45.63 24.94-72.839 26.641zM565.726 176.832c.283 0 .567 0 .567-.284-28.625-50.165-59.801-91.544-118.469-130.089 39.395 27.492 75.106 56.401 117.902 130.373zM397.661 168.329c.284.284.85.567 1.134.85 38.261-43.079 70.004-87.576 44.213-123.57-.283-.283-.85-.567-1.417-.567 16.438 25.508 15.304 56.117-43.93 123.287-.283-.283 0-.283 0 0zM466.531 295.017c.284.567.567.85.85 1.417 44.78-34.294 79.074-64.619 101.747-101.464-.566-.566-.85-.85-1.417-1.7-15.871 24.657-35.71 50.732-101.18 101.747 0-.283 0-.283 0 0zM564.875 187.885c-.283-.567-.566-1.417-.85-1.984-33.16-2.551-70.571-5.102-162.115-9.92v1.984c40.245 2.268 107.132 5.669 162.965 9.92z"/><path d="M346.928 685c10.203 0 14.454-3.118 12.47-9.353-.283 0-.283.283-.567.283.284 1.984 0 5.385-1.417 6.802-2.267 1.418-5.668 2.268-10.486 2.268zM362.232 671.963v.283c20.123-5.385 60.085-16.155 60.368-16.155l.851-.85c-20.69 5.385-41.096 10.77-61.219 16.722zM550.421 509.848c.283-.284.567-.851.85-1.418-30.325-20.972-68.02-39.395-138.308-68.02-.283.567-.283 1.134-.567 1.417 79.924 34.861 101.181 44.213 138.025 68.021zM436.77 648.156c31.459-23.241 69.72-56.117 113.933-124.138-.283 0-.85-.283-1.133-.566-19.556 30.042-52.716 79.64-112.8 124.704zM427.703 651.557c.567-.284.85-.567 1.417-.851-7.653-15.871-20.406-26.641-56.684-48.464-.283.567-.567.85-.85 1.133 36.561 22.107 49.031 32.877 56.117 48.182zM373.002 594.59c0 .283.283.567.283 1.133 115.351-46.764 156.73-67.736 174.302-76.806 0-.567 0-1.134.284-1.7-52.999 26.357-76.523 35.994-174.869 77.373 0-.284 0 0 0 0zM381.504 169.179l.85-.85c-60.651-58.101-73.405-70.004-87.859-96.079-.284.284-.567.567-.85.567 16.721 29.759 38.544 51.016 87.859 96.362zM379.521 175.415v-1.701c-73.405-11.904-106.848-17.288-158.714-28.058l-.85 1.7c53.283 10.77 84.459 15.872 159.564 28.059zM405.88 424.822c.567.284 1.134.284 1.417.567 18.422-38.828 29.192-62.919 46.481-109.683-.851-.283-1.134-.283-1.984-.85-14.171 37.411-21.824 58.101-45.914 109.966-.284 0 0 0 0 0zM450.658 291.332c.284-.283.85-.566 1.417-.566-13.037-27.775-19.556-41.663-54.416-104.298-.283.283-.85.283-1.134.567 44.214 83.891 44.214 83.891 54.133 104.297zM206.354 299.268c.284.283.284.567.567.85 58.101-39.395 117.619-77.089 175.719-116.484-.283-.567-.85-1.134-1.133-1.701-58.668 39.112-118.752 75.389-175.153 117.335-.283-.283 0 0 0 0zM208.053 306.354v1.417c28.908.283 28.908.283 236.937-3.118v-2.267c-79.073 1.133-157.864 2.267-236.937 3.968 0-.284 0 0 0 0zM336.726 15.567h-1.701c4.535 0 9.353 0 13.888-.284h-.567c-3.684 0-7.652 0-11.62.284zM268.422 658.359c.283.283.85.283 1.134.566 6.518-14.17 22.956-27.775 86.725-55.833-.283-.567-.283-.567-.566-1.417-49.315 22.107-81.341 39.112-87.293 56.684zM358.832 669.695h.567c2.267-9.636 5.668-24.09 5.668-62.635h-1.417c0 17.855 0 45.063-4.818 62.635zM340.976 684.716c-22.673-2.834-44.78-12.187-64.335-20.406.283 0 27.491 15.021 64.335 20.406zM342.962 684.716h.567c-1.134-.283-2.834-.566-3.968-1.417.85-1.984 1.417-3.117 14.454-8.502v-.567c-3.401 1.417-7.935 3.118-11.053 5.101-1.417.851-3.118 2.268-3.968 3.401 1.134 1.701 1.134 1.701 3.968 1.984zM354.581 673.096s0-.283.284-.566c-27.208-4.535-54.7-7.653-81.908-11.621 1.134.851 1.134.851 10.77 2.268 23.524 3.401 47.331 6.518 70.854 9.919zM220.24 136.02l.567.566c24.657-24.94 35.994-36.277 64.336-62.635-.284-.283-.567-.283-.851-.567-20.973 19.556-39.395 36.561-64.052 62.636-.284-.284-.284 0 0 0zM356.281 594.873c.283-.283.283-.567.567-.85-66.32-39.112-135.758-72.839-200.66-114.218 0 .284 0 .851-.284 1.134 22.957 15.305 28.342 18.706 59.235 36.561 46.764 26.358 94.661 51.015 141.142 77.373zM365.916 590.055h.85c14.738-52.716 30.893-131.506 32.877-140.575-.85 0-1.134 0-1.984-.284-7.936 37.128-12.754 61.502-31.743 140.859zM389.44 431.341c.284-.567.85-1.417 1.134-1.984-136.324-81.908-136.324-81.908-183.938-115.918-.284.567-.851 1.417-1.134 1.984 45.347 32.026 45.347 32.026 183.938 115.918zM155.055 471.87c0 .283.283.85.283 1.133 153.613-22.673 153.613-22.673 232.686-33.443 0-.567 0-1.417-.283-1.984-106.282 14.171-170.618 22.673-232.686 34.294 0-.284 0 0 0 0zM353.447 20.668s.284 0 .284.284c0-.85-.284-2.268-.284-3.118-.567-.567-1.7-1.417-2.267-1.984h-.284c.851.567 1.701 1.417 2.268 1.984.283.85.283 1.984.283 2.834zM286.842 28.32c-.283.284-.566.284-.85.567 61.218-11.903 61.218-11.903 63.769-13.037v-.283h-.567v.283c-1.133.284-1.133.284-62.352 12.47zM298.465 62.614c0 .284.283.567.283.567 35.144-22.673 44.78-30.042 52.999-37.978-.283 0-.283-.283-.566-.283-7.653 7.085-12.471 11.336-52.716 37.694 0-.283 0-.283 0 0zM287.127 64.315c.284-.284.567-.567 1.134-.85-8.219-9.92-16.438-19.84-8.219-31.743-1.701.566-6.519 3.684-3.968 16.154 1.134 3.402 4.818 9.07 11.053 16.439z"/><path d="M285.426 28.887c-.283.284-.566.284-.85.567 16.722-1.417 65.186-5.951 65.753-5.951v-.567c-21.54 1.984-43.079 3.684-64.903 5.951.284 0 .284 0 0 0zM260.768 655.808c-26.358-21.54-75.106-61.785-109.967-169.484h-.85c15.588 49.031 43.93 119.886 110.817 169.484zM61.527 361.903c0 .567.284 1.134.284 1.701 36.56-19.272 60.935-30.042 123.853-51.299-.283-.85-.283-1.133-.283-2.267-61.502 20.689-88.993 32.31-123.854 51.865 0-.283 0 0 0 0zM147.117 462.8c.284 0 .567.284.85.284 10.203-52.149 16.722-78.224 43.93-143.126l-1.7-.851c-27.775 66.604-35.428 96.929-43.08 143.693zM195.018 294.45c.283 0 .85-.283 1.417-.283.566-60.935 1.7-87.01 13.887-139.442-.567 0-1.134.283-1.417.283-10.486 44.78-14.454 73.973-13.887 139.442zM186.798 301.252c.567-.85.567-1.134 1.134-1.984-34.577-28.058-62.636-52.432-83.892-87.009l-1.134 1.7c15.588 24.374 30.893 44.78 83.892 87.293zM291.662 678.765l1.417.283c-10.77-3.684-18.989-6.519-23.24-15.588-.567-.283-.85-.567-1.417-.567 3.401 5.952 5.952 10.203 23.24 15.872zM260.202 656.658c-36.844-21.256-59.517-34.86-102.03-70.288v.567c22.39 18.706 50.448 41.946 102.03 69.721zM145.702 570.499c.283.283.85.567 1.133.567-6.802-29.759-8.502-44.78-1.7-86.159-.567-.284-.85-.567-1.417-1.134-5.669 35.994-6.235 54.416 1.984 86.726 0-.283 0-.283 0 0zM137.199 466.768c0-.283.283-.85.566-1.133-30.892-31.176-53.282-53.566-76.522-90.694-.284.567-.284.567-.567 1.417 15.02 23.24 30.609 47.047 76.523 90.41zM285.143 27.187c.566 0 .85-.284 1.417-.284 6.518-2.267 15.021-5.951 21.823-7.652 5.952-1.417 13.887-2.267 20.123-3.117-24.941 1.7-38.829 8.785-43.363 11.053zM212.871 135.452c.284 0 .85-.283 1.134-.283 6.802-32.593 15.588-72.838 60.935-101.747-.567 0-47.898 18.139-62.069 102.03zM211.454 48.16c-.283.283-.85.567-1.134.567 16.722-5.385 30.043-9.353 65.186-17.856.284-.283.851-.567 1.134-.567-34.577 8.503-47.614 12.47-65.186 17.856.283 0 0 0 0 0zM108.006 200.639c0 .283 0 .85-.283 1.417 22.957-13.888 46.48-28.059 94.661-51.866v-1.7c-26.358 13.32-59.518 30.042-94.378 52.149zM206.634 139.987l1.418-1.417c-26.925-32.593-36.278-56.967-5.669-85.309-.283 0-21.823 12.754-20.406 39.395.85 18.989 15.588 36.845 24.657 47.331zM65.21 168.896c5.386-7.652 12.755-17.855 18.423-25.224.284-.284.284-.567.567-.851-5.102 6.803-12.187 15.588-16.722 22.674-.85 1.134-1.417 2.267-2.267 3.401zM90.152 135.169c.567-.283.85-.85 1.417-1.417v-.283c-.566.566-.85 1.133-1.417 1.7z"/><path d="M285.709 677.631c-32.593-10.203-81.625-25.224-129.806-89.56-.283 0-.85 0-1.133-.283 27.774 34.577 60.651 70.287 130.939 89.843z"/><path d="M287.128 678.198c-46.197-12.754-56.967-15.872-96.362-35.427.283 0 31.459 19.839 96.362 35.427zM24.684 258.456c5.951-13.037 15.02-25.508 67.17-47.614.283-.85.283-1.134.566-1.984-37.977 16.438-60.084 28.909-67.17 47.331-.283.85-.283 1.7-.566 2.267zM56.142 352.834c.284 0 .567.284.567.284 5.385-39.112 10.486-75.956 37.978-134.624-.283 0-.567-.283-.85-.283-14.738 33.159-31.176 70.854-37.695 134.623-.283 0-.283 0 0 0zM95.254 202.623c.567-.851.567-1.134 1.133-1.701-11.903-19.272-20.122-36.277-7.085-62.352-4.818 5.385-18.422 26.641 5.952 64.053zM100.922 196.388c.283-.284.85-.567 1.417-.567 8.219-34.294 21.823-92.111 94.662-140.009-.851.284-74.256 36.561-96.079 140.576zM140.884 569.365c-28.909-41.095-68.304-97.212-83.042-189.89-.283 0-.566.284-.85.284 6.519 35.994 20.406 110.249 83.892 189.606zM175.743 633.134c.283.284.85.567 1.134.567-18.422-18.422-22.957-26.924-26.642-48.748-.566-.283-.85-.566-1.417-1.133 3.401 21.256 7.653 30.325 26.925 49.314-.283 0 0 0 0 0zM33.467 468.185c15.872 34.577 37.695 61.502 107.416 105.998-.284-.283-.284-.85-.567-1.133-4.251-4.252-11.62-7.653-16.438-10.77-67.737-43.93-83.608-79.357-91.26-96.362.283.85.566 1.417.85 2.267zM15.045 304.653c-.283 13.321-.283 29.759 34.294 58.101 0-.851 0-1.134.283-2.268-20.123-17.572-36.56-34.01-34.294-58.384 0 1.134-.283 1.984-.283 2.551zM22.414 433.325c-1.984-14.171-4.251-30.326 27.775-60.935-.284-.85-.284-1.134-.567-2.267-14.738 15.021-33.443 33.443-27.775 60.651.284 1.134.284 1.984.567 2.551zM344.378 685c-4.818-.284-18.422-1.134-44.78-4.535 3.401.567 27.775 3.685 44.78 4.535z"/><path d="M235.828 666.011c11.053 3.684 24.657 7.936 57.25 13.321-48.748-10.487-48.748-10.487-59.517-14.171.85.566 1.7.85 2.267.85zM329.354 684.716c-7.935-.566-20.973-1.417-30.042-3.967-.567 0-1.417-.284-1.984-.284 4.251 1.134 11.053 2.834 29.759 3.968.85 0 1.701 0 2.267.283zM55.29 514.666c16.156 25.791 45.914 73.972 115.919 117.051-5.102-5.385-14.455-9.636-20.406-13.887-9.92-6.802-62.069-43.363-97.78-107.699.567 1.701 1.417 3.118 2.268 4.535zM206.635 654.107c-9.92-5.101-15.305-7.652-21.823-13.604-.567-.283-1.134-.567-1.701-1.133 7.086 5.668 10.487 8.502 21.54 13.604.567.566 1.417.85 1.984 1.133z"/><path d="M135.214 609.611c13.321 10.203 19.556 14.737 39.962 25.224-.567-.284-.85-.567-1.417-1.134-3.684-2.551-9.353-5.101-13.32-7.085-7.936-4.252-17.856-11.054-27.209-18.422.851.283 1.418.85 1.984 1.417zM338.427 15.283c-2.268 0-3.401 0-3.685.284 4.251-.284 4.251-.284 5.952-.284h-2.267zM274.938 22.936c-27.208 6.802-41.379 11.053-64.903 24.374 9.07-3.968 17.289-9.353 26.641-12.754 15.588-5.669 20.123-7.086 41.096-11.904-1.134 0-1.984 0-2.834.284z"/><path d="M216.272 45.609c-.284 0-.284.283-.567.283 28.342-11.62 60.368-24.657 109.399-29.759h.851c-27.492 3.402-58.384 7.086-109.683 29.476 0-.283 0-.283 0 0zM206.919 45.893c-1.134.566-2.551 1.417-3.118 2.55-.283.567 0 1.418.283 1.984.567-.283 1.134-.566 1.984-.85-.283-.567-.283-1.984 0-2.55.567-.851 1.984-1.418 3.118-1.985-.85.284-1.701.567-2.267.85zM104.039 119.581l-8.219 9.353c1.7-1.984 1.7-1.984 10.203-11.337l-1.984 1.984zM99.219 126.1c0 .283-.283.283-.283.567 21.539-20.69 45.913-44.497 95.795-70.572l.567-.566C168.94 69.983 136.063 88.122 99.219 126.1zM587.832 122.415c5.385 5.952 9.069 9.353 9.919 9.07.567-1.701-14.738-18.139-17.288-18.706-.284.567 2.267 3.968 7.369 9.636zM576.496 588.354c-7.652 7.653-7.085 8.503-6.802 8.503 1.984 0 19.273-17.005 18.139-17.855-.85-.284-2.834.85-11.337 9.352zM454.912 665.444c-10.203 3.684-10.203 3.685-10.486 3.968 1.984.283 21.823-7.369 23.807-8.786-.567.283-.567.283-13.321 4.818zM427.419 26.053l12.754 3.401c-.85-1.133-21.256-6.235-24.657-6.518.283 0 .283 0 3.401.85 1.7.567 4.818 1.417 8.502 2.267zM654.152 282.83c2.267 9.353 5.669 13.321 7.652 10.486 2.835-4.251-1.417-24.94-6.518-25.224-3.118.567-2.551 8.219-1.134 14.738zM508.195 624.065c-5.669 4.818-6.236 6.802-5.102 6.802 4.251.567 20.973-12.47 18.989-14.738-.283-.283-.567-.283-.85-.283-2.268.283-7.369 3.401-13.037 8.219zM622.126 399.881c-.567 9.92 4.251 13.888 8.786 9.92 6.235-5.668 7.369-24.657-.284-25.224-4.534 0-7.935 6.518-8.502 15.304zM564.877 187.601c4.818 11.337 13.604 14.171 15.588 8.786 1.984-5.668-5.101-19.555-13.321-20.122-3.967.283-5.101 4.818-2.267 11.336zM548.72 513.815c-3.117 8.786 1.134 12.471 6.802 9.637 8.503-3.968 13.604-19.273 7.369-21.54-.567-.283-1.133-.283-1.7-.283-4.818.283-9.92 5.101-12.471 12.186zM436.204 41.925c8.219 4.818 12.187 5.385 11.904 4.25-.284-2.267-13.321-9.352-17.856-9.635-.567 0-1.417 0 .567 1.7a80.865 80.865 0 005.385 3.685zM376.121 682.166c-2.551.567-5.101.85-7.652 1.417 1.7 0 16.438-2.268 18.705-3.401-.567 0-.567 0-11.053 1.984zM424.586 654.107c-3.401 3.118-4.535 5.102-2.551 5.102 5.101.283 17.572-8.503 15.304-10.487-.283-.283-.566-.283-1.417-.283-2.834-.284-7.369 1.984-11.336 5.668zM444.992 303.236c.851 13.604 15.022 16.438 21.257 9.636 5.668-6.235 3.968-22.39-9.636-22.957-7.369 0-12.187 5.385-11.621 13.321zM348.628 15.283c.567 0 1.134.284 1.984.284.85.283 1.701.283 1.701.283-.284-.283-2.551-.85-5.385-.85.283.283.85.283 1.7.283zM388.024 437.009c-.284 13.038 13.887 15.588 21.256 9.353 7.086-6.235 5.668-21.256-6.802-22.107h-1.134c-9.352.284-13.037 6.803-13.32 12.754zM379.52 177.398c1.417 11.337 15.588 13.038 20.689 6.802 4.535-5.385 1.701-17.855-10.203-18.422-7.085 0-11.337 4.818-10.486 11.62zM354.58 673.38c-.85 3.117 1.701 3.684 4.535 2.267 2.834-1.417 4.535-5.101 1.7-5.952-.283 0-.85 0-1.133-.283-1.984.283-4.535 1.417-5.102 3.968zM350.045 22.936c.284 1.7 1.984 3.117 3.968 3.117 2.834 0 2.834-2.55.85-4.251-.566-.284-1.7-1.417-3.117-1.417-1.984 0-1.701 2.267-1.701 2.55zM355.148 599.124c0 8.219 10.203 10.487 15.588 5.102 4.819-4.818 3.685-14.171-5.668-14.171-7.085.283-9.92 4.818-9.92 9.069zM284.295 68.282c-2.55 5.669 2.551 7.086 7.086 5.669 6.235-2.267 9.919-10.77 5.668-12.754-.85-.283-1.417-.283-2.267-.283-5.102 0-9.07 3.967-10.487 7.368zM345.227 685h1.417c-2.268 0-3.685-.284-5.669-.284h-1.133c.567 0 2.551.284 5.385.284zM185.097 307.771c-.567 13.037 11.62 16.155 18.422 9.919 6.519-5.951 7.086-22.957-6.235-23.523-5.385 0-11.62 4.534-12.187 13.604zM203.519 145.372c-3.401 8.786 3.401 11.62 9.353 8.786 8.219-3.684 12.187-16.438 5.952-18.706-.85-.283-1.701-.283-2.267-.283-5.385-.283-10.77 3.968-13.038 10.203zM265.587 660.909c5.952 3.685 11.903 5.385 11.62 3.968-.283-1.984-11.337-9.353-15.871-9.353-1.418 0-1.418.851-.284 2.268 1.134 1.134 3.401 2.551 4.535 3.117zM138.048 475.838c3.684 10.769 14.738 13.604 17.572 6.518 2.551-5.952-1.984-20.123-12.187-20.406-6.802.567-7.652 7.652-5.385 13.888z"/><path d="M278.624 29.738c-4.818 2.267-6.802 3.684-5.669 3.968 1.984.566 17.572-6.236 17.572-7.653h-.283c-1.984 0-7.369 1.7-11.62 3.685zM144.283 579.568c6.235 7.653 13.604 10.487 13.887 6.802.567-4.251-9.352-17.005-16.154-17.288-2.835.283-3.118 3.684 2.267 10.486zM92.985 207.157c-3.4 9.07-.283 13.321 4.819 11.054 7.935-3.685 13.604-20.69 7.652-22.674-.567-.283-.85-.283-1.134-.283-3.968 0-8.502 5.101-11.337 11.903zM335.026 15.567c-5.952.283-10.203.85-11.053.85 7.652-.283 15.021-1.134 22.673-1.134-3.684 0-7.652 0-11.62.284zM295.914 680.182c5.952 1.133 11.62 1.984 12.47 1.984 0 0-21.539-4.535-22.673-4.535.283.283 7.085 1.701 10.203 2.551zM49.34 367.005c.566 11.904 6.518 15.588 9.92 11.62 4.817-5.668 3.117-25.507-4.252-25.791-4.535.284-6.235 7.369-5.668 14.171zM202.952 50.994c-3.685 1.984-8.219 4.535-8.503 5.385 1.134.567 21.257-9.92 22.107-11.337h-.284c-1.417 0-7.368 2.834-13.32 5.952zM180.279 637.952c5.101 3.118 11.337 6.519 12.187 5.952-.284-1.417-19.273-12.754-21.54-13.32-.567 1.133 4.535 4.534 9.353 7.368zM90.716 134.886c-2.55 3.117-7.368 9.069-7.368 9.919 1.133 0 16.438-18.422 16.438-19.555-.85.283-5.385 5.101-9.07 9.636zM29.784 265.258c-.284.283-.284.567-.567.85 6.802-38.261 11.62-56.4 35.994-97.496.85-1.133 1.417-2.267 2.267-3.401-23.523 39.679-30.042 56.401-37.694 100.047.283 0 .283 0 0 0z"/><path d="M90.15 135.169c.567-.567.85-1.133 1.417-1.7 1.701-.567 3.968-1.417 33.444-2.551-.284.567-.85 1.134-1.134 1.7-16.722.851-32.026 1.418-33.727 2.551zM26.947 272.627c-.283.567-.283 1.133-.567 1.984-2.834-8.219-3.117-9.353-1.7-16.155.283-.85.283-1.417.567-2.268-.85 8.22-1.134 9.353 1.7 16.439zM33.467 468.185c-.284-.85-.567-1.7-.85-2.267-1.134-4.251-3.118-9.92-3.969-14.454 1.7 5.384 2.835 11.336 4.819 16.721zM15.045 304.653c0-.85.283-1.701.283-2.267 3.118-11.62 3.401-12.754 9.92-22.107 0 .567 0 1.417-.284 1.984-1.133 2.834-3.967 6.235-5.384 8.786-2.551 3.684-3.685 9.353-4.535 13.604zM24.965 440.127c.284.567.284 1.134.567 1.7-.85-2.55-2.267-5.951-3.117-8.502-.284-.85-.284-1.417-.567-2.268l3.117 9.07c0-.284 0 0 0 0zM235.827 666.011c-.85-.284-1.417-.567-2.268-.85-2.55-1.134-6.235-2.268-8.786-3.401 3.968 1.417 7.369 3.117 11.054 4.251zM343.811 685h1.984c-6.802 0-8.786 0-16.155-.567h-2.267c7.085.284 8.503.567 16.438.567-.283 0 0 0 0 0zM55.29 514.666l-2.55-4.252c-13.321-27.208-14.738-30.042-22.39-54.132 0 .283.283.566.283.566 2.834 6.519 5.385 15.588 7.652 22.107 3.968 11.337 11.337 25.224 17.005 35.711zM217.123 658.642c.567.283 1.133.567 1.7.567-3.684-1.417-8.502-3.401-12.187-5.102-.567-.283-1.417-.567-1.984-.85 3.685 1.701 8.503 3.684 12.471 5.385-.284 0 0 0 0 0zM135.215 609.611c-.567-.567-1.417-1.134-1.984-1.701-11.62-10.486-17.572-15.871-24.374-28.341l1.418 1.417c2.267 2.55 4.251 6.518 5.951 9.352.567.284 5.385 7.936 18.989 19.273zM274.941 22.936c.851-.284 1.701-.284 2.835-.567 21.256-3.968 30.892-5.668 57.25-7.085-28.625 1.133-49.882 5.668-60.085 7.652zM206.92 45.892c.567-.283 1.417-.566 1.984-.85 3.968-1.417 9.069-3.4 29.475-6.802l-1.7.85c-1.984.567-4.535.85-6.519 1.134-1.7.284-16.721 2.834-23.24 5.669zM104.039 119.581l1.984-1.984c16.155-15.304 49.882-47.614 126.404-76.522-5.101 3.117-13.037 5.384-18.705 7.652-15.021 6.235-38.545 17.855-51.015 25.79-30.893 18.706-45.347 31.177-58.668 45.064z"/><path d="M248.581 34.273c-.284 0-.567.283-.851.283 24.658-10.203 40.529-15.871 83.325-18.99h1.134c-28.625 2.268-49.315 3.969-83.608 18.706.283 0 .283 0 0 0zM242.631 38.24c1.7-.85 2.834-1.133 56.967-3.4-.284.283-.284.566-.567.566-18.706 1.134-37.411 1.7-56.4 2.834zM334.457 684.716h.567c-29.759-2.267-58.101-4.534-100.33-19.555l-.567-.284c28.909 9.353 56.4 18.139 100.33 19.839zM211.738 655.808c-.567-.284-52.433-21.256-96.929-71.421 6.518 3.401 12.187 12.186 17.288 17.571 1.134 1.134 30.893 31.46 79.641 53.85zM222.507 660.342c-2.267-.85-2.834-1.133-3.684-2.55-.567-.851-.85-2.551-.85-3.685.283-1.984 3.684-3.968 6.235-5.668l1.7.85c-3.684 2.268-5.385 3.401-5.951 5.669-.567 2.267.85 3.684 2.55 5.384zM24.682 433.325c-6.519-33.16-14.455-74.256.283-143.976-6.802 40.812-13.32 79.356-.283 143.976zM32.9 266.392c0-.284 15.305-54.133 87.86-126.972v.567C85.9 176.548 57.558 209.141 32.9 266.392zM128.413 292.466c0 .567-.283 1.134-.283 1.701-15.871-1.418-70.004-7.086-96.929-15.022.284-.566.284-1.417.567-1.984 17.288 4.252 38.545 8.503 96.645 15.305 0-.283 0-.283 0 0zM217.971 643.904l.283.284c-20.122-9.637-62.352-29.476-102.88-61.785-.284-.284-.567-.851-.851-1.134 19.273 14.738 48.465 36.561 103.448 62.635-.283-.283 0 0 0 0zM217.122 577.868c.284.283.284.85.567 1.134-41.662 0-106.281-2.551-106.565-2.551-.567-.567-.85-1.134-1.417-1.701 10.77.85 29.475 1.701 107.415 3.118zM98.937 566.248c-19.555-22.674-46.197-53.566-66.886-108.549v-.567c11.903 28.625 26.924 64.619 66.886 109.116zM106.308 571.633c-.284-.284-30.326-38.262 60.084-112.517.284.567.567.85.851 1.417-33.16 30.042-74.823 67.737-60.935 111.1z"/><path d="M27.516 440.127c-.284-.567-16.439-52.999 100.613-140.292 0 .567.283 1.134.283 1.417-41.946 33.727-99.48 79.64-100.896 138.875zM164.407 452.597c0 .284.284.85.284 1.417-47.048-.567-119.603-4.534-134.907-7.085-.284-.567-.284-1.417-.567-1.984 12.47 1.7 33.443 3.684 135.19 7.652 0-.283 0 0 0 0zM606.539 561.43c4.535-7.653 8.503-14.171 3.684-25.791.284-.567.851-1.134 1.134-1.701 2.267 7.936 4.251 14.738-3.684 25.791-.284.567-.851 1.134-1.134 1.701zM338.142 685c-66.32-1.984-94.095-22.674-107.415-32.593.283.283.85.283 1.133.567 3.685 1.984 7.653 5.668 10.77 7.935 7.086 5.102 17.855 9.92 26.075 12.471 27.208 7.935 35.71 9.353 69.437 11.62zM347.777 685c5.385 0 18.706-.85 47.331-5.385-1.134.567-27.491 4.818-47.331 5.385zM134.365 282.546c-.284.284-.85.567-1.417 1.134-10.487-34.01-26.075-85.592-7.369-143.409.283-.284.85-.567 1.417-.851-11.62 41.379-13.887 77.94 7.369 143.126.283 0 0 0 0 0zM136.914 122.132h-.566c18.989-23.24 42.796-52.149 93.811-78.79h.567c-26.641 14.737-56.967 32.026-93.812 78.79zM227.608 115.613c-.283.284-.567.567-1.133.851-9.353-16.722-26.642-47.898 8.786-75.106.566-.283 1.133-.567 1.7-.567-13.321 11.337-35.427 29.759-9.353 74.822zM134.648 131.768c.284-.283.567-.85.851-1.134 12.753-1.7 24.657-3.401 87.292-8.502-.283.85-.283.85-.566 1.417-47.898 3.684-63.486 5.385-87.577 8.219zM224.492 644.471c-.283 0-20.406-15.021-2.834-60.084.567.566.85.566 1.417 1.133-7.936 21.823-11.903 36.561 1.417 58.951z"/><path d="M343.527 685h.566c-24.09-1.984-50.448-5.952-107.415-32.026 0-.284-.283-.284-.283-.567 34.01 15.588 67.736 29.759 107.132 32.593z"/><path d="M329.356 680.465l.283.284c-48.181-13.038-73.972-22.107-94.662-29.476-.283-.283-.85-.567-1.133-.85 20.689 7.369 46.197 16.155 95.512 30.042zM170.923 441.544c-.283 0-.566.283-.85.283-7.936-22.106-24.657-67.737-32.026-134.34.567 0 1.134-.283 1.7-.567 3.968 30.893 9.637 73.406 31.176 134.624 0-.284 0-.284 0 0zM143.15 281.98c-.567-.284-1.134-.567-1.418-.567 21.824-53.566 39.679-89.56 81.908-150.495.284 0 .567.283.567.283-34.294 52.433-53.566 82.758-81.057 150.779zM325.104 322.508c-.283.284-.567.284-.85.567-78.507-117.618-88.993-172.034-92.961-192.44l1.7-.851c10.204 47.898 25.225 85.309 92.111 192.724.284-.283 0 0 0 0zM318.304 331.294c0 .567-.284 1.417-.284 1.984-58.101-10.77-115.068-21.823-170.901-35.427.284-.567.284-1.417.567-2.267 29.192 7.085 69.721 16.721 170.618 35.71 0-.283 0-.283 0 0zM237.245 113.063c-.284 0-.567-.284-.85-.284 12.753-18.705 31.742-47.33 61.501-73.405h.284c-15.588 15.021-33.16 32.026-60.935 73.689zM239.512 120.715c0-.567.283-1.134.283-1.417 42.796-9.636 86.159-18.422 128.955-28.058 0 .283.284.85.567 1.417-43.079 9.352-86.442 18.138-129.805 28.058zM183.112 447.496c-.283-.284-.567-.851-.85-1.417 16.155-15.022 46.48-42.797 137.457-104.865.284.567.567 1.134.851 1.417-107.983 77.94-107.983 77.94-137.458 104.865zM328.788 679.332c-10.77-5.952-43.363-24.658-96.929-91.545.284 0 .851-.283 1.134-.566 15.871 19.556 58.384 71.988 95.795 92.111zM220.806 569.082h-.567c-15.304-28.909-26.074-50.165-42.512-103.164.85 0 .85 0 1.7-.283 11.62 37.978 18.989 59.801 41.379 103.447zM341.259 468.469v1.133c-12.47-.567-50.732-2.834-155.88-13.32 0-1.417 0-1.417-.283-1.984 39.678 3.401 74.255 6.802 156.163 14.171 0-.284 0-.284 0 0zM335.307 615.563c0 .283 0 .566-.283.566-8.22-2.55-32.877-9.919-100.33-33.443 0-.567 0-.85-.284-1.417 12.754 4.251 12.754 4.251 100.897 34.294.283-.284 0-.284 0 0zM344.378 610.744h-1.417c1.134-21.823 1.7-37.411 9.069-128.671h1.984c-4.534 58.1-7.369 92.961-9.636 128.671zM230.442 573.617l-1.133-1.134c16.154-19.839 38.261-43.646 113.367-96.079.283.284.567.851.85 1.134-57.25 42.513-86.159 63.769-113.084 96.079zM369.602 85.004c0 .284-.283.567-.283.85-41.379-23.523-55.55-34.01-64.903-47.897.283-.283.567-.567 1.134-.567 9.919 14.738 23.24 23.807 64.052 47.614zM301.864 33.422c-.283.284-.567.284-.85.567-4.535-3.401-16.438-12.47 15.871-17.005 7.369-1.134 15.305-1.417 20.123-1.417h1.984c-35.994 1.417-49.315 6.802-39.395 16.155.85.283 1.7 1.133 2.267 1.7zM308.949 33.706c0-.284.284-.567.284-.567 3.117-1.134 7.085-2.268 10.203-3.401 26.074-8.22 33.16-10.77 34.01-13.604-.85-.567-2.268-.85-3.401-1.134 2.834.283 2.834.283 3.968 1.417-1.701 3.118-5.952 5.102-45.064 17.289zM346.36 685c-1.984 0-6.803-.284-6.803-.567-1.983-.283-4.534-1.134-6.235-2.267 1.134.283 1.984 1.417 3.401 1.7 2.834.567 6.802 1.134 9.637 1.134zM549.572 83.87c-.284-.283-1.134-.85-1.701-1.416.567.566 1.134.85 1.701 1.417z"/><path d="M331.055 679.615c-.283 0-15.871-6.519 7.936-54.7l1.134.567c-8.219 17.856-19.556 41.946-9.07 54.133zM348.062 685h-.85c.85 0 1.701 0 2.267-.284v-.283c-1.7-.567-3.4-.85-13.604-2.551-.283 0-.283-.283-.566-.283 13.037 1.984 14.171 2.551 14.737 3.117-.566.284-1.417.284-1.984.284zM379.237 82.737c-.567-.284-.851-.283-1.418-.567 3.401-21.54 9.637-61.502-24.657-66.603 17.289 1.7 35.994 14.738 26.075 67.17zM351.746 684.716c15.021-1.417 27.775-6.235 43.363-13.037v.284c-17.855 7.368-26.641 11.053-43.363 12.753z"/><path d="M351.181 684.716h-.284c20.69-4.251 26.642-15.304-3.684-59.517l1.134-.567c22.956 34.293 30.892 55.266 2.834 60.084zM350.893 615.563c0-.284-.284-.567-.284-.851 15.872-7.652 15.872-7.652 81.058-37.411v1.134c-26.641 12.754-53.85 24.657-80.774 37.128zM403.046 666.011c-.283.283-.567.283-.85.567-2.834-9.636-8.786-19.556-52.149-43.363l.567-1.134c26.358 14.738 50.448 29.192 52.432 43.93 0-.283 0 0 0 0zM335.59 321.375c-.567-.284-1.701-.284-2.268-.567 29.192-129.806 38.829-173.452 42.513-223.05.283 0 .85.283 1.134.283-3.118 51.582-10.487 84.459-41.379 223.334zM647.349 497.661c-6.518 9.636-11.62 17.288-32.876 31.176.283-.567.283-1.134.85-1.701 2.834-2.551 7.369-5.101 10.486-7.369 2.551-1.7 15.022-11.053 22.39-24.09-.283.85-.566 1.417-.85 1.984zM342.11 325.059l-1.133-1.134c93.244-103.73 93.244-103.731 119.319-143.409.283.283.85.567 1.133.85-24.657 39.112-49.031 68.871-119.319 143.693zM437.62 566.248c-.567.283-.851.567-1.134.85-15.588-22.673-28.058-40.529-74.256-87.576.851-.567.851-.85 1.418-1.417 31.742 32.876 52.715 54.983 73.972 88.143zM533.984 486.607c0 .284-.283.567-.283.851-55.833-3.968-111.383-10.487-167.217-15.305 0-.567.284-1.417.284-1.984 68.304 5.952 115.351 10.203 167.216 16.438 0-.283 0 0 0 0zM352.879 457.982c-.567 0-1.134.284-1.701.284-9.353-52.716-17.572-104.298-18.705-109.967 1.133 0 1.417 0 2.267-.283 6.235 36.561 12.47 73.122 18.139 109.966.283 0 0 0 0 0zM542.771 346.599v1.134c-65.753-1.984-131.506-7.653-197.259-11.337v-2.268c92.111 5.102 138.308 7.936 197.259 12.471 0-.284 0 0 0 0zM365.917 465.068l-.851-1.701c79.924-43.646 129.239-72.555 178.554-109.116.283.567.567 1.417.85 1.984-45.063 32.31-81.341 55.833-178.553 108.833zM457.46 164.078c-.283.283-.566.567-.85 1.134-24.374-22.957-48.748-45.347-73.122-68.304.567-.284.567-.567.851-.85 24.373 22.39 49.031 45.063 73.121 68.02zM381.505 83.87c-.567-.283-.567-.566-1.134-.85 12.187-23.24 20.123-42.229 4.251-58.1 3.118 1.133 10.487 9.636 9.92 21.256-.85 13.037-4.818 22.673-13.037 37.695zM385.19 89.255c0-.283-.284-.85-.284-1.133 70.004-13.604 70.005-13.604 85.876-18.14l.85.851c-7.369 2.834-24.657 8.22-86.442 18.422zM577.631 141.404h-.85c-35.994-49.598-70.004-83.608-138.875-110.533 54.416 21.823 94.662 47.048 139.725 110.533zM584.433 146.506c-.567-.567-1.134-.85-1.417-1.417-1.417-2.834-.851-7.653-1.134-11.054-.85-9.352-6.235-24.94-27.208-45.346 8.502 6.235 28.058 24.657 29.759 57.817z"/><path d="M474.465 65.448c-.566-.283-1.133-.566-1.417-.85-2.267-1.984-3.117-5.952-4.534-8.502-6.802-12.754-26.358-22.107-35.994-26.642 7.368 2.268 20.972 10.77 22.956 12.47 12.187 10.204 12.471 11.054 18.989 23.524zM465.965 64.031v.284c-30.609-17.572-47.331-26.642-77.373-38.829l-.283-.283c28.625 11.62 46.197 20.123 77.656 38.828 0-.283 0 0 0 0zM545.886 476.404h-1.417c5.668-35.144 9.636-60.368 8.219-114.501.85 0 .85 0 1.7-.283.567 36.277.851 64.619-8.502 114.784zM420.899 25.77c.567 0 .85.283 1.417.283-11.903-2.55-43.929-8.786-71.138-10.77h-.85c28.058 1.984 60.085 8.22 70.571 10.487z"/><path d="M374.985 20.385c0 .283 0 .283 0 0-6.235-1.7-14.738-3.684-20.973-4.818h-.283c6.518 1.134 15.021 3.117 21.256 4.818zM423.735 26.62c.567.284.567.284 1.7.567-7.368-.85-16.721-1.7-39.961-3.684-.284-.284-.851-.284-1.134-.567 9.353.85 25.791 1.984 39.395 3.684-.283 0-.283 0 0 0zM575.078 143.105v.567c-21.823-18.422-48.747-41.663-90.693-68.02v-.85c20.406 13.603 54.983 35.71 90.693 68.303zM470.497 164.928c-.566-.567-.85-.567-1.7-1.134 8.786-23.523 20.973-55.55 8.219-88.71.283.284 19.556 26.358-6.519 89.844zM562.893 347.449c0-1.133 0-1.417-.284-2.267 33.16-6.802 41.096-8.503 64.62-14.454 0 1.133 0 1.417.283 2.267-23.807 5.952-31.176 7.652-64.619 14.454zM549.289 335.262c-.283 0-.567.284-.85.284-20.123-49.882-33.443-82.758-76.806-152.196.567-.283.85-.567 1.417-.567 26.641 42.796 52.432 86.443 76.239 152.479zM475.6 172.58c0-.283-.283-.85-.567-1.417 87.293-14.738 87.293-14.738 103.731-18.989.284.567.85 1.134 1.134 1.701-18.422 4.534-41.663 9.636-104.298 18.705zM558.925 337.246c-.284-.283-.85-.85-1.417-1.134 28.342-65.469 41.946-115.351 27.775-176.002.567 0 29.192 51.582-26.358 177.136zM407.862 664.027h-.567c12.187-13.321 28.909-31.459 32.593-81.341.567-.283.85-.283 1.417-.567-2.267 23.24-6.235 57.534-33.443 81.908zM450.374 567.382c0-.284-.284-.567-.567-.851 54.983-45.063 56.967-46.764 83.325-70.571 0 .284.283.85.566 1.134-20.689 18.989-34.293 31.743-83.324 70.288zM531.999 613.579c-.284.283-.851.566-1.134.85-6.802-7.369-17.288-18.422-82.191-37.978.283-.567.567-.85.85-1.417 24.657 7.935 71.138 22.106 82.475 38.545zM401.343 678.481c-.567 0-1.134.284-1.417.284 1.417-.85 3.968-1.701 4.534-3.118 1.134-2.834 1.134-2.834-1.133-5.668.283-.284.85-.284 1.133-.567.851 1.134 2.551 2.834 1.984 4.251-.566 2.268-.85 2.551-5.101 4.818.283-.283 0 0 0 0zM408.428 666.578c3.401-2.834 9.919-3.685 14.171-5.102 48.464-17.005 74.255-28.058 102.597-41.946.283 0-30.042 18.139-116.768 47.048zM542.201 608.194s-.283 0-.283-.284c25.224-23.24 35.427-32.876 59.801-66.036 0 0 .284 0 .284.283-19.556 26.358-28.626 38.262-59.802 66.037zM537.384 609.611c-.284.283-.851.567-1.134.567 18.989-31.743 26.074-59.235 8.786-112.801.567-.567.85-.567 1.417-1.417 13.604 43.93 16.155 74.823-9.069 113.651.283 0 .283 0 0 0zM534.551 72.817l8.219 5.669c-3.684-2.551-7.369-5.385-11.336-7.936.85.85 1.984 1.417 3.117 2.267zM541.919 78.769l.85.85c-34.01-21.54-56.117-33.443-106.282-49.314-.283 0-.85-.284-1.133-.567 46.763 14.737 69.437 25.224 106.565 49.031zM654.152 244.852v1.134c-15.587-27.775-26.074-46.198-62.068-85.309v-1.134c25.224 28.058 40.812 45.63 62.068 85.309z"/><path d="M634.03 316.557h-.85c-3.968-39.962-8.786-89.844-43.93-154.463h.85c16.438 31.459 38.828 74.822 43.93 154.463zM550.989 479.239c-.284-.284-.567-.851-.85-1.134 32.309-41.379 58.667-77.94 79.923-137.458.284.284.567.85.851 1.417-12.471 32.593-26.642 70.004-79.924 137.175zM616.457 521.184s0-.283 0 0c16.155-28.058 24.374-42.229 35.711-72.271l.283.283c-11.053 27.775-17.288 42.796-35.994 71.988zM607.389 527.986c-.283.567-.566.851-.85 1.417-12.754-12.753-21.823-20.122-56.967-36.56.567-.851.567-1.134.85-1.984 30.61 14.454 43.93 22.106 56.967 37.127.284-.283 0-.283 0 0zM551.84 486.04c.283-.85.283-1.133.283-1.983 44.78-15.588 72.555-26.925 100.047-44.781 0 .567-.284 1.134-.284 1.701-17.572 11.904-36.277 22.957-100.046 45.063zM639.132 322.792c-.284-.851-.284-1.134-.851-1.701 12.187-24.374 15.872-32.593 19.84-58.667 0 0 4.534 14.454-18.989 60.368zM656.985 426.239c-.283.284-.567.567-.567.85-1.984-24.373-3.684-47.614-18.422-85.875.284-.567.567-.567.85-1.417 9.07 26.074 17.572 50.448 18.139 86.442.283 0 0 0 0 0zM409.562 676.781c29.476-8.786 62.919-18.989 112.801-53.566-24.091 16.154-57.251 38.544-112.801 53.566zM564.308 604.509c-5.384 3.401-9.069 5.669-28.058 11.053.567-.566.85-1.133 1.417-1.417 2.267-.85 5.669-1.7 8.219-2.267 12.471-3.684 18.139-7.369 20.123-8.786-.567.567-1.134 1.134-1.701 1.417zM475.6 659.209c22.956-10.487 38.828-18.989 53.282-38.545.567-.283 1.134-.85 1.701-1.134-9.07 11.62-17.856 22.957-52.716 38.545-.567.567-1.417.85-2.267 1.134zM564.593 95.774l-5.951-4.818c-.284-.284-.567-.567-1.134-.85l4.535 3.684c.85.567 1.7 1.417 2.55 1.984zM656.419 243.718c-5.952-4.535-5.668-16.722-7.936-24.09-6.518-20.406-27.775-73.972-88.71-127.255 36.561 33.16 73.973 72.272 96.646 151.345zM654.438 217.644c5.102 16.722 5.385 17.572 5.669 32.31l-.851-1.701c-.566-3.684-.283-8.786-.566-12.47-.284-6.236-3.401-14.455-5.385-20.406.283.566.85 1.417 1.133 2.267zM401.91 19.818c7.085 1.417 17.855 3.401 24.374 6.802-3.401-.85-6.235-2.55-9.636-3.4-3.401-.851-8.503-2.268-17.005-3.685.85 0 1.7 0 2.267.283zM442.439 29.17c-2.834-.566-5.385-.85-12.754-1.416-.567-.284-1.417-.284-1.984-.567 7.086.567 9.636.85 12.471 1.417.85 0 1.417.283 2.267.567zM660.105 468.185c1.984-9.92 3.117-15.021-1.701-26.074.284-.567.567-1.417.567-1.984 3.401 10.203 5.102 15.588 1.701 25.791 0 .85-.284 1.7-.567 2.267zM377.539 683.583c9.636-.85 16.155-1.984 19.839-3.685.567 0 1.134-.283 1.984-.283-2.834 1.417-5.952 2.551-19.556 3.968h-2.267zM452.358 667.995c-11.62 3.401-22.106 6.235-50.165 10.77 17.289-3.968 35.144-6.236 52.433-11.62-.851.283-1.701.566-2.268.85zM660.387 424.255c10.486-57.817 13.887-90.126 1.417-156.163 10.486 51.866 12.754 88.427-1.417 156.163zM672.858 273.194c-3.968-7.936-3.968-8.219-9.92-13.604-.283-.567-.283-1.418-.567-1.984 7.652 7.935 7.936 8.219 9.92 13.604.283.283.283 1.133.567 1.984zM681.646 359.919c-3.401 29.759-5.101 37.695-20.123 69.438v-1.701c1.418-5.385 5.669-11.903 7.936-17.005 0-.283 10.77-23.24 12.187-53.849v3.117zM29.5 445.512c1.133 3.401 3.4 11.903 2.267 12.47-1.984-.567-9.07-24.09-7.37-25.224.851.283 2.835 5.101 5.102 12.754zM224.776 661.193c3.401 1.417 6.802 2.55 10.203 4.251-1.417 0-22.39-8.503-23.807-9.636l13.604 5.385zM31.767 276.878c-2.551 11.62-5.669 14.454-6.519 12.47-2.267-4.251 2.834-24.94 6.519-25.507.567.283 2.267 1.7 0 13.037zM346.926 685c-7.086 0-12.471-.284-12.754-.284l12.754.284zM110.273 575.601c5.952 6.802 6.802 9.069 5.669 9.069-3.118.283-18.99-17.289-17.005-18.989h.283c1.701.567 5.952 4.251 11.053 9.92zM342.393 15.284c-5.102 0-8.503.283-13.038.566 0 0 7.086-.566 17.856-.566h-4.818zM243.197 38.24c-8.219 3.685-12.47 5.385-13.037 4.818 0-1.7 18.139-9.069 21.54-9.352h.283c-.567.283-1.417 1.133-8.786 4.534zM134.647 131.485c-7.369 9.919-13.604 11.336-13.888 8.502-.567-4.534 10.487-17.855 16.155-17.855 3.118 0 .85 4.818-2.267 9.353zM231.294 648.439c6.802 4.535 5.951 5.385 5.101 5.385-3.968.567-20.689-9.636-18.989-11.62.284-.284.567-.284.85-.284 2.268.284 7.086 2.551 13.038 6.519zM147.684 294.45c-1.417 13.321-12.753 16.438-17.571 9.92-5.102-6.519-1.418-22.674 9.069-23.241 5.101 0 9.353 4.252 8.502 13.321zM185.379 453.731c1.984 12.187-8.219 15.021-15.021 9.919-7.936-6.235-8.502-21.256 1.417-22.39h1.134c7.652.284 11.62 7.086 12.47 12.471zM233.845 579.002c3.118 7.368-1.984 10.486-7.936 7.935-7.369-3.117-13.32-14.454-7.369-17.288 1.134-.567 2.268-.567 2.551-.567 6.519.567 11.053 5.668 12.754 9.92zM238.662 123.266c-4.534 9.352-15.021 10.486-17.005 5.385-1.7-4.535 4.251-15.305 13.321-15.872 5.101 0 6.518 4.535 3.684 10.487zM307.532 35.406c-4.818 4.818-10.487 5.102-10.203 3.118.283-2.551 7.085-7.37 11.336-7.653 2.268 0 .851 2.268-1.133 4.535zM335.024 681.599c1.984 1.133 1.984 1.417 2.268 1.7-.567.851-8.503-2.267-8.503-3.401 0-.283.283-.283.567-.283 1.984-.284 4.818 1.417 5.668 1.984zM345.513 334.695c-.283 13.888-16.438 16.722-23.523 9.637-7.369-7.369-4.535-22.957 9.919-23.524 6.519.283 13.604 4.535 13.604 13.887zM351.461 618.964c-.567 7.368-10.203 9.069-14.455 4.251-3.401-3.968-2.834-12.47 5.952-12.47 4.535 0 9.069 2.55 8.503 8.219zM366.768 470.169c-.567 13.037-15.872 15.021-22.674 7.936-6.235-6.519-2.834-20.123 9.92-20.406 8.786.567 13.037 6.518 12.754 12.47zM385.757 90.956c1.134 7.936-8.502 9.353-13.604 5.102-5.385-4.252-4.535-13.038 2.834-13.888h.85c5.102 0 9.07 3.684 9.92 8.786zM450.093 573.9c-3.685 9.353-15.021 11.904-17.856 5.952-1.983-4.818 2.268-15.305 12.187-15.872 6.802.284 7.369 5.669 5.669 9.92zM348.912 15.284c3.117 0 5.101.283 5.101.566h-.85c-1.134 0-1.984-.283-3.117-.283h-3.401c.85-.284 1.7-.284 2.267-.284zM346.928 685c1.7 0 3.401-.284 5.385-.284-.284 0-2.551.284-5.385.284zM475.883 173.714c1.984 9.353-6.802 12.754-14.171 7.936s-9.07-17.289-.85-19.273c.85-.283 1.7-.283 2.267-.283 5.952.283 11.337 4.818 12.754 11.62zM384.339 22.936c3.684 1.7 4.818 2.55 4.251 2.834-.283 0-1.417.283-5.668-1.417 0 0-7.652-3.401-7.652-3.968h.283c1.417 0 5.385 1.133 8.786 2.55zM405.596 668.278c-5.101 2.834-11.053 4.818-10.486 3.118.567-1.701 9.636-7.652 13.887-7.652 1.984 0 .567 1.417.284 1.983-.85.851-1.984 1.701-3.685 2.551zM562.893 349.717c-.567 7.368-4.535 12.187-9.92 12.187-11.62-.567-12.47-19.556-5.952-25.225 2.551-2.267 4.818-2.267 5.669-2.267 6.518.283 10.486 6.519 10.203 15.305z"/><path d="M551.274 488.591c-3.684 11.62-14.454 14.171-17.572 8.219-3.117-6.235 2.835-20.406 12.187-20.406 5.385.284 7.653 5.102 5.385 12.187zM480.983 70.55c4.251 4.251 4.251 6.519 1.701 6.519-5.385 0-18.706-11.337-16.438-13.605.283-.283.85-.283 1.133-.283 3.968 0 9.92 3.684 13.604 7.369zM400.21 679.332c-6.235 1.417-11.336 2.267-12.187 2.267.567-.284 20.973-4.818 21.824-4.818-.284.283-5.102 1.417-9.637 2.551zM640.55 331.578c0 10.486-5.102 14.454-9.07 10.77-5.952-5.669-5.952-25.508 1.701-25.791 4.251 0 7.085 6.518 7.369 15.021zM589.249 153.025c3.968 6.802 3.118 9.919 0 9.069-6.235-1.417-17.289-18.139-13.604-20.406.283-.284.567-.284.85-.284 3.401 0 8.786 5.102 12.754 11.621zM428.553 27.187c4.818 1.417 9.069 2.834 9.919 3.684-1.7 0-22.39-6.518-22.956-7.085.85.283 6.802 1.417 13.037 3.4zM534.834 616.696c-6.802 5.385-12.471 8.219-12.471 6.519 0-2.268 14.738-14.738 19.273-15.305 1.417 0 .283 2.268-3.401 5.669-1.134 1.133-2.551 2.267-3.401 3.117zM612.773 531.954c-5.385 8.503-10.77 12.471-11.337 9.353-.85-4.251 9.069-20.123 14.171-20.69 2.267.284 1.134 4.819-2.834 11.337zM660.104 437.293c-2.834 10.203-6.519 13.604-7.936 11.62-2.267-3.685 2.835-24.374 7.653-24.941 2.267.283 2.267 5.952.283 13.321zM661.804 255.622c2.551 8.786 1.984 13.604 0 12.187-4.251-2.551-10.203-24.091-6.802-24.941h.283c1.701.283 4.535 5.385 6.519 12.754zM551.837 85.57c3.401 2.552 8.503 6.803 8.503 7.086-.851-.283-20.123-15.02-20.406-15.588.85.284 6.235 3.968 11.903 8.503z"/></g><defs><filter id="filter0_d_611_6131" x="0" y="0" width="696.646" height="700" filterUnits="userSpaceOnUse" color-interpolation-filters="sRGB"><feFlood flood-opacity="0" result="BackgroundImageFix"/><feColorMatrix in="SourceAlpha" values="0 0 0 0 0 0 0 0 0 0 0 0 0 0 0 0 0 0 127 0" result="hardAlpha"/><feOffset/><feGaussianBlur stdDeviation="7.5"/><feComposite in2="hardAlpha" operator="out"/><feColorMatrix values="0 0 0 0 0.0235294 0 0 0 0 1 0 0 0 0 0.47451 0 0 0 0.6 0"/><feBlend in2="BackgroundImageFix" result="effect1_dropShadow_611_6131"/><feBlend in="SourceGraphic" in2="effect1_dropShadow_611_6131" result="shape"/></filter></defs></svg>