<svg width="93" height="110" fill="none" xmlns="http://www.w3.org/2000/svg"><g filter="url(#filter0_d_587_2111)"><path fill-rule="evenodd" clip-rule="evenodd" d="M39.84 15.278c-5.04 1.078-9.169 5.092-10.56 10.27-.308 1.144-.362 1.873-.43 5.842l-.078 4.535h-.466c-.85 0-2.237.645-3.017 1.403-1.378 1.34-1.96 3.406-1.563 5.542.501 2.686 2.539 4.734 5.082 5.106l.838.123.49 1.22c1.177 2.93 3.588 5.951 6.23 7.806l1.267.888v5.656l-4.616.077c-4.277.071-4.731.107-6.171.49-2.9.768-5.218 2.075-7.243 4.083a16.027 16.027 0 00-4.234 7.418c-.355 1.396-.369 1.716-.369 8.477v7.027l.454.925c.5 1.016 1.357 1.882 2.44 2.46l.701.374h55.399l.702-.375c1.082-.577 1.94-1.443 2.439-2.459l.454-.925v-7.027c0-6.76-.014-7.081-.37-8.477-1.447-5.68-5.726-9.979-11.444-11.494-1.478-.391-1.901-.425-6.203-.497l-4.616-.077v-5.656l1.266-.888c2.643-1.855 5.054-4.875 6.231-7.806l.49-1.22.838-.123c1.19-.174 2.477-.833 3.343-1.712 2.406-2.44 2.49-6.687.176-8.936-.78-.758-2.168-1.404-3.017-1.404h-.466l-.078-4.534c-.069-3.97-.122-4.698-.43-5.843-1.407-5.233-5.555-9.229-10.675-10.281-1.757-.361-11.09-.352-12.794.012zm12.092 3.406c3.816.798 7.114 4 7.999 7.762.137.584.25 1.78.252 2.656l.002 1.593H32.404l.002-1.593c.005-3.138.896-5.35 3.018-7.494 1.038-1.05 1.6-1.466 2.7-2.006 2.104-1.032 2.837-1.136 8.089-1.147 3.421-.008 4.864.05 5.72.229zM34.038 35.365c0 1.15-.034 1.272-.477 1.716-.263.263-.631.478-.818.478-.322 0-.339-.088-.339-1.716v-1.716h1.634v1.238zm20.955.211c.168 2.941 1.704 4.857 4.35 5.424l.842.181v1.628c0 4.05-1.46 7.374-4.502 10.254-1.113 1.054-1.737 1.49-3.065 2.145-2.361 1.164-3.798 1.506-6.324 1.506-2.548 0-3.987-.346-6.349-1.529-1.333-.667-1.988-1.127-3.092-2.169-2.985-2.819-4.449-6.177-4.449-10.207V41.18l.843-.18c2.645-.568 4.181-2.484 4.35-5.425l.082-1.45H54.91l.083 1.45zm5.192.267c0 1.628-.017 1.716-.34 1.716-.186 0-.554-.215-.816-.478-.444-.444-.478-.565-.478-1.716v-1.238h1.634v1.716zM28.84 41.848c.033 1.371.039 2.524.012 2.563-.095.138-.947-.598-1.31-1.131-.285-.42-.367-.771-.367-1.57 0-1.207.188-1.701.788-2.074.794-.492.812-.449.877 2.212zm35.759-2.22c.623.368.815.86.815 2.081 0 .8-.082 1.152-.367 1.57-.363.534-1.215 1.27-1.31 1.132-.136-.197.092-5.055.237-5.055.09 0 .372.123.625.272zM46.294 60.155c2.166 0 2.946-.064 3.963-.326l1.267-.327v5.548l-.613.561c-2.4 2.2-6.833 2.2-9.233 0l-.613-.56V59.501l1.267.327c1.017.262 1.797.326 3.962.326zm-7.425 7.65c.824.864 2.732 2.031 4.002 2.447 1.047.343 1.526.399 3.423.399s2.377-.056 3.424-.399c1.27-.416 3.178-1.583 4.002-2.447l.48-.504h4.635c5.366 0 6.156.115 8.459 1.23 3.216 1.556 5.412 4.19 6.47 7.758.34 1.147.367 1.614.434 7.348.08 6.795.04 7.165-.826 7.693-.512.312-1.044.319-27.078.319-26.033 0-26.565-.007-27.077-.319-.866-.528-.905-.898-.826-7.693.067-5.734.095-6.2.435-7.348 1.041-3.514 3.206-6.15 6.335-7.71 2.281-1.138 3.05-1.252 8.479-1.266l4.75-.012.48.504zm6.503 8.472c-1.44.878-.767 3.117.937 3.117a1.691 1.691 0 001.559-2.345c-.253-.606-.965-1.088-1.606-1.087-.207 0-.608.142-.89.315zm-.106 7.041c-.624.491-.843 1.301-.545 2.016.248.594.962 1.087 1.574 1.087.611 0 1.325-.493 1.573-1.088a1.69 1.69 0 00-1.574-2.344c-.363 0-.778.133-1.028.33z" fill="#06FF79"/></g><defs><filter id="filter0_d_587_2111" x="0" y="0" width="92.589" height="110" filterUnits="userSpaceOnUse" color-interpolation-filters="sRGB"><feFlood flood-opacity="0" result="BackgroundImageFix"/><feColorMatrix in="SourceAlpha" values="0 0 0 0 0 0 0 0 0 0 0 0 0 0 0 0 0 0 127 0" result="hardAlpha"/><feOffset/><feGaussianBlur stdDeviation="7.5"/><feComposite in2="hardAlpha" operator="out"/><feColorMatrix values="0 0 0 0 0.0463889 0 0 0 0 0.695833 0 0 0 0 0.346333 0 0 0 0.8 0"/><feBlend in2="BackgroundImageFix" result="effect1_dropShadow_587_2111"/><feBlend in="SourceGraphic" in2="effect1_dropShadow_587_2111" result="shape"/></filter></defs></svg>