<svg width="91" height="130" fill="none" xmlns="http://www.w3.org/2000/svg"><g filter="url(#filter0_d_582_2015)"><path fill-rule="evenodd" clip-rule="evenodd" d="M41.348 15.206c-5.074.726-9.961 2.743-14.143 5.835-1.694 1.253-4.982 4.548-6.14 6.153C16.952 32.895 15 38.954 15 46.019v2.336h23.436l.075-2.297c.067-2.005.146-2.45.622-3.493.684-1.494 2.015-2.822 3.55-3.537.996-.465 1.426-.548 2.837-.548 1.411 0 1.84.083 2.837.548 1.529.713 2.865 2.042 3.555 3.537.467 1.013.552 1.448.552 2.857.001 1.413-.081 1.838-.547 2.835-.302.646-.83 1.469-1.174 1.83-.344.36-4.301 3.78-8.794 7.6l-8.167 6.944v21.073h23.476l.012-5.133.01-5.133 4.407-3.716c6.174-5.204 8.38-7.645 10.69-11.83 2.959-5.357 4.198-12.128 3.373-18.424-.888-6.764-3.82-12.681-8.703-17.562-4.583-4.581-9.912-7.377-16.242-8.522-2.358-.426-7.097-.515-9.457-.178zm7.24 5.786c7.263.99 13.533 4.903 17.511 10.93 5.15 7.804 5.392 17.986.619 26.028-1.789 3.013-3.53 4.816-9.625 9.96l-5.676 4.79-.014 3.569-.014 3.568H39.65v-12.48l6.995-5.928c3.847-3.261 7.487-6.426 8.09-7.032 1.375-1.385 2.34-2.963 3.038-4.968.483-1.386.544-1.84.544-4.007 0-2.139-.065-2.63-.518-3.93-1.824-5.231-6.22-8.615-11.585-8.915-4.107-.23-8.362 1.68-10.811 4.853-.9 1.166-1.841 2.96-2.219 4.228l-.247.83H21.03l.133-.83c2.082-13.108 14.456-22.432 27.424-20.666zm-5.963 70.973c-2.142.561-3.658 1.448-5.329 3.118-1.694 1.694-2.563 3.194-3.128 5.403-.706 2.759-.34 5.759 1.02 8.353.832 1.586 3.206 3.959 4.793 4.79 2.595 1.359 5.597 1.725 8.357 1.02 2.21-.565 3.71-1.433 5.405-3.127 1.695-1.694 2.564-3.194 3.129-5.403.706-2.759.34-5.759-1.02-8.353-.832-1.586-3.206-3.959-4.793-4.79-2.588-1.355-5.696-1.728-8.434-1.01zm5.524 6.141c2.046 1 3.134 2.805 3.134 5.196 0 1.666-.406 2.781-1.444 3.962-1.592 1.812-4.64 2.37-6.898 1.261-3.135-1.538-4.207-5.431-2.316-8.411 1.56-2.46 4.82-3.33 7.524-2.008z" fill="#06FF79"/></g><defs><filter id="filter0_d_582_2015" x="0" y="0" width="91" height="130" filterUnits="userSpaceOnUse" color-interpolation-filters="sRGB"><feFlood flood-opacity="0" result="BackgroundImageFix"/><feColorMatrix in="SourceAlpha" values="0 0 0 0 0 0 0 0 0 0 0 0 0 0 0 0 0 0 127 0" result="hardAlpha"/><feOffset/><feGaussianBlur stdDeviation="7.5"/><feComposite in2="hardAlpha" operator="out"/><feColorMatrix values="0 0 0 0 0.0463889 0 0 0 0 0.695833 0 0 0 0 0.346333 0 0 0 0.8 0"/><feBlend in2="BackgroundImageFix" result="effect1_dropShadow_582_2015"/><feBlend in="SourceGraphic" in2="effect1_dropShadow_582_2015" result="shape"/></filter></defs></svg>