<svg width="110" height="110" fill="none" xmlns="http://www.w3.org/2000/svg"><g filter="url(#filter0_d_587_2090)"><path fill-rule="evenodd" clip-rule="evenodd" d="M65.672 15.22c-3.976.718-7.395 2.502-10.271 5.362-5.832 5.8-7.276 14.451-3.645 21.846 1.186 2.417 3.181 4.898 5.153 6.411l.927.71-8.166.082c-8.074.08-8.176.086-8.985.453-.65.296-2.098 1.643-7.036 6.55L27.43 62.81l-.638-.431c-1.363-.92-3.178-1.119-4.792-.522-.82.303-1.29.686-3.503 2.856C15.27 67.88 15 68.323 15 70.456c0 1.392.046 1.628.462 2.374.328.589 3.47 3.814 10.879 11.166 9.973 9.897 10.46 10.354 11.4 10.699 1.252.46 2.876.395 4.09-.163 1.245-.573 5.645-4.975 6.22-6.222.796-1.731.672-3.596-.338-5.077l-.424-.62.625-.641c.343-.353.771-.727.951-.831.233-.136 2.706-.214 8.589-.272l8.262-.082.9-.462c.724-.372 3.466-3.014 14.102-13.585 12.546-12.47 13.23-13.18 13.742-14.262.504-1.062.54-1.253.54-2.847 0-1.574-.04-1.792-.509-2.776-1.296-2.721-4.482-4.402-7.39-3.898-.58.1-1.082.157-1.113.125-.032-.032.225-.713.571-1.513 4.901-11.324-2.13-24.233-14.354-26.353-1.672-.29-4.912-.288-6.533.005zm5.871 3.412c6.05 1.054 10.699 5.175 12.525 11.104.407 1.32.44 1.648.44 4.276 0 2.629-.033 2.957-.44 4.276-1.582 5.135-5.383 9.024-10.34 10.578-5.663 1.775-11.737.286-15.91-3.9-6.062-6.08-6.058-15.884.01-21.915 1.404-1.396 2.788-2.36 4.596-3.201 1.218-.566 3.224-1.172 4.437-1.34 1.147-.158 3.408-.1 4.682.122zm-3.21 3.404c-.791.343-.974.693-1.063 2.035l-.082 1.237-2.945.083c-1.62.046-3.064.142-3.21.213-.475.232-.855 1.142-.737 1.767.183.97.748 1.339 2.158 1.41l1.217.06v10.342l-1.217.061c-1.41.071-1.975.44-2.158 1.41-.118.625.262 1.534.737 1.766.146.072 1.59.168 3.21.213l2.945.084.082 1.244c.091 1.392.33 1.796 1.233 2.093.42.138.665.124 1.114-.063.774-.321 1.088-.978 1.088-2.275v-1.05l1.596-.056c1.28-.045 1.753-.134 2.4-.45 2.81-1.376 3.808-4.87 2.14-7.497l-.414-.65.413-.651c1.334-2.102.998-4.826-.811-6.575-1.031-.996-2.162-1.397-3.94-1.397h-1.383v-1.066c0-1.301-.313-1.968-1.07-2.283-.664-.276-.678-.276-1.303-.005zm4.992 7.041c.946.556 1.116 1.896.338 2.67l-.478.476H67.27v-3.417h2.797c2.316 0 2.876.047 3.258.271zm.338 7.2c.778.774.608 2.115-.338 2.67-.382.225-.942.272-3.258.272H67.27v-3.417h5.915l.478.476zM89.6 46.688c.36.166.829.468 1.041.67.523.499.997 1.58.997 2.274 0 1.365-.093 1.467-13.21 14.531-6.903 6.874-12.77 12.658-13.04 12.853-.486.352-.58.357-8.835.437l-8.343.082-.73.386c-.4.212-1.159.794-1.684 1.293l-.956.907-7.476-7.435-7.476-7.434 5.889-5.874c3.272-3.264 6.123-5.975 6.415-6.102.43-.186 2.16-.227 9.489-.223 4.93.002 9.251.07 9.604.152 2.736.63 3.636 4.145 1.524 5.944-.37.314-.935.644-1.255.733-.325.09-2.748.161-5.467.162h-4.883l-.557.554c-.803.799-.738 1.853.158 2.575.32.257.998.281 7.996.285l7.646.003 1.106-.931a5923.8 5923.8 0 006.014-5.09c9.254-7.842 12.172-10.258 12.875-10.657.877-.5 2.198-.539 3.158-.095zm-15.623 5.776c0 .07-6.188 5.339-6.463 5.501-.105.063-.145-.38-.111-1.243.04-1.05-.023-1.55-.294-2.304-.19-.53-.383-1.072-.428-1.206-.07-.21.304-.248 2.666-.27 2.339-.02 3.829-.192 4.589-.526.022-.01.04.012.04.048zM24.632 65.17c.286.135 4.981 4.692 10.435 10.128 7.226 7.203 9.935 10.003 9.993 10.33.17.97-.046 1.304-2.311 3.565-2.435 2.43-2.92 2.703-3.885 2.195-.8-.422-20.313-19.98-20.436-20.484-.206-.843.09-1.313 2.107-3.354 2.667-2.698 3.006-2.895 4.097-2.38z" fill="#06FF79"/></g><defs><filter id="filter0_d_587_2090" x="0" y="0" width="110" height="110" filterUnits="userSpaceOnUse" color-interpolation-filters="sRGB"><feFlood flood-opacity="0" result="BackgroundImageFix"/><feColorMatrix in="SourceAlpha" values="0 0 0 0 0 0 0 0 0 0 0 0 0 0 0 0 0 0 127 0" result="hardAlpha"/><feOffset/><feGaussianBlur stdDeviation="7.5"/><feComposite in2="hardAlpha" operator="out"/><feColorMatrix values="0 0 0 0 0.0463889 0 0 0 0 0.695833 0 0 0 0 0.346333 0 0 0 0.8 0"/><feBlend in2="BackgroundImageFix" result="effect1_dropShadow_587_2090"/><feBlend in="SourceGraphic" in2="effect1_dropShadow_587_2090" result="shape"/></filter></defs></svg>