<svg width="110" height="110" fill="none" xmlns="http://www.w3.org/2000/svg"><g filter="url(#filter0_d_587_2087)"><path fill-rule="evenodd" clip-rule="evenodd" d="M15.477 15.477l-.477.477v37.38c0 34.584.02 37.445.275 38.231.345 1.068 1.45 2.323 2.565 2.91l.834.44 37.684.043L94.043 95l.478-.479c.354-.353.479-.633.479-1.07 0-.692-.355-1.456-.77-1.658-.161-.08-16.91-.179-37.553-.224l-37.261-.082-.453-.452-.453-.453-.048-4.73-.048-4.732h1.084c1.66 0 2.36-.562 2.36-1.898 0-.419-.13-.706-.478-1.053-.444-.444-.565-.477-1.714-.477h-1.237v-7.02h1.077c1.652 0 2.351-.565 2.351-1.898 0-.42-.13-.707-.477-1.054-.444-.443-.565-.477-1.714-.477h-1.237v-7.02h1.077c1.652 0 2.351-.564 2.351-1.898 0-.42-.13-.706-.477-1.053-.444-.444-.565-.477-1.714-.477h-1.237v-7.02h1.077c1.652 0 2.351-.565 2.351-1.898 0-.42-.13-.707-.477-1.054-.444-.443-.565-.477-1.714-.477h-1.237v-7.02h1.077c1.652 0 2.351-.565 2.351-1.898 0-.42-.13-.706-.477-1.054-.444-.443-.565-.477-1.714-.477h-1.237v-7.02h1.077c1.652 0 2.351-.564 2.351-1.898 0-.419-.13-.706-.477-1.053-.444-.444-.565-.477-1.714-.477h-1.237v-7.02h1.077c1.652 0 2.351-.565 2.351-1.898 0-.42-.13-.706-.477-1.054L20.903 15h-4.949l-.477.477zm29.276-.233C35.22 16.972 28.453 25.42 28.923 35c.451 9.195 7.3 16.713 16.441 18.05 2.025.296 5.421.118 7.359-.385 6.892-1.791 12.11-7.035 13.878-13.944 1.869-7.309-.94-15.28-6.99-19.838-2.556-1.925-5.256-3.105-8.34-3.642-1.668-.291-4.9-.289-6.518.004zm5.858 3.424c6.038 1.057 10.677 5.193 12.5 11.143.406 1.323.44 1.653.44 4.29 0 2.638-.034 2.968-.44 4.291-1.579 5.153-5.373 9.055-10.319 10.614-5.65 1.781-11.66.302-15.868-3.905-6.055-6.052-6.055-15.947 0-22 1.401-1.4 2.783-2.367 4.587-3.211 1.215-.568 3.217-1.176 4.428-1.345 1.144-.159 3.401-.1 4.672.123zm-3.203 3.415c-.79.344-.972.696-1.061 2.043l-.082 1.241-2.938.083c-1.617.046-3.059.142-3.204.214-.475.233-.853 1.146-.735 1.773.182.973.746 1.343 2.153 1.414l1.214.062V39.29l-1.214.061c-1.407.071-1.97.442-2.153 1.415-.118.627.26 1.54.735 1.773.145.071 1.587.167 3.204.213l2.938.084.082 1.248c.091 1.398.329 1.803 1.23 2.1.42.139.664.125 1.113-.062.772-.323 1.086-.982 1.086-2.283v-1.054l1.591-.056c1.279-.045 1.75-.134 2.396-.452 2.805-1.38 3.8-4.886 2.135-7.523l-.412-.653.412-.653c1.331-2.108.995-4.842-.81-6.597-1.029-1-2.157-1.402-3.93-1.402h-1.383v-1.07c0-1.305-.311-1.975-1.066-2.29-.664-.277-.678-.277-1.3-.006zm4.981 7.066c.945.558 1.114 1.903.338 2.68l-.477.477H46.347V28.877h2.791c2.311 0 2.87.047 3.251.272zm.338 7.225c.777.777.607 2.122-.338 2.68-.38.225-.94.272-3.25.272h-2.792V35.897H52.25l.477.477zm17.03 13.712c-.608.37-.88 1.06-.88 2.23v.86l-.82.175c-1.849.397-3.094 1.377-3.857 3.035-.401.871-.458 1.214-.52 3.094l-.068 2.114-1.843 2.763-1.844 2.763-.332-.65c-.679-1.331-2.326-2.466-3.963-2.73l-.595-.097-.06-1.21c-.051-1.002-.13-1.282-.453-1.626a1.723 1.723 0 00-2.06-.347c-.687.37-.89.856-.89 2.123v1.04l-.694.114c-2.08.342-3.574 1.574-4.284 3.533l-.342.945-1.736-1.751-1.736-1.751-.059-2.123c-.053-1.909-.102-2.205-.487-2.945-.466-.893-1.663-2.097-2.378-2.39-.246-.102-.852-.27-1.346-.376l-.898-.19-.081-1.237c-.092-1.384-.332-1.791-1.23-2.088-.42-.138-.665-.124-1.113.063-.77.322-1.086.982-1.086 2.275v1.047l-.805.095c-1.592.189-3.126 1.32-3.884 2.863l-.454.924v9.632l.454.925c.758 1.543 2.292 2.674 3.884 2.862l.805.096v1.046c0 1.294.315 1.954 1.086 2.276.448.187.693.2 1.112.062.9-.296 1.14-.703 1.23-2.087l.082-1.237.898-.185c1.158-.238 2.053-.716 2.807-1.499.587-.61 1.433-2.179 1.437-2.664 0-.133.802.557 1.782 1.533l1.78 1.775.061 2.14c.052 1.836.114 2.24.43 2.842.84 1.593 2.344 2.693 3.976 2.91l.788.104v1.216c0 1.127.036 1.251.478 1.693.347.348.634.478 1.053.478 1.328 0 1.898-.7 1.898-2.334v-1.058l.776-.114c.966-.143 2.536-.962 3.078-1.606.225-.267.602-.86.838-1.32.382-.741.44-1.08.522-3.054l.092-2.221 1.796-2.714c.988-1.493 1.84-2.716 1.892-2.718.053-.002.18.18.282.404.578 1.267 2.392 2.563 3.907 2.79l.694.105v.884c0 1.602.65 2.507 1.797 2.507 1.146 0 1.795-.906 1.795-2.504v-.883l.678-.108c1.884-.301 3.624-1.744 4.162-3.45.155-.49.324-.892.377-.892.052 0 .841.754 1.753 1.674l1.658 1.673.06 2.041c.074 2.47.389 3.343 1.62 4.494.867.81 1.486 1.127 2.734 1.395l.801.171.061 1.205c.05.996.128 1.276.452 1.62.532.567 1.385.71 2.06.347.686-.37.89-.856.89-2.123v-1.04l.694-.11c1.73-.276 3.3-1.418 4.054-2.951.392-.797.395-.844.395-5.783 0-4.88-.007-4.994-.374-5.68-.854-1.6-2.35-2.694-3.98-2.91l-.788-.105v-1.216c0-1.127-.036-1.251-.478-1.693-.347-.348-.634-.477-1.053-.477-1.334 0-1.898.698-1.898 2.351 0 1.036-.015 1.077-.402 1.077-.623 0-1.893.48-2.655 1.005-.947.651-1.568 1.592-2.077 3.148-.088.27-.36.063-1.793-1.365l-1.688-1.683-.068-1.981c-.058-1.69-.129-2.114-.484-2.887-.79-1.714-2.037-2.711-3.89-3.108l-.82-.176v-.89c0-1.145-.336-1.934-.96-2.256-.652-.337-1.134-.322-1.754.056zm3.868 7.186l.477.477v4.14c0 4.593-.02 4.684-1.077 5.127-.74.309-3.962.309-4.703 0-1.058-.443-1.077-.534-1.077-5.128v-4.14l.477-.476.477-.477h4.949l.477.477zm-34.832 3.485l.452.453V69.685l-.452.452c-.445.445-.49.454-2.72.506-3.74.087-3.767.049-3.767-5.166 0-3.947.09-4.458.879-4.949.453-.282.766-.312 2.832-.27 2.294.046 2.33.052 2.776.5zm51.712 3.126c.995.416 1.066.756 1.066 5.082 0 5.25.08 5.135-3.563 5.135-3.459 0-3.457.003-3.457-5.235 0-4.034.095-4.488 1.032-4.95.699-.345 4.12-.367 4.922-.032zM55.96 67.51c.739.518.835 1.09.835 4.97 0 4.06-.094 4.498-1.058 4.955-.725.345-4.09.362-4.896.026-.995-.416-1.066-.756-1.066-5.082 0-4.142.073-4.555.884-4.948.187-.09 1.37-.17 2.63-.176 1.866-.009 2.36.038 2.67.255z" fill="#06FF79"/></g><defs><filter id="filter0_d_587_2087" x="0" y="0" width="110" height="110" filterUnits="userSpaceOnUse" color-interpolation-filters="sRGB"><feFlood flood-opacity="0" result="BackgroundImageFix"/><feColorMatrix in="SourceAlpha" values="0 0 0 0 0 0 0 0 0 0 0 0 0 0 0 0 0 0 127 0" result="hardAlpha"/><feOffset/><feGaussianBlur stdDeviation="7.5"/><feComposite in2="hardAlpha" operator="out"/><feColorMatrix values="0 0 0 0 0.0463889 0 0 0 0 0.695833 0 0 0 0 0.346333 0 0 0 0.8 0"/><feBlend in2="BackgroundImageFix" result="effect1_dropShadow_587_2087"/><feBlend in="SourceGraphic" in2="effect1_dropShadow_587_2087" result="shape"/></filter></defs></svg>