<svg width="130" height="130" fill="none" xmlns="http://www.w3.org/2000/svg"><g filter="url(#filter0_d_585_2046)"><path fill-rule="evenodd" clip-rule="evenodd" d="M61.18 15.059c-5.591.574-9.845 1.557-14.342 3.314C35.19 22.926 25.514 31.865 19.968 43.2c-2.382 4.869-3.905 9.92-4.722 15.663-.328 2.301-.328 10.025 0 12.326 1.568 11.02 6.096 20.498 13.541 28.345 7.886 8.31 18.188 13.529 30.045 15.221 2.3.328 10.025.328 12.331 0 5.755-.818 10.809-2.341 15.659-4.718 14.106-6.916 24.252-19.98 27.284-35.131.736-3.678.894-5.427.894-9.88 0-4.453-.158-6.202-.894-9.88-1.972-9.855-7.148-19.2-14.58-26.322-3.698-3.544-7.831-6.41-12.704-8.808-4.674-2.3-9.347-3.75-14.778-4.583-1.97-.303-9.15-.549-10.863-.373zm7.83 5.948c9.746.893 19.131 5.139 26.382 11.935 5.933 5.56 10.613 13.6 12.537 21.534.955 3.941 1.193 6.041 1.193 10.549 0 4.507-.238 6.608-1.193 10.549-1.54 6.353-4.825 12.77-9.22 18.015-5.81 6.931-14.33 12.21-23.158 14.348-3.943.955-6.044 1.193-10.553 1.193-4.514 0-6.609-.238-10.57-1.197-7.748-1.875-15.855-6.544-21.274-12.252-8.919-9.393-13.355-22.006-12.194-34.667 1.046-11.41 6.752-22.367 15.46-29.692 9.083-7.64 20.916-11.384 32.59-10.315zm-8.002 6.082c-8.725.92-16.763 4.798-23.027 11.11-4.605 4.64-7.64 9.697-9.5 15.829-1.211 3.991-1.517 6.21-1.517 10.997 0 4.798.306 7.004 1.529 11.037 1.838 6.061 4.92 11.19 9.489 15.786 11.601 11.672 29.02 14.627 43.75 7.421 10.977-5.37 18.661-15.592 20.888-27.788.59-3.23.59-9.682 0-12.912-3.634-19.9-21.714-33.578-41.612-31.48zm9.449 6.13c6.714 1.222 12.538 4.236 17.237 8.919 4.836 4.819 7.864 10.604 9.142 17.46.466 2.503.466 8.35 0 10.853-1.268 6.807-4.345 12.693-9.13 17.464-4.652 4.639-10.53 7.677-17.28 8.934-2.504.466-8.353.466-10.857 0-6.867-1.278-12.673-4.317-17.47-9.145-14.317-14.407-11.89-38.211 5.05-49.543 4.106-2.747 9.082-4.57 14.262-5.224 1.875-.238 7.087-.075 9.046.282zm-6.787 5.708c-1.213.62-1.503 1.288-1.577 3.648-.066 2.099-.067 2.105-.587 2.216-3.69.795-6.7 2.462-8.634 4.786-3.9 4.683-3.26 10.623 1.59 14.778 1.314 1.125 4.123 2.52 6.034 2.998l1.468.366.052 5.808.051 5.808-.443-.13c-1.114-.324-2.914-1.29-3.662-1.966-1.03-.93-1.57-1.973-1.776-3.437-.278-1.963-1.511-3.053-3.236-2.858-2.8.315-3.434 3.472-1.477 7.348 1.553 3.074 5.089 5.687 9.023 6.668l1.468.366.098 2.028c.115 2.384.42 3.108 1.562 3.69.976.498 1.77.498 2.747 0 1.141-.582 1.447-1.306 1.563-3.69l.097-2.028 1.468-.371c1.562-.395 3.797-1.377 5.028-2.209 1.376-.93 3.156-2.874 3.862-4.217 1.603-3.05 1.7-5.96.297-8.906-1.738-3.648-5.293-6.164-10.214-7.228l-.538-.117V50.7l.538.127c1.225.288 2.96 1.32 3.914 2.328.988 1.044 1.416 1.991 1.418 3.137.002.908.76 2.035 1.665 2.472 1.022.495 1.527.492 2.569-.012 1.885-.912 2.143-3.598.648-6.737-1.738-3.647-5.293-6.163-10.214-7.228l-.538-.116v-1.875c0-2.128-.28-2.96-1.224-3.631-.778-.554-2.202-.665-3.04-.238zm-1.608 17.307v5.491l-.44-.128c-1.117-.325-2.915-1.293-3.677-1.98-.925-.833-1.751-2.388-1.752-3.298-.002-1.5.971-3.09 2.606-4.253.618-.44 2.612-1.31 3.018-1.318.19-.004.245 1.221.245 5.486zm8.14 12.904c2.14 1.035 3.603 2.98 3.6 4.789 0 .91-.827 2.465-1.752 3.298-.762.687-2.56 1.655-3.676 1.98l-.44.128V68.308l.538.127c.296.07 1.074.385 1.73.703z" fill="#06FF79"/></g><defs><filter id="filter0_d_585_2046" x="0" y="0" width="130" height="130" filterUnits="userSpaceOnUse" color-interpolation-filters="sRGB"><feFlood flood-opacity="0" result="BackgroundImageFix"/><feColorMatrix in="SourceAlpha" values="0 0 0 0 0 0 0 0 0 0 0 0 0 0 0 0 0 0 127 0" result="hardAlpha"/><feOffset/><feGaussianBlur stdDeviation="7.5"/><feComposite in2="hardAlpha" operator="out"/><feColorMatrix values="0 0 0 0 0.0463889 0 0 0 0 0.695833 0 0 0 0 0.346333 0 0 0 0.8 0"/><feBlend in2="BackgroundImageFix" result="effect1_dropShadow_585_2046"/><feBlend in="SourceGraphic" in2="effect1_dropShadow_585_2046" result="shape"/></filter></defs></svg>