<svg width="190" height="190" fill="none" xmlns="http://www.w3.org/2000/svg"><g filter="url(#filter0_d_598_2312)"><g opacity=".8" filter="url(#filter1_d_598_2312)" fill="#06FF79"><path opacity=".4" d="M106.581 104.575c0 .154-.159.088-.302.144-.091.036-.124.03-.137-.017a.174.174 0 01.098-.197c.086-.039.213-.057.341.07 0-.222 0 0 0 0zm.222 0a.479.479 0 00-.445-.445.479.479 0 00-.445.445c0 .223.222.446.445.446s.445-.223.445-.446zm-.796-19.945c-.052-.053-.122-.067-.174-.015-.056.055.123-.029.173.032 2.396 2.874 3.915 6.397 3.915 10.354 0 3.494-1.286 6.774-3.226 9.21a.088.088 0 00.068.142c.025 0 .05-.012.066-.031 2.211-2.665 3.537-5.773 3.537-9.544-.22-3.74-1.745-7.481-4.359-10.148zm-.094-.095s-.205.102-.252.123c-.194.087-.194.046-.194-.123 0-.223 0-.223.446 0-.223-.223 0-.223 0 0zm.222 0a.478.478 0 00-.445-.445.478.478 0 00-.445.445c0 .223.222.445.445.445a.478.478 0 00.445-.445zm-.89 21.599c0 .154-.159.088-.302.144-.144.057-.144.009-.144-.144 0-.223 0-.223.446 0 0-.223 0-.223 0 0zm.222 0a.478.478 0 00-.445-.445.478.478 0 00-.445.445c0 .223.222.446.445.446s.445-.223.445-.446zm-1.113-22.935c0 .153-.159.087-.302.144-.09.036-.124.03-.136-.018a.173.173 0 01.098-.196c.085-.04.213-.057.34.07 0-.223 0 0 0 0zm.223 0c0-.223-.223-.445-.446-.445a.48.48 0 00-.445.445.48.48 0 00.445.445.48.48 0 00.446-.445zm.222 23.158c-2.672 2.227-6.012 3.563-9.797 3.563-5.075 0-9.494-2.405-12.173-6.349-.032-.046-.058-.104-.004-.12.066-.02.242-.087.282-.031 2.685 3.682 7.074 6.054 11.895 6.054 3.785.446 7.125-1.113 9.797-3.117zm-21.821-3.118c0 .076-.299.154-.373.166-.073.011-.073-.044-.073-.166 0 0 0-.222.446 0-.223-.222 0 0 0 0zm.222 0a.48.48 0 00-.445-.445.48.48 0 00-.445.445c0 .223.222.446.445.446a.48.48 0 00.445-.446zm-1.558-2.226s-.205.101-.252.122c-.194.087-.194.046-.194-.122 0-.223 0-.223.446 0-.223-.223 0-.223 0 0zm.222 0a.48.48 0 00-.445-.446c-.223 0-.445.223-.445.446a.48.48 0 00.445.445.48.48 0 00.445-.445zm22.045-18.037a15.209 15.209 0 00-8.907-2.894c-8.239 0-14.919 6.68-14.919 14.919 0 1.978.434 3.957 1.088 5.721a.104.104 0 00.098.068.105.105 0 00.098-.141c-.64-1.734-1.061-3.475-1.061-5.426 0-8.239 6.68-14.919 14.919-14.919 3.117-.222 6.234.89 8.684 2.672z"/><path opacity=".4" d="M111.032 85.648c.223 0 .223.223.223.446 0 .222-.223.222-.445.222a.255.255 0 01-.059-.006c-.318-.072-.044-.662.281-.662zm.501.112c-.115-.23-.425-.356-.678-.31-.148.027-.268.082-.268.198 0 .223 0 .668.223.668.096 0 .235 0 .361-.018.255-.037.477-.308.362-.538zm-23.63-7.786c-.153.062-.29.21-.15.295.046.029.147.02.198 0 4.213-1.756 9.08-2.185 13.506-.414 4.162 1.533 7.247 4.36 9.254 7.842a.152.152 0 00.265-.149c-2.01-3.517-5.327-6.372-9.519-7.916-4.584-1.746-9.382-1.353-13.555.342zm-.474.103c.223 0 .223.223.223.446 0 .222-.223.222-.445.222a.267.267 0 01-.06-.006c-.317-.072-.043-.662.282-.662zm.223-.222c-.223 0-.668 0-.668.222 0 .223 0 .668.223.668.489 0 .97-.683.52-.874a.193.193 0 00-.075-.016zm24.442 10.066c.073-.06.119-.064.19 0 .084.077.084.238.084.4 0 .222-.222.222-.445.222-.089 0-.142-.036-.175-.092-.097-.173.193-.403.346-.53zm.553.065c-.115-.23-.426-.355-.679-.31-.147.028-.268.083-.268.199 0 .223 0 .668.223.668.097 0 .236 0 .362-.018.254-.037.477-.309.362-.539zm-27.222-8.795c.223 0 .223.222.223.445s-.223.223-.445.223a.28.28 0 01-.045-.003c-.33-.053-.068-.665.267-.665zm0-.223c-.222 0-.668 0-.668.223 0 .222 0 .668.223.668.49 0 1.075-.691.617-.863a.484.484 0 00-.172-.028zm26.902 9.57c.055.014.055.04.076.094 1.524 3.985 1.512 8.404-.035 12.603-2.208 5.743-6.827 9.952-12.334 11.323a.109.109 0 01-.135-.106c0-.049.033-.092.08-.106 5.531-1.574 10.173-5.572 12.389-11.333 1.531-4.156 1.344-8.526.071-12.478-.032-.099-.212-.025-.112.002zm-12.874 24.054c.223 0 .223.222.223.445s-.223.223-.445.223a.265.265 0 01-.06-.007c-.317-.072-.043-.661.282-.661zm.223-.223c-.223 0-.668 0-.668.223 0 .222 0 .668.223.668.489 0 .97-.684.52-.875a.2.2 0 00-.075-.016zm-3.34.668c.223 0 .223.223.223.445 0 .223-.223.223-.446.223-.222 0-.222-.223-.222-.445 0-.223.222-.223.445-.223zm.278.111c-.115-.23-.425-.355-.678-.309-.147.026-.268.082-.268.198 0 .223 0 .668.223.668.096 0 .235 0 .361-.018.255-.037.477-.309.362-.539zM84.98 79.636c-3.117 2.004-5.79 5.122-7.126 9.13-3.562 9.575 1.337 20.263 10.911 23.826 2.412.877 4.609 1.106 7.014 1.113a.111.111 0 000-.223c-2.196-.007-4.601-.237-6.791-1.113-9.352-3.563-14.25-14.028-10.91-23.38 1.335-4.009 3.785-7.126 6.902-9.353z"/><path opacity=".4" d="M88.765 115.709c0 .326-.59.599-.662.282a.261.261 0 01-.006-.059c0-.223 0-.445.223-.445s.445 0 .445.222zm-.51.62a.688.688 0 00.816-.314c.17-.282.06-.665-.222-.835-.283-.169-.696-.032-.855.257a.958.958 0 00-.058.128.612.612 0 00.155.668.51.51 0 00.164.096zm26.973-12.564c.016-.038.041-.077 0-.084-.061-.01-.273-.034-.299.022-2.248 4.797-6.211 8.925-11.468 11.115-4.861 2.21-9.942 2.227-14.589.922-.053-.016-.107.108-.107.164 0 .056.054.043.107.058 4.647 1.306 9.728 1.291 14.589-.698 5.538-2.215 9.533-6.413 11.767-11.499zm.258-.525c0 .335-.612.598-.665.267a.314.314 0 01-.004-.045c0-.222.001-.445.223-.445.223 0 .446 0 .446.223zm-.276.753c.192-.016.351-.149.474-.297.047-.056.09-.117.127-.184.159-.289.041-.632-.242-.801-.283-.17-.696-.032-.855.256a1.01 1.01 0 00-.058.129c-.085.23-.021.493.132.685.118.147.25.227.422.212zm-29.117 10.603c0 .284-.607.554-.663.276a.284.284 0 01-.005-.054c0-.222 0-.445.223-.445s.445 0 .445.223zm-.222.668c.12-.12.24-.241.325-.396.159-.289.04-.631-.242-.801-.282-.17-.696-.032-.854.257a.647.647 0 00.096.798c.227.229.51.305.675.142zm30.283-14.251c-.223 0-.446 0-.446-.223s0-.445.223-.445c.363 0 .667.558.317.655a.38.38 0 01-.094.013zm.222.223c.12-.121.241-.241.326-.396.158-.289.04-.632-.242-.801-.283-.17-.69-.027-.85.261a.966.966 0 00-.047.098c-.153.37.067.838.459.918.135.027.263.011.354-.08zm-31.174 13.165c0 .051-.053.168-.099.145-4.41-2.233-8.156-6-10.366-11.084-2.868-6.839-2.02-14.115 1.677-19.88a.155.155 0 01.24-.025c.051.051.06.13.023.192-3.51 5.774-4.373 13.073-1.717 19.713 1.989 4.863 5.733 8.628 10.143 10.861.046.023.1.027.1.078zm-8.238-31.202c-.223 0-.445 0-.445-.223 0-.222 0-.445.222-.445.223 0 .445 0 .445.223 0 .222 0 .445-.222.445zm-.287.397c.31.111.646-.03.816-.313.17-.283.06-.666-.223-.835-.283-.17-.696-.033-.855.256a.948.948 0 00-.058.128c-.085.231-.031.509.155.669a.515.515 0 00.165.095zm2.736-3.514c-.222 0-.445 0-.445-.223s0-.445.222-.445c.223 0 .446 0 .446.222 0 .223 0 .446-.223.446zm-.287.397c.31.11.65-.034.818-.317.166-.279-.018-.687-.308-.832-.29-.145-.609-.033-.767.25a.948.948 0 00-.063.135.615.615 0 00.156.668.515.515 0 00.164.096zm36.957 19.66c.185.038.351-.027.393-.211.998-4.328.728-8.859-1.213-13.389-4.676-11.133-17.591-16.478-28.724-11.802-2.619 1.092-5.023 2.824-7.005 4.57a.152.152 0 00-.006.221c.06.06.156.06.216 0 1.976-1.952 4.17-3.475 6.795-4.568 10.91-4.676 23.825.668 28.278 11.58 1.742 4.352 1.994 8.917.965 13.28-.037.154.147.286.301.319z"/><path opacity=".4" d="M120.083 92.55c.193 0 .468.114.468.307s-.28.306-.473.306c-.193 0-.253-.231-.299-.419-.027-.113.026-.194.16-.194h.144zm.747-.222c-.126-.126-.322-.18-.55-.164-.39.027-.755.323-.728.713.005.065.015.133.031.202.059.25.166.454.416.51.504.112 1.06-.404.989-.915a.593.593 0 00-.158-.346zM95.668 69.616a.221.221 0 00-.223.222c0 .123.1.223.223.224 6.161.057 12.305 2.504 17.146 7.124 4.18 4.18 6.621 9.665 7.108 15.165.01.113.11.2.223.2.13 0 .226-.114.209-.243-.703-5.486-2.929-10.956-7.318-15.345-4.84-4.84-11.202-7.29-17.368-7.347zm-.584-.168c.193 0 .253.231.299.419.027.113-.026.194-.16.194a.641.641 0 00-.221.052c-.18.068-.391-.165-.391-.359 0-.193.28-.306.473-.306zm.361-.278c-.125-.126-.321-.18-.549-.164-.39.027-.73.246-.73.637 0 .392.325.832.716.805.175-.013.37-.068.563-.165.446-.222.446-.668 0-1.113zm25.162 26.943a.568.568 0 01.16.252c.046.188-.224.308-.412.354a.17.17 0 01-.121-.009c-.101-.052-.164-.238-.211-.341-.097-.215.245-.489.447-.366a.745.745 0 01.137.11zm.223-.222c-.126-.126-.322-.18-.55-.165-.39.028-.755.323-.728.714.005.065.015.132.031.201.059.25.166.454.416.51.504.112 1.06-.403.989-.915a.593.593 0 00-.158-.345zM91.804 69.615c.193 0 .468.113.468.306 0 .194-.23.254-.418.3-.113.027-.194-.026-.194-.16 0-.223-.222-.446 0-.446h.144zm.691.418c0-.392-.249-.807-.64-.807-.392 0-.807.248-.807.64 0 .391.248.807.64.807.391 0 .807-.249.807-.64zm27.824 26.74c.089.018.06.086.052.176-.48 5.734-2.924 11.454-7.335 15.865-5.965 5.965-14.341 8.423-22.084 7.156a.229.229 0 01-.183-.225c0-.136.123-.23.257-.208 7.718 1.243 15.842-1.002 21.788-7.169 4.366-4.366 6.592-9.803 7.097-15.47.012-.134.277-.15.408-.125zm-30.074 22.721c.193 0 .469.113.469.306s-.28.306-.473.306c-.194 0-.254-.231-.3-.418-.027-.113.026-.194.16-.194h.144zm.858.229c-.016-.391-.415-.619-.807-.619-.391 0-.807.249-.807.64 0 .392.249.808.64.808.392 0 .855-.282.955-.661a.566.566 0 00.02-.168zm-5.311-1.565c.193 0 .468.113.468.306s-.28.306-.473.306c-.193 0-.253-.231-.299-.419-.027-.112.026-.193.16-.193h.144zm.524-.223c-.126-.125-.322-.18-.55-.164-.39.027-.73.246-.73.637 0 .392.326.832.716.805.176-.013.37-.067.564-.165.445-.222.445-.668 0-1.113zm4.903-47.964c-.01-.062-.06-.123-.122-.112-5.082.904-10.156 3.127-14.133 7.105-9.797 10.02-9.797 26.052.223 35.85a23.818 23.818 0 008.002 5.251c.114.045.21-.014.262-.125.054-.115.064-.279-.053-.326-2.811-1.118-5.603-2.867-7.766-5.246-9.797-9.797-9.797-25.607-.223-35.404 3.927-3.927 8.708-6.144 13.716-7.07.097-.018.11.173.094.077z"/><path opacity=".4" d="M120.385 80.75c.222 0 .222.223.222.445 0 .223-.222.223-.445.223s-.223-.223-.223-.445c0-.223.223-.223.446-.223zm0-.445c-.446-.223-.891 0-1.114.445-.222.445 0 .89.446 1.113.445.223.89 0 1.113-.445.223-.445 0-.89-.445-1.113zm-36.513-11.9c-.11.047-.187.132-.12.231.068.101.241.256.353.207 6.41-2.794 14.1-2.98 21.138-.34 6.378 2.42 11.235 6.793 14.572 12.264.035.058.227.006.293-.01.049-.011.023-.062-.002-.106-3.122-5.523-8.221-10.158-14.64-12.593-7.265-2.862-14.965-2.46-21.594.347zm-.883.226c.097-.35.655-.046.655.317 0 .223-.222.223-.445.223s-.223-.223-.223-.445c0-.032.005-.064.013-.095zm.655-.573c-.445-.223-.89 0-1.113.445-.223.445 0 .89.445 1.113.446.223.89 0 1.114-.445.222-.445 0-.89-.446-1.113zm38.299 16.255c.223 0 .223.222.223.445s-.223.223-.445.223c-.223 0-.223-.223-.223-.446 0-.222.223-.222.445-.222zm.223-.446c-.445-.222-.891 0-1.113.446-.223.445 0 .89.445 1.113.445.223.891 0 1.113-.445.223-.446 0-.891-.445-1.114zM80.304 70.062c.223 0 .223.222.223.445s-.223.223-.445.223a.266.266 0 01-.06-.006c-.317-.072-.044-.662.282-.662zm.467.843c.34-.817-1.184-1.412-1.58-.62-.223.445 0 .89.445 1.113.446.222.89 0 1.114-.446a.728.728 0 00.021-.047zm41.3 14.358c.114-.05.143.075.184.192 2.143 6.174 2.324 13.198-.312 19.789-3.312 9.054-11.005 15.261-19.603 17.535-.108.029-.194-.035-.231-.141-.044-.126-.043-.29.086-.325 8.562-2.29 16-8.485 19.303-17.292 2.396-6.534 2.448-13.28.158-19.406-.055-.145.273-.29.415-.352zm-20.823 37.478c.097-.351.655-.047.655.317 0 .222-.223.222-.445.222-.223 0-.223-.222-.223-.445 0-.032.005-.064.013-.094zm.655-.574c-.445-.223-.891 0-1.113.445-.223.446 0 .891.445 1.114.445.222.891 0 1.113-.446.223-.445 0-.89-.445-1.113zm-5.344 1.113c.223 0 .223.223.223.446 0 .222-.223.222-.446.222-.222 0-.222-.222-.222-.445s.222-.223.445-.223zm.223-.445c-.446-.223-.891 0-1.114.445-.222.446 0 .891.446 1.114.445.222.89 0 1.113-.446.223-.445 0-.89-.445-1.113zM79.517 70.832c-.04-.039-.137-.08-.185-.05-5.082 3.337-9.06 7.996-11.275 13.976-5.566 14.919 2.004 31.619 16.7 37.186 3.498 1.312 7.21 1.979 10.925 1.793a.223.223 0 00.209-.224.22.22 0 00-.236-.219c-3.493.179-7.19-.488-10.675-1.795-14.696-5.567-22.044-22.045-16.477-36.741 2.174-5.87 6.045-10.466 10.993-13.581.103-.065.109-.262.021-.345z"/><path opacity=".4" d="M80.972 124.17c-.136 0-.273 0-.41-.103-.227-.171-.329-.422-.202-.677.127-.254.47-.405.724-.278s.376.556.246.809c-.086.166-.222.249-.358.249zm.223.445c.446-.223.89-.668.668-1.113-.222-.446-.668-.891-1.113-.668-.847.423-.576 2.108.328 1.828a.808.808 0 00.117-.047zm41.21-12.36c.091-.145.038-.438-.111-.523-.067-.038-.152.008-.192.073-4.234 6.85-10.888 11.931-19.085 14.146-7.473 1.978-14.73.919-21.126-2.107-.116-.055-.22.001-.284.113-.059.105-.076.267.032.319 6.414 3.031 14.113 3.882 21.378 2.12 8.325-2.19 15.141-7.399 19.388-14.141zm.429-.332c-.137 0-.273 0-.41-.103-.227-.171-.326-.526-.155-.753a.618.618 0 01.108-.11c.141-.116.27-.17.449-.133.362.075.395.645.213.966-.05.089-.106.133-.205.133zm0 .445c.446-.223.891-.668.668-1.113-.222-.446-.668-.891-1.113-.668-.445.222-.891.668-.668 1.113.223.445.668.891 1.113.668zm-45.279 9.372c-.171.288-.613.502-.846.262a.408.408 0 01-.019-.02c-.138-.153-.208-.38-.127-.57a.485.485 0 01.06-.102c.17-.227.525-.326.752-.155a.684.684 0 01.097.092c.128.148.183.325.083.493zm-.952.704c.414.237 1.082.1 1.371-.279.154-.201.22-.434.104-.667-.223-.446-.668-.891-1.114-.668a1.666 1.666 0 00-.558.437c-.293.377-.218.94.197 1.177zm48.381-14.509c-.172.288-.613.501-.847.261a.332.332 0 01-.018-.019c-.139-.153-.209-.381-.128-.57a.494.494 0 01.06-.102c.171-.227.525-.326.752-.155a.587.587 0 01.097.092c.129.148.184.324.084.493zm-.953.703c.414.237 1.082.1 1.372-.279.153-.201.22-.434.103-.667-.222-.445-.668-.891-1.113-.668a1.67 1.67 0 00-.558.438c-.293.376-.218.94.196 1.176zm-47.478 12.623c-.063.132-.2.12-.319.034-5.875-4.233-10.435-10.609-12.407-18.279-2.645-10.359.164-20.935 6.699-28.707.07-.083.266-.063.371-.037.097.023.179.136.115.212-6.343 7.559-9.166 18.153-6.517 28.309 1.951 7.373 6.226 13.69 12.206 17.923.146.103-.07.384-.148.545zm-4.988-47.526c-.127.254-.47.405-.724.278s-.405-.47-.278-.724.47-.405.723-.278c.254.127.406.47.279.724zm-.891.612c.417.209.99.1 1.278-.266.16-.205.233-.443.114-.68-.223-.446-.668-.891-1.114-.668a1.651 1.651 0 00-.568.45c-.28.372-.127.955.29 1.164zm4.954-4.286c-.136 0-.273 0-.41-.104-.227-.17-.326-.525-.154-.752.037-.05.088-.1.158-.15.114-.08.21-.118.349-.101.385.047.418.688.204 1.013-.037.057-.083.094-.147.094zm-1.113-.223c.403.805 2.11.469 1.81-.38a.58.58 0 00-.029-.066c-.222-.445-.668-.89-1.113-.668-.445.223-.89.668-.668 1.114zm50.339 37.409a.303.303 0 00.282-.193c2.392-6.184 3.247-13.018 1.484-20.07-4.676-17.146-22.267-27.834-39.413-23.381-4.113 1.082-7.805 2.796-11.077 5.142-.088.063-.09.291-.07.399.017.09.119.171.194.117 3.296-2.382 7.017-4.12 10.953-5.213 17.146-4.23 34.514 6.013 38.745 23.158 1.741 6.747 1.142 13.493-1.381 19.616a.308.308 0 00.283.425z"/><path opacity=".4" d="M114.492 124.409c.545.142.221 1.097-.342 1.097-.222 0-.445-.445-.445-.668 0-.223.445-.445.668-.445.035 0 .076.005.119.016zm-.282 1.346c1.006.398 1.576-1.547.608-2.03-.445-.223-1.113.222-1.336.668-.222.445.223 1.113.668 1.336l.06.026zm12.742-47.023c-.054-.104-.215-.084-.316-.024-.113.067-.168.175-.109.292 3.902 7.742 4.962 16.99 2.319 26.02-2.396 8.059-7.348 14.414-13.815 18.855-.13.09-.191.481-.1.609.044.062.155.101.218.059 6.63-4.453 11.929-11.106 14.365-19.3a35.746 35.746 0 00-2.562-26.51zm-.169-.858c.294.257-.004.68-.369.818a.724.724 0 01-.24.053c-.222 0-.445-.446-.445-.668 0-.133.16-.267.336-.352.205-.1.546-.001.718.149zm-.376 1.372c.857-.069 1.115-1.308.473-1.88a1.245 1.245 0 00-.26-.18c-.446-.223-1.114.223-1.336.668-.169.337.045.801.352 1.104.187.184.51.309.771.288zm-16.184 47.389c.518.178.245 1.098-.303 1.098-.223 0-.446-.446-.446-.668 0-.223.446-.446.668-.446.025 0 .052.006.081.016zm-.243 1.57c1.005.398 1.575-1.547.608-2.031-.446-.223-1.114.223-1.336.668-.223.445.222 1.113.668 1.336.019.01.039.019.06.027zm14.636-53.69c0 .222-.446.445-.668.445-.223 0-.446-.446-.446-.668 0-.223.446-.446.668-.446.223 0 .446.445.446.668zm-.831.694c1.006.398 1.575-1.547.608-2.03-.445-.224-1.113.222-1.336.667-.223.445.223 1.114.668 1.336l.06.027zm-14.311 52.372c0 .081-.047.173-.121.205-7.542 3.296-16.179 4.163-24.595 1.505-11.496-3.316-19.919-12.119-23.525-22.705-.039-.113.023-.205.133-.252.119-.051.283-.057.326.065 3.61 10.351 11.808 19.135 23.289 22.447 8.354 2.419 16.709 1.798 24.207-1.434.135-.058.286.022.286.169zM61.6 105.688c0 .223-.445.446-.668.446-.222 0-.445-.446-.445-.668 0-.223.445-.446.668-.446.445 0 .445.446.445.668zm.446.223c.222-.445-.223-1.113-.668-1.336-.446-.223-1.114.223-1.336.668a.453.453 0 00-.018.04c-.388.964 1.557 1.558 2.022.628zm-1.782-6.458c0 .223-.445.446-.668.446-.222 0-.445-.446-.445-.668 0-.223.445-.446.668-.446.223 0 .445.223.445.668zm-.055.668c.51-.255.682-.995.381-1.48a1.457 1.457 0 00-.548-.524c-.446-.222-1.114.223-1.336.668-.11.218-.058.489.074.735.27.503.918.857 1.429.601zm63.374-26.453c.032-.026.106-.093.081-.126-4.449-5.973-10.661-10.617-18.198-12.834-18.927-5.566-38.967 5.122-44.534 24.049-1.316 4.606-1.768 9.213-1.355 13.606.01.114.112.2.225.2a.219.219 0 00.216-.244c-.405-4.38.048-8.967 1.36-13.34 5.567-18.704 25.384-29.392 43.865-23.825 7.484 2.201 13.663 6.796 18.106 12.493.034.044.19.056.234.021z"/><path opacity=".4" d="M134.414 93.665c.222.222.222.668 0 .89-.223.223-.668.223-.891 0-.454-.454.437-1.344.891-.89zm.445-.223a1.077 1.077 0 00-1.559 0 1.077 1.077 0 000 1.559 1.076 1.076 0 001.559 0 1.077 1.077 0 000-1.56zm-36.724-37.61c-.128-.012-.24.175-.24.304 0 .115.09.126.205.134 9.507.717 18.994 5.163 25.848 12.9 6.108 6.763 9.224 15.235 9.558 23.742.011.295.462.235.462.53-.222-8.907-3.563-17.591-9.797-24.494-6.848-7.952-16.106-12.18-26.036-13.116zm-.24-.022c.224.223.224.668 0 .891-.222.223-.667.223-.89 0-.457-.457.322-1.367.82-.955.025.021.05.043.07.064zm.613.334c0-.532-.348-1.077-.88-1.11-.3-.02-.605.09-.846.331a1.076 1.076 0 000 1.559c.24.24.546.35.846.332.532-.034.88-.58.88-1.112zm35.683 42.865c.223.222.223.668 0 .89-.223.223-.668.223-.891 0-.454-.454.437-1.344.891-.89zm.445-.223a1.075 1.075 0 00-1.558 0 1.075 1.075 0 000 1.559 1.076 1.076 0 001.558 0 1.075 1.075 0 000-1.559zm-42.62-43.1c.486-.427 1.215.558.758 1.015-.222.223-.668.223-.89 0-.223-.223-.223-.668 0-.89.046-.047.09-.089.133-.126zm1.204-.321a1.076 1.076 0 00-1.559 0 1.076 1.076 0 000 1.559 1.076 1.076 0 001.559 0 1.076 1.076 0 000-1.559zm40.373 44.98c.199 0 .353.174.327.372-1.19 8.776-5.618 17.309-12.644 23.676-9.752 8.866-22.813 11.554-34.79 8.944-.1-.021-.169-.181-.169-.282 0-.139.13-.168.266-.136 11.732 2.787 24.745-.129 34.248-8.748 7.048-6.388 11.264-14.736 12.432-23.536a.333.333 0 01.33-.29zM85.872 132.41c.222.222.222.668 0 .89-.223.223-.668.223-.89 0-.224-.222-.224-.668 0-.89.222-.223.667-.223.89 0zm.222-.446a1.077 1.077 0 00-1.558 0 1.077 1.077 0 000 1.559c.815.815 2.37-.714 1.572-1.545l-.014-.014zm-6.902-2.004c.222.223.222.668 0 .891-.223.222-.668.222-.891 0-.223-.223-.223-.668 0-.891.223-.223.668-.223.89 0zm.222-.223a1.077 1.077 0 00-1.558 0 1.077 1.077 0 000 1.559 1.075 1.075 0 001.558 0 1.076 1.076 0 000-1.559zm12.044-73.684c-.05-.05-.06-.017-.13-.01-7.98.689-15.951 4.025-22.38 9.788-16.254 14.473-17.59 39.19-3.116 55.445 3.525 3.967 7.705 7.061 12.108 9.067.065.029.137-.041.143-.112.008-.103-.061-.411-.153-.459-4.305-2.201-8.19-5.045-11.653-8.941-14.25-16.033-12.692-40.527 3.117-54.778 6.322-5.668 13.925-8.775 21.973-9.53.203-.019.236-.326.091-.47z"/></g><path d="M94.999 140.648c-25.162 0-45.647-20.486-45.647-45.647 0-25.162 20.485-45.648 45.647-45.648 25.161 0 45.647 20.486 45.647 45.648 0 25.161-20.486 45.647-45.647 45.647zm0-90.182c-24.494 0-44.534 20.04-44.534 44.535 0 24.493 20.04 44.534 44.534 44.534 24.493 0 44.533-20.041 44.533-44.534 0-24.494-19.817-44.535-44.533-44.535z" fill="#06FF79"/><path d="M95.002 139.757c-24.717 0-44.757-20.041-44.757-44.757 0-24.717 20.04-44.757 44.757-44.757 24.716 0 44.756 20.04 44.756 44.757 0 24.716-20.04 44.757-44.756 44.757zm0-87.956c-23.826 0-43.198 19.373-43.198 43.199 0 23.826 19.372 43.198 43.198 43.198 23.825 0 43.197-19.372 43.197-43.198s-19.372-43.2-43.197-43.2z" fill="#06FF79"/><g filter="url(#filter2_d_598_2312)"><path d="M95.002 140.202c-24.94 0-45.202-20.263-45.202-45.203 0-24.939 20.263-45.202 45.202-45.202 24.938 0 45.201 20.263 45.201 45.203 0 24.939-20.263 45.202-45.201 45.202zm0-88.846c-24.049 0-43.643 19.595-43.643 43.643 0 24.049 19.594 43.644 43.643 43.644 24.048 0 43.643-19.595 43.643-43.644 0-24.048-19.595-43.643-43.643-43.643z" fill="#06FF79"/></g><path d="M95 149.11c-29.838 0-54.108-24.272-54.108-54.11S65.162 40.891 95 40.891c29.838 0 54.109 24.271 54.109 54.11.222 29.837-24.271 54.109-54.109 54.109zm0-105.324C66.721 43.786 43.786 66.72 43.786 95c0 28.28 22.935 51.215 51.214 51.215S146.214 123.28 146.214 95c0-28.279-22.935-51.214-51.214-51.214z" fill="#000"/><g filter="url(#filter3_d_598_2312)"><path d="M95 150c-30.284 0-55-24.717-55-55s24.716-55 55-55c30.282 0 54.998 24.717 54.998 55 .223 30.283-24.493 55-54.999 55zm0-107.105c-28.725 0-52.105 23.38-52.105 52.105 0 28.725 23.38 52.105 52.104 52.105s52.105-23.38 52.105-52.105c0-28.725-23.381-52.105-52.105-52.105z" fill="#06FF79"/></g><g filter="url(#filter4_d_598_2312)"><g filter="url(#filter5_d_598_2312)"><path fill-rule="evenodd" clip-rule="evenodd" d="M85.578 97.58c.486.28.792.79.844 1.349.49 5.287 2.794 8.356 6.914 9.206a1.865 1.865 0 011.276.923 33.983 33.983 0 005.762 7.745c.975.983.525 2.691-.853 2.828-1.203.12-2.457.18-3.763.18-7.49 0-13.324-1.975-17.502-5.925-4.129-3.95-6.194-9.55-6.194-16.8v-4.44a1.657 1.657 0 012.486-1.435l11.03 6.368zM72.89 87.682a1.657 1.657 0 01-.829-1.435v-2.934a1.657 1.657 0 012.486-1.435l10.947 6.32c.512.296.828.843.828 1.435v2.934a1.657 1.657 0 01-2.485 1.435l-10.947-6.32zM84.666 70.04c.915 0 1.657.741 1.657 1.657v11.539c0 1.275-1.381 2.073-2.485 1.434L72.89 78.35a1.657 1.657 0 01-.829-1.434v-5.22c0-.915.742-1.656 1.657-1.656h10.947z" fill="#06FF79"/></g><g filter="url(#filter6_d_598_2312)"><path fill-rule="evenodd" clip-rule="evenodd" d="M110.255 96.676c0 6.56 2.102 10.364 6.306 11.414.83.208 1.489.903 1.489 1.759v8.258c0 .933-.772 1.687-1.702 1.613-5.701-.456-10.24-2.396-13.618-5.822-3.853-3.951-5.779-9.552-5.779-16.804V82.392a1.657 1.657 0 012.486-1.435l9.99 5.768c.512.296.828.843.828 1.434v8.517zm-2.485-13.519a1.657 1.657 0 002.485-1.435V71.697c0-.916-.741-1.657-1.657-1.657h-9.99c-.915 0-1.657.741-1.657 1.657v4.258c0 .591.316 1.138.829 1.435l9.99 5.767z" fill="#06FF79"/></g></g></g><defs><filter id="filter0_d_598_2312" x="0" y="0" width="190" height="190" filterUnits="userSpaceOnUse" color-interpolation-filters="sRGB"><feFlood flood-opacity="0" result="BackgroundImageFix"/><feColorMatrix in="SourceAlpha" values="0 0 0 0 0 0 0 0 0 0 0 0 0 0 0 0 0 0 127 0" result="hardAlpha"/><feOffset/><feGaussianBlur stdDeviation="20"/><feComposite in2="hardAlpha" operator="out"/><feColorMatrix values="0 0 0 0 0.0463889 0 0 0 0 0.695833 0 0 0 0 0.346333 0 0 0 0.8 0"/><feBlend in2="BackgroundImageFix" result="effect1_dropShadow_598_2312"/><feBlend in="SourceGraphic" in2="effect1_dropShadow_598_2312" result="shape"/></filter><filter id="filter1_d_598_2312" x="15.807" y="15.031" width="159.386" height="159.258" filterUnits="userSpaceOnUse" color-interpolation-filters="sRGB"><feFlood flood-opacity="0" result="BackgroundImageFix"/><feColorMatrix in="SourceAlpha" values="0 0 0 0 0 0 0 0 0 0 0 0 0 0 0 0 0 0 127 0" result="hardAlpha"/><feOffset/><feGaussianBlur stdDeviation="20"/><feComposite in2="hardAlpha" operator="out"/><feColorMatrix values="0 0 0 0 0.0463889 0 0 0 0 0.695833 0 0 0 0 0.346333 0 0 0 0.8 0"/><feBlend in2="BackgroundImageFix" result="effect1_dropShadow_598_2312"/><feBlend in="SourceGraphic" in2="effect1_dropShadow_598_2312" result="shape"/></filter><filter id="filter2_d_598_2312" x="9.8" y="9.797" width="170.403" height="170.405" filterUnits="userSpaceOnUse" color-interpolation-filters="sRGB"><feFlood flood-opacity="0" result="BackgroundImageFix"/><feColorMatrix in="SourceAlpha" values="0 0 0 0 0 0 0 0 0 0 0 0 0 0 0 0 0 0 127 0" result="hardAlpha"/><feOffset/><feGaussianBlur stdDeviation="20"/><feComposite in2="hardAlpha" operator="out"/><feColorMatrix values="0 0 0 0 0.0463889 0 0 0 0 0.695833 0 0 0 0 0.346333 0 0 0 0.8 0"/><feBlend in2="BackgroundImageFix" result="effect1_dropShadow_598_2312"/><feBlend in="SourceGraphic" in2="effect1_dropShadow_598_2312" result="shape"/></filter><filter id="filter3_d_598_2312" x="0" y="0" width="190" height="190" filterUnits="userSpaceOnUse" color-interpolation-filters="sRGB"><feFlood flood-opacity="0" result="BackgroundImageFix"/><feColorMatrix in="SourceAlpha" values="0 0 0 0 0 0 0 0 0 0 0 0 0 0 0 0 0 0 127 0" result="hardAlpha"/><feOffset/><feGaussianBlur stdDeviation="20"/><feComposite in2="hardAlpha" operator="out"/><feColorMatrix values="0 0 0 0 0.0463889 0 0 0 0 0.695833 0 0 0 0 0.346333 0 0 0 0.8 0"/><feBlend in2="BackgroundImageFix" result="effect1_dropShadow_598_2312"/><feBlend in="SourceGraphic" in2="effect1_dropShadow_598_2312" result="shape"/></filter><filter id="filter4_d_598_2312" x="72.063" y="70.04" width="49.987" height="53.771" filterUnits="userSpaceOnUse" color-interpolation-filters="sRGB"><feFlood flood-opacity="0" result="BackgroundImageFix"/><feColorMatrix in="SourceAlpha" values="0 0 0 0 0 0 0 0 0 0 0 0 0 0 0 0 0 0 127 0" result="hardAlpha"/><feOffset dx="2" dy="2"/><feGaussianBlur stdDeviation="1"/><feComposite in2="hardAlpha" operator="out"/><feColorMatrix values="0 0 0 0 0 0 0 0 0 0 0 0 0 0 0 0 0 0 0.3 0"/><feBlend in2="BackgroundImageFix" result="effect1_dropShadow_598_2312"/><feBlend in="SourceGraphic" in2="effect1_dropShadow_598_2312" result="shape"/></filter><filter id="filter5_d_598_2312" x="32.063" y="30.04" width="108.834" height="129.771" filterUnits="userSpaceOnUse" color-interpolation-filters="sRGB"><feFlood flood-opacity="0" result="BackgroundImageFix"/><feColorMatrix in="SourceAlpha" values="0 0 0 0 0 0 0 0 0 0 0 0 0 0 0 0 0 0 127 0" result="hardAlpha"/><feOffset/><feGaussianBlur stdDeviation="20"/><feComposite in2="hardAlpha" operator="out"/><feColorMatrix values="0 0 0 0 0.0463889 0 0 0 0 0.695833 0 0 0 0 0.346333 0 0 0 0.5 0"/><feBlend in2="BackgroundImageFix" result="effect1_dropShadow_598_2312"/><feBlend in="SourceGraphic" in2="effect1_dropShadow_598_2312" result="shape"/></filter><filter id="filter6_d_598_2312" x="56.951" y="30.04" width="101.099" height="129.686" filterUnits="userSpaceOnUse" color-interpolation-filters="sRGB"><feFlood flood-opacity="0" result="BackgroundImageFix"/><feColorMatrix in="SourceAlpha" values="0 0 0 0 0 0 0 0 0 0 0 0 0 0 0 0 0 0 127 0" result="hardAlpha"/><feOffset/><feGaussianBlur stdDeviation="20"/><feComposite in2="hardAlpha" operator="out"/><feColorMatrix values="0 0 0 0 0.0463889 0 0 0 0 0.695833 0 0 0 0 0.346333 0 0 0 0.5 0"/><feBlend in2="BackgroundImageFix" result="effect1_dropShadow_598_2312"/><feBlend in="SourceGraphic" in2="effect1_dropShadow_598_2312" result="shape"/></filter></defs></svg>