<svg width="236" height="38" fill="none" xmlns="http://www.w3.org/2000/svg"><g filter="url(#filter0_d_4_37)" fill-rule="evenodd" clip-rule="evenodd" fill="#07FA77"><path d="M12.49.129a.768.768 0 00-.269.337c-.101.294-.101 28.769 0 29.063.083.241.396.471.641.471.24 0 .494-.165.6-.387.079-.166.089-1.844.089-14.616 0-15.85.027-14.681-.347-14.902-.232-.137-.477-.126-.714.034zm4.185 1.297a.805.805 0 00-.293.246c-.102.157-.107.682-.107 13.333v13.17l.123.165a.881.881 0 00.356.248c.213.075.256.073.464-.029a.747.747 0 00.332-.317c.096-.194.102-.947.102-13.232 0-14.1.018-13.303-.305-13.515a.706.706 0 00-.672-.07zm8.266-.043c-.068.013-.2.104-.293.201l-.17.177v26.473l.167.174a.688.688 0 001.075-.098c.102-.15.106-.717.106-13.313 0-12.595-.004-13.163-.106-13.312-.108-.16-.434-.349-.576-.334a2.761 2.761 0 00-.203.032zM8.48 5.527a.746.746 0 00-.279.23c-.092.142-.1.782-.1 9.261v9.11l.166.177a.66.66 0 00.798.154c.414-.196.384.53.384-9.462 0-9.965.028-9.266-.372-9.456-.241-.115-.36-.117-.597-.014zm12.278 1.368a.784.784 0 00-.308.308c-.096.192-.102.686-.102 7.794s.006 7.603.102 7.795c.13.258.449.426.712.373.276-.055.52-.326.562-.623.02-.137.027-3.624.018-7.75-.016-6.874-.026-7.513-.115-7.638-.223-.315-.56-.415-.87-.26zm8.279-.062c-.071.014-.21.117-.308.23l-.178.203v15.469l.194.211c.158.173.237.213.432.218.292.008.494-.094.624-.313.09-.152.097-.778.097-7.854 0-6.975-.008-7.703-.094-7.848a.774.774 0 00-.193-.222c-.127-.08-.412-.126-.574-.094zM4.378 10.986c-.392.194-.378.041-.378 4.011 0 3.993-.017 3.822.399 4.02.264.125.545.067.77-.159l.179-.178v-7.357l-.145-.156c-.25-.27-.522-.33-.825-.181zm28.655 0c-.402.207-.378-.045-.38 4.021v3.673l.177.178c.226.226.507.284.771.158.416-.197.399-.026.399-4.019 0-3.98.015-3.822-.387-4.013-.236-.112-.359-.111-.58.002z"/><path d="M12.49.129a.768.768 0 00-.269.337c-.101.294-.101 28.769 0 29.063.083.241.396.471.641.471.24 0 .494-.165.6-.387.079-.166.089-1.844.089-14.616 0-15.85.027-14.681-.347-14.902-.232-.137-.477-.126-.714.034zm4.185 1.297a.805.805 0 00-.293.246c-.102.157-.107.682-.107 13.333v13.17l.123.165a.881.881 0 00.356.248c.213.075.256.073.464-.029a.747.747 0 00.332-.317c.096-.194.102-.947.102-13.232 0-14.1.018-13.303-.305-13.515a.706.706 0 00-.672-.07zm8.266-.043c-.068.013-.2.104-.293.201l-.17.177v26.473l.167.174a.688.688 0 001.075-.098c.102-.15.106-.717.106-13.313 0-12.595-.004-13.163-.106-13.312-.108-.16-.434-.349-.576-.334a2.761 2.761 0 00-.203.032zM8.48 5.527a.746.746 0 00-.279.23c-.092.142-.1.782-.1 9.261v9.11l.166.177a.66.66 0 00.798.154c.414-.196.384.53.384-9.462 0-9.965.028-9.266-.372-9.456-.241-.115-.36-.117-.597-.014zm12.278 1.368a.784.784 0 00-.308.308c-.096.192-.102.686-.102 7.794s.006 7.603.102 7.795c.13.258.449.426.712.373.276-.055.52-.326.562-.623.02-.137.027-3.624.018-7.75-.016-6.874-.026-7.513-.115-7.638-.223-.315-.56-.415-.87-.26zm8.279-.062c-.071.014-.21.117-.308.23l-.178.203v15.469l.194.211c.158.173.237.213.432.218.292.008.494-.094.624-.313.09-.152.097-.778.097-7.854 0-6.975-.008-7.703-.094-7.848a.774.774 0 00-.193-.222c-.127-.08-.412-.126-.574-.094zM4.378 10.986c-.392.194-.378.041-.378 4.011 0 3.993-.017 3.822.399 4.02.264.125.545.067.77-.159l.179-.178v-7.357l-.145-.156c-.25-.27-.522-.33-.825-.181zm28.655 0c-.402.207-.378-.045-.38 4.021v3.673l.177.178c.226.226.507.284.771.158.416-.197.399-.026.399-4.019 0-3.98.015-3.822-.387-4.013-.236-.112-.359-.111-.58.002zM45.49.129a.768.768 0 00-.269.337c-.101.294-.101 28.769 0 29.063.083.241.396.471.641.471.24 0 .494-.165.6-.387.079-.166.089-1.844.089-14.616 0-15.85.027-14.681-.347-14.902-.232-.137-.477-.126-.714.034zm4.185 1.297a.805.805 0 00-.293.246c-.102.157-.107.682-.107 13.333v13.17l.123.165a.881.881 0 00.356.248c.213.075.256.073.464-.029a.747.747 0 00.332-.317c.096-.194.102-.947.102-13.232 0-14.1.018-13.303-.305-13.515a.706.706 0 00-.672-.07zm8.266-.043c-.068.013-.2.104-.293.201l-.17.177v26.473l.167.174a.688.688 0 001.075-.098c.102-.15.106-.717.106-13.313 0-12.595-.004-13.163-.106-13.312-.108-.16-.434-.349-.576-.334a2.761 2.761 0 00-.203.032zM41.48 5.527a.745.745 0 00-.279.23c-.093.142-.1.782-.1 9.261v9.11l.166.177a.66.66 0 00.798.154c.414-.196.384.53.384-9.462 0-9.965.028-9.266-.372-9.456-.241-.115-.36-.117-.597-.014zm12.278 1.368a.784.784 0 00-.308.308c-.096.192-.102.686-.102 7.794s.006 7.603.102 7.795c.13.258.449.426.712.373.276-.055.52-.326.562-.623.02-.137.027-3.624.018-7.75-.016-6.874-.026-7.513-.115-7.638-.223-.315-.56-.415-.87-.26zm8.279-.062c-.071.014-.21.117-.308.23l-.178.203v15.469l.194.211c.158.173.237.213.432.218.292.008.494-.094.624-.313.09-.152.097-.778.097-7.854 0-6.975-.008-7.703-.094-7.848a.774.774 0 00-.193-.222c-.127-.08-.411-.126-.574-.094zm-24.659 4.153c-.392.194-.378.041-.378 4.011 0 3.993-.017 3.822.399 4.02.264.125.545.067.77-.159l.179-.178v-7.357l-.145-.156c-.25-.27-.522-.33-.825-.181zm28.655 0c-.402.207-.378-.045-.38 4.021v3.673l.177.178c.226.226.507.284.771.158.416-.197.399-.026.399-4.019 0-3.98.015-3.822-.387-4.013-.236-.112-.359-.111-.58.002zM78.49.129a.768.768 0 00-.269.337c-.101.294-.101 28.769 0 29.063.083.241.396.471.641.471.24 0 .494-.165.6-.387.079-.166.089-1.844.089-14.616 0-15.85.027-14.681-.347-14.902-.232-.137-.477-.126-.714.034zm4.185 1.297a.805.805 0 00-.293.246c-.102.157-.107.682-.107 13.333v13.17l.123.165a.881.881 0 00.356.248c.213.075.256.073.464-.029a.747.747 0 00.332-.317c.096-.194.102-.947.102-13.232 0-14.1.018-13.303-.305-13.515a.706.706 0 00-.672-.07zm8.266-.043c-.068.013-.2.104-.293.201l-.17.177v26.473l.167.174a.688.688 0 001.075-.098c.102-.15.106-.717.106-13.313 0-12.595-.004-13.163-.106-13.312-.108-.16-.434-.349-.576-.334a2.761 2.761 0 00-.203.032zM74.48 5.527a.745.745 0 00-.279.23c-.092.142-.1.782-.1 9.261v9.11l.166.177a.66.66 0 00.798.154c.414-.196.384.53.384-9.462 0-9.965.028-9.266-.372-9.456-.241-.115-.36-.117-.597-.014zm12.278 1.368a.784.784 0 00-.308.308c-.096.192-.102.686-.102 7.794s.006 7.603.102 7.795c.13.258.449.426.712.373.275-.055.52-.326.562-.623.02-.137.027-3.624.018-7.75-.016-6.874-.026-7.513-.115-7.638-.222-.315-.56-.415-.87-.26zm8.279-.062c-.071.014-.21.117-.308.23l-.178.203v15.469l.194.211c.158.173.237.213.432.218.292.008.494-.094.624-.313.09-.152.097-.778.097-7.854 0-6.975-.008-7.703-.094-7.848a.774.774 0 00-.193-.222c-.127-.08-.412-.126-.574-.094zm-24.659 4.153c-.392.194-.378.041-.378 4.011 0 3.993-.017 3.822.399 4.02.264.125.545.067.77-.159l.179-.178v-7.357l-.144-.156c-.251-.27-.523-.33-.826-.181zm28.655 0c-.402.207-.378-.045-.38 4.021v3.673l.177.178c.226.226.507.284.771.158.416-.197.399-.026.399-4.019 0-3.98.015-3.822-.387-4.013-.236-.112-.359-.111-.58.002z"/><path d="M78.49.129a.768.768 0 00-.269.337c-.101.294-.101 28.769 0 29.063.083.241.396.471.641.471.24 0 .494-.165.6-.387.079-.166.089-1.844.089-14.616 0-15.85.027-14.681-.347-14.902-.232-.137-.477-.126-.714.034zm4.185 1.297a.805.805 0 00-.293.246c-.102.157-.107.682-.107 13.333v13.17l.123.165a.881.881 0 00.356.248c.213.075.256.073.464-.029a.747.747 0 00.332-.317c.096-.194.102-.947.102-13.232 0-14.1.018-13.303-.305-13.515a.706.706 0 00-.672-.07zm8.266-.043c-.068.013-.2.104-.293.201l-.17.177v26.473l.167.174a.688.688 0 001.075-.098c.102-.15.106-.717.106-13.313 0-12.595-.004-13.163-.106-13.312-.108-.16-.434-.349-.576-.334a2.761 2.761 0 00-.203.032zM74.48 5.527a.745.745 0 00-.279.23c-.092.142-.1.782-.1 9.261v9.11l.166.177a.66.66 0 00.798.154c.414-.196.384.53.384-9.462 0-9.965.028-9.266-.372-9.456-.241-.115-.36-.117-.597-.014zm12.278 1.368a.784.784 0 00-.308.308c-.096.192-.102.686-.102 7.794s.006 7.603.102 7.795c.13.258.449.426.712.373.275-.055.52-.326.562-.623.02-.137.027-3.624.018-7.75-.016-6.874-.026-7.513-.115-7.638-.222-.315-.56-.415-.87-.26zm8.279-.062c-.071.014-.21.117-.308.23l-.178.203v15.469l.194.211c.158.173.237.213.432.218.292.008.494-.094.624-.313.09-.152.097-.778.097-7.854 0-6.975-.008-7.703-.094-7.848a.774.774 0 00-.193-.222c-.127-.08-.412-.126-.574-.094zm-24.659 4.153c-.392.194-.378.041-.378 4.011 0 3.993-.017 3.822.399 4.02.264.125.545.067.77-.159l.179-.178v-7.357l-.144-.156c-.251-.27-.523-.33-.826-.181zm28.655 0c-.402.207-.378-.045-.38 4.021v3.673l.177.178c.226.226.507.284.771.158.416-.197.399-.026.399-4.019 0-3.98.015-3.822-.387-4.013-.236-.112-.359-.111-.58.002zM111.49.129a.766.766 0 00-.269.337c-.101.294-.101 28.769 0 29.063.083.241.396.471.641.471a.704.704 0 00.6-.387c.079-.166.089-1.844.089-14.616 0-15.85.027-14.681-.347-14.902-.232-.137-.477-.126-.714.034zm4.185 1.297a.808.808 0 00-.293.246c-.102.157-.107.682-.107 13.333v13.17l.123.165a.881.881 0 00.356.248c.213.075.256.073.464-.029a.752.752 0 00.332-.317c.096-.194.102-.947.102-13.232 0-14.1.018-13.303-.305-13.515a.707.707 0 00-.672-.07zm8.266-.043c-.068.013-.2.104-.293.201l-.17.177v26.473l.167.174a.688.688 0 001.075-.098c.102-.15.106-.717.106-13.313 0-12.595-.004-13.163-.106-13.312-.108-.16-.434-.349-.577-.334a2.792 2.792 0 00-.202.032zM107.48 5.527a.742.742 0 00-.279.23c-.092.142-.099.782-.099 9.261v9.11l.165.177a.66.66 0 00.798.154c.414-.196.384.53.384-9.462 0-9.965.028-9.266-.372-9.456-.241-.115-.36-.117-.597-.014zm12.278 1.368a.788.788 0 00-.308.308c-.096.192-.102.686-.102 7.794s.006 7.603.102 7.795c.129.258.449.426.712.373.275-.055.519-.326.562-.623.019-.137.027-3.624.018-7.75-.016-6.874-.026-7.513-.115-7.638-.223-.315-.559-.415-.869-.26zm8.279-.062c-.071.014-.209.117-.308.23l-.178.203v15.469l.193.211c.159.173.238.213.433.218.292.008.494-.094.624-.313.09-.152.097-.778.097-7.854 0-6.975-.008-7.703-.094-7.848a.767.767 0 00-.193-.222c-.127-.08-.411-.126-.574-.094zm-24.659 4.153c-.392.194-.378.041-.378 4.011 0 3.993-.017 3.822.399 4.02.264.125.545.067.771-.159l.178-.178v-7.357l-.145-.156c-.25-.27-.522-.33-.825-.181zm28.655 0c-.402.207-.378-.045-.379 4.021l-.002 3.673.178.178c.226.226.507.284.771.158.416-.197.399-.026.399-4.019 0-3.98.015-3.822-.387-4.013-.236-.112-.359-.111-.58.002zM144.49.129a.766.766 0 00-.269.337c-.101.294-.101 28.769 0 29.063.083.241.396.471.641.471a.704.704 0 00.6-.387c.079-.166.089-1.844.089-14.616 0-15.85.027-14.681-.347-14.902-.232-.137-.477-.126-.714.034zm4.185 1.297a.808.808 0 00-.293.246c-.102.157-.107.682-.107 13.333v13.17l.123.165a.881.881 0 00.356.248c.213.075.256.073.464-.029a.752.752 0 00.332-.317c.096-.194.102-.947.102-13.232 0-14.1.018-13.303-.305-13.515a.707.707 0 00-.672-.07zm8.266-.043c-.068.013-.2.104-.293.201l-.17.177v26.473l.167.174a.688.688 0 001.075-.098c.102-.15.106-.717.106-13.313 0-12.595-.004-13.163-.106-13.312-.108-.16-.434-.349-.577-.334a2.792 2.792 0 00-.202.032zM140.48 5.527a.742.742 0 00-.279.23c-.092.142-.099.782-.099 9.261v9.11l.165.177a.66.66 0 00.798.154c.414-.196.384.53.384-9.462 0-9.965.028-9.266-.372-9.456-.241-.115-.36-.117-.597-.014zm12.278 1.368a.788.788 0 00-.308.308c-.096.192-.102.686-.102 7.794s.006 7.603.102 7.795c.129.258.449.426.712.373.275-.055.519-.326.562-.623.019-.137.027-3.624.018-7.75-.016-6.874-.026-7.513-.115-7.638-.223-.315-.559-.415-.869-.26zm8.279-.062c-.071.014-.209.117-.308.23l-.178.203v15.469l.193.211c.159.173.238.213.433.218.292.008.494-.094.624-.313.09-.152.097-.778.097-7.854 0-6.975-.008-7.703-.094-7.848a.767.767 0 00-.193-.222c-.127-.08-.411-.126-.574-.094zm-24.659 4.153c-.392.194-.378.041-.378 4.011 0 3.993-.017 3.822.399 4.02.264.125.545.067.771-.159l.178-.178v-7.357l-.145-.156c-.25-.27-.522-.33-.825-.181zm28.655 0c-.402.207-.378-.045-.379 4.021l-.002 3.673.178.178c.226.226.507.284.771.158.416-.197.399-.026.399-4.019 0-3.98.015-3.822-.387-4.013-.236-.112-.359-.111-.58.002z"/><path d="M144.49.129a.766.766 0 00-.269.337c-.101.294-.101 28.769 0 29.063.083.241.396.471.641.471a.704.704 0 00.6-.387c.079-.166.089-1.844.089-14.616 0-15.85.027-14.681-.347-14.902-.232-.137-.477-.126-.714.034zm4.185 1.297a.808.808 0 00-.293.246c-.102.157-.107.682-.107 13.333v13.17l.123.165a.881.881 0 00.356.248c.213.075.256.073.464-.029a.752.752 0 00.332-.317c.096-.194.102-.947.102-13.232 0-14.1.018-13.303-.305-13.515a.707.707 0 00-.672-.07zm8.266-.043c-.068.013-.2.104-.293.201l-.17.177v26.473l.167.174a.688.688 0 001.075-.098c.102-.15.106-.717.106-13.313 0-12.595-.004-13.163-.106-13.312-.108-.16-.434-.349-.577-.334a2.792 2.792 0 00-.202.032zM140.48 5.527a.742.742 0 00-.279.23c-.092.142-.099.782-.099 9.261v9.11l.165.177a.66.66 0 00.798.154c.414-.196.384.53.384-9.462 0-9.965.028-9.266-.372-9.456-.241-.115-.36-.117-.597-.014zm12.278 1.368a.788.788 0 00-.308.308c-.096.192-.102.686-.102 7.794s.006 7.603.102 7.795c.129.258.449.426.712.373.275-.055.519-.326.562-.623.019-.137.027-3.624.018-7.75-.016-6.874-.026-7.513-.115-7.638-.223-.315-.559-.415-.869-.26zm8.279-.062c-.071.014-.209.117-.308.23l-.178.203v15.469l.193.211c.159.173.238.213.433.218.292.008.494-.094.624-.313.09-.152.097-.778.097-7.854 0-6.975-.008-7.703-.094-7.848a.767.767 0 00-.193-.222c-.127-.08-.411-.126-.574-.094zm-24.659 4.153c-.392.194-.378.041-.378 4.011 0 3.993-.017 3.822.399 4.02.264.125.545.067.771-.159l.178-.178v-7.357l-.145-.156c-.25-.27-.522-.33-.825-.181zm28.655 0c-.402.207-.378-.045-.379 4.021l-.002 3.673.178.178c.226.226.507.284.771.158.416-.197.399-.026.399-4.019 0-3.98.015-3.822-.387-4.013-.236-.112-.359-.111-.58.002zM177.49.129a.766.766 0 00-.269.337c-.101.294-.101 28.769 0 29.063.083.241.396.471.641.471a.704.704 0 00.6-.387c.079-.166.089-1.844.089-14.616 0-15.85.027-14.681-.347-14.902-.232-.137-.477-.126-.714.034zm4.185 1.297a.808.808 0 00-.293.246c-.102.157-.107.682-.107 13.333v13.17l.123.165a.881.881 0 00.356.248c.213.075.256.073.464-.029a.752.752 0 00.332-.317c.096-.194.102-.947.102-13.232 0-14.1.018-13.303-.305-13.515a.707.707 0 00-.672-.07zm8.266-.043c-.068.013-.2.104-.293.201l-.17.177v26.473l.167.174a.688.688 0 001.075-.098c.102-.15.106-.717.106-13.313 0-12.595-.004-13.163-.106-13.312-.108-.16-.434-.349-.577-.334a2.792 2.792 0 00-.202.032zM173.48 5.527a.742.742 0 00-.279.23c-.092.142-.099.782-.099 9.261v9.11l.165.177a.66.66 0 00.798.154c.414-.196.384.53.384-9.462 0-9.965.028-9.266-.372-9.456-.241-.115-.36-.117-.597-.014zm12.278 1.368a.788.788 0 00-.308.308c-.096.192-.102.686-.102 7.794s.006 7.603.102 7.795c.129.258.449.426.712.373.275-.055.519-.326.562-.623.019-.137.027-3.624.018-7.75-.016-6.874-.026-7.513-.115-7.638-.223-.315-.559-.415-.869-.26zm8.279-.062c-.071.014-.209.117-.308.23l-.178.203v15.469l.193.211c.159.173.238.213.433.218.292.008.494-.094.624-.313.09-.152.097-.778.097-7.854 0-6.975-.008-7.703-.094-7.848a.767.767 0 00-.193-.222c-.127-.08-.411-.126-.574-.094zm-24.659 4.153c-.392.194-.378.041-.378 4.011 0 3.993-.017 3.822.399 4.02.264.125.545.067.771-.159l.178-.178v-7.357l-.145-.156c-.25-.27-.522-.33-.825-.181zm28.655 0c-.402.207-.378-.045-.379 4.021l-.002 3.673.178.178c.226.226.507.284.771.158.416-.197.399-.026.399-4.019 0-3.98.015-3.822-.387-4.013-.236-.112-.359-.111-.58.002zM210.49.129a.766.766 0 00-.269.337c-.101.294-.101 28.769 0 29.063.083.241.396.471.641.471a.704.704 0 00.6-.387c.079-.166.089-1.844.089-14.616 0-15.85.027-14.681-.347-14.902-.232-.137-.477-.126-.714.034zm4.185 1.297a.808.808 0 00-.293.246c-.102.157-.107.682-.107 13.333v13.17l.123.165a.881.881 0 00.356.248c.213.075.256.073.464-.029a.752.752 0 00.332-.317c.096-.194.102-.947.102-13.232 0-14.1.018-13.303-.305-13.515a.707.707 0 00-.672-.07zm8.266-.043c-.068.013-.2.104-.293.201l-.17.177v26.473l.167.174a.688.688 0 001.075-.098c.102-.15.106-.717.106-13.313 0-12.595-.004-13.163-.106-13.312-.108-.16-.434-.349-.577-.334a2.792 2.792 0 00-.202.032zM206.48 5.527a.742.742 0 00-.279.23c-.092.142-.099.782-.099 9.261v9.11l.165.177a.66.66 0 00.798.154c.414-.196.384.53.384-9.462 0-9.965.028-9.266-.372-9.456-.241-.115-.36-.117-.597-.014zm12.278 1.368a.788.788 0 00-.308.308c-.096.192-.102.686-.102 7.794s.006 7.603.102 7.795c.129.258.449.426.712.373.275-.055.519-.326.562-.623.019-.137.027-3.624.018-7.75-.016-6.874-.026-7.513-.115-7.638-.223-.315-.559-.415-.869-.26zm8.279-.062c-.071.014-.209.117-.308.23l-.178.203v15.469l.193.211c.159.173.238.213.433.218.292.008.494-.094.624-.313.09-.152.097-.778.097-7.854 0-6.975-.008-7.703-.094-7.848a.767.767 0 00-.193-.222c-.127-.08-.411-.126-.574-.094zm-24.659 4.153c-.392.194-.378.041-.378 4.011 0 3.993-.017 3.822.399 4.02.264.125.545.067.771-.159l.178-.178v-7.357l-.145-.156c-.25-.27-.522-.33-.825-.181zm28.655 0c-.402.207-.378-.045-.379 4.021l-.002 3.673.178.178c.226.226.507.284.771.158.416-.197.399-.026.399-4.019 0-3.98.015-3.822-.387-4.013-.236-.112-.359-.111-.58.002z"/><path d="M210.49.129a.766.766 0 00-.269.337c-.101.294-.101 28.769 0 29.063.083.241.396.471.641.471a.704.704 0 00.6-.387c.079-.166.089-1.844.089-14.616 0-15.85.027-14.681-.347-14.902-.232-.137-.477-.126-.714.034zm4.185 1.297a.808.808 0 00-.293.246c-.102.157-.107.682-.107 13.333v13.17l.123.165a.881.881 0 00.356.248c.213.075.256.073.464-.029a.752.752 0 00.332-.317c.096-.194.102-.947.102-13.232 0-14.1.018-13.303-.305-13.515a.707.707 0 00-.672-.07zm8.266-.043c-.068.013-.2.104-.293.201l-.17.177v26.473l.167.174a.688.688 0 001.075-.098c.102-.15.106-.717.106-13.313 0-12.595-.004-13.163-.106-13.312-.108-.16-.434-.349-.577-.334a2.792 2.792 0 00-.202.032zM206.48 5.527a.742.742 0 00-.279.23c-.092.142-.099.782-.099 9.261v9.11l.165.177a.66.66 0 00.798.154c.414-.196.384.53.384-9.462 0-9.965.028-9.266-.372-9.456-.241-.115-.36-.117-.597-.014zm12.278 1.368a.788.788 0 00-.308.308c-.096.192-.102.686-.102 7.794s.006 7.603.102 7.795c.129.258.449.426.712.373.275-.055.519-.326.562-.623.019-.137.027-3.624.018-7.75-.016-6.874-.026-7.513-.115-7.638-.223-.315-.559-.415-.869-.26zm8.279-.062c-.071.014-.209.117-.308.23l-.178.203v15.469l.193.211c.159.173.238.213.433.218.292.008.494-.094.624-.313.09-.152.097-.778.097-7.854 0-6.975-.008-7.703-.094-7.848a.767.767 0 00-.193-.222c-.127-.08-.411-.126-.574-.094zm-24.659 4.153c-.392.194-.378.041-.378 4.011 0 3.993-.017 3.822.399 4.02.264.125.545.067.771-.159l.178-.178v-7.357l-.145-.156c-.25-.27-.522-.33-.825-.181zm28.655 0c-.402.207-.378-.045-.379 4.021l-.002 3.673.178.178c.226.226.507.284.771.158.416-.197.399-.026.399-4.019 0-3.98.015-3.822-.387-4.013-.236-.112-.359-.111-.58.002z"/></g><defs><filter id="filter0_d_4_37" x="0" y="0" width="236" height="38" filterUnits="userSpaceOnUse" color-interpolation-filters="sRGB"><feFlood flood-opacity="0" result="BackgroundImageFix"/><feColorMatrix in="SourceAlpha" values="0 0 0 0 0 0 0 0 0 0 0 0 0 0 0 0 0 0 127 0" result="hardAlpha"/><feOffset dy="4"/><feGaussianBlur stdDeviation="2"/><feComposite in2="hardAlpha" operator="out"/><feColorMatrix values="0 0 0 0 0 0 0 0 0 0 0 0 0 0 0 0 0 0 0.25 0"/><feBlend in2="BackgroundImageFix" result="effect1_dropShadow_4_37"/><feBlend in="SourceGraphic" in2="effect1_dropShadow_4_37" result="shape"/></filter></defs></svg>