<svg width="30" height="30" fill="none" xmlns="http://www.w3.org/2000/svg"><path fill-rule="evenodd" clip-rule="evenodd" d="M13.873.017l-.763.088C8.467.635 4.178 3.543 1.823 7.758.963 9.297.34 11.209.076 13.12c-.101.73-.101 3.022 0 3.753.619 4.468 3.003 8.263 6.726 10.707 4.555 2.99 10.524 3.228 15.344.61.736-.4.903-.533 1.05-.837a1.168 1.168 0 00-.398-1.477c-.21-.148-.304-.175-.611-.176-.226 0-.43.035-.54.094-.984.531-1.383.727-1.936.949a12.604 12.604 0 01-5.93.857c-5.013-.496-9.258-3.892-10.816-8.653-.868-2.65-.868-5.253 0-7.901a12.597 12.597 0 018.086-8.072c2.635-.861 5.246-.86 7.89.005 2.867.939 5.239 2.82 6.871 5.451.952 1.535 1.601 3.487 1.79 5.385.267 2.702-.41 5.515-1.91 7.925-.33.53-.347.576-.348.939 0 .457.15.743.516.986.327.216.9.225 1.231.02.352-.22 1.07-1.385 1.623-2.634a14.973 14.973 0 00-4.309-17.742C22.271 1.589 19.898.557 17.1.13c-.585-.09-2.77-.166-3.227-.113zM11.82 9.226c-.844.226-1.51.9-1.73 1.75-.135.52-.135 7.517 0 8.04.187.728.797 1.413 1.491 1.675.481.181 1.12.207 1.57.065.225-.072 1.55-.802 3.49-1.925 2.482-1.435 3.192-1.872 3.439-2.117.938-.931.938-2.504 0-3.436-.247-.245-.957-.682-3.438-2.117-1.942-1.123-3.262-1.85-3.482-1.919a2.44 2.44 0 00-1.34-.016zm3.584 3.929c1.594.922 2.937 1.714 2.984 1.759.075.072.075.092 0 .164-.181.173-5.893 3.439-5.965 3.411-.062-.024-.077-.705-.077-3.481 0-1.899.018-3.47.04-3.491a.136.136 0 01.079-.04c.022 0 1.345.755 2.939 1.678z" fill="#06FF79"/></svg>