<svg width="128" height="130" fill="none" xmlns="http://www.w3.org/2000/svg"><g filter="url(#filter0_d_579_1975)"><path fill-rule="evenodd" clip-rule="evenodd" d="M60.324 15.24c-11.996 1.338-19.794 8.264-22.538 20.014a66.437 66.437 0 00-.824 4.356c-.428 2.867-.654 12.792-.367 16.151.207 2.433.201 2.483-.558 5.026-1.474 4.941-2.477 10.628-2.193 12.443.054.344.153 1.043.22 1.554l.121.93-3.771 3.244c-9.356 8.047-13.283 13.226-15.004 19.79-.527 2.008-.535 2.302-.086 3.169.384.744 1.488 1.312 2.547 1.312.373 0 .676.075.674.168-.002.092-.205 1.273-.451 2.624-.603 3.303-.81 6.81-.456 7.666.595 1.437 2.71 1.776 3.805.61.436-.465.55-.965.804-3.517.286-2.869.818-5.945 1.205-6.964.182-.479.24-.486 2.724-.315 3.226.223 8.222.924 11.808 1.656 4.127.843 8.849 2.268 16.273 4.912 7.273 2.589 10.822 3.636 14.892 4.39 2.322.431 3.41.496 8.154.484 9.975-.024 16.661-1.113 21.826-3.555 2.689-1.272 4.291-2.35 6.247-4.204.88-.835 1.646-1.438 1.702-1.34.183.32.389 1.75.698 4.855.261 2.631.375 3.131.812 3.598 1.051 1.118 3.154.845 3.762-.489.658-1.443-.122-7.899-1.441-11.935l-.553-1.692.58-1.312c.852-1.926 1.664-4.53 1.664-5.336 0-.939-.466-1.552-1.857-2.442-7.157-4.581-13.194-14.928-15.564-26.674-.985-4.88-1.331-8.36-1.561-15.692-.225-7.155-.578-10.342-1.57-14.17-2.125-8.19-6.337-13.607-13.052-16.788-4.807-2.277-12.087-3.262-18.672-2.527zm8.021 4.686c10.918 1.023 17.35 6.765 19.545 17.445.605 2.943.809 5.393 1.033 12.39.274 8.568.793 12.89 2.233 18.621 1.313 5.222 3.623 10.938 5.988 14.819l.931 1.528-.693 1.664c-2.531 6.08-6.948 9.63-14.46 11.622-1.186.315-2.332.665-2.545.778-.477.252-1.064 1.344-1.064 1.979 0 .822.674 1.811 1.457 2.139.66.275.97.271 2.38-.025 2.188-.46 5.864-1.707 7.595-2.576 3.787-1.902 7.192-5.045 9.277-8.566.639-1.079 1.202-2.077 1.25-2.218.049-.142 1.088.697 2.31 1.864 1.222 1.167 2.593 2.373 3.047 2.68.965.654.975.574-.416 3.542-3.291 7.025-8.713 10.59-18.206 11.971-2.977.434-11.87.869-13.944.683-4.745-.425-8.44-1.31-15.014-3.594-9.645-3.35-11.393-3.931-14.395-4.782-6.772-1.92-16.312-3.352-22.32-3.352-1.323 0-1.775-.075-1.775-.295 0-.553 1.956-4.279 3.073-5.855 1.935-2.728 5.301-6.052 10.805-10.672l1.256-1.054 1.069 2.153c3.725 7.505 10.166 12.004 19.206 13.415 2.717.423 8.515.47 11.617.09 5.323-.649 11.608-2.192 16.971-4.167 1.537-.566 3.04-1.222 3.339-1.458 1.362-1.07 1.135-3.184-.422-3.926-.93-.444-.816-.47-5.702 1.269-6.747 2.4-12.44 3.54-18.654 3.732-7.176.223-11.943-.968-16.33-4.078-4.001-2.838-7.182-8.43-8.144-14.318-.227-1.393-.122-4.819.162-5.279.061-.098.45.528.864 1.392 2.01 4.194 5.06 7.272 9.1 9.183 1.626.769 2.25.813 3.21.227 1.028-.626 1.357-1.773.823-2.866-.331-.677-.768-1.025-2.307-1.834-1.346-.707-2.395-1.488-3.6-2.68-1.44-1.425-1.874-2.043-2.826-4.028-1.907-3.975-2.597-7.698-2.856-15.413-.384-11.411 1.225-19.3 4.97-24.369 4.367-5.912 12.317-8.703 22.162-7.781zm-6.68 4.815c-7.593 1.469-13.545 6.702-15.293 13.444-.505 1.951-.509 18.3-.003 20.266 1.453 5.654 6.242 10.683 12.023 12.625 9.592 3.223 20.057-.947 24.14-9.618 1.436-3.051 1.473-3.38 1.473-13.139 0-9.455-.056-10.03-1.227-12.678-1.185-2.68-3.608-5.633-6.053-7.377-1.645-1.174-4.582-2.585-6.46-3.103-1.323-.366-7.36-.66-8.6-.42zm7.93 5.226a14.79 14.79 0 015.8 3.37c1.237 1.157 2.801 3.18 2.801 3.622 0 .08-.793-.144-1.764-.498-2.624-.958-6.774-1.971-9.238-2.257-3.478-.403-7.763.283-13.07 2.092-1.259.43-2.29.721-2.29.649 0-.43 1.583-2.468 2.802-3.608 2.136-1.998 4.73-3.297 7.646-3.83 1.748-.32 5.557-.08 7.313.46zm1.506 9.792c1.442.38 3.855 1.18 5.361 1.776l2.74 1.085.068 6.682c.078 7.499-.017 8.303-1.26 10.703-1.67 3.227-5.266 5.948-9.197 6.962-1.928.498-5.666.498-7.595 0-3.931-1.014-7.526-3.735-9.197-6.962-1.242-2.399-1.337-3.206-1.26-10.683l.069-6.663 1.463-.624c2.327-.993 6.054-2.198 8.303-2.685 3.091-.67 6.988-.518 10.505.41zM82.48 68.12c-.329.348-1.05 1.474-1.603 2.502-1.735 3.229-5.108 6.37-9.459 8.812-1.846 1.035-2.152 2.96-.66 4.134.919.723 1.97.582 3.91-.524 4.727-2.694 8.096-5.985 10.57-10.328 1.228-2.154 1.425-3.032.9-4.008-.737-1.368-2.633-1.673-3.659-.588z" fill="#06FF79"/></g><defs><filter id="filter0_d_579_1975" x="0" y="0" width="127.6" height="130" filterUnits="userSpaceOnUse" color-interpolation-filters="sRGB"><feFlood flood-opacity="0" result="BackgroundImageFix"/><feColorMatrix in="SourceAlpha" values="0 0 0 0 0 0 0 0 0 0 0 0 0 0 0 0 0 0 127 0" result="hardAlpha"/><feOffset/><feGaussianBlur stdDeviation="7.5"/><feComposite in2="hardAlpha" operator="out"/><feColorMatrix values="0 0 0 0 0.0463889 0 0 0 0 0.695833 0 0 0 0 0.346333 0 0 0 0.8 0"/><feBlend in2="BackgroundImageFix" result="effect1_dropShadow_579_1975"/><feBlend in="SourceGraphic" in2="effect1_dropShadow_579_1975" result="shape"/></filter></defs></svg>