<svg width="103" height="130" fill="none" xmlns="http://www.w3.org/2000/svg"><g filter="url(#filter0_d_579_1216)"><path fill-rule="evenodd" clip-rule="evenodd" d="M33.785 22.617v7.617H15.046V40h3.909c4.748 0 5.627.19 6.88 1.478 1.516 1.56 1.441.334 1.436 23.313-.003 11.555-.083 20.757-.184 21.19-.205.874-.678 1.57-1.465 2.151-.501.371-.866.408-4.63.466l-4.086.062-.84 5.024c-.46 2.762-.89 5.217-.952 5.455L15 99.57l8.948.003c4.922.001 9.149.056 9.393.12l.444.118V115H43.252V99.72l.444.118c.245.065 1.887.119 3.65.12l3.205.003V115h9.266l.051-7.666.052-7.665 3.03-.238C79.01 98.173 86.454 92.49 87.845 80.43c.454-3.936-.112-8.23-1.433-10.857-1.804-3.59-5.445-6.389-10.162-7.814l-1.68-.507 1.326-.786c2.104-1.248 4.031-3.318 5.094-5.472 1.147-2.324 1.515-4.012 1.513-6.927-.001-2.68-.232-4.299-.886-6.23-2.173-6.415-8.167-9.963-19.231-11.384l-2.466-.316-.052-7.569L59.817 15H50.55v14.593l-1.213.125c-.666.07-2.353.126-3.748.126h-2.535V15h-9.27v7.617zm19.311 18.179c4.144.384 7.536 1.51 9.338 3.098 3.22 2.838 3.563 8.19.714 11.125-2.821 2.908-7.666 4.11-16.592 4.119l-3.303.003v-9.147c0-5.032.059-9.206.131-9.278.21-.207 7.24-.15 9.712.08zm4.716 27.994c3.592.62 7.358 2.103 8.886 3.5 1.297 1.184 2.397 3.34 2.674 5.234.326 2.24-.892 5.522-2.602 7.014-1.164 1.014-3.984 2.363-6.061 2.897-3.46.89-9.266 1.37-14.942 1.236l-2.515-.06V78.596c0-5.508.067-10.083.148-10.166.281-.286 12.424.017 14.412.36z" fill="#06FF79"/></g><defs><filter id="filter0_d_579_1216" x="0" y="0" width="103" height="130" filterUnits="userSpaceOnUse" color-interpolation-filters="sRGB"><feFlood flood-opacity="0" result="BackgroundImageFix"/><feColorMatrix in="SourceAlpha" values="0 0 0 0 0 0 0 0 0 0 0 0 0 0 0 0 0 0 127 0" result="hardAlpha"/><feOffset/><feGaussianBlur stdDeviation="7.5"/><feComposite in2="hardAlpha" operator="out"/><feColorMatrix values="0 0 0 0 0.0463889 0 0 0 0 0.695833 0 0 0 0 0.346333 0 0 0 0.8 0"/><feBlend in2="BackgroundImageFix" result="effect1_dropShadow_579_1216"/><feBlend in="SourceGraphic" in2="effect1_dropShadow_579_1216" result="shape"/></filter></defs></svg>