<svg width="116" height="130" fill="none" xmlns="http://www.w3.org/2000/svg"><g filter="url(#filter0_d_585_2068)"><path fill-rule="evenodd" clip-rule="evenodd" d="M53.467 15.295c-8.952 1.407-16.745 6.957-20.883 14.873-1.313 2.511-2.082 4.673-2.71 7.618-.427 2.005-.496 3.041-.493 7.45.003 4.377.075 5.46.497 7.451 1.207 5.703 3.658 10.338 7.602 14.381 1.674 1.716 4.051 3.599 5.8 4.592l.965.549.002 2.303.001 2.303-4.267.119c-5.012.14-7.345.632-10.846 2.291-3.758 1.78-6.874 4.275-9.261 7.416-1.578 2.076-3.501 6.066-4.234 8.784-.609 2.26-.613 2.331-.627 10.181L15 113.511l.744.744.744.745h82.379l.744-.745.744-.744-.013-7.905c-.014-7.85-.018-7.92-.627-10.18-.733-2.72-2.656-6.71-4.234-8.785-3.278-4.314-8.251-7.612-13.563-8.995-1.925-.502-2.932-.612-6.544-.712l-4.267-.119v-4.617l.847-.45c1.51-.803 4.235-2.96 5.926-4.691 3.943-4.037 6.389-8.664 7.597-14.37.422-1.99.494-3.075.497-7.45.003-4.42-.065-5.444-.496-7.467-1.49-6.99-5.012-12.615-10.61-16.946-2.34-1.81-6.629-4.005-9.224-4.722-3.973-1.097-8.448-1.393-12.177-.807zm7.958 5.478c7.568 1.32 13.737 6.022 16.978 12.942.822 1.756 1.704 4.691 1.853 6.172l.07.683H35.03l.066-.682c.249-2.594 1.876-6.762 3.697-9.474 1.2-1.786 4.221-4.81 5.931-5.938 5.169-3.408 10.992-4.699 16.701-3.703zm19.12 27.48c-.294 3.977-1.34 7.535-3.073 10.453-3.462 5.828-8.868 9.675-15.475 11.013-2.807.57-7.84.364-10.465-.426-6.02-1.812-10.5-5.287-13.649-10.587-1.733-2.918-2.78-6.476-3.073-10.454l-.156-2.105h46.047l-.156 2.105zm-28.252 26.82c3.756.775 9.914.503 13.361-.591.508-.162.508-.16.392 2.083-.163 3.109-.743 4.56-2.544 6.362-1.777 1.776-3.368 2.444-5.824 2.444-2.182 0-3.896-.643-5.458-2.048-2.074-1.864-2.954-4.039-2.96-7.317-.004-1.588.018-1.659.473-1.514.262.083 1.414.344 2.56.58zm-6.347 8.574c1.36 2.642 4.626 5.29 7.796 6.318l1.185.385.066 6.688.067 6.687.744.744c.64.64.902.744 1.874.744.972 0 1.233-.104 1.873-.744l.744-.744.067-6.687.066-6.688 1.186-.385c3.17-1.029 6.435-3.676 7.795-6.318l.673-1.308h3.642c4.082.002 5.82.221 8.308 1.05 2.868.953 4.889 2.241 7.284 4.643 2.396 2.403 3.695 4.44 4.64 7.28.866 2.604 1.047 4.241 1.048 9.502l.002 4.837H20.348l.003-4.837c.002-5.26.182-6.898 1.049-9.503.954-2.868 2.242-4.888 4.643-7.283 2.412-2.405 4.44-3.695 7.317-4.653 2.498-.831 3.69-.981 8.043-1.01l3.87-.026.673 1.308z" fill="#06FF79"/></g><defs><filter id="filter0_d_585_2068" x="0" y="0" width="115.355" height="130" filterUnits="userSpaceOnUse" color-interpolation-filters="sRGB"><feFlood flood-opacity="0" result="BackgroundImageFix"/><feColorMatrix in="SourceAlpha" values="0 0 0 0 0 0 0 0 0 0 0 0 0 0 0 0 0 0 127 0" result="hardAlpha"/><feOffset/><feGaussianBlur stdDeviation="7.5"/><feComposite in2="hardAlpha" operator="out"/><feColorMatrix values="0 0 0 0 0.0463889 0 0 0 0 0.695833 0 0 0 0 0.346333 0 0 0 0.8 0"/><feBlend in2="BackgroundImageFix" result="effect1_dropShadow_585_2068"/><feBlend in="SourceGraphic" in2="effect1_dropShadow_585_2068" result="shape"/></filter></defs></svg>