<svg width="30" height="30" fill="none" xmlns="http://www.w3.org/2000/svg"><path fill-rule="evenodd" clip-rule="evenodd" d="M8.49.129a.767.767 0 00-.269.337c-.101.294-.101 28.769 0 29.063.083.241.396.471.641.471.24 0 .494-.165.6-.387.079-.166.089-1.844.089-14.616C9.55-.853 9.578.316 9.204.095c-.232-.137-.477-.126-.714.034zm4.185 1.297a.805.805 0 00-.293.246c-.102.157-.107.682-.107 13.333v13.17l.123.165a.881.881 0 00.356.248c.213.075.256.073.464-.029a.747.747 0 00.332-.317c.096-.194.102-.947.102-13.232 0-14.1.018-13.303-.305-13.515a.706.706 0 00-.672-.07zm8.266-.043c-.068.013-.2.104-.293.201l-.17.177v26.473l.167.174a.688.688 0 001.075-.098c.102-.15.106-.717.106-13.313 0-12.595-.004-13.163-.106-13.312-.108-.16-.434-.349-.576-.334a2.761 2.761 0 00-.203.032zM4.48 5.527a.746.746 0 00-.279.23c-.092.142-.1.782-.1 9.261v9.11l.166.177a.66.66 0 00.798.154c.414-.196.384.53.384-9.462 0-9.965.028-9.266-.372-9.456-.241-.115-.36-.117-.597-.014zm12.278 1.368a.784.784 0 00-.308.308c-.096.192-.102.686-.102 7.794s.006 7.603.102 7.795c.13.258.449.426.712.373.276-.055.52-.326.562-.623.02-.137.027-3.624.018-7.75-.016-6.874-.026-7.513-.115-7.638-.223-.315-.56-.415-.87-.26zm8.279-.062c-.071.014-.21.117-.308.23l-.178.203v15.469l.194.211c.158.173.237.213.432.218.292.008.494-.094.624-.313.09-.152.097-.778.097-7.854 0-6.975-.008-7.703-.094-7.848a.774.774 0 00-.193-.222c-.127-.08-.412-.126-.574-.094zM.378 10.986c-.392.194-.378.041-.378 4.011 0 3.993-.017 3.822.399 4.02.264.125.545.067.77-.159l.179-.178v-7.357l-.145-.156c-.25-.27-.522-.33-.825-.181zm28.655 0c-.402.207-.378-.045-.38 4.021v3.673l.177.178c.226.226.507.284.771.158.416-.197.399-.026.399-4.019 0-3.98.015-3.822-.387-4.013-.236-.112-.359-.111-.58.002z" fill="#07FA77"/></svg>