<svg width="110" height="110" fill="none" xmlns="http://www.w3.org/2000/svg"><g filter="url(#filter0_d_587_2084)"><path fill-rule="evenodd" clip-rule="evenodd" d="M51.502 15.227c-4.388.827-8.393 2.98-11.429 6.146-2.426 2.528-3.87 5.074-4.756 8.384-.437 1.634-.481 2.093-.487 5.116-.006 2.997.042 3.539.494 5.564.904 4.04.84 6.822-.261 11.307-1.007 4.102-.91 8.053.274 11.203l.416 1.107-.421.8c-.798 1.516-1.167 3.021-1.165 4.749.001.888.086 1.897.189 2.242.102.345.186.717.186.826 0 .127-.794.24-2.227.317-2.513.134-3.62.312-5.303.849-5.311 1.696-9.56 5.956-11.263 11.291-.597 1.873-.749 3.117-.749 6.144 0 2.783.01 2.857.44 3.287l.44.441h78.202l.459-.46.459-.459-.08-3.444c-.073-3.077-.133-3.613-.559-5.022-1.054-3.487-3.03-6.504-5.644-8.615-3.087-2.495-5.872-3.579-10.126-3.94-2.361-.201-2.472-.228-2.374-.577.335-1.198.458-3.012.28-4.125-.2-1.258-.884-3.265-1.329-3.9-.234-.335-.223-.474.105-1.295.935-2.34 1.094-3.164 1.109-5.765.01-1.892-.072-2.89-.336-4.038-.51-2.227-.446-7.043.165-12.465.533-4.732.56-5.82.204-8.176-.622-4.107-2.54-7.937-5.564-11.112-2.985-3.134-6.104-4.961-10.491-6.146-1.821-.491-6.793-.623-8.858-.234zm6.527 3.216c6.426.982 11.742 5.211 14.138 11.25 1.175 2.962 1.355 5.604.73 10.744-.197 1.629-.405 4.738-.461 6.91-.09 3.484-.058 4.218.275 6.24.657 3.98.437 6.287-.872 9.192-2.273 5.043-6.826 8.806-12.32 10.183-2.252.565-6.11.564-8.367-.002-3.4-.852-5.991-2.317-8.463-4.786-2.872-2.868-4.485-5.929-4.922-9.34-.234-1.82-.096-3.37.55-6.192.783-3.428.929-4.55.933-7.18.003-2.475-.088-3.225-.777-6.371-.494-2.258-.542-5.808-.104-7.762.708-3.16 2.004-5.542 4.231-7.777 4.087-4.103 9.747-5.977 15.43-5.11zM54.07 26.46c-2.356.242-4.813 1.537-6.9 3.637-2.114 2.126-3.678 4.796-4.832 8.248-.99 2.965-1.245 4.746-1.245 8.733 0 3.986.254 5.767 1.245 8.732 1.181 3.533 2.742 6.17 4.926 8.319 1.443 1.42 2.676 2.243 4.53 3.024 1.032.435 1.327.474 3.546.47 2.205-.005 2.53-.048 3.65-.493 6.365-2.523 10.688-10.621 10.692-20.03.004-9.623-4.549-17.955-11.004-20.137-1.622-.549-2.854-.683-4.608-.503zm2.74 3.41c2.215.47 4.518 2.216 6.083 4.61.834 1.276 1.6 2.757 1.85 3.579l.123.403H45.813l.126-.404c.069-.222.406-.969.75-1.66 2.433-4.892 6.247-7.352 10.121-6.529zm9.174 12.56c.352 1.761.48 4.76.29 6.819-.886 9.652-6.616 16.505-12.532 14.988-4.441-1.14-7.872-5.966-9.071-12.762-.346-1.958-.389-6.064-.086-8.122l.218-1.48h21.07l.111.556zM40.002 70.202c1.97 2.045 3.393 3.088 5.925 4.345 4.684 2.324 9.705 2.835 14.898 1.516 2.021-.513 4.92-1.853 6.757-3.125 1.424-.986 3.786-3.245 4.66-4.458.302-.42.61-.763.685-.763.075 0 .193.451.261 1.002.375 3-.969 5.402-4.518 8.076-3.713 2.798-7.45 4.021-11.568 3.785-2.548-.146-3.179.15-3.19 1.501-.014 1.448.888 1.858 4.117 1.87 2.509.01 4.036-.238 6.275-1.023 3.104-1.087 5.765-2.734 8.259-5.11l1.607-1.531 3 .097c3.21.104 4.29.312 6.246 1.2 2.407 1.093 5.016 3.416 6.333 5.64 1.206 2.035 1.986 5.01 1.986 7.57v.974H18.227l.006-1.211c.013-2.464.784-5.313 1.988-7.347.793-1.338 2.845-3.51 4.167-4.409 2.225-1.513 4.39-2.235 7.225-2.409l1.822-.112.576 1.148c1.056 2.107 2.501 4.127 4.23 5.91 3.166 3.267 6.62 5.178 11.182 6.188 1.496.33 6.982.57 8.354.365 1.208-.182 1.95-.94 1.804-1.845-.059-.36-.272-.82-.476-1.023-.345-.347-.588-.371-3.815-.388-3.683-.02-5.23-.232-7.626-1.047-4.013-1.367-7.504-4.207-9.778-7.955-.36-.593-.654-1.118-.654-1.167 0-.049.242-.137.537-.196.57-.114 1.254-.998 1.255-1.62 0-.186-.24-.758-.533-1.272-.733-1.281-1.145-2.985-1.03-4.255.127-1.392.276-1.584.73-.94.203.287 1.018 1.195 1.811 2.019zm35.661 9.36c-.82.331-1.215 1.523-.777 2.342.32.6.933.79 2.872.897 1.618.089 2.065.186 3.097.67 1.5.702 2.89 2.058 3.72 3.63.898 1.7 1.913 2.04 2.962.989.982-.983.142-3.071-2.166-5.391-1.676-1.684-3.316-2.588-5.506-3.034-1.489-.303-3.58-.354-4.202-.103z" fill="#06FF79"/></g><defs><filter id="filter0_d_587_2084" x="0" y="0" width="110" height="110" filterUnits="userSpaceOnUse" color-interpolation-filters="sRGB"><feFlood flood-opacity="0" result="BackgroundImageFix"/><feColorMatrix in="SourceAlpha" values="0 0 0 0 0 0 0 0 0 0 0 0 0 0 0 0 0 0 127 0" result="hardAlpha"/><feOffset/><feGaussianBlur stdDeviation="7.5"/><feComposite in2="hardAlpha" operator="out"/><feColorMatrix values="0 0 0 0 0.0463889 0 0 0 0 0.695833 0 0 0 0 0.346333 0 0 0 0.8 0"/><feBlend in2="BackgroundImageFix" result="effect1_dropShadow_587_2084"/><feBlend in="SourceGraphic" in2="effect1_dropShadow_587_2084" result="shape"/></filter></defs></svg>