<svg width="236" height="38" viewBox="0 0 236 38" fill="none" xmlns="http://www.w3.org/2000/svg">
<g filter="url(#filter0_d_4_37)">
<path fill-rule="evenodd" clip-rule="evenodd" d="M12.4902 0.128713C12.3764 0.205191 12.2611 0.34965 12.2211 0.465685C12.1197 0.76017 12.1197 29.2346 12.2211 29.5291C12.3041 29.7701 12.617 30 12.862 30C13.1013 30 13.3563 29.8354 13.462 29.6128C13.5406 29.447 13.5508 27.7694 13.5508 14.9974C13.5508 -0.853548 13.5781 0.315835 13.2039 0.0947813C12.9721 -0.042176 12.7269 -0.0305724 12.4902 0.128713ZM16.6753 1.42591C16.573 1.47168 16.4412 1.58262 16.3823 1.6724C16.2796 1.82922 16.2754 2.35408 16.2754 15.0052V28.1747L16.3979 28.3402C16.4653 28.4312 16.6257 28.5428 16.7544 28.5883C16.9667 28.6634 17.0096 28.6607 17.2178 28.559C17.3603 28.4895 17.4861 28.3692 17.5497 28.2419C17.6463 28.0484 17.6522 27.2947 17.6522 15.0102C17.6524 0.910313 17.6704 1.7068 17.3466 1.49459C17.1386 1.35834 16.8845 1.33232 16.6753 1.42591ZM24.9407 1.38301C24.8726 1.39637 24.7407 1.4868 24.6477 1.58397L24.4785 1.7606V14.9974V28.2342L24.6454 28.4084C24.9537 28.7302 25.4668 28.6833 25.7201 28.3101C25.8216 28.1607 25.8261 27.5931 25.8261 14.9974C25.8261 2.40167 25.8216 1.83415 25.7201 1.68471C25.6119 1.5253 25.2857 1.3363 25.1435 1.35066C25.1 1.35506 25.0087 1.36959 24.9407 1.38301ZM8.47968 5.52736C8.38148 5.57014 8.25626 5.67364 8.20136 5.75738C8.10855 5.89915 8.10163 6.53916 8.10163 15.0184V24.1272L8.26739 24.3047C8.48425 24.5369 8.78096 24.5944 9.06532 24.4595C9.47869 24.2633 9.44928 24.9884 9.44928 14.9974C9.44928 5.03222 9.47676 5.7306 9.0768 5.54078C8.83587 5.42645 8.71745 5.42375 8.47968 5.52736ZM20.7578 6.89471C20.6411 6.95349 20.5086 7.08634 20.4503 7.20308C20.3543 7.39519 20.3478 7.88945 20.3478 14.9974C20.3478 22.1054 20.3543 22.5996 20.4503 22.7917C20.5794 23.0502 20.8988 23.2177 21.1622 23.165C21.4375 23.1099 21.6814 22.8392 21.7238 22.5416C21.7433 22.4052 21.7514 18.918 21.7419 14.7923C21.7261 7.91752 21.7164 7.2795 21.6274 7.15374C21.4045 6.83892 21.0678 6.73865 20.7578 6.89471ZM29.0369 6.83335C28.966 6.84736 28.8275 6.95044 28.7293 7.06232L28.5507 7.26579V15.0003V22.7348L28.7445 22.9463C28.903 23.1193 28.9817 23.1589 29.1773 23.164C29.4693 23.1717 29.6711 23.0704 29.8006 22.8513C29.8906 22.699 29.8984 22.0728 29.8984 14.9974C29.8984 8.02231 29.8896 7.29421 29.8037 7.1487C29.7515 7.0605 29.665 6.96087 29.6113 6.92735C29.4837 6.84765 29.1995 6.80112 29.0369 6.83335ZM4.37797 10.986C3.98574 11.1797 4.0001 11.0273 4.0001 14.9974C4.0001 18.9903 3.98311 18.819 4.39871 19.0163C4.66332 19.1419 4.9438 19.0845 5.16968 18.8585L5.34774 18.6804V15.0014V11.3225L5.20349 11.1668C4.95265 10.8961 4.68078 10.8366 4.37797 10.986ZM33.0331 10.9863C32.6312 11.1932 32.655 10.9408 32.6535 15.0075L32.6523 18.6804L32.8303 18.8585C33.0562 19.0845 33.3367 19.1419 33.6013 19.0163C34.0169 18.819 33.9999 18.9903 33.9999 14.9974C33.9999 11.0166 34.0152 11.175 33.6128 10.984C33.3769 10.872 33.2542 10.8726 33.0331 10.9863Z" fill="#07FA77"/>
<path fill-rule="evenodd" clip-rule="evenodd" d="M12.4902 0.128713C12.3764 0.205191 12.2611 0.34965 12.2211 0.465685C12.1197 0.76017 12.1197 29.2346 12.2211 29.5291C12.3041 29.7701 12.617 30 12.862 30C13.1013 30 13.3563 29.8354 13.462 29.6128C13.5406 29.447 13.5508 27.7694 13.5508 14.9974C13.5508 -0.853548 13.5781 0.315835 13.2039 0.0947813C12.9721 -0.042176 12.7269 -0.0305724 12.4902 0.128713ZM16.6753 1.42591C16.573 1.47168 16.4412 1.58262 16.3823 1.6724C16.2796 1.82922 16.2754 2.35408 16.2754 15.0052V28.1747L16.3979 28.3402C16.4653 28.4312 16.6257 28.5428 16.7544 28.5883C16.9667 28.6634 17.0096 28.6607 17.2178 28.559C17.3603 28.4895 17.4861 28.3692 17.5497 28.2419C17.6463 28.0484 17.6522 27.2947 17.6522 15.0102C17.6524 0.910313 17.6704 1.7068 17.3466 1.49459C17.1386 1.35834 16.8845 1.33232 16.6753 1.42591ZM24.9407 1.38301C24.8726 1.39637 24.7407 1.4868 24.6477 1.58397L24.4785 1.7606V14.9974V28.2342L24.6454 28.4084C24.9537 28.7302 25.4668 28.6833 25.7201 28.3101C25.8216 28.1607 25.8261 27.5931 25.8261 14.9974C25.8261 2.40167 25.8216 1.83415 25.7201 1.68471C25.6119 1.5253 25.2857 1.3363 25.1435 1.35066C25.1 1.35506 25.0087 1.36959 24.9407 1.38301ZM8.47968 5.52736C8.38148 5.57014 8.25626 5.67364 8.20136 5.75738C8.10855 5.89915 8.10163 6.53916 8.10163 15.0184V24.1272L8.26739 24.3047C8.48425 24.5369 8.78096 24.5944 9.06532 24.4595C9.47869 24.2633 9.44928 24.9884 9.44928 14.9974C9.44928 5.03222 9.47676 5.7306 9.0768 5.54078C8.83587 5.42645 8.71745 5.42375 8.47968 5.52736ZM20.7578 6.89471C20.6411 6.95349 20.5086 7.08634 20.4503 7.20308C20.3543 7.39519 20.3478 7.88945 20.3478 14.9974C20.3478 22.1054 20.3543 22.5996 20.4503 22.7917C20.5794 23.0502 20.8988 23.2177 21.1622 23.165C21.4375 23.1099 21.6814 22.8392 21.7238 22.5416C21.7433 22.4052 21.7514 18.918 21.7419 14.7923C21.7261 7.91752 21.7164 7.2795 21.6274 7.15374C21.4045 6.83892 21.0678 6.73865 20.7578 6.89471ZM29.0369 6.83335C28.966 6.84736 28.8275 6.95044 28.7293 7.06232L28.5507 7.26579V15.0003V22.7348L28.7445 22.9463C28.903 23.1193 28.9817 23.1589 29.1773 23.164C29.4693 23.1717 29.6711 23.0704 29.8006 22.8513C29.8906 22.699 29.8984 22.0728 29.8984 14.9974C29.8984 8.02231 29.8896 7.29421 29.8037 7.1487C29.7515 7.0605 29.665 6.96087 29.6113 6.92735C29.4837 6.84765 29.1995 6.80112 29.0369 6.83335ZM4.37797 10.986C3.98574 11.1797 4.0001 11.0273 4.0001 14.9974C4.0001 18.9903 3.98311 18.819 4.39871 19.0163C4.66332 19.1419 4.9438 19.0845 5.16968 18.8585L5.34774 18.6804V15.0014V11.3225L5.20349 11.1668C4.95265 10.8961 4.68078 10.8366 4.37797 10.986ZM33.0331 10.9863C32.6312 11.1932 32.655 10.9408 32.6535 15.0075L32.6523 18.6804L32.8303 18.8585C33.0562 19.0845 33.3367 19.1419 33.6013 19.0163C34.0169 18.819 33.9999 18.9903 33.9999 14.9974C33.9999 11.0166 34.0152 11.175 33.6128 10.984C33.3769 10.872 33.2542 10.8726 33.0331 10.9863Z" fill="#07FA77"/>
<path fill-rule="evenodd" clip-rule="evenodd" d="M45.4902 0.128713C45.3764 0.205191 45.2611 0.34965 45.2211 0.465685C45.1197 0.76017 45.1197 29.2346 45.2211 29.5291C45.3041 29.7701 45.617 30 45.862 30C46.1013 30 46.3563 29.8354 46.462 29.6128C46.5406 29.447 46.5508 27.7694 46.5508 14.9974C46.5508 -0.853548 46.5781 0.315835 46.2039 0.0947813C45.9721 -0.042176 45.7269 -0.0305724 45.4902 0.128713ZM49.6753 1.42591C49.573 1.47168 49.4412 1.58262 49.3823 1.6724C49.2796 1.82922 49.2754 2.35408 49.2754 15.0052V28.1747L49.3979 28.3402C49.4653 28.4312 49.6257 28.5428 49.7544 28.5883C49.9667 28.6634 50.0096 28.6607 50.2178 28.559C50.3603 28.4895 50.4861 28.3692 50.5497 28.2419C50.6463 28.0484 50.6522 27.2947 50.6522 15.0102C50.6524 0.910313 50.6704 1.7068 50.3466 1.49459C50.1386 1.35834 49.8845 1.33232 49.6753 1.42591ZM57.9407 1.38301C57.8726 1.39637 57.7407 1.4868 57.6477 1.58397L57.4785 1.7606V14.9974V28.2342L57.6454 28.4084C57.9537 28.7302 58.4668 28.6833 58.7201 28.3101C58.8216 28.1607 58.8261 27.5931 58.8261 14.9974C58.8261 2.40167 58.8216 1.83415 58.7201 1.68471C58.6119 1.5253 58.2857 1.3363 58.1435 1.35066C58.1 1.35506 58.0087 1.36959 57.9407 1.38301ZM41.4797 5.52736C41.3815 5.57014 41.2563 5.67364 41.2014 5.75738C41.1085 5.89915 41.1016 6.53916 41.1016 15.0184V24.1272L41.2674 24.3047C41.4842 24.5369 41.781 24.5944 42.0653 24.4595C42.4787 24.2633 42.4493 24.9884 42.4493 14.9974C42.4493 5.03222 42.4768 5.7306 42.0768 5.54078C41.8359 5.42645 41.7174 5.42375 41.4797 5.52736ZM53.7578 6.89471C53.6411 6.95349 53.5086 7.08634 53.4503 7.20308C53.3543 7.39519 53.3478 7.88945 53.3478 14.9974C53.3478 22.1054 53.3543 22.5996 53.4503 22.7917C53.5794 23.0502 53.8988 23.2177 54.1622 23.165C54.4375 23.1099 54.6814 22.8392 54.7238 22.5416C54.7433 22.4052 54.7514 18.918 54.7419 14.7923C54.7261 7.91752 54.7164 7.2795 54.6274 7.15374C54.4045 6.83892 54.0678 6.73865 53.7578 6.89471ZM62.0369 6.83335C61.966 6.84736 61.8275 6.95044 61.7293 7.06232L61.5507 7.26579V15.0003V22.7348L61.7445 22.9463C61.903 23.1193 61.9817 23.1589 62.1773 23.164C62.4693 23.1717 62.6711 23.0704 62.8006 22.8513C62.8906 22.699 62.8984 22.0728 62.8984 14.9974C62.8984 8.02231 62.8896 7.29421 62.8037 7.1487C62.7515 7.0605 62.665 6.96087 62.6113 6.92735C62.4837 6.84765 62.1995 6.80112 62.0369 6.83335ZM37.378 10.986C36.9857 11.1797 37.0001 11.0273 37.0001 14.9974C37.0001 18.9903 36.9831 18.819 37.3987 19.0163C37.6633 19.1419 37.9438 19.0845 38.1697 18.8585L38.3477 18.6804V15.0014V11.3225L38.2035 11.1668C37.9526 10.8961 37.6808 10.8366 37.378 10.986ZM66.0331 10.9863C65.6312 11.1932 65.655 10.9408 65.6535 15.0075L65.6523 18.6804L65.8303 18.8585C66.0562 19.0845 66.3367 19.1419 66.6013 19.0163C67.0169 18.819 66.9999 18.9903 66.9999 14.9974C66.9999 11.0166 67.0152 11.175 66.6128 10.984C66.3769 10.872 66.2542 10.8726 66.0331 10.9863Z" fill="#07FA77"/>
<path fill-rule="evenodd" clip-rule="evenodd" d="M78.4902 0.128713C78.3764 0.205191 78.2611 0.34965 78.2211 0.465685C78.1197 0.76017 78.1197 29.2346 78.2211 29.5291C78.3041 29.7701 78.617 30 78.862 30C79.1013 30 79.3563 29.8354 79.462 29.6128C79.5406 29.447 79.5508 27.7694 79.5508 14.9974C79.5508 -0.853548 79.5781 0.315835 79.2039 0.0947813C78.9721 -0.042176 78.7269 -0.0305724 78.4902 0.128713ZM82.6753 1.42591C82.573 1.47168 82.4412 1.58262 82.3823 1.6724C82.2796 1.82922 82.2754 2.35408 82.2754 15.0052V28.1747L82.3979 28.3402C82.4653 28.4312 82.6257 28.5428 82.7544 28.5883C82.9667 28.6634 83.0096 28.6607 83.2178 28.559C83.3603 28.4895 83.4861 28.3692 83.5497 28.2419C83.6463 28.0484 83.6522 27.2947 83.6522 15.0102C83.6524 0.910313 83.6704 1.7068 83.3466 1.49459C83.1386 1.35834 82.8845 1.33232 82.6753 1.42591ZM90.9407 1.38301C90.8726 1.39637 90.7407 1.4868 90.6477 1.58397L90.4785 1.7606V14.9974V28.2342L90.6454 28.4084C90.9537 28.7302 91.4668 28.6833 91.7201 28.3101C91.8216 28.1607 91.8261 27.5931 91.8261 14.9974C91.8261 2.40167 91.8216 1.83415 91.7201 1.68471C91.6119 1.5253 91.2857 1.3363 91.1435 1.35066C91.1 1.35506 91.0087 1.36959 90.9407 1.38301ZM74.4797 5.52736C74.3815 5.57014 74.2563 5.67364 74.2014 5.75738C74.1085 5.89915 74.1016 6.53916 74.1016 15.0184V24.1272L74.2674 24.3047C74.4842 24.5369 74.781 24.5944 75.0653 24.4595C75.4787 24.2633 75.4493 24.9884 75.4493 14.9974C75.4493 5.03222 75.4768 5.7306 75.0768 5.54078C74.8359 5.42645 74.7174 5.42375 74.4797 5.52736ZM86.7578 6.89471C86.6411 6.95349 86.5086 7.08634 86.4503 7.20308C86.3543 7.39519 86.3478 7.88945 86.3478 14.9974C86.3478 22.1054 86.3543 22.5996 86.4503 22.7917C86.5794 23.0502 86.8988 23.2177 87.1622 23.165C87.4375 23.1099 87.6814 22.8392 87.7238 22.5416C87.7433 22.4052 87.7514 18.918 87.7419 14.7923C87.7261 7.91752 87.7164 7.2795 87.6274 7.15374C87.4045 6.83892 87.0678 6.73865 86.7578 6.89471ZM95.0369 6.83335C94.966 6.84736 94.8275 6.95044 94.7293 7.06232L94.5507 7.26579V15.0003V22.7348L94.7445 22.9463C94.903 23.1193 94.9817 23.1589 95.1773 23.164C95.4693 23.1717 95.6711 23.0704 95.8006 22.8513C95.8906 22.699 95.8984 22.0728 95.8984 14.9974C95.8984 8.02231 95.8896 7.29421 95.8037 7.1487C95.7515 7.0605 95.665 6.96087 95.6113 6.92735C95.4837 6.84765 95.1995 6.80112 95.0369 6.83335ZM70.378 10.986C69.9857 11.1797 70.0001 11.0273 70.0001 14.9974C70.0001 18.9903 69.9831 18.819 70.3987 19.0163C70.6633 19.1419 70.9438 19.0845 71.1697 18.8585L71.3477 18.6804V15.0014V11.3225L71.2035 11.1668C70.9526 10.8961 70.6808 10.8366 70.378 10.986ZM99.0331 10.9863C98.6312 11.1932 98.655 10.9408 98.6535 15.0075L98.6523 18.6804L98.8303 18.8585C99.0562 19.0845 99.3367 19.1419 99.6013 19.0163C100.017 18.819 99.9999 18.9903 99.9999 14.9974C99.9999 11.0166 100.015 11.175 99.6128 10.984C99.3769 10.872 99.2542 10.8726 99.0331 10.9863Z" fill="#07FA77"/>
<path fill-rule="evenodd" clip-rule="evenodd" d="M78.4902 0.128713C78.3764 0.205191 78.2611 0.34965 78.2211 0.465685C78.1197 0.76017 78.1197 29.2346 78.2211 29.5291C78.3041 29.7701 78.617 30 78.862 30C79.1013 30 79.3563 29.8354 79.462 29.6128C79.5406 29.447 79.5508 27.7694 79.5508 14.9974C79.5508 -0.853548 79.5781 0.315835 79.2039 0.0947813C78.9721 -0.042176 78.7269 -0.0305724 78.4902 0.128713ZM82.6753 1.42591C82.573 1.47168 82.4412 1.58262 82.3823 1.6724C82.2796 1.82922 82.2754 2.35408 82.2754 15.0052V28.1747L82.3979 28.3402C82.4653 28.4312 82.6257 28.5428 82.7544 28.5883C82.9667 28.6634 83.0096 28.6607 83.2178 28.559C83.3603 28.4895 83.4861 28.3692 83.5497 28.2419C83.6463 28.0484 83.6522 27.2947 83.6522 15.0102C83.6524 0.910313 83.6704 1.7068 83.3466 1.49459C83.1386 1.35834 82.8845 1.33232 82.6753 1.42591ZM90.9407 1.38301C90.8726 1.39637 90.7407 1.4868 90.6477 1.58397L90.4785 1.7606V14.9974V28.2342L90.6454 28.4084C90.9537 28.7302 91.4668 28.6833 91.7201 28.3101C91.8216 28.1607 91.8261 27.5931 91.8261 14.9974C91.8261 2.40167 91.8216 1.83415 91.7201 1.68471C91.6119 1.5253 91.2857 1.3363 91.1435 1.35066C91.1 1.35506 91.0087 1.36959 90.9407 1.38301ZM74.4797 5.52736C74.3815 5.57014 74.2563 5.67364 74.2014 5.75738C74.1085 5.89915 74.1016 6.53916 74.1016 15.0184V24.1272L74.2674 24.3047C74.4842 24.5369 74.781 24.5944 75.0653 24.4595C75.4787 24.2633 75.4493 24.9884 75.4493 14.9974C75.4493 5.03222 75.4768 5.7306 75.0768 5.54078C74.8359 5.42645 74.7174 5.42375 74.4797 5.52736ZM86.7578 6.89471C86.6411 6.95349 86.5086 7.08634 86.4503 7.20308C86.3543 7.39519 86.3478 7.88945 86.3478 14.9974C86.3478 22.1054 86.3543 22.5996 86.4503 22.7917C86.5794 23.0502 86.8988 23.2177 87.1622 23.165C87.4375 23.1099 87.6814 22.8392 87.7238 22.5416C87.7433 22.4052 87.7514 18.918 87.7419 14.7923C87.7261 7.91752 87.7164 7.2795 87.6274 7.15374C87.4045 6.83892 87.0678 6.73865 86.7578 6.89471ZM95.0369 6.83335C94.966 6.84736 94.8275 6.95044 94.7293 7.06232L94.5507 7.26579V15.0003V22.7348L94.7445 22.9463C94.903 23.1193 94.9817 23.1589 95.1773 23.164C95.4693 23.1717 95.6711 23.0704 95.8006 22.8513C95.8906 22.699 95.8984 22.0728 95.8984 14.9974C95.8984 8.02231 95.8896 7.29421 95.8037 7.1487C95.7515 7.0605 95.665 6.96087 95.6113 6.92735C95.4837 6.84765 95.1995 6.80112 95.0369 6.83335ZM70.378 10.986C69.9857 11.1797 70.0001 11.0273 70.0001 14.9974C70.0001 18.9903 69.9831 18.819 70.3987 19.0163C70.6633 19.1419 70.9438 19.0845 71.1697 18.8585L71.3477 18.6804V15.0014V11.3225L71.2035 11.1668C70.9526 10.8961 70.6808 10.8366 70.378 10.986ZM99.0331 10.9863C98.6312 11.1932 98.655 10.9408 98.6535 15.0075L98.6523 18.6804L98.8303 18.8585C99.0562 19.0845 99.3367 19.1419 99.6013 19.0163C100.017 18.819 99.9999 18.9903 99.9999 14.9974C99.9999 11.0166 100.015 11.175 99.6128 10.984C99.3769 10.872 99.2542 10.8726 99.0331 10.9863Z" fill="#07FA77"/>
<path fill-rule="evenodd" clip-rule="evenodd" d="M111.49 0.128713C111.376 0.205191 111.261 0.34965 111.221 0.465685C111.12 0.76017 111.12 29.2346 111.221 29.5291C111.304 29.7701 111.617 30 111.862 30C112.101 30 112.356 29.8354 112.462 29.6128C112.541 29.447 112.551 27.7694 112.551 14.9974C112.551 -0.853548 112.578 0.315835 112.204 0.0947813C111.972 -0.042176 111.727 -0.0305724 111.49 0.128713ZM115.675 1.42591C115.573 1.47168 115.441 1.58262 115.382 1.6724C115.28 1.82922 115.275 2.35408 115.275 15.0052V28.1747L115.398 28.3402C115.465 28.4312 115.626 28.5428 115.754 28.5883C115.967 28.6634 116.01 28.6607 116.218 28.559C116.36 28.4895 116.486 28.3692 116.55 28.2419C116.646 28.0484 116.652 27.2947 116.652 15.0102C116.652 0.910313 116.67 1.7068 116.347 1.49459C116.139 1.35834 115.885 1.33232 115.675 1.42591ZM123.941 1.38301C123.873 1.39637 123.741 1.4868 123.648 1.58397L123.478 1.7606V14.9974V28.2342L123.645 28.4084C123.954 28.7302 124.467 28.6833 124.72 28.3101C124.822 28.1607 124.826 27.5931 124.826 14.9974C124.826 2.40167 124.822 1.83415 124.72 1.68471C124.612 1.5253 124.286 1.3363 124.143 1.35066C124.1 1.35506 124.009 1.36959 123.941 1.38301ZM107.48 5.52736C107.381 5.57014 107.256 5.67364 107.201 5.75738C107.109 5.89915 107.102 6.53916 107.102 15.0184V24.1272L107.267 24.3047C107.484 24.5369 107.781 24.5944 108.065 24.4595C108.479 24.2633 108.449 24.9884 108.449 14.9974C108.449 5.03222 108.477 5.7306 108.077 5.54078C107.836 5.42645 107.717 5.42375 107.48 5.52736ZM119.758 6.89471C119.641 6.95349 119.509 7.08634 119.45 7.20308C119.354 7.39519 119.348 7.88945 119.348 14.9974C119.348 22.1054 119.354 22.5996 119.45 22.7917C119.579 23.0502 119.899 23.2177 120.162 23.165C120.437 23.1099 120.681 22.8392 120.724 22.5416C120.743 22.4052 120.751 18.918 120.742 14.7923C120.726 7.91752 120.716 7.2795 120.627 7.15374C120.404 6.83892 120.068 6.73865 119.758 6.89471ZM128.037 6.83335C127.966 6.84736 127.828 6.95044 127.729 7.06232L127.551 7.26579V15.0003V22.7348L127.744 22.9463C127.903 23.1193 127.982 23.1589 128.177 23.164C128.469 23.1717 128.671 23.0704 128.801 22.8513C128.891 22.699 128.898 22.0728 128.898 14.9974C128.898 8.02231 128.89 7.29421 128.804 7.1487C128.752 7.0605 128.665 6.96087 128.611 6.92735C128.484 6.84765 128.2 6.80112 128.037 6.83335ZM103.378 10.986C102.986 11.1797 103 11.0273 103 14.9974C103 18.9903 102.983 18.819 103.399 19.0163C103.663 19.1419 103.944 19.0845 104.17 18.8585L104.348 18.6804V15.0014V11.3225L104.203 11.1668C103.953 10.8961 103.681 10.8366 103.378 10.986ZM132.033 10.9863C131.631 11.1932 131.655 10.9408 131.654 15.0075L131.652 18.6804L131.83 18.8585C132.056 19.0845 132.337 19.1419 132.601 19.0163C133.017 18.819 133 18.9903 133 14.9974C133 11.0166 133.015 11.175 132.613 10.984C132.377 10.872 132.254 10.8726 132.033 10.9863Z" fill="#07FA77"/>
<path fill-rule="evenodd" clip-rule="evenodd" d="M144.49 0.128713C144.376 0.205191 144.261 0.34965 144.221 0.465685C144.12 0.76017 144.12 29.2346 144.221 29.5291C144.304 29.7701 144.617 30 144.862 30C145.101 30 145.356 29.8354 145.462 29.6128C145.541 29.447 145.551 27.7694 145.551 14.9974C145.551 -0.853548 145.578 0.315835 145.204 0.0947813C144.972 -0.042176 144.727 -0.0305724 144.49 0.128713ZM148.675 1.42591C148.573 1.47168 148.441 1.58262 148.382 1.6724C148.28 1.82922 148.275 2.35408 148.275 15.0052V28.1747L148.398 28.3402C148.465 28.4312 148.626 28.5428 148.754 28.5883C148.967 28.6634 149.01 28.6607 149.218 28.559C149.36 28.4895 149.486 28.3692 149.55 28.2419C149.646 28.0484 149.652 27.2947 149.652 15.0102C149.652 0.910313 149.67 1.7068 149.347 1.49459C149.139 1.35834 148.885 1.33232 148.675 1.42591ZM156.941 1.38301C156.873 1.39637 156.741 1.4868 156.648 1.58397L156.478 1.7606V14.9974V28.2342L156.645 28.4084C156.954 28.7302 157.467 28.6833 157.72 28.3101C157.822 28.1607 157.826 27.5931 157.826 14.9974C157.826 2.40167 157.822 1.83415 157.72 1.68471C157.612 1.5253 157.286 1.3363 157.143 1.35066C157.1 1.35506 157.009 1.36959 156.941 1.38301ZM140.48 5.52736C140.381 5.57014 140.256 5.67364 140.201 5.75738C140.109 5.89915 140.102 6.53916 140.102 15.0184V24.1272L140.267 24.3047C140.484 24.5369 140.781 24.5944 141.065 24.4595C141.479 24.2633 141.449 24.9884 141.449 14.9974C141.449 5.03222 141.477 5.7306 141.077 5.54078C140.836 5.42645 140.717 5.42375 140.48 5.52736ZM152.758 6.89471C152.641 6.95349 152.509 7.08634 152.45 7.20308C152.354 7.39519 152.348 7.88945 152.348 14.9974C152.348 22.1054 152.354 22.5996 152.45 22.7917C152.579 23.0502 152.899 23.2177 153.162 23.165C153.437 23.1099 153.681 22.8392 153.724 22.5416C153.743 22.4052 153.751 18.918 153.742 14.7923C153.726 7.91752 153.716 7.2795 153.627 7.15374C153.404 6.83892 153.068 6.73865 152.758 6.89471ZM161.037 6.83335C160.966 6.84736 160.828 6.95044 160.729 7.06232L160.551 7.26579V15.0003V22.7348L160.744 22.9463C160.903 23.1193 160.982 23.1589 161.177 23.164C161.469 23.1717 161.671 23.0704 161.801 22.8513C161.891 22.699 161.898 22.0728 161.898 14.9974C161.898 8.02231 161.89 7.29421 161.804 7.1487C161.752 7.0605 161.665 6.96087 161.611 6.92735C161.484 6.84765 161.2 6.80112 161.037 6.83335ZM136.378 10.986C135.986 11.1797 136 11.0273 136 14.9974C136 18.9903 135.983 18.819 136.399 19.0163C136.663 19.1419 136.944 19.0845 137.17 18.8585L137.348 18.6804V15.0014V11.3225L137.203 11.1668C136.953 10.8961 136.681 10.8366 136.378 10.986ZM165.033 10.9863C164.631 11.1932 164.655 10.9408 164.654 15.0075L164.652 18.6804L164.83 18.8585C165.056 19.0845 165.337 19.1419 165.601 19.0163C166.017 18.819 166 18.9903 166 14.9974C166 11.0166 166.015 11.175 165.613 10.984C165.377 10.872 165.254 10.8726 165.033 10.9863Z" fill="#07FA77"/>
<path fill-rule="evenodd" clip-rule="evenodd" d="M144.49 0.128713C144.376 0.205191 144.261 0.34965 144.221 0.465685C144.12 0.76017 144.12 29.2346 144.221 29.5291C144.304 29.7701 144.617 30 144.862 30C145.101 30 145.356 29.8354 145.462 29.6128C145.541 29.447 145.551 27.7694 145.551 14.9974C145.551 -0.853548 145.578 0.315835 145.204 0.0947813C144.972 -0.042176 144.727 -0.0305724 144.49 0.128713ZM148.675 1.42591C148.573 1.47168 148.441 1.58262 148.382 1.6724C148.28 1.82922 148.275 2.35408 148.275 15.0052V28.1747L148.398 28.3402C148.465 28.4312 148.626 28.5428 148.754 28.5883C148.967 28.6634 149.01 28.6607 149.218 28.559C149.36 28.4895 149.486 28.3692 149.55 28.2419C149.646 28.0484 149.652 27.2947 149.652 15.0102C149.652 0.910313 149.67 1.7068 149.347 1.49459C149.139 1.35834 148.885 1.33232 148.675 1.42591ZM156.941 1.38301C156.873 1.39637 156.741 1.4868 156.648 1.58397L156.478 1.7606V14.9974V28.2342L156.645 28.4084C156.954 28.7302 157.467 28.6833 157.72 28.3101C157.822 28.1607 157.826 27.5931 157.826 14.9974C157.826 2.40167 157.822 1.83415 157.72 1.68471C157.612 1.5253 157.286 1.3363 157.143 1.35066C157.1 1.35506 157.009 1.36959 156.941 1.38301ZM140.48 5.52736C140.381 5.57014 140.256 5.67364 140.201 5.75738C140.109 5.89915 140.102 6.53916 140.102 15.0184V24.1272L140.267 24.3047C140.484 24.5369 140.781 24.5944 141.065 24.4595C141.479 24.2633 141.449 24.9884 141.449 14.9974C141.449 5.03222 141.477 5.7306 141.077 5.54078C140.836 5.42645 140.717 5.42375 140.48 5.52736ZM152.758 6.89471C152.641 6.95349 152.509 7.08634 152.45 7.20308C152.354 7.39519 152.348 7.88945 152.348 14.9974C152.348 22.1054 152.354 22.5996 152.45 22.7917C152.579 23.0502 152.899 23.2177 153.162 23.165C153.437 23.1099 153.681 22.8392 153.724 22.5416C153.743 22.4052 153.751 18.918 153.742 14.7923C153.726 7.91752 153.716 7.2795 153.627 7.15374C153.404 6.83892 153.068 6.73865 152.758 6.89471ZM161.037 6.83335C160.966 6.84736 160.828 6.95044 160.729 7.06232L160.551 7.26579V15.0003V22.7348L160.744 22.9463C160.903 23.1193 160.982 23.1589 161.177 23.164C161.469 23.1717 161.671 23.0704 161.801 22.8513C161.891 22.699 161.898 22.0728 161.898 14.9974C161.898 8.02231 161.89 7.29421 161.804 7.1487C161.752 7.0605 161.665 6.96087 161.611 6.92735C161.484 6.84765 161.2 6.80112 161.037 6.83335ZM136.378 10.986C135.986 11.1797 136 11.0273 136 14.9974C136 18.9903 135.983 18.819 136.399 19.0163C136.663 19.1419 136.944 19.0845 137.17 18.8585L137.348 18.6804V15.0014V11.3225L137.203 11.1668C136.953 10.8961 136.681 10.8366 136.378 10.986ZM165.033 10.9863C164.631 11.1932 164.655 10.9408 164.654 15.0075L164.652 18.6804L164.83 18.8585C165.056 19.0845 165.337 19.1419 165.601 19.0163C166.017 18.819 166 18.9903 166 14.9974C166 11.0166 166.015 11.175 165.613 10.984C165.377 10.872 165.254 10.8726 165.033 10.9863Z" fill="#07FA77"/>
<path fill-rule="evenodd" clip-rule="evenodd" d="M177.49 0.128713C177.376 0.205191 177.261 0.34965 177.221 0.465685C177.12 0.76017 177.12 29.2346 177.221 29.5291C177.304 29.7701 177.617 30 177.862 30C178.101 30 178.356 29.8354 178.462 29.6128C178.541 29.447 178.551 27.7694 178.551 14.9974C178.551 -0.853548 178.578 0.315835 178.204 0.0947813C177.972 -0.042176 177.727 -0.0305724 177.49 0.128713ZM181.675 1.42591C181.573 1.47168 181.441 1.58262 181.382 1.6724C181.28 1.82922 181.275 2.35408 181.275 15.0052V28.1747L181.398 28.3402C181.465 28.4312 181.626 28.5428 181.754 28.5883C181.967 28.6634 182.01 28.6607 182.218 28.559C182.36 28.4895 182.486 28.3692 182.55 28.2419C182.646 28.0484 182.652 27.2947 182.652 15.0102C182.652 0.910313 182.67 1.7068 182.347 1.49459C182.139 1.35834 181.885 1.33232 181.675 1.42591ZM189.941 1.38301C189.873 1.39637 189.741 1.4868 189.648 1.58397L189.478 1.7606V14.9974V28.2342L189.645 28.4084C189.954 28.7302 190.467 28.6833 190.72 28.3101C190.822 28.1607 190.826 27.5931 190.826 14.9974C190.826 2.40167 190.822 1.83415 190.72 1.68471C190.612 1.5253 190.286 1.3363 190.143 1.35066C190.1 1.35506 190.009 1.36959 189.941 1.38301ZM173.48 5.52736C173.381 5.57014 173.256 5.67364 173.201 5.75738C173.109 5.89915 173.102 6.53916 173.102 15.0184V24.1272L173.267 24.3047C173.484 24.5369 173.781 24.5944 174.065 24.4595C174.479 24.2633 174.449 24.9884 174.449 14.9974C174.449 5.03222 174.477 5.7306 174.077 5.54078C173.836 5.42645 173.717 5.42375 173.48 5.52736ZM185.758 6.89471C185.641 6.95349 185.509 7.08634 185.45 7.20308C185.354 7.39519 185.348 7.88945 185.348 14.9974C185.348 22.1054 185.354 22.5996 185.45 22.7917C185.579 23.0502 185.899 23.2177 186.162 23.165C186.437 23.1099 186.681 22.8392 186.724 22.5416C186.743 22.4052 186.751 18.918 186.742 14.7923C186.726 7.91752 186.716 7.2795 186.627 7.15374C186.404 6.83892 186.068 6.73865 185.758 6.89471ZM194.037 6.83335C193.966 6.84736 193.828 6.95044 193.729 7.06232L193.551 7.26579V15.0003V22.7348L193.744 22.9463C193.903 23.1193 193.982 23.1589 194.177 23.164C194.469 23.1717 194.671 23.0704 194.801 22.8513C194.891 22.699 194.898 22.0728 194.898 14.9974C194.898 8.02231 194.89 7.29421 194.804 7.1487C194.752 7.0605 194.665 6.96087 194.611 6.92735C194.484 6.84765 194.2 6.80112 194.037 6.83335ZM169.378 10.986C168.986 11.1797 169 11.0273 169 14.9974C169 18.9903 168.983 18.819 169.399 19.0163C169.663 19.1419 169.944 19.0845 170.17 18.8585L170.348 18.6804V15.0014V11.3225L170.203 11.1668C169.953 10.8961 169.681 10.8366 169.378 10.986ZM198.033 10.9863C197.631 11.1932 197.655 10.9408 197.654 15.0075L197.652 18.6804L197.83 18.8585C198.056 19.0845 198.337 19.1419 198.601 19.0163C199.017 18.819 199 18.9903 199 14.9974C199 11.0166 199.015 11.175 198.613 10.984C198.377 10.872 198.254 10.8726 198.033 10.9863Z" fill="#07FA77"/>
<path fill-rule="evenodd" clip-rule="evenodd" d="M210.49 0.128713C210.376 0.205191 210.261 0.34965 210.221 0.465685C210.12 0.76017 210.12 29.2346 210.221 29.5291C210.304 29.7701 210.617 30 210.862 30C211.101 30 211.356 29.8354 211.462 29.6128C211.541 29.447 211.551 27.7694 211.551 14.9974C211.551 -0.853548 211.578 0.315835 211.204 0.0947813C210.972 -0.042176 210.727 -0.0305724 210.49 0.128713ZM214.675 1.42591C214.573 1.47168 214.441 1.58262 214.382 1.6724C214.28 1.82922 214.275 2.35408 214.275 15.0052V28.1747L214.398 28.3402C214.465 28.4312 214.626 28.5428 214.754 28.5883C214.967 28.6634 215.01 28.6607 215.218 28.559C215.36 28.4895 215.486 28.3692 215.55 28.2419C215.646 28.0484 215.652 27.2947 215.652 15.0102C215.652 0.910313 215.67 1.7068 215.347 1.49459C215.139 1.35834 214.885 1.33232 214.675 1.42591ZM222.941 1.38301C222.873 1.39637 222.741 1.4868 222.648 1.58397L222.478 1.7606V14.9974V28.2342L222.645 28.4084C222.954 28.7302 223.467 28.6833 223.72 28.3101C223.822 28.1607 223.826 27.5931 223.826 14.9974C223.826 2.40167 223.822 1.83415 223.72 1.68471C223.612 1.5253 223.286 1.3363 223.143 1.35066C223.1 1.35506 223.009 1.36959 222.941 1.38301ZM206.48 5.52736C206.381 5.57014 206.256 5.67364 206.201 5.75738C206.109 5.89915 206.102 6.53916 206.102 15.0184V24.1272L206.267 24.3047C206.484 24.5369 206.781 24.5944 207.065 24.4595C207.479 24.2633 207.449 24.9884 207.449 14.9974C207.449 5.03222 207.477 5.7306 207.077 5.54078C206.836 5.42645 206.717 5.42375 206.48 5.52736ZM218.758 6.89471C218.641 6.95349 218.509 7.08634 218.45 7.20308C218.354 7.39519 218.348 7.88945 218.348 14.9974C218.348 22.1054 218.354 22.5996 218.45 22.7917C218.579 23.0502 218.899 23.2177 219.162 23.165C219.437 23.1099 219.681 22.8392 219.724 22.5416C219.743 22.4052 219.751 18.918 219.742 14.7923C219.726 7.91752 219.716 7.2795 219.627 7.15374C219.404 6.83892 219.068 6.73865 218.758 6.89471ZM227.037 6.83335C226.966 6.84736 226.828 6.95044 226.729 7.06232L226.551 7.26579V15.0003V22.7348L226.744 22.9463C226.903 23.1193 226.982 23.1589 227.177 23.164C227.469 23.1717 227.671 23.0704 227.801 22.8513C227.891 22.699 227.898 22.0728 227.898 14.9974C227.898 8.02231 227.89 7.29421 227.804 7.1487C227.752 7.0605 227.665 6.96087 227.611 6.92735C227.484 6.84765 227.2 6.80112 227.037 6.83335ZM202.378 10.986C201.986 11.1797 202 11.0273 202 14.9974C202 18.9903 201.983 18.819 202.399 19.0163C202.663 19.1419 202.944 19.0845 203.17 18.8585L203.348 18.6804V15.0014V11.3225L203.203 11.1668C202.953 10.8961 202.681 10.8366 202.378 10.986ZM231.033 10.9863C230.631 11.1932 230.655 10.9408 230.654 15.0075L230.652 18.6804L230.83 18.8585C231.056 19.0845 231.337 19.1419 231.601 19.0163C232.017 18.819 232 18.9903 232 14.9974C232 11.0166 232.015 11.175 231.613 10.984C231.377 10.872 231.254 10.8726 231.033 10.9863Z" fill="#07FA77"/>
<path fill-rule="evenodd" clip-rule="evenodd" d="M210.49 0.128713C210.376 0.205191 210.261 0.34965 210.221 0.465685C210.12 0.76017 210.12 29.2346 210.221 29.5291C210.304 29.7701 210.617 30 210.862 30C211.101 30 211.356 29.8354 211.462 29.6128C211.541 29.447 211.551 27.7694 211.551 14.9974C211.551 -0.853548 211.578 0.315835 211.204 0.0947813C210.972 -0.042176 210.727 -0.0305724 210.49 0.128713ZM214.675 1.42591C214.573 1.47168 214.441 1.58262 214.382 1.6724C214.28 1.82922 214.275 2.35408 214.275 15.0052V28.1747L214.398 28.3402C214.465 28.4312 214.626 28.5428 214.754 28.5883C214.967 28.6634 215.01 28.6607 215.218 28.559C215.36 28.4895 215.486 28.3692 215.55 28.2419C215.646 28.0484 215.652 27.2947 215.652 15.0102C215.652 0.910313 215.67 1.7068 215.347 1.49459C215.139 1.35834 214.885 1.33232 214.675 1.42591ZM222.941 1.38301C222.873 1.39637 222.741 1.4868 222.648 1.58397L222.478 1.7606V14.9974V28.2342L222.645 28.4084C222.954 28.7302 223.467 28.6833 223.72 28.3101C223.822 28.1607 223.826 27.5931 223.826 14.9974C223.826 2.40167 223.822 1.83415 223.72 1.68471C223.612 1.5253 223.286 1.3363 223.143 1.35066C223.1 1.35506 223.009 1.36959 222.941 1.38301ZM206.48 5.52736C206.381 5.57014 206.256 5.67364 206.201 5.75738C206.109 5.89915 206.102 6.53916 206.102 15.0184V24.1272L206.267 24.3047C206.484 24.5369 206.781 24.5944 207.065 24.4595C207.479 24.2633 207.449 24.9884 207.449 14.9974C207.449 5.03222 207.477 5.7306 207.077 5.54078C206.836 5.42645 206.717 5.42375 206.48 5.52736ZM218.758 6.89471C218.641 6.95349 218.509 7.08634 218.45 7.20308C218.354 7.39519 218.348 7.88945 218.348 14.9974C218.348 22.1054 218.354 22.5996 218.45 22.7917C218.579 23.0502 218.899 23.2177 219.162 23.165C219.437 23.1099 219.681 22.8392 219.724 22.5416C219.743 22.4052 219.751 18.918 219.742 14.7923C219.726 7.91752 219.716 7.2795 219.627 7.15374C219.404 6.83892 219.068 6.73865 218.758 6.89471ZM227.037 6.83335C226.966 6.84736 226.828 6.95044 226.729 7.06232L226.551 7.26579V15.0003V22.7348L226.744 22.9463C226.903 23.1193 226.982 23.1589 227.177 23.164C227.469 23.1717 227.671 23.0704 227.801 22.8513C227.891 22.699 227.898 22.0728 227.898 14.9974C227.898 8.02231 227.89 7.29421 227.804 7.1487C227.752 7.0605 227.665 6.96087 227.611 6.92735C227.484 6.84765 227.2 6.80112 227.037 6.83335ZM202.378 10.986C201.986 11.1797 202 11.0273 202 14.9974C202 18.9903 201.983 18.819 202.399 19.0163C202.663 19.1419 202.944 19.0845 203.17 18.8585L203.348 18.6804V15.0014V11.3225L203.203 11.1668C202.953 10.8961 202.681 10.8366 202.378 10.986ZM231.033 10.9863C230.631 11.1932 230.655 10.9408 230.654 15.0075L230.652 18.6804L230.83 18.8585C231.056 19.0845 231.337 19.1419 231.601 19.0163C232.017 18.819 232 18.9903 232 14.9974C232 11.0166 232.015 11.175 231.613 10.984C231.377 10.872 231.254 10.8726 231.033 10.9863Z" fill="#07FA77"/>
</g>
<defs>
<filter id="filter0_d_4_37" x="0" y="0" width="236" height="38" filterUnits="userSpaceOnUse" color-interpolation-filters="sRGB">
<feFlood flood-opacity="0" result="BackgroundImageFix"/>
<feColorMatrix in="SourceAlpha" type="matrix" values="0 0 0 0 0 0 0 0 0 0 0 0 0 0 0 0 0 0 127 0" result="hardAlpha"/>
<feOffset dy="4"/>
<feGaussianBlur stdDeviation="2"/>
<feComposite in2="hardAlpha" operator="out"/>
<feColorMatrix type="matrix" values="0 0 0 0 0 0 0 0 0 0 0 0 0 0 0 0 0 0 0.25 0"/>
<feBlend mode="normal" in2="BackgroundImageFix" result="effect1_dropShadow_4_37"/>
<feBlend mode="normal" in="SourceGraphic" in2="effect1_dropShadow_4_37" result="shape"/>
</filter>
</defs>
</svg>
