<svg width="130" height="126" fill="none" xmlns="http://www.w3.org/2000/svg"><g filter="url(#filter0_d_579_1234)"><path fill-rule="evenodd" clip-rule="evenodd" d="M55.965 15.391c-.28.22-.598.725-.709 1.122-.111.402-.201 2.784-.202 5.358l-.001 4.634h-1.09c-.944 0-1.166.077-1.66.57l-.572.571v8.614c0 5.535.072 8.748.202 8.99.3.562 1.232.964 2.23.964h.89l.01 4.732c.014 5.437.103 5.915 1.21 6.456.615.3.84.32 1.416.13 1.255-.413 1.272-.494 1.272-6.19v-5.128h.986c1.087 0 2.019-.386 2.33-.965.128-.24.2-3.446.2-8.963v-8.588l-.47-.547c-.4-.463-.66-.561-1.71-.645l-1.239-.098-.097-5.237-.098-5.237-.548-.471c-.682-.585-1.658-.615-2.35-.072zm31.58.072l-.547.47-.098 5.238-.098 5.237-1.239.098c-1.05.084-1.31.182-1.71.645l-.47.547v8.588c0 5.517.072 8.722.201 8.963.31.58 1.242.965 2.33.965h.986v5.128c0 5.696.017 5.777 1.272 6.19.576.19.8.17 1.416-.13 1.106-.54 1.196-1.019 1.209-6.456l.01-4.732h.89c.998 0 1.93-.402 2.23-.965.13-.24.202-3.454.202-8.989v-8.614l-.571-.57c-.495-.494-.717-.57-1.66-.57h-1.09l-.002-4.635c0-2.574-.09-4.956-.202-5.358-.401-1.443-1.972-1.983-3.058-1.05zM21.153 24.71c-2.879.994-5.112 3.353-5.849 6.178-.267 1.026-.303 4.545-.303 29.766 0 25.069.037 28.746.3 29.752.876 3.362 3.802 5.974 7.32 6.534.788.126 6.469.203 14.97.204l13.698.001.105 1.415c.116 1.571-.121 5.342-.458 7.27l-.218 1.251-5.957.057-5.958.057-.471.547a1.943 1.943 0 00.1 2.688l.57.57h25.975c25.652 0 25.98-.005 26.47-.389.96-.755 1.021-2.232.126-3.042-.384-.347-.85-.381-6.4-.472L79.184 107l-.236-1.269c-.374-2.012-.648-5.873-.516-7.28l.12-1.29L93.13 97.1c13.491-.057 14.656-.089 15.642-.418 3.016-1.008 5.445-3.675 6.066-6.66.136-.655.185-10.734.15-30.734l-.052-29.758-.513-1.073c-.724-1.515-1.704-2.556-3.136-3.331l-1.236-.67-5.425-.06-5.426-.06-.582.582c-.791.79-.796 1.733-.013 2.609l.57.637 5.047.098c5.695.11 5.742.122 6.51 1.671.389.783.394 1.128.394 25.124v24.33H18.902l.051-23.855.052-23.855.428-.8c.236-.439.745-1.076 1.131-1.415 1.337-1.172 1.527-1.2 7.99-1.201 3.431-.001 6.188-.085 6.61-.202 1.52-.422 2.019-2.064.952-3.13l-.571-.57-6.707.006c-5.845.006-6.832.05-7.686.345zM58.57 36.36v5.952h-2.931V30.408h2.931v5.952zm31.651 0v5.952h-2.93V30.408h2.93v5.952zM40.46 30.79c-.236.1-.587.424-.782.72-.313.477-.36 1.108-.414 5.572l-.06 5.033h-1.078c-.931 0-1.156.078-1.65.57l-.57.571v17.376l.459.533c.385.447.652.547 1.66.62l1.202.086.011 4.709c.013 5.354.108 5.876 1.173 6.446.829.444 1.557.324 2.252-.37l.472-.472V61.871l1.296-.083c1.118-.07 1.36-.156 1.759-.619l.462-.536V43.309l-.471-.547c-.4-.463-.66-.561-1.71-.645l-1.239-.098-.097-5.215c-.093-4.936-.12-5.236-.5-5.616-.464-.463-1.551-.661-2.175-.397zm31.682-.011c-.937.4-.965.557-1.068 6.048l-.098 5.19-1.238.1c-1.05.083-1.31.181-1.71.644l-.47.547v17.324l.461.536c.4.463.64.548 1.759.62l1.296.082v10.314l.472.471c.695.695 1.423.815 2.252.371 1.065-.57 1.16-1.092 1.173-6.446l.01-4.709 1.203-.087c1.008-.072 1.275-.172 1.66-.62l.46-.532V43.257l-.572-.57c-.495-.494-.717-.57-1.66-.57h-1.09l-.001-4.635c-.001-4.762-.125-5.798-.758-6.37-.436-.395-1.528-.569-2.081-.332zM42.744 51.97v5.953h-2.931V46.019h2.931v5.952zm31.651 0v5.953h-2.93V46.019h2.93v5.952zm36.698 34.491c-.077 3.579-.265 4.195-1.65 5.41-1.587 1.391 2.504 1.274-44.426 1.274s-42.838.117-44.426-1.274c-1.385-1.215-1.572-1.831-1.65-5.41l-.067-3.17h92.287l-.068 3.17zm-36.556 13.563c.011 1.583.16 3.793.33 4.912.17 1.119.31 2.063.31 2.098 0 .035-4.622.063-10.27.063-9.691 0-10.265-.019-10.167-.341.277-.916.542-4.15.55-6.732l.01-2.879h19.216l.02 2.879z" fill="#06FF79"/></g><defs><filter id="filter0_d_579_1234" x="0" y="0" width="130" height="126" filterUnits="userSpaceOnUse" color-interpolation-filters="sRGB"><feFlood flood-opacity="0" result="BackgroundImageFix"/><feColorMatrix in="SourceAlpha" values="0 0 0 0 0 0 0 0 0 0 0 0 0 0 0 0 0 0 127 0" result="hardAlpha"/><feOffset/><feGaussianBlur stdDeviation="7.5"/><feComposite in2="hardAlpha" operator="out"/><feColorMatrix values="0 0 0 0 0.0463889 0 0 0 0 0.695833 0 0 0 0 0.346333 0 0 0 0.8 0"/><feBlend in2="BackgroundImageFix" result="effect1_dropShadow_579_1234"/><feBlend in="SourceGraphic" in2="effect1_dropShadow_579_1234" result="shape"/></filter></defs></svg>