<svg width="110" height="110" fill="none" xmlns="http://www.w3.org/2000/svg"><g filter="url(#filter0_d_587_2120)"><path fill-rule="evenodd" clip-rule="evenodd" d="M35.028 15.156c-1.063.317-1.797.723-2.56 1.414-.76.689-1.584 1.915-1.749 2.604-.058.244-.143.443-.19.443-.045 0-.394-.296-.776-.658-1.535-1.458-3.718-2.046-5.674-1.53-4.66 1.229-6.348 6.894-3.155 10.59.356.412.648.785.648.828 0 .043-.194.128-.43.188-1.147.291-2.701 1.718-3.38 3.101-1.146 2.336-.845 4.955.816 7.076l.763.975-.945.462c-1.182.578-2.293 1.708-2.872 2.922-.415.87-.446 1.069-.446 2.867 0 2.902-.056 2.813 5.246 8.247l4.372 4.48-.693 1.772c-.777 1.986-1.271 4.245-1.427 6.524-.071 1.045-.195 1.684-.39 2.014-.158.265-1.84 2.077-3.736 4.025L15 77.043v1.454l7.038 7.245c6.942 7.145 7.047 7.245 7.666 7.245.61 0 .733-.108 4.267-3.723 2.001-2.047 3.78-3.794 3.952-3.882.172-.088 1.263-.209 2.425-.269 3.843-.199 7.593-.938 10.775-2.124l1.468-.547 1.35.476c1.784.63 4.624 1.377 6.45 1.696 2.892.506 2.511.234 7.573 5.402 2.496 2.547 4.704 4.719 4.906 4.826.908.48.798.58 11.743-10.694L95 73.45l-.09-.687c-.084-.645-.357-.963-4.623-5.37-2.853-2.947-4.655-4.935-4.86-5.36-.18-.371-.508-1.568-.73-2.658-1.039-5.104-1.628-7.106-6.393-21.722-3.904-11.973-3.927-12.028-5.607-13.3-1.234-.936-2.25-1.273-3.794-1.257-.902.009-1.504.113-2.157.374-1.262.505-2.622 1.836-3.277 3.206-.728 1.52-.734 2.592-.052 8.386.307 2.602.557 4.847.557 4.989 0 .14-1.46-1.237-3.246-3.062-1.786-1.824-3.413-3.405-3.615-3.513-1.279-.68-2.715 1.052-1.933 2.33.162.266 2.553 2.75 5.313 5.518 4.73 4.746 5.05 5.034 5.59 5.034.737 0 1.116-.217 1.412-.806.22-.44.173-1.042-.638-8.01-.507-4.36-.85-7.924-.814-8.459.077-1.117.636-1.945 1.69-2.499 1.209-.636 2.364-.387 3.456.743l.721.747 4.003 12.404c4.006 12.41 4.725 14.838 5.508 18.606.23 1.108.525 2.41.654 2.893.495 1.86.843 2.32 5.071 6.694l4.05 4.19-8.825 9.086-8.826 9.086-3.92-3.933c-4.568-4.583-5.072-4.934-7.841-5.48-2.46-.484-4.538-.987-4.538-1.098 0-.054.356-.272.791-.485.435-.212 1.1-.739 1.476-1.17 2.265-2.594 1.264-6.8-1.908-8.022-.701-.27-1.22-.323-3.139-.323h-2.3l5.73-5.92c5.31-5.488 5.749-5.983 5.999-6.78.369-1.175.271-2.752-.234-3.785-.393-.803-1.299-1.762-1.956-2.07-.365-.172-.369-.191-.125-.677.392-.78.45-2.475.12-3.5-.386-1.195-1.71-2.56-2.872-2.957-.991-.338-2.64-.28-3.392.12-.477.254-.478.254-.775-.315-.431-.824-1.544-1.765-2.454-2.077-.977-.334-2.767-.252-3.566.163-.302.157-.992.73-1.535 1.275-.953.956-.995.979-1.216.667-.517-.729-1.424-1.58-2.017-1.89-.796-.42-2.492-.56-3.443-.285l-.705.203-8.255-8.42c-4.54-4.63-8.41-8.675-8.598-8.988-.716-1.19-.596-2.622.309-3.683.566-.664 1.527-1.172 2.224-1.176 1.362-.008 1.417.038 7.589 6.334C46.267 40.3 45.538 39.592 46.197 39.592c.86 0 1.502-.696 1.511-1.639l.007-.697-6.885-7.007c-4.777-4.862-6.96-7.19-7.126-7.606-1.009-2.51 1.23-5.033 3.829-4.315.62.171 1.207.71 5.005 4.595 2.785 2.848 4.456 4.44 4.737 4.512.525.136 1.291-.164 1.607-.627.125-.185.228-.625.228-.978 0-.626-.112-.757-4.342-5.127-3.873-4-4.462-4.547-5.455-5.055-.92-.47-1.327-.58-2.347-.635-.745-.04-1.513.017-1.938.143zM51.356 28.96c-.792.329-1.109 1.662-.56 2.358.647.823 1.522.915 2.259.237 1.316-1.21-.04-3.284-1.699-2.595zM24.49 32.1c.358.154 2.802 2.504 6.732 6.473l6.17 6.231-2.236 2.308-2.238 2.307-6.144-6.323c-6.689-6.884-6.749-6.962-6.553-8.458.267-2.046 2.427-3.33 4.27-2.538zm-1.98 11.632c.678.33 1.64 1.215 4.537 4.172l3.675 3.754-1.727 1.82c-.95 1-1.922 2.067-2.162 2.37l-.435.55-3.915-4.014c-2.493-2.554-4.023-4.248-4.21-4.658-.726-1.594.006-3.49 1.656-4.29.753-.366 1.365-.296 2.582.296zm20.353 2.29c.53.546.61 1.317.2 1.95-.141.22-1.831 2.033-3.755 4.031-2.866 2.977-3.498 3.713-3.498 4.078 0 1.264 1.194 2.081 2.24 1.535.188-.099 2.95-2.853 6.136-6.122 5.684-5.83 5.806-5.942 6.42-5.942.344 0 .772.105.951.235.448.323.74 1.114.611 1.654-.07.296-2.077 2.484-5.946 6.487-3.212 3.323-5.888 6.206-5.947 6.406-.144.492.176 1.431.589 1.729.185.133.618.242.962.242.616 0 .733-.11 7.515-7.07 3.788-3.89 7.042-7.151 7.23-7.25 1.334-.697 2.744.755 2.067 2.128-.096.193-3.264 3.543-7.042 7.444-6.632 6.85-6.867 7.113-6.867 7.703 0 .823.232 1.215.886 1.496.42.18.666.197 1.044.068.331-.112 2.412-2.142 6.284-6.13 6.21-6.395 6.25-6.426 7.253-5.892.599.319.806.7.806 1.486 0 .588-.244.86-7.041 7.87-6.798 7.01-7.041 7.281-7.041 7.87 0 .776.206 1.166.779 1.471.373.199 1.204.243 4.54.243 4.43 0 4.73.052 5.162.882.121.234.22.675.22.98 0 .998-.432 1.349-3.12 2.53-6.006 2.637-9.309 3.481-14.857 3.8-1.96.113-2.463.195-3.051.5-.44.229-1.864 1.55-3.797 3.526l-3.093 3.16-5.509-5.67-5.508-5.672 3.142-3.266c3.624-3.768 3.699-3.897 3.869-6.68.157-2.581.752-4.965 1.742-6.977 1.096-2.228 1.973-3.273 7.807-9.303l5.806-6.001h.677c.54 0 .77.096 1.134.471z" fill="#06FF79"/></g><defs><filter id="filter0_d_587_2120" x="0" y="0" width="110" height="110" filterUnits="userSpaceOnUse" color-interpolation-filters="sRGB"><feFlood flood-opacity="0" result="BackgroundImageFix"/><feColorMatrix in="SourceAlpha" values="0 0 0 0 0 0 0 0 0 0 0 0 0 0 0 0 0 0 127 0" result="hardAlpha"/><feOffset/><feGaussianBlur stdDeviation="7.5"/><feComposite in2="hardAlpha" operator="out"/><feColorMatrix values="0 0 0 0 0.0463889 0 0 0 0 0.695833 0 0 0 0 0.346333 0 0 0 0.8 0"/><feBlend in2="BackgroundImageFix" result="effect1_dropShadow_587_2120"/><feBlend in="SourceGraphic" in2="effect1_dropShadow_587_2120" result="shape"/></filter></defs></svg>