<svg width="130" height="130" fill="none" xmlns="http://www.w3.org/2000/svg"><g filter="url(#filter0_d_585_2027)"><path fill-rule="evenodd" clip-rule="evenodd" d="M51.54 15.213c-9.643 1.228-18.814 5.81-25.374 12.677-7.693 8.053-11.56 18.352-11.134 29.656.234 6.232 1.573 11.348 4.45 17.013 2.163 4.26 4.656 7.606 8.267 11.094 3.435 3.318 7.268 5.937 11.448 7.821 1.87.843 2.19.927 3.551.93 1.377.004 1.556-.044 2.247-.594 1.493-1.189 2.001-3.08 1.26-4.682-.526-1.138-1.277-1.744-3.147-2.542-6.926-2.956-12.89-8.337-16.36-14.765-3.845-7.12-4.814-16.254-2.603-24.54 2.217-8.31 7.374-15.333 14.47-19.709 6.805-4.196 15.902-5.781 23.89-4.163 13.023 2.639 23.147 12.576 25.931 25.453.555 2.563 1.068 3.42 2.457 4.1.914.448 1.24.511 2.1.41 1.291-.154 2.398-.915 3.025-2.084.406-.755.458-1.06.37-2.15-.231-2.844-1.776-7.623-3.736-11.558-2.092-4.199-4.568-7.554-8.146-11.038-6.268-6.102-13.341-9.707-21.86-11.14-2.636-.443-8.352-.54-11.106-.19zm3.334 15.556c-.878.27-2.121 1.562-2.372 2.467-.114.41-.21 1.45-.212 2.31l-.005 1.565-1.413.663c-1.975.927-4.172 3.128-5.124 5.133-3.312 6.98.596 15.117 8.016 16.69.749.159 1.703.29 2.12.292 1.944.009 3.55 1.127 4.017 2.796.762 2.72-1.256 5.216-4.03 4.986-1.392-.115-2.47-.878-3.333-2.357-.938-1.605-1.892-2.195-3.553-2.195-1.54 0-2.49.496-3.3 1.721-.77 1.162-.745 2.945.06 4.44.896 1.665 3.431 4.102 5.102 4.905l1.389.667.082 1.862c.096 2.166.484 3.005 1.792 3.871.66.438 1.009.525 2.09.525 1.082 0 1.432-.088 2.091-.525 1.308-.865 1.696-1.705 1.793-3.87l.083-1.863 1.535-.744c2.707-1.314 4.807-3.896 5.757-7.078.516-1.73.472-4.66-.098-6.55-1.158-3.843-4.114-6.82-7.849-7.903-.585-.17-1.815-.384-2.734-.477-2.02-.203-2.983-.63-3.717-1.643-1.336-1.845-.748-4.635 1.184-5.621 1.146-.585 2.215-.69 3.196-.316.964.368 1.595.991 2.354 2.324.293.516.89 1.172 1.336 1.466.674.447 1.017.534 2.104.534 1.082 0 1.431-.088 2.091-.525 1.22-.808 1.72-1.763 1.72-3.288-.001-1.114-.096-1.44-.765-2.64-1.04-1.863-3.007-3.776-4.749-4.619l-1.367-.661-.08-1.956c-.092-2.248-.465-3.093-1.738-3.936-.838-.555-2.449-.764-3.473-.45zm37.323 30.123c-.925.272-2.126 1.553-2.396 2.557-.484 1.798.31 3.728 1.866 4.542.719.375 1.16.413 5.46.467l4.679.06-5.752 5.758-5.752 5.759H80.237c-6.592.001-10.334.075-10.846.213-.672.182-2.75 2.177-14.812 14.225-7.717 7.708-14.224 14.322-14.46 14.699-.655 1.042-.61 2.983.094 4.048.972 1.47 2.686 2.095 4.46 1.627.801-.211 2.044-1.396 14.267-13.611l13.388-13.38h10.214c8.77 0 10.315-.042 10.94-.302.485-.202 2.872-2.446 7.21-6.778l6.483-6.475.063 4.513.062 4.513.586.83c1.42 2.01 4.251 2.281 5.96.57 1.18-1.18 1.198-1.374 1.133-11.942l-.058-9.5-.524-.792c-.288-.436-.86-1.001-1.27-1.256l-.746-.464-9.771-.035c-5.823-.02-10.03.041-10.413.154zM78.52 93.932c-.907.278-2.128 1.567-2.383 2.516-.14.521-.194 3.326-.157 8.272.051 6.88.085 7.543.425 8.227.469.945 1.338 1.61 2.516 1.925 1.69.452 3.605-.392 4.366-1.925.344-.693.37-1.289.37-8.664v-7.92l-.464-.746c-.922-1.484-2.946-2.213-4.673-1.684zm15.632 0c-.906.278-2.127 1.567-2.382 2.516-.14.521-.194 3.326-.157 8.272.05 6.88.085 7.543.425 8.227.469.945 1.338 1.61 2.516 1.925 1.69.452 3.605-.392 4.366-1.925.344-.693.37-1.289.37-8.664v-7.92l-.464-.746c-.922-1.484-2.947-2.213-4.674-1.684zm15.633 0c-.906.278-2.127 1.567-2.382 2.516-.141.521-.194 3.326-.157 8.272.051 6.88.085 7.543.425 8.227.468.945 1.338 1.61 2.516 1.925 1.69.452 3.605-.392 4.366-1.925.344-.693.369-1.289.369-8.664v-7.92l-.464-.746c-.921-1.484-2.946-2.213-4.673-1.684zm-46.898 11.929c-.929.285-2.127 1.566-2.395 2.56-.313 1.165-.158 3.612.287 4.526.46.942 1.328 1.609 2.51 1.925 1.69.452 3.604-.392 4.365-1.925.289-.58.37-1.174.37-2.7 0-1.718-.056-2.046-.464-2.702-.921-1.483-2.946-2.213-4.673-1.684z" fill="#06FF79"/></g><defs><filter id="filter0_d_585_2027" x="0" y="0" width="130" height="130" filterUnits="userSpaceOnUse" color-interpolation-filters="sRGB"><feFlood flood-opacity="0" result="BackgroundImageFix"/><feColorMatrix in="SourceAlpha" values="0 0 0 0 0 0 0 0 0 0 0 0 0 0 0 0 0 0 127 0" result="hardAlpha"/><feOffset/><feGaussianBlur stdDeviation="7.5"/><feComposite in2="hardAlpha" operator="out"/><feColorMatrix values="0 0 0 0 0.0463889 0 0 0 0 0.695833 0 0 0 0 0.346333 0 0 0 0.8 0"/><feBlend in2="BackgroundImageFix" result="effect1_dropShadow_585_2027"/><feBlend in="SourceGraphic" in2="effect1_dropShadow_585_2027" result="shape"/></filter></defs></svg>