<svg width="130" height="130" fill="none" xmlns="http://www.w3.org/2000/svg"><g filter="url(#filter0_d_579_1233)"><path fill-rule="evenodd" clip-rule="evenodd" d="M60.865 15.065c-3.852.39-7.837 1.376-10.057 2.487-3.75 1.876-6.353 4.9-7.033 8.173-.242 1.167-.293 1.23-1.287 1.61-1.327.506-2.79 1.97-3.3 3.303-.468 1.227-.388 3.678.155 4.714l.337.643-1.499 1.413c-.874.825-1.79 1.96-2.198 2.725-.786 1.473-1.503 4.2-1.735 6.593-.117 1.203-.306 1.819-.764 2.492-1.044 1.53-2.224 4.07-2.568 5.527-.472 2.002-.414 4.066.236 8.47.63 4.268.597 6.478-.12 8.137-.543 1.254-1.116 1.735-3.584 3.005-3.739 1.923-6.112 4.241-7.814 7.632-1.248 2.485-1.654 4.557-1.518 7.746.09 2.129.237 2.968.818 4.69l.707 2.098-.911 2.124c-1.768 4.117-4.003 12.831-3.703 14.431.185.986 1.009 1.709 2.115 1.857.814.109.987.043 1.654-.632.67-.679.805-1.049 1.344-3.68 1.496-7.292 3.76-12.97 6.353-15.932 2.075-2.37 6.942-4.485 12.357-5.369.799-.13 2.993-.342 4.877-.47l3.423-.233 1.224.812c1.593 1.057 3.54 1.93 5.898 2.643 2.002.605 5.391 1.257 6.567 1.262.383.002.923.064 1.2.138l.503.135v9.586c0 10.532.03 10.792 1.312 11.455.855.442 1.437.442 2.292 0 1.283-.663 1.313-.923 1.313-11.455v-9.586l.503-.135c.276-.074.816-.136 1.2-.138 1.175-.005 4.564-.657 6.566-1.262 2.358-.714 4.305-1.586 5.898-2.643l1.224-.812 3.424.233c5.182.353 8.182.944 11.543 2.274 2.541 1.006 4.029 1.921 5.403 3.323 2.671 2.725 5.02 8.396 6.586 15.903.721 3.455.877 3.834 1.776 4.318a2.314 2.314 0 003.397-1.704c.262-1.666-1.972-10.273-3.726-14.36l-.916-2.136.475-1.272c1.685-4.5 1.474-9.598-.557-13.461-1.712-3.256-4.073-5.515-7.724-7.389-3.3-1.694-3.82-2.413-4.12-5.697-.105-1.145.01-2.6.433-5.435.651-4.375.707-6.198.255-8.328-.319-1.504-1.481-4.056-2.582-5.67-.459-.673-.648-1.289-.764-2.492-.232-2.394-.95-5.12-1.735-6.593-.408-.765-1.324-1.9-2.199-2.725l-1.499-1.413.337-.643c.543-1.036.624-3.487.155-4.714-.51-1.332-1.972-2.797-3.3-3.304-.993-.379-1.044-.442-1.287-1.609-.138-.668-.542-1.766-.897-2.44-2.157-4.099-6.515-6.712-13.025-7.811-1.969-.333-9.526-.603-11.438-.409zm10.832 5.134c5.068.87 8.363 2.793 9.519 5.558.178.426.324.828.324.893 0 .066-7.443.119-16.54.119-9.096 0-16.54-.053-16.54-.119 0-.065.146-.467.325-.893 1.354-3.24 5.615-5.305 12.192-5.909 2.73-.25 8.273-.07 10.72.35zm14.409 11.835c.193.193.35.538.35.766 0 .228-.157.573-.35.766-.314.314-2.536.35-21.106.35s-20.791-.036-21.105-.35c-.193-.193-.351-.538-.351-.766 0-.228.158-.573.35-.766.315-.314 2.537-.35 21.106-.35 18.57 0 20.791.036 21.106.35zm.69 7.386c1.423.94 2.564 2.122 3.144 3.257.874 1.706.794 1.772-1.304 1.053-4.063-1.39-9.328-2.114-17.88-2.454-12.149-.484-23.606.473-29.392 2.454-2.006.688-2.085.649-1.503-.744.447-1.07 1.728-2.467 3.118-3.403l1.117-.752h41.81l.89.588zm-7.827 7.095c1.476.191 2.708.35 2.738.352.031.003.056 2.322.056 5.153v5.147l-1.15 1.705c-2.212 3.274-5.267 5.686-7.611 6.007-.881.12-1.127.042-2.37-.76-1.7-1.1-3.156-1.482-5.632-1.482-2.476 0-3.931.382-5.632 1.481-1.243.803-1.488.882-2.37.761-2.344-.321-5.399-2.733-7.61-6.007l-1.15-1.705V46.922l.726-.13c.728-.13 4.666-.525 6.76-.678.615-.045 5.493-.051 10.84-.014 7.168.05 10.429.159 12.405.415zM43.547 57.091c.005 10.327.088 11.071 1.568 14.073 1.034 2.096 3.054 4.72 4.683 6.083l1.105.925-1.908 2.862-1.908 2.862-2.722.155c-4.997.285-9.194 1.026-12.855 2.27-2.482.845-5.868 2.667-7.264 3.911l-1.211 1.079-.139-.692c-.415-2.074.064-4.718 1.265-6.981 1.077-2.029 2.796-3.607 5.589-5.131 3.16-1.724 3.962-2.327 4.82-3.622 1.835-2.768 2.175-6.193 1.261-12.704-.54-3.845-.589-4.617-.37-5.796.512-2.748 2.48-5.68 4.678-6.967.982-.576 2.85-1.394 3.237-1.418.092-.006.17 4.085.171 9.091zm45.516-8.08c2.728 1.312 4.89 4.223 5.476 7.374.22 1.179.17 1.95-.37 5.796-.913 6.511-.573 9.936 1.261 12.704.842 1.27 1.817 2.014 4.465 3.41 1.071.564 2.494 1.454 3.161 1.977 2.868 2.25 4.615 6.529 4.09 10.022l-.155 1.039-1.224-1.09c-1.407-1.253-4.787-3.075-7.277-3.921-3.661-1.245-7.857-1.986-12.855-2.27l-2.722-.156-1.873-2.82-1.873-2.82 1.702-1.676c1.885-1.855 3.278-3.779 4.27-5.899 1.212-2.587 1.31-3.602 1.314-13.605l.004-9.117.503.141c.277.078 1.223.487 2.103.91zM51.938 67.98c1.953 1.177 4.007 1.74 5.982 1.641 1.456-.073 1.794-.185 3.284-1.085 1.66-1.003 1.662-1.003 3.796-1.003s2.136 0 3.796 1.003c1.49.9 1.829 1.012 3.284 1.085 2.773.14 5.66-1.034 8.494-3.453l1.184-1.01-.127.74c-.48 2.783-1.68 4.929-4.04 7.231-3.282 3.2-8.32 5.765-11.906 6.062-3.605.298-9.526-2.406-13.276-6.062-2.394-2.335-3.467-4.247-4.071-7.255l-.154-.766 1.213 1.035c.667.57 1.81 1.396 2.541 1.836zm5.656 14.175c5.357 2.357 9.455 2.357 14.812 0 1.151-.507 2.26-.973 2.465-1.036.277-.085.784.499 1.974 2.271.88 1.313 1.568 2.415 1.528 2.451-.334.294-2.192 1.066-3.732 1.55-3.106.979-5.587 1.318-9.64 1.318-4.055 0-6.535-.34-9.642-1.318-1.54-.484-3.397-1.256-3.731-1.55-.04-.035.647-1.138 1.528-2.45 1.19-1.773 1.697-2.357 1.973-2.272.205.063 1.314.53 2.465 1.036zm-22.517 21.37c-.96.671-1.144 1.568-1.144 5.555 0 2.692.086 3.907.318 4.46.328.785 1.316 1.459 2.14 1.459.825 0 1.813-.674 2.141-1.459.445-1.063.45-7.847.006-8.906-.401-.96-1.149-1.474-2.147-1.474-.436 0-1.028.164-1.314.365zm57.217 0c-.959.671-1.144 1.568-1.144 5.555 0 2.692.087 3.907.318 4.46.329.785 1.317 1.459 2.141 1.459.824 0 1.813-.674 2.141-1.459.444-1.063.449-7.847.006-8.906-.402-.96-1.15-1.474-2.147-1.474-.437 0-1.029.164-1.315.365z" fill="#06FF79"/></g><defs><filter id="filter0_d_579_1233" x="0" y="0" width="130" height="130" filterUnits="userSpaceOnUse" color-interpolation-filters="sRGB"><feFlood flood-opacity="0" result="BackgroundImageFix"/><feColorMatrix in="SourceAlpha" values="0 0 0 0 0 0 0 0 0 0 0 0 0 0 0 0 0 0 127 0" result="hardAlpha"/><feOffset/><feGaussianBlur stdDeviation="7.5"/><feComposite in2="hardAlpha" operator="out"/><feColorMatrix values="0 0 0 0 0.0463889 0 0 0 0 0.695833 0 0 0 0 0.346333 0 0 0 0.8 0"/><feBlend in2="BackgroundImageFix" result="effect1_dropShadow_579_1233"/><feBlend in="SourceGraphic" in2="effect1_dropShadow_579_1233" result="shape"/></filter></defs></svg>