<svg width="110" height="94" fill="none" xmlns="http://www.w3.org/2000/svg"><g filter="url(#filter0_d_587_2117)"><path fill-rule="evenodd" clip-rule="evenodd" d="M52.406 15.047a48.88 48.88 0 00-1.953.292c-1.388.234-31.531 9.212-32.695 9.739-1.157.522-1.93 1.2-2.366 2.076-.737 1.479-.434 2.824.898 3.997.967.851 1.928 1.231 6.66 2.635 2.192.65 4.666 1.39 5.499 1.646l1.514.464.055 6.285c.062 7.013.058 6.987 1.18 8.47 3.212 4.247 13.61 6.927 25.583 6.593 10.04-.28 17.892-2.42 21.262-5.797 1.048-1.05 1.546-1.943 1.785-3.202.09-.47.159-3.35.159-6.587v-5.75l1.367-.412a10534.465 10534.465 0 013.672-1.107c.258-.08.273.463.273 9.903v9.988l-.66.297c-1.883.848-3.419 2.582-4.026 4.548-.292.946-.314 1.446-.312 7.134.001 4.609.053 6.31.21 6.898.976 3.644 4.626 6.041 8.25 5.42 2.981-.512 5.314-2.66 5.986-5.512.297-1.261.35-11.96.065-13.3-.424-1.994-2.001-4.057-3.824-4.999l-1.001-.517.04-10.672.039-10.672 1.015-.358c2.023-.712 3.16-1.577 3.665-2.787.758-1.822-.419-3.837-2.805-4.803-1.485-.6-31.028-9.383-32.389-9.628-1.325-.239-5.885-.418-7.146-.282zm6.407 4.909c.515.097 6.563 1.863 13.438 3.922 15.296 4.582 15.593 4.673 15.516 4.75-.078.079-26.752 8.088-28.03 8.417-1.634.42-4.517.594-6.715.405-2.291-.197-1.368.056-18.48-5.082-6.971-2.093-12.305-3.771-12.189-3.834.114-.062 6.435-1.98 14.048-4.262 12.524-3.753 14.574-4.321 16.396-4.541.943-.115 5.035.038 6.016.224zM42.249 39.567c3.867 1.162 7.7 2.225 8.516 2.363 2.01.338 6.437.336 8.467-.004.832-.14 4.682-1.203 8.555-2.364 3.874-1.161 7.148-2.111 7.277-2.111.204 0 .235.655.235 4.965 0 4.452-.028 5.006-.27 5.352-1.404 2.003-6.732 3.764-13.794 4.557-2.691.303-10.468.258-13.157-.076-4.463-.554-8.234-1.504-10.65-2.685-1.456-.71-2.006-1.109-2.488-1.797-.242-.345-.27-.9-.27-5.35 0-4.626.019-4.966.273-4.964.15 0 3.438.952 7.306 2.114zm46.225 19.206c.779.278 1.18.648 1.532 1.414.261.569.287 1.124.29 6.123.003 3.514-.056 5.657-.162 5.939-.37.979-1.492 1.768-2.514 1.768-.83 0-1.81-.576-2.245-1.318l-.388-.663v-5.737c0-6.167 0-6.171.83-6.945.388-.363 1.38-.794 1.827-.794.128 0 .502.096.83.213z" fill="#06FF79"/></g><defs><filter id="filter0_d_587_2117" x="0" y="0" width="110" height="93.674" filterUnits="userSpaceOnUse" color-interpolation-filters="sRGB"><feFlood flood-opacity="0" result="BackgroundImageFix"/><feColorMatrix in="SourceAlpha" values="0 0 0 0 0 0 0 0 0 0 0 0 0 0 0 0 0 0 127 0" result="hardAlpha"/><feOffset/><feGaussianBlur stdDeviation="7.5"/><feComposite in2="hardAlpha" operator="out"/><feColorMatrix values="0 0 0 0 0.0463889 0 0 0 0 0.695833 0 0 0 0 0.346333 0 0 0 0.8 0"/><feBlend in2="BackgroundImageFix" result="effect1_dropShadow_587_2117"/><feBlend in="SourceGraphic" in2="effect1_dropShadow_587_2117" result="shape"/></filter></defs></svg>