<svg width="30" height="30" fill="none" xmlns="http://www.w3.org/2000/svg"><path fill-rule="evenodd" clip-rule="evenodd" d="M13.873.017l-.763.088C8.467.635 4.178 3.543 1.823 7.758.963 9.297.34 11.209.076 13.12c-.101.73-.101 3.022 0 3.753.619 4.468 3.003 8.263 6.726 10.707 4.555 2.99 10.524 3.228 15.344.61.742-.403.903-.532 1.057-.851.375-.774-.247-1.722-1.088-1.656a1.493 1.493 0 00-.469.114c-.096.05-.425.226-.732.39A12.703 12.703 0 0113.78 27.6c-5.012-.496-9.257-3.892-10.815-8.653-.868-2.65-.868-5.253 0-7.901a12.597 12.597 0 018.086-8.072c2.635-.861 5.246-.86 7.89.005 2.867.939 5.239 2.82 6.871 5.451.952 1.535 1.601 3.487 1.79 5.385.267 2.702-.41 5.515-1.91 7.925-.33.53-.347.576-.348.939 0 .457.15.743.516.986.327.216.9.225 1.231.02.352-.22 1.07-1.385 1.623-2.634a14.973 14.973 0 00-4.309-17.742C22.271 1.589 19.898.557 17.1.13c-.585-.09-2.77-.166-3.227-.113zM11.656 8.55c-.271.083-.64.47-.715.751-.043.161-.058 1.965-.047 5.765l.016 5.532.139.223c.077.124.246.295.377.382.198.13.303.157.628.157s.43-.026.628-.157c.13-.087.3-.258.377-.382l.14-.223V9.278l-.14-.224c-.277-.444-.885-.663-1.403-.505zm5.867 0c-.27.083-.639.47-.714.751-.044.161-.058 1.965-.047 5.765l.015 5.532.14.223c.076.124.246.295.377.382.198.13.303.157.628.157.324 0 .43-.026.627-.157.131-.087.3-.258.377-.382l.14-.223V9.278l-.14-.224c-.276-.444-.884-.663-1.403-.505z" fill="#06FF79"/></svg>